<?xml version="1.0" encoding="UTF-8"?>
<svg xmlns="http://www.w3.org/2000/svg" xmlns:xlink="http://www.w3.org/1999/xlink" width="1080pt" height="1080pt" viewBox="0 0 1080 1080" version="1.1">
<defs>
<g>
<symbol overflow="visible" id="glyph0-0">
<path style="stroke:none;" d="M 3.390625 -25.703125 L 18.171875 -25.703125 L 18.171875 0 L 3.390625 0 Z M 5.21875 -1.828125 L 16.34375 -1.828125 L 16.34375 -23.875 L 5.21875 -23.875 Z M 5.21875 -1.828125 "/>
</symbol>
<symbol overflow="visible" id="glyph0-1">
<path style="stroke:none;" d="M 11.984375 0 L 10.265625 0 L 10.265625 -18.71875 C 10.265625 -20.414063 10.335938 -22.179688 10.484375 -24.015625 C 10.304688 -23.835938 10.125 -23.664063 9.9375 -23.5 C 9.75 -23.332031 7.9375 -21.910156 4.5 -19.234375 L 3.5 -20.484375 L 10.484375 -25.703125 L 11.984375 -25.703125 Z M 11.984375 0 "/>
</symbol>
<symbol overflow="visible" id="glyph0-2">
<path style="stroke:none;" d="M 18.546875 -12.921875 C 18.546875 -8.410156 17.859375 -5.066406 16.484375 -2.890625 C 15.109375 -0.722656 13.023438 0.359375 10.234375 0.359375 C 7.546875 0.359375 5.503906 -0.753906 4.109375 -2.984375 C 2.710938 -5.222656 2.015625 -8.535156 2.015625 -12.921875 C 2.015625 -17.398438 2.691406 -20.71875 4.046875 -22.875 C 5.398438 -25.03125 7.460938 -26.109375 10.234375 -26.109375 C 12.941406 -26.109375 15.003906 -24.988281 16.421875 -22.75 C 17.835938 -20.519531 18.546875 -17.242188 18.546875 -12.921875 Z M 3.921875 -12.921875 C 3.921875 -8.929688 4.441406 -5.984375 5.484375 -4.078125 C 6.523438 -2.179688 8.109375 -1.234375 10.234375 -1.234375 C 12.441406 -1.234375 14.050781 -2.21875 15.0625 -4.1875 C 16.082031 -6.15625 16.59375 -9.066406 16.59375 -12.921875 C 16.59375 -16.710938 16.082031 -19.59375 15.0625 -21.5625 C 14.050781 -23.53125 12.441406 -24.515625 10.234375 -24.515625 C 8.015625 -24.515625 6.40625 -23.53125 5.40625 -21.5625 C 4.414063 -19.59375 3.921875 -16.710938 3.921875 -12.921875 Z M 3.921875 -12.921875 "/>
</symbol>
<symbol overflow="visible" id="glyph0-3">
<path style="stroke:none;" d="M 3.703125 -18.03125 C 3.703125 -15.851563 3.96875 -14.21875 4.5 -13.125 C 5.03125 -12.03125 5.859375 -11.484375 6.984375 -11.484375 C 9.242188 -11.484375 10.375 -13.664063 10.375 -18.03125 C 10.375 -20.1875 10.082031 -21.804688 9.5 -22.890625 C 8.914063 -23.972656 8.078125 -24.515625 6.984375 -24.515625 C 5.859375 -24.515625 5.03125 -23.972656 4.5 -22.890625 C 3.96875 -21.804688 3.703125 -20.1875 3.703125 -18.03125 Z M 12.09375 -18.03125 C 12.09375 -15.382813 11.648438 -13.375 10.765625 -12 C 9.890625 -10.625 8.628906 -9.9375 6.984375 -9.9375 C 5.421875 -9.9375 4.195313 -10.640625 3.3125 -12.046875 C 2.425781 -13.460938 1.984375 -15.457031 1.984375 -18.03125 C 1.984375 -20.644531 2.40625 -22.632813 3.25 -24 C 4.09375 -25.375 5.335938 -26.0625 6.984375 -26.0625 C 8.609375 -26.0625 9.863281 -25.351563 10.75 -23.9375 C 11.644531 -22.53125 12.09375 -20.5625 12.09375 -18.03125 Z M 18.6875 -7.703125 C 18.6875 -5.535156 18.945313 -3.910156 19.46875 -2.828125 C 20 -1.742188 20.828125 -1.203125 21.953125 -1.203125 C 24.210938 -1.203125 25.34375 -3.367188 25.34375 -7.703125 C 25.34375 -12.023438 24.210938 -14.1875 21.953125 -14.1875 C 20.828125 -14.1875 20 -13.648438 19.46875 -12.578125 C 18.945313 -11.503906 18.6875 -9.878906 18.6875 -7.703125 Z M 27.078125 -7.703125 C 27.078125 -5.054688 26.640625 -3.039063 25.765625 -1.65625 C 24.898438 -0.28125 23.640625 0.40625 21.984375 0.40625 C 20.390625 0.40625 19.15625 -0.304688 18.28125 -1.734375 C 17.40625 -3.160156 16.96875 -5.148438 16.96875 -7.703125 C 16.96875 -10.335938 17.394531 -12.332031 18.25 -13.6875 C 19.113281 -15.050781 20.359375 -15.734375 21.984375 -15.734375 C 23.597656 -15.734375 24.847656 -15.03125 25.734375 -13.625 C 26.628906 -12.21875 27.078125 -10.242188 27.078125 -7.703125 Z M 22.5 -25.703125 L 8.25 0 L 6.5625 0 L 20.8125 -25.703125 Z M 22.5 -25.703125 "/>
</symbol>
<symbol overflow="visible" id="glyph1-0">
<path style="stroke:none;" d="M 5.1875 -39.265625 L 27.765625 -39.265625 L 27.765625 0 L 5.1875 0 Z M 7.96875 -2.796875 L 24.96875 -2.796875 L 24.96875 -36.46875 L 7.96875 -36.46875 Z M 7.96875 -2.796875 "/>
</symbol>
<symbol overflow="visible" id="glyph1-1">
<path style="stroke:none;" d="M 15.625 -39.9375 C 18.957031 -39.9375 21.640625 -39.082031 23.671875 -37.375 C 25.703125 -35.675781 26.71875 -33.378906 26.71875 -30.484375 C 26.71875 -28.472656 26.085938 -26.695313 24.828125 -25.15625 C 23.566406 -23.625 21.519531 -22.203125 18.6875 -20.890625 C 22.125 -19.472656 24.539063 -17.921875 25.9375 -16.234375 C 27.332031 -14.554688 28.03125 -12.519531 28.03125 -10.125 C 28.03125 -6.882813 26.898438 -4.296875 24.640625 -2.359375 C 22.378906 -0.429688 19.335938 0.53125 15.515625 0.53125 C 11.566406 0.53125 8.535156 -0.367188 6.421875 -2.171875 C 4.304688 -3.984375 3.25 -6.617188 3.25 -10.078125 C 3.25 -12.421875 3.988281 -14.476563 5.46875 -16.25 C 6.957031 -18.019531 9.257813 -19.53125 12.375 -20.78125 C 9.5 -22.144531 7.46875 -23.582031 6.28125 -25.09375 C 5.101563 -26.601563 4.515625 -28.414063 4.515625 -30.53125 C 4.515625 -32.414063 4.988281 -34.066406 5.9375 -35.484375 C 6.882813 -36.910156 8.210938 -38.007813 9.921875 -38.78125 C 11.628906 -39.550781 13.53125 -39.9375 15.625 -39.9375 Z M 5.984375 -9.671875 C 5.984375 -7.203125 6.820313 -5.285156 8.5 -3.921875 C 10.175781 -2.554688 12.515625 -1.875 15.515625 -1.875 C 18.453125 -1.875 20.816406 -2.59375 22.609375 -4.03125 C 24.398438 -5.476563 25.296875 -7.4375 25.296875 -9.90625 C 25.296875 -12.125 24.59375 -13.925781 23.1875 -15.3125 C 21.78125 -16.707031 19.070313 -18.164063 15.0625 -19.6875 C 11.769531 -18.414063 9.429688 -17.007813 8.046875 -15.46875 C 6.671875 -13.925781 5.984375 -11.992188 5.984375 -9.671875 Z M 15.578125 -37.515625 C 13.054688 -37.515625 11.03125 -36.890625 9.5 -35.640625 C 7.96875 -34.398438 7.203125 -32.695313 7.203125 -30.53125 C 7.203125 -29.28125 7.484375 -28.175781 8.046875 -27.21875 C 8.609375 -26.257813 9.421875 -25.390625 10.484375 -24.609375 C 11.546875 -23.828125 13.332031 -22.921875 15.84375 -21.890625 C 18.757813 -23.015625 20.851563 -24.253906 22.125 -25.609375 C 23.394531 -26.972656 24.03125 -28.613281 24.03125 -30.53125 C 24.03125 -32.675781 23.273438 -34.375 21.765625 -35.625 C 20.253906 -36.882813 18.191406 -37.515625 15.578125 -37.515625 Z M 15.578125 -37.515625 "/>
</symbol>
<symbol overflow="visible" id="glyph1-2">
<path style="stroke:none;" d="M 3.515625 -16.734375 C 3.515625 -21.835938 4.207031 -26.128906 5.59375 -29.609375 C 6.988281 -33.085938 8.957031 -35.664063 11.5 -37.34375 C 14.050781 -39.03125 17.128906 -39.875 20.734375 -39.875 C 22.410156 -39.875 23.953125 -39.671875 25.359375 -39.265625 L 25.359375 -36.90625 C 24.046875 -37.382813 22.46875 -37.625 20.625 -37.625 C 16.195313 -37.625 12.753906 -36.03125 10.296875 -32.84375 C 7.835938 -29.65625 6.457031 -25.019531 6.15625 -18.9375 L 6.5 -18.9375 C 7.863281 -20.6875 9.421875 -22.007813 11.171875 -22.90625 C 12.921875 -23.800781 14.773438 -24.25 16.734375 -24.25 C 20.398438 -24.25 23.265625 -23.203125 25.328125 -21.109375 C 27.398438 -19.015625 28.4375 -16.125 28.4375 -12.4375 C 28.4375 -8.425781 27.347656 -5.257813 25.171875 -2.9375 C 23.003906 -0.625 20.070313 0.53125 16.375 0.53125 C 12.40625 0.53125 9.269531 -0.984375 6.96875 -4.015625 C 4.664063 -7.046875 3.515625 -11.285156 3.515625 -16.734375 Z M 16.375 -1.828125 C 19.3125 -1.828125 21.59375 -2.75 23.21875 -4.59375 C 24.851563 -6.4375 25.671875 -9.066406 25.671875 -12.484375 C 25.671875 -15.492188 24.863281 -17.835938 23.25 -19.515625 C 21.644531 -21.203125 19.453125 -22.046875 16.671875 -22.046875 C 14.847656 -22.046875 13.148438 -21.640625 11.578125 -20.828125 C 10.015625 -20.023438 8.769531 -18.957031 7.84375 -17.625 C 6.914063 -16.289063 6.453125 -14.925781 6.453125 -13.53125 C 6.453125 -11.539063 6.894531 -9.628906 7.78125 -7.796875 C 8.664063 -5.960938 9.863281 -4.507813 11.375 -3.4375 C 12.882813 -2.363281 14.550781 -1.828125 16.375 -1.828125 Z M 16.375 -1.828125 "/>
</symbol>
<symbol overflow="visible" id="glyph1-3">
<path style="stroke:none;" d="M 5.671875 -27.546875 C 5.671875 -24.222656 6.070313 -21.722656 6.875 -20.046875 C 7.675781 -18.367188 8.9375 -17.53125 10.65625 -17.53125 C 14.113281 -17.53125 15.84375 -20.867188 15.84375 -27.546875 C 15.84375 -30.847656 15.398438 -33.328125 14.515625 -34.984375 C 13.628906 -36.640625 12.34375 -37.46875 10.65625 -37.46875 C 8.9375 -37.46875 7.675781 -36.640625 6.875 -34.984375 C 6.070313 -33.328125 5.671875 -30.847656 5.671875 -27.546875 Z M 18.484375 -27.546875 C 18.484375 -23.503906 17.8125 -20.429688 16.46875 -18.328125 C 15.125 -16.222656 13.1875 -15.171875 10.65625 -15.171875 C 8.28125 -15.171875 6.414063 -16.25 5.0625 -18.40625 C 3.707031 -20.5625 3.03125 -23.609375 3.03125 -27.546875 C 3.03125 -31.546875 3.675781 -34.59375 4.96875 -36.6875 C 6.257813 -38.78125 8.15625 -39.828125 10.65625 -39.828125 C 13.144531 -39.828125 15.070313 -38.75 16.4375 -36.59375 C 17.800781 -34.4375 18.484375 -31.421875 18.484375 -27.546875 Z M 28.546875 -11.765625 C 28.546875 -8.453125 28.945313 -5.96875 29.75 -4.3125 C 30.5625 -2.65625 31.828125 -1.828125 33.546875 -1.828125 C 36.992188 -1.828125 38.71875 -5.140625 38.71875 -11.765625 C 38.71875 -18.367188 36.992188 -21.671875 33.546875 -21.671875 C 31.828125 -21.671875 30.5625 -20.851563 29.75 -19.21875 C 28.945313 -17.582031 28.546875 -15.097656 28.546875 -11.765625 Z M 41.359375 -11.765625 C 41.359375 -7.710938 40.695313 -4.632813 39.375 -2.53125 C 38.050781 -0.425781 36.125 0.625 33.59375 0.625 C 31.15625 0.625 29.265625 -0.460938 27.921875 -2.640625 C 26.585938 -4.816406 25.921875 -7.859375 25.921875 -11.765625 C 25.921875 -15.796875 26.578125 -18.847656 27.890625 -20.921875 C 29.203125 -22.992188 31.101563 -24.03125 33.59375 -24.03125 C 36.050781 -24.03125 37.957031 -22.957031 39.3125 -20.8125 C 40.675781 -18.664063 41.359375 -15.648438 41.359375 -11.765625 Z M 34.375 -39.265625 L 12.59375 0 L 10.015625 0 L 31.796875 -39.265625 Z M 34.375 -39.265625 "/>
</symbol>
<symbol overflow="visible" id="glyph2-0">
<path style="stroke:none;" d="M 6.40625 -48.546875 L 34.328125 -48.546875 L 34.328125 0 L 6.40625 0 Z M 9.859375 -3.453125 L 30.875 -3.453125 L 30.875 -45.09375 L 9.859375 -45.09375 Z M 9.859375 -3.453125 "/>
</symbol>
<symbol overflow="visible" id="glyph2-1">
<path style="stroke:none;" d="M 11.09375 0 L 31.078125 -45.359375 L 3.625 -45.359375 L 3.625 -48.546875 L 35.03125 -48.546875 L 35.03125 -46.125 L 14.96875 0 Z M 11.09375 0 "/>
</symbol>
<symbol overflow="visible" id="glyph2-2">
<path style="stroke:none;" d="M 32.5 -37.125 C 32.5 -34.113281 31.550781 -31.578125 29.65625 -29.515625 C 27.769531 -27.460938 25.234375 -26.144531 22.046875 -25.5625 L 22.046875 -25.375 C 25.941406 -24.882813 28.90625 -23.640625 30.9375 -21.640625 C 32.976563 -19.648438 34 -16.972656 34 -13.609375 C 34 -9.078125 32.453125 -5.5625 29.359375 -3.0625 C 26.273438 -0.570313 21.832031 0.671875 16.03125 0.671875 C 11.101563 0.671875 6.800781 -0.25 3.125 -2.09375 L 3.125 -5.375 C 4.976563 -4.40625 7.0625 -3.644531 9.375 -3.09375 C 11.6875 -2.539063 13.863281 -2.265625 15.90625 -2.265625 C 20.800781 -2.265625 24.472656 -3.253906 26.921875 -5.234375 C 29.378906 -7.210938 30.609375 -10.003906 30.609375 -13.609375 C 30.609375 -16.816406 29.351563 -19.285156 26.84375 -21.015625 C 24.332031 -22.742188 20.640625 -23.609375 15.765625 -23.609375 L 10.53125 -23.609375 L 10.53125 -26.796875 L 15.84375 -26.796875 C 19.863281 -26.796875 23.050781 -27.753906 25.40625 -29.671875 C 27.769531 -31.585938 28.953125 -34.179688 28.953125 -37.453125 C 28.953125 -40.148438 27.992188 -42.3125 26.078125 -43.9375 C 24.160156 -45.570313 21.65625 -46.390625 18.5625 -46.390625 C 16.144531 -46.390625 13.941406 -46.050781 11.953125 -45.375 C 9.960938 -44.695313 7.726563 -43.539063 5.25 -41.90625 L 3.625 -44.125 C 5.5 -45.695313 7.765625 -46.941406 10.421875 -47.859375 C 13.078125 -48.773438 15.769531 -49.234375 18.5 -49.234375 C 22.96875 -49.234375 26.414063 -48.175781 28.84375 -46.0625 C 31.28125 -43.957031 32.5 -40.976563 32.5 -37.125 Z M 32.5 -37.125 "/>
</symbol>
<symbol overflow="visible" id="glyph2-3">
<path style="stroke:none;" d="M 7 -34.0625 C 7 -29.945313 7.5 -26.851563 8.5 -24.78125 C 9.5 -22.71875 11.0625 -21.6875 13.1875 -21.6875 C 17.457031 -21.6875 19.59375 -25.8125 19.59375 -34.0625 C 19.59375 -38.132813 19.039063 -41.191406 17.9375 -43.234375 C 16.84375 -45.285156 15.257813 -46.3125 13.1875 -46.3125 C 11.0625 -46.3125 9.5 -45.285156 8.5 -43.234375 C 7.5 -41.191406 7 -38.132813 7 -34.0625 Z M 22.84375 -34.0625 C 22.84375 -29.0625 22.007813 -25.257813 20.34375 -22.65625 C 18.6875 -20.0625 16.300781 -18.765625 13.1875 -18.765625 C 10.238281 -18.765625 7.925781 -20.097656 6.25 -22.765625 C 4.582031 -25.429688 3.75 -29.195313 3.75 -34.0625 C 3.75 -39 4.546875 -42.757813 6.140625 -45.34375 C 7.734375 -47.9375 10.082031 -49.234375 13.1875 -49.234375 C 16.257813 -49.234375 18.632813 -47.898438 20.3125 -45.234375 C 22 -42.566406 22.84375 -38.84375 22.84375 -34.0625 Z M 35.296875 -14.546875 C 35.296875 -10.453125 35.789063 -7.378906 36.78125 -5.328125 C 37.78125 -3.285156 39.34375 -2.265625 41.46875 -2.265625 C 45.738281 -2.265625 47.875 -6.359375 47.875 -14.546875 C 47.875 -22.710938 45.738281 -26.796875 41.46875 -26.796875 C 39.34375 -26.796875 37.78125 -25.78125 36.78125 -23.75 C 35.789063 -21.726563 35.296875 -18.660156 35.296875 -14.546875 Z M 51.140625 -14.546875 C 51.140625 -9.546875 50.316406 -5.742188 48.671875 -3.140625 C 47.035156 -0.535156 44.65625 0.765625 41.53125 0.765625 C 38.519531 0.765625 36.1875 -0.578125 34.53125 -3.265625 C 32.875 -5.960938 32.046875 -9.722656 32.046875 -14.546875 C 32.046875 -19.523438 32.859375 -23.296875 34.484375 -25.859375 C 36.109375 -28.429688 38.457031 -29.71875 41.53125 -29.71875 C 44.570313 -29.71875 46.929688 -28.390625 48.609375 -25.734375 C 50.296875 -23.078125 51.140625 -19.347656 51.140625 -14.546875 Z M 42.5 -48.546875 L 15.578125 0 L 12.390625 0 L 39.3125 -48.546875 Z M 42.5 -48.546875 "/>
</symbol>
<symbol overflow="visible" id="glyph3-0">
<path style="stroke:none;" d="M 7.640625 -57.828125 L 40.890625 -57.828125 L 40.890625 0 L 7.640625 0 Z M 11.75 -4.109375 L 36.78125 -4.109375 L 36.78125 -53.703125 L 11.75 -53.703125 Z M 11.75 -4.109375 "/>
</symbol>
<symbol overflow="visible" id="glyph3-1">
<path style="stroke:none;" d="M 38.71875 -44.21875 C 38.71875 -40.632813 37.585938 -37.613281 35.328125 -35.15625 C 33.078125 -32.707031 30.054688 -31.140625 26.265625 -30.453125 L 26.265625 -30.21875 C 30.898438 -29.632813 34.429688 -28.15625 36.859375 -25.78125 C 39.285156 -23.414063 40.5 -20.226563 40.5 -16.21875 C 40.5 -10.8125 38.660156 -6.625 34.984375 -3.65625 C 31.304688 -0.6875 26.015625 0.796875 19.109375 0.796875 C 13.222656 0.796875 8.09375 -0.296875 3.71875 -2.484375 L 3.71875 -6.40625 C 5.9375 -5.25 8.421875 -4.335938 11.171875 -3.671875 C 13.929688 -3.015625 16.519531 -2.6875 18.9375 -2.6875 C 24.769531 -2.6875 29.148438 -3.863281 32.078125 -6.21875 C 35.003906 -8.582031 36.46875 -11.914063 36.46875 -16.21875 C 36.46875 -20.039063 34.96875 -22.976563 31.96875 -25.03125 C 28.976563 -27.09375 24.582031 -28.125 18.78125 -28.125 L 12.53125 -28.125 L 12.53125 -31.921875 L 18.859375 -31.921875 C 23.660156 -31.921875 27.460938 -33.0625 30.265625 -35.34375 C 33.078125 -37.625 34.484375 -40.710938 34.484375 -44.609375 C 34.484375 -47.828125 33.34375 -50.40625 31.0625 -52.34375 C 28.78125 -54.28125 25.796875 -55.25 22.109375 -55.25 C 19.234375 -55.25 16.609375 -54.847656 14.234375 -54.046875 C 11.859375 -53.242188 9.195313 -51.863281 6.25 -49.90625 L 4.3125 -52.5625 C 6.550781 -54.4375 9.253906 -55.921875 12.421875 -57.015625 C 15.585938 -58.109375 18.789063 -58.65625 22.03125 -58.65625 C 27.351563 -58.65625 31.460938 -57.394531 34.359375 -54.875 C 37.265625 -52.351563 38.71875 -48.800781 38.71875 -44.21875 Z M 38.71875 -44.21875 "/>
</symbol>
<symbol overflow="visible" id="glyph3-2">
<path style="stroke:none;" d="M 45.125 -14.75 L 35.15625 -14.75 L 35.15625 0 L 31.4375 0 L 31.4375 -14.75 L 1.703125 -14.75 L 1.703125 -17.40625 L 30.375 -58.140625 L 35.15625 -58.140625 L 35.15625 -18.15625 L 45.125 -18.15625 Z M 31.4375 -18.15625 L 31.4375 -34.6875 C 31.4375 -42.644531 31.625 -49.328125 32 -54.734375 L 31.6875 -54.734375 C 31.15625 -53.765625 29.53125 -51.285156 26.8125 -47.296875 L 6.40625 -18.15625 Z M 31.4375 -18.15625 "/>
</symbol>
<symbol overflow="visible" id="glyph3-3">
<path style="stroke:none;" d="M 8.34375 -40.578125 C 8.34375 -35.671875 8.9375 -31.984375 10.125 -29.515625 C 11.3125 -27.054688 13.171875 -25.828125 15.703125 -25.828125 C 20.785156 -25.828125 23.328125 -30.742188 23.328125 -40.578125 C 23.328125 -45.429688 22.675781 -49.078125 21.375 -51.515625 C 20.070313 -53.953125 18.179688 -55.171875 15.703125 -55.171875 C 13.171875 -55.171875 11.3125 -53.953125 10.125 -51.515625 C 8.9375 -49.078125 8.34375 -45.429688 8.34375 -40.578125 Z M 27.21875 -40.578125 C 27.21875 -34.617188 26.226563 -30.085938 24.25 -26.984375 C 22.269531 -23.890625 19.421875 -22.34375 15.703125 -22.34375 C 12.191406 -22.34375 9.441406 -23.929688 7.453125 -27.109375 C 5.460938 -30.285156 4.46875 -34.773438 4.46875 -40.578125 C 4.46875 -46.460938 5.414063 -50.945313 7.3125 -54.03125 C 9.21875 -57.113281 12.015625 -58.65625 15.703125 -58.65625 C 19.367188 -58.65625 22.203125 -57.066406 24.203125 -53.890625 C 26.210938 -50.710938 27.21875 -46.273438 27.21875 -40.578125 Z M 42.046875 -17.328125 C 42.046875 -12.441406 42.640625 -8.78125 43.828125 -6.34375 C 45.015625 -3.90625 46.875 -2.6875 49.40625 -2.6875 C 54.488281 -2.6875 57.03125 -7.566406 57.03125 -17.328125 C 57.03125 -27.054688 54.488281 -31.921875 49.40625 -31.921875 C 46.875 -31.921875 45.015625 -30.710938 43.828125 -28.296875 C 42.640625 -25.890625 42.046875 -22.234375 42.046875 -17.328125 Z M 60.90625 -17.328125 C 60.90625 -11.367188 59.929688 -6.835938 57.984375 -3.734375 C 56.035156 -0.640625 53.203125 0.90625 49.484375 0.90625 C 45.890625 0.90625 43.101563 -0.691406 41.125 -3.890625 C 39.15625 -7.097656 38.171875 -11.578125 38.171875 -17.328125 C 38.171875 -23.253906 39.140625 -27.742188 41.078125 -30.796875 C 43.015625 -33.859375 45.816406 -35.390625 49.484375 -35.390625 C 53.085938 -35.390625 55.890625 -33.804688 57.890625 -30.640625 C 59.898438 -27.484375 60.90625 -23.046875 60.90625 -17.328125 Z M 50.625 -57.828125 L 18.546875 0 L 14.75 0 L 46.828125 -57.828125 Z M 50.625 -57.828125 "/>
</symbol>
</g>
<filter id="alpha" filterUnits="objectBoundingBox" x="0%" y="0%" width="100%" height="100%">
  <feColorMatrix type="matrix" in="SourceGraphic" values="0 0 0 0 1 0 0 0 0 1 0 0 0 0 1 0 0 0 1 0"/>
</filter>
<mask id="mask0">
  <g filter="url(#alpha)">
<rect x="0" y="0" width="1080" height="1080" style="fill:rgb(0%,0%,0%);fill-opacity:0.0500031;stroke:none;"/>
  </g>
</mask>
<clipPath id="clip2">
  <path d="M 0.914063 0 L 570.671875 0 L 570.671875 380.757813 L 0.914063 380.757813 Z M 0.914063 0 "/>
</clipPath>
<clipPath id="clip1">
  <rect width="571" height="381"/>
</clipPath>
<g id="surface7" clip-path="url(#clip1)">
<g clip-path="url(#clip2)" clip-rule="nonzero">
<path style=" stroke:none;fill-rule:nonzero;fill:rgb(13.725281%,12.156677%,12.548828%);fill-opacity:1;" d="M 375.269531 380.675781 L 570.671875 48.460938 C 517.230469 19.863281 446.441406 0 381.59375 0 C 171.351563 0 0.914063 170.433594 0.914063 380.675781 C 0.914063 380.703125 0.914063 380.730469 0.914063 380.757813 L 375.328125 380.757813 Z M 375.269531 380.675781 "/>
</g>
</g>
<mask id="mask1">
  <g filter="url(#alpha)">
<rect x="0" y="0" width="1080" height="1080" style="fill:rgb(0%,0%,0%);fill-opacity:0.0500031;stroke:none;"/>
  </g>
</mask>
<clipPath id="clip4">
  <path d="M 0.09375 0.6875 L 326.507813 0.6875 L 326.507813 408.667969 L 0.09375 408.667969 Z M 0.09375 0.6875 "/>
</clipPath>
<clipPath id="clip3">
  <rect width="327" height="409"/>
</clipPath>
<g id="surface10" clip-path="url(#clip3)">
<g clip-path="url(#clip4)" clip-rule="nonzero">
<path style=" stroke:none;fill-rule:nonzero;fill:rgb(13.725281%,12.156677%,12.548828%);fill-opacity:1;" d="M 326.507813 367.84375 L 196.8125 204.773438 L 196.550781 204.675781 L 196.847656 204.476563 L 297.109375 23.109375 C 269.214844 8.785156 237.597656 0.6875 204.082031 0.6875 C 91.421875 0.6875 0.09375 92.015625 0.09375 204.675781 C 0.09375 317.335938 91.421875 408.667969 204.082031 408.667969 C 250.023438 408.667969 292.410156 393.472656 326.507813 367.84375 "/>
</g>
</g>
<mask id="mask2">
  <g filter="url(#alpha)">
<rect x="0" y="0" width="1080" height="1080" style="fill:rgb(0%,0%,0%);fill-opacity:0.0500031;stroke:none;"/>
  </g>
</mask>
<clipPath id="clip6">
  <path d="M 0.148438 0.90625 L 199.6875 0.90625 L 199.6875 200.445313 L 0.148438 200.445313 Z M 0.148438 0.90625 "/>
</clipPath>
<clipPath id="clip5">
  <rect width="200" height="201"/>
</clipPath>
<g id="surface9" clip-path="url(#clip5)">
<g clip-path="url(#clip6)" clip-rule="nonzero">
<path style=" stroke:none;fill-rule:nonzero;fill:rgb(13.725281%,12.156677%,12.548828%);fill-opacity:1;" d="M 99.917969 0.90625 C 155.019531 0.90625 199.6875 45.574219 199.6875 100.675781 C 199.6875 155.777344 155.019531 200.449219 99.917969 200.449219 C 44.816406 200.449219 0.148438 155.777344 0.148438 100.675781 C 0.148438 45.574219 44.816406 0.90625 99.917969 0.90625 "/>
</g>
</g>
</defs>
<g id="surface1">
<path style=" stroke:none;fill-rule:nonzero;fill:rgb(97.647095%,75.294495%,17.254639%);fill-opacity:1;" d="M 533.996094 46.144531 C 262.921875 46.144531 42.382813 266.679688 42.382813 537.757813 C 42.382813 808.832031 262.921875 1029.367188 533.996094 1029.367188 C 805.074219 1029.367188 1025.609375 808.832031 1025.609375 537.757813 C 1025.609375 266.679688 805.074219 46.144531 533.996094 46.144531 M 533.996094 1034.367188 C 466.957031 1034.367188 401.917969 1021.238281 340.691406 995.339844 C 281.554688 970.328125 228.445313 934.519531 182.839844 888.914063 C 137.230469 843.308594 101.425781 790.195313 76.410156 731.0625 C 50.515625 669.835938 37.382813 604.796875 37.382813 537.757813 C 37.382813 470.714844 50.515625 405.679688 76.410156 344.453125 C 101.425781 285.316406 137.230469 232.207031 182.839844 186.597656 C 228.445313 140.992188 281.554688 105.183594 340.691406 80.171875 C 401.917969 54.273438 466.957031 41.144531 533.996094 41.144531 C 601.039063 41.144531 666.074219 54.273438 727.300781 80.171875 C 786.4375 105.183594 839.546875 140.992188 885.15625 186.597656 C 930.761719 232.207031 966.570313 285.316406 991.582031 344.453125 C 1017.476563 405.679688 1030.609375 470.714844 1030.609375 537.757813 C 1030.609375 604.796875 1017.476563 669.835938 991.582031 731.0625 C 966.570313 790.195313 930.761719 843.308594 885.15625 888.914063 C 839.546875 934.519531 786.4375 970.328125 727.300781 995.339844 C 666.074219 1021.238281 601.039063 1034.367188 533.996094 1034.367188 "/>
<path style=" stroke:none;fill-rule:nonzero;fill:rgb(97.647095%,75.294495%,17.254639%);fill-opacity:1;" d="M 37.398438 537.757813 L 533.996094 537.757813 L 869.550781 171.683594 C 781.171875 90.632813 663.367188 41.15625 533.996094 41.15625 C 259.734375 41.15625 37.398438 263.492188 37.398438 537.757813 "/>
<use xlink:href="#surface7" transform="matrix(1,0,0,1,154,157)" mask="url(#mask0)"/>
<path style=" stroke:none;fill-rule:nonzero;fill:rgb(90.196228%,90.588379%,90.98053%);fill-opacity:1;" d="M 161.878906 537.675781 C 161.878906 743.148438 328.449219 909.714844 533.917969 909.714844 C 619.730469 909.714844 698.753906 880.65625 761.695313 831.847656 L 527.734375 537.675781 L 709.195313 209.441406 C 656.964844 181.492188 597.292969 165.640625 533.917969 165.640625 C 328.449219 165.640625 161.878906 332.207031 161.878906 537.675781 "/>
<use xlink:href="#surface10" transform="matrix(1,0,0,1,331,333)" mask="url(#mask1)"/>
<path style=" stroke:none;fill-rule:nonzero;fill:rgb(99.215698%,84.706116%,21.176147%);fill-opacity:1;" d="M 527.589844 537.675781 L 695.046875 424.089844 C 659.464844 373.992188 600.96875 341.304688 534.839844 341.304688 C 426.386719 341.304688 338.46875 429.222656 338.46875 537.675781 C 338.46875 646.132813 426.386719 734.050781 534.839844 734.050781 C 618.980469 734.050781 690.75 681.125 718.707031 606.757813 Z M 527.589844 537.675781 "/>
<use xlink:href="#surface9" transform="matrix(1,0,0,1,434,437)" mask="url(#mask2)"/>
<path style=" stroke:none;fill-rule:nonzero;fill:rgb(31.764221%,28.627014%,34.509277%);fill-opacity:1;" d="M 533.917969 442.878906 C 586.273438 442.878906 628.71875 485.320313 628.71875 537.675781 C 628.71875 590.035156 586.273438 632.476563 533.917969 632.476563 C 481.5625 632.476563 439.117188 590.035156 439.117188 537.675781 C 439.117188 485.320313 481.5625 442.878906 533.917969 442.878906 "/>
<g style="fill:rgb(99.215698%,84.706116%,21.176147%);fill-opacity:1;">
  <use xlink:href="#glyph0-1" x="496.625" y="551.584"/>
  <use xlink:href="#glyph0-2" x="517.214461" y="551.584"/>
  <use xlink:href="#glyph0-2" x="537.803921" y="551.584"/>
  <use xlink:href="#glyph0-3" x="558.393382" y="551.584"/>
</g>
<g style="fill:rgb(31.764221%,28.627014%,34.509277%);fill-opacity:1;">
  <use xlink:href="#glyph1-1" x="482.7129" y="698.2725"/>
  <use xlink:href="#glyph1-2" x="513.987883" y="698.2725"/>
  <use xlink:href="#glyph1-3" x="545.262867" y="698.2725"/>
</g>
<g style="fill:rgb(31.764221%,28.627014%,34.509277%);fill-opacity:1;">
  <use xlink:href="#glyph2-1" x="473.4761" y="830.3154"/>
  <use xlink:href="#glyph2-2" x="512.303015" y="830.3154"/>
  <use xlink:href="#glyph2-3" x="551.12993" y="830.3154"/>
</g>
<g style="fill:rgb(31.764221%,28.627014%,34.509277%);fill-opacity:1;">
  <use xlink:href="#glyph3-1" x="461.0771" y="999.0732"/>
  <use xlink:href="#glyph3-2" x="507.17039" y="999.0732"/>
  <use xlink:href="#glyph3-3" x="553.26368" y="999.0732"/>
</g>
</g>
</svg>
