<?xml version="1.0" encoding="UTF-8"?>
<svg xmlns="http://www.w3.org/2000/svg" xmlns:xlink="http://www.w3.org/1999/xlink" width="800pt" height="450pt" viewBox="0 0 800 450" version="1.1">
<defs>
<g>
<symbol overflow="visible" id="glyph0-0">
<path style="stroke:none;" d="M 4.328125 -32.84375 L 23.21875 -32.84375 L 23.21875 0 L 4.328125 0 Z M 6.671875 -2.34375 L 20.890625 -2.34375 L 20.890625 -30.5 L 6.671875 -30.5 Z M 6.671875 -2.34375 "/>
</symbol>
<symbol overflow="visible" id="glyph0-1">
<path style="stroke:none;" d="M 24.015625 -16.46875 C 24.015625 -10.789063 23.117188 -6.550781 21.328125 -3.75 C 19.535156 -0.945313 16.800781 0.453125 13.125 0.453125 C 9.582031 0.453125 6.890625 -0.976563 5.046875 -3.84375 C 3.210938 -6.71875 2.296875 -10.925781 2.296875 -16.46875 C 2.296875 -22.1875 3.1875 -26.429688 4.96875 -29.203125 C 6.75 -31.972656 9.46875 -33.359375 13.125 -33.359375 C 16.6875 -33.359375 19.390625 -31.910156 21.234375 -29.015625 C 23.085938 -26.128906 24.015625 -21.945313 24.015625 -16.46875 Z M 6.0625 -16.46875 C 6.0625 -11.6875 6.625 -8.207031 7.75 -6.03125 C 8.875 -3.851563 10.664063 -2.765625 13.125 -2.765625 C 15.601563 -2.765625 17.398438 -3.867188 18.515625 -6.078125 C 19.628906 -8.285156 20.1875 -11.75 20.1875 -16.46875 C 20.1875 -21.1875 19.628906 -24.640625 18.515625 -26.828125 C 17.398438 -29.023438 15.601563 -30.125 13.125 -30.125 C 10.664063 -30.125 8.875 -29.039063 7.75 -26.875 C 6.625 -24.707031 6.0625 -21.238281 6.0625 -16.46875 Z M 6.0625 -16.46875 "/>
</symbol>
<symbol overflow="visible" id="glyph0-2">
<path style="stroke:none;" d="M 12.515625 -20.0625 C 15.972656 -20.0625 18.691406 -19.203125 20.671875 -17.484375 C 22.660156 -15.773438 23.65625 -13.425781 23.65625 -10.4375 C 23.65625 -7.039063 22.570313 -4.375 20.40625 -2.4375 C 18.238281 -0.507813 15.253906 0.453125 11.453125 0.453125 C 7.753906 0.453125 4.929688 -0.140625 2.984375 -1.328125 L 2.984375 -4.921875 C 4.035156 -4.242188 5.335938 -3.710938 6.890625 -3.328125 C 8.453125 -2.953125 9.988281 -2.765625 11.5 -2.765625 C 14.132813 -2.765625 16.179688 -3.382813 17.640625 -4.625 C 19.097656 -5.863281 19.828125 -7.660156 19.828125 -10.015625 C 19.828125 -14.597656 17.019531 -16.890625 11.40625 -16.890625 C 9.988281 -16.890625 8.085938 -16.671875 5.703125 -16.234375 L 3.78125 -17.46875 L 5.015625 -32.84375 L 21.34375 -32.84375 L 21.34375 -29.40625 L 8.203125 -29.40625 L 7.375 -19.546875 C 9.09375 -19.890625 10.804688 -20.0625 12.515625 -20.0625 Z M 12.515625 -20.0625 "/>
</symbol>
<symbol overflow="visible" id="glyph0-3">
<path style="stroke:none;" d="M 25.375 -7.546875 L 20.5 -7.546875 L 20.5 0 L 16.9375 0 L 16.9375 -7.546875 L 0.96875 -7.546875 L 0.96875 -10.796875 L 16.546875 -33.015625 L 20.5 -33.015625 L 20.5 -10.9375 L 25.375 -10.9375 Z M 16.9375 -10.9375 L 16.9375 -21.859375 C 16.9375 -23.992188 17.007813 -26.410156 17.15625 -29.109375 L 16.984375 -29.109375 C 16.265625 -27.671875 15.585938 -26.476563 14.953125 -25.53125 L 4.6875 -10.9375 Z M 16.9375 -10.9375 "/>
</symbol>
<symbol overflow="visible" id="glyph0-4">
<path style="stroke:none;" d="M 22.59375 -25.109375 C 22.59375 -23.015625 22.003906 -21.300781 20.828125 -19.96875 C 19.648438 -18.632813 17.984375 -17.742188 15.828125 -17.296875 L 15.828125 -17.109375 C 18.460938 -16.785156 20.414063 -15.945313 21.6875 -14.59375 C 22.96875 -13.25 23.609375 -11.484375 23.609375 -9.296875 C 23.609375 -6.171875 22.519531 -3.765625 20.34375 -2.078125 C 18.175781 -0.390625 15.09375 0.453125 11.09375 0.453125 C 9.351563 0.453125 7.757813 0.316406 6.3125 0.046875 C 4.875 -0.210938 3.472656 -0.671875 2.109375 -1.328125 L 2.109375 -4.875 C 3.535156 -4.164063 5.050781 -3.628906 6.65625 -3.265625 C 8.269531 -2.898438 9.796875 -2.71875 11.234375 -2.71875 C 16.910156 -2.71875 19.75 -4.941406 19.75 -9.390625 C 19.75 -13.367188 16.617188 -15.359375 10.359375 -15.359375 L 7.125 -15.359375 L 7.125 -18.578125 L 10.40625 -18.578125 C 12.957031 -18.578125 14.984375 -19.140625 16.484375 -20.265625 C 17.984375 -21.398438 18.734375 -22.972656 18.734375 -24.984375 C 18.734375 -26.578125 18.179688 -27.832031 17.078125 -28.75 C 15.984375 -29.664063 14.488281 -30.125 12.59375 -30.125 C 11.15625 -30.125 9.800781 -29.925781 8.53125 -29.53125 C 7.257813 -29.144531 5.804688 -28.425781 4.171875 -27.375 L 2.296875 -29.890625 C 3.640625 -30.953125 5.191406 -31.785156 6.953125 -32.390625 C 8.710938 -33.003906 10.566406 -33.3125 12.515625 -33.3125 C 15.703125 -33.3125 18.175781 -32.582031 19.9375 -31.125 C 21.707031 -29.664063 22.59375 -27.660156 22.59375 -25.109375 Z M 22.59375 -25.109375 "/>
</symbol>
<symbol overflow="visible" id="glyph0-5">
<path style="stroke:none;" d="M 23.828125 0 L 2.25 0 L 2.25 -3.21875 L 10.890625 -11.90625 C 13.523438 -14.570313 15.257813 -16.472656 16.09375 -17.609375 C 16.9375 -18.742188 17.566406 -19.847656 17.984375 -20.921875 C 18.410156 -22.003906 18.625 -23.171875 18.625 -24.421875 C 18.625 -26.171875 18.09375 -27.554688 17.03125 -28.578125 C 15.96875 -29.609375 14.488281 -30.125 12.59375 -30.125 C 11.238281 -30.125 9.945313 -29.894531 8.71875 -29.4375 C 7.5 -28.988281 6.144531 -28.175781 4.65625 -27 L 2.671875 -29.53125 C 5.691406 -32.050781 8.988281 -33.3125 12.5625 -33.3125 C 15.644531 -33.3125 18.0625 -32.519531 19.8125 -30.9375 C 21.5625 -29.363281 22.4375 -27.242188 22.4375 -24.578125 C 22.4375 -22.492188 21.851563 -20.429688 20.6875 -18.390625 C 19.519531 -16.359375 17.332031 -13.785156 14.125 -10.671875 L 6.9375 -3.640625 L 6.9375 -3.453125 L 23.828125 -3.453125 Z M 23.828125 0 "/>
</symbol>
<symbol overflow="visible" id="glyph0-6">
<path style="stroke:none;" d="M 16.0625 0 L 12.421875 0 L 12.421875 -23.40625 C 12.421875 -25.351563 12.476563 -27.195313 12.59375 -28.9375 C 12.28125 -28.613281 11.929688 -28.28125 11.546875 -27.9375 C 11.160156 -27.59375 9.378906 -26.132813 6.203125 -23.5625 L 4.21875 -26.125 L 12.921875 -32.84375 L 16.0625 -32.84375 Z M 16.0625 0 "/>
</symbol>
<symbol overflow="visible" id="glyph1-0">
<path style="stroke:none;" d="M 1.984375 -14.984375 L 10.609375 -14.984375 L 10.609375 0 L 1.984375 0 Z M 3.046875 -1.0625 L 9.53125 -1.0625 L 9.53125 -13.921875 L 3.046875 -13.921875 Z M 3.046875 -1.0625 "/>
</symbol>
<symbol overflow="visible" id="glyph1-1">
<path style="stroke:none;" d="M 10.625 -4.078125 C 10.625 -2.742188 10.140625 -1.695313 9.171875 -0.9375 C 8.210938 -0.175781 6.882813 0.203125 5.1875 0.203125 C 3.488281 0.203125 2.101563 -0.0546875 1.03125 -0.578125 L 1.03125 -2.90625 C 1.707031 -2.582031 2.429688 -2.328125 3.203125 -2.140625 C 3.972656 -1.953125 4.691406 -1.859375 5.359375 -1.859375 C 6.328125 -1.859375 7.039063 -2.039063 7.5 -2.40625 C 7.957031 -2.78125 8.1875 -3.28125 8.1875 -3.90625 C 8.1875 -4.46875 7.972656 -4.941406 7.546875 -5.328125 C 7.128906 -5.722656 6.257813 -6.1875 4.9375 -6.71875 C 3.5625 -7.269531 2.59375 -7.898438 2.03125 -8.609375 C 1.476563 -9.328125 1.203125 -10.179688 1.203125 -11.171875 C 1.203125 -12.421875 1.644531 -13.40625 2.53125 -14.125 C 3.414063 -14.84375 4.609375 -15.203125 6.109375 -15.203125 C 7.546875 -15.203125 8.972656 -14.890625 10.390625 -14.265625 L 9.625 -12.265625 C 8.289063 -12.828125 7.097656 -13.109375 6.046875 -13.109375 C 5.253906 -13.109375 4.648438 -12.929688 4.234375 -12.578125 C 3.828125 -12.234375 3.625 -11.78125 3.625 -11.21875 C 3.625 -10.832031 3.707031 -10.5 3.875 -10.21875 C 4.039063 -9.9375 4.3125 -9.671875 4.6875 -9.421875 C 5.0625 -9.179688 5.738281 -8.859375 6.71875 -8.453125 C 7.820313 -7.992188 8.628906 -7.566406 9.140625 -7.171875 C 9.648438 -6.773438 10.023438 -6.328125 10.265625 -5.828125 C 10.503906 -5.335938 10.625 -4.753906 10.625 -4.078125 Z M 10.625 -4.078125 "/>
</symbol>
<symbol overflow="visible" id="glyph1-2">
<path style="stroke:none;" d="M 7.15625 0 L 4.703125 0 L 4.703125 -12.890625 L 0.296875 -12.890625 L 0.296875 -14.984375 L 11.5625 -14.984375 L 11.5625 -12.890625 L 7.15625 -12.890625 Z M 7.15625 0 "/>
</symbol>
<symbol overflow="visible" id="glyph1-3">
<path style="stroke:none;" d="M 10.453125 0 L 1.984375 0 L 1.984375 -14.984375 L 10.453125 -14.984375 L 10.453125 -12.921875 L 4.4375 -12.921875 L 4.4375 -8.84375 L 10.078125 -8.84375 L 10.078125 -6.78125 L 4.4375 -6.78125 L 4.4375 -2.078125 L 10.453125 -2.078125 Z M 10.453125 0 "/>
</symbol>
<symbol overflow="visible" id="glyph1-4">
<path style="stroke:none;" d="M 11.90625 -10.453125 C 11.90625 -8.890625 11.390625 -7.691406 10.359375 -6.859375 C 9.335938 -6.023438 7.878906 -5.609375 5.984375 -5.609375 L 4.4375 -5.609375 L 4.4375 0 L 1.984375 0 L 1.984375 -14.984375 L 6.296875 -14.984375 C 8.171875 -14.984375 9.570313 -14.597656 10.5 -13.828125 C 11.4375 -13.066406 11.90625 -11.941406 11.90625 -10.453125 Z M 4.4375 -7.671875 L 5.734375 -7.671875 C 6.992188 -7.671875 7.914063 -7.890625 8.5 -8.328125 C 9.082031 -8.765625 9.375 -9.445313 9.375 -10.375 C 9.375 -11.238281 9.109375 -11.878906 8.578125 -12.296875 C 8.054688 -12.722656 7.238281 -12.9375 6.125 -12.9375 L 4.4375 -12.9375 Z M 4.4375 -7.671875 "/>
</symbol>
<symbol overflow="visible" id="glyph2-0">
<path style="stroke:none;" d="M 0.9375 -7.140625 L 5.046875 -7.140625 L 5.046875 0 L 0.9375 0 Z M 1.453125 -0.515625 L 4.546875 -0.515625 L 4.546875 -6.625 L 1.453125 -6.625 Z M 1.453125 -0.515625 "/>
</symbol>
<symbol overflow="visible" id="glyph2-1">
<path style="stroke:none;" d="M 0.984375 0 L 0.984375 -7.140625 L 1.8125 -7.140625 L 1.8125 -0.75 L 4.96875 -0.75 L 4.96875 0 Z M 0.984375 0 "/>
</symbol>
<symbol overflow="visible" id="glyph2-2">
<path style="stroke:none;" d="M 5.484375 -2.6875 C 5.484375 -1.8125 5.257813 -1.128906 4.8125 -0.640625 C 4.375 -0.148438 3.769531 0.09375 3 0.09375 C 2.519531 0.09375 2.09375 -0.015625 1.71875 -0.234375 C 1.351563 -0.460938 1.066406 -0.785156 0.859375 -1.203125 C 0.660156 -1.628906 0.5625 -2.125 0.5625 -2.6875 C 0.5625 -3.550781 0.78125 -4.226563 1.21875 -4.71875 C 1.65625 -5.207031 2.257813 -5.453125 3.03125 -5.453125 C 3.78125 -5.453125 4.375 -5.203125 4.8125 -4.703125 C 5.257813 -4.203125 5.484375 -3.53125 5.484375 -2.6875 Z M 1.40625 -2.6875 C 1.40625 -2 1.539063 -1.472656 1.8125 -1.109375 C 2.082031 -0.753906 2.484375 -0.578125 3.015625 -0.578125 C 3.546875 -0.578125 3.945313 -0.753906 4.21875 -1.109375 C 4.5 -1.472656 4.640625 -2 4.640625 -2.6875 C 4.640625 -3.363281 4.5 -3.878906 4.21875 -4.234375 C 3.945313 -4.585938 3.546875 -4.765625 3.015625 -4.765625 C 2.484375 -4.765625 2.082031 -4.585938 1.8125 -4.234375 C 1.539063 -3.890625 1.40625 -3.375 1.40625 -2.6875 Z M 1.40625 -2.6875 "/>
</symbol>
<symbol overflow="visible" id="glyph2-3">
<path style="stroke:none;" d="M 3.296875 -5.453125 C 3.535156 -5.453125 3.75 -5.429688 3.9375 -5.390625 L 3.828125 -4.640625 C 3.609375 -4.691406 3.414063 -4.71875 3.25 -4.71875 C 2.8125 -4.71875 2.4375 -4.539063 2.125 -4.1875 C 1.820313 -3.832031 1.671875 -3.394531 1.671875 -2.875 L 1.671875 0 L 0.859375 0 L 0.859375 -5.359375 L 1.53125 -5.359375 L 1.625 -4.359375 L 1.65625 -4.359375 C 1.851563 -4.710938 2.09375 -4.984375 2.375 -5.171875 C 2.65625 -5.359375 2.960938 -5.453125 3.296875 -5.453125 Z M 3.296875 -5.453125 "/>
</symbol>
<symbol overflow="visible" id="glyph2-4">
<path style="stroke:none;" d="M 3.125 0.09375 C 2.332031 0.09375 1.707031 -0.144531 1.25 -0.625 C 0.789063 -1.101563 0.5625 -1.769531 0.5625 -2.625 C 0.5625 -3.488281 0.773438 -4.175781 1.203125 -4.6875 C 1.628906 -5.195313 2.195313 -5.453125 2.90625 -5.453125 C 3.582031 -5.453125 4.113281 -5.226563 4.5 -4.78125 C 4.894531 -4.34375 5.09375 -3.765625 5.09375 -3.046875 L 5.09375 -2.53125 L 1.40625 -2.53125 C 1.414063 -1.90625 1.570313 -1.425781 1.875 -1.09375 C 2.175781 -0.769531 2.601563 -0.609375 3.15625 -0.609375 C 3.726563 -0.609375 4.296875 -0.726563 4.859375 -0.96875 L 4.859375 -0.25 C 4.566406 -0.125 4.289063 -0.0351563 4.03125 0.015625 C 3.78125 0.0664063 3.476563 0.09375 3.125 0.09375 Z M 2.90625 -4.765625 C 2.46875 -4.765625 2.117188 -4.625 1.859375 -4.34375 C 1.609375 -4.070313 1.460938 -3.6875 1.421875 -3.1875 L 4.21875 -3.1875 C 4.21875 -3.695313 4.101563 -4.085938 3.875 -4.359375 C 3.644531 -4.628906 3.320313 -4.765625 2.90625 -4.765625 Z M 2.90625 -4.765625 "/>
</symbol>
<symbol overflow="visible" id="glyph2-5">
<path style="stroke:none;" d="M 7.6875 0 L 7.6875 -3.484375 C 7.6875 -3.910156 7.59375 -4.226563 7.40625 -4.4375 C 7.226563 -4.65625 6.945313 -4.765625 6.5625 -4.765625 C 6.050781 -4.765625 5.675781 -4.617188 5.4375 -4.328125 C 5.195313 -4.035156 5.078125 -3.585938 5.078125 -2.984375 L 5.078125 0 L 4.265625 0 L 4.265625 -3.484375 C 4.265625 -3.910156 4.171875 -4.226563 3.984375 -4.4375 C 3.804688 -4.65625 3.523438 -4.765625 3.140625 -4.765625 C 2.628906 -4.765625 2.253906 -4.609375 2.015625 -4.296875 C 1.785156 -3.992188 1.671875 -3.5 1.671875 -2.8125 L 1.671875 0 L 0.859375 0 L 0.859375 -5.359375 L 1.515625 -5.359375 L 1.65625 -4.625 L 1.6875 -4.625 C 1.84375 -4.882813 2.054688 -5.085938 2.328125 -5.234375 C 2.609375 -5.378906 2.921875 -5.453125 3.265625 -5.453125 C 4.109375 -5.453125 4.65625 -5.148438 4.90625 -4.546875 L 4.953125 -4.546875 C 5.109375 -4.828125 5.335938 -5.046875 5.640625 -5.203125 C 5.941406 -5.367188 6.289063 -5.453125 6.6875 -5.453125 C 7.289063 -5.453125 7.738281 -5.296875 8.03125 -4.984375 C 8.332031 -4.671875 8.484375 -4.171875 8.484375 -3.484375 L 8.484375 0 Z M 7.6875 0 "/>
</symbol>
<symbol overflow="visible" id="glyph2-6">
<path style="stroke:none;" d=""/>
</symbol>
<symbol overflow="visible" id="glyph2-7">
<path style="stroke:none;" d="M 1.671875 0 L 0.859375 0 L 0.859375 -5.359375 L 1.671875 -5.359375 Z M 0.796875 -6.796875 C 0.796875 -6.984375 0.835938 -7.117188 0.921875 -7.203125 C 1.015625 -7.296875 1.128906 -7.34375 1.265625 -7.34375 C 1.398438 -7.34375 1.515625 -7.296875 1.609375 -7.203125 C 1.703125 -7.117188 1.75 -6.984375 1.75 -6.796875 C 1.75 -6.617188 1.703125 -6.484375 1.609375 -6.390625 C 1.515625 -6.304688 1.398438 -6.265625 1.265625 -6.265625 C 1.128906 -6.265625 1.015625 -6.304688 0.921875 -6.390625 C 0.835938 -6.484375 0.796875 -6.617188 0.796875 -6.796875 Z M 0.796875 -6.796875 "/>
</symbol>
<symbol overflow="visible" id="glyph2-8">
<path style="stroke:none;" d="M 3.34375 0.09375 C 3 0.09375 2.679688 0.03125 2.390625 -0.09375 C 2.109375 -0.21875 1.867188 -0.414063 1.671875 -0.6875 L 1.609375 -0.6875 C 1.648438 -0.375 1.671875 -0.078125 1.671875 0.203125 L 1.671875 2.40625 L 0.859375 2.40625 L 0.859375 -5.359375 L 1.515625 -5.359375 L 1.625 -4.625 L 1.671875 -4.625 C 1.878906 -4.914063 2.117188 -5.125 2.390625 -5.25 C 2.671875 -5.382813 2.988281 -5.453125 3.34375 -5.453125 C 4.0625 -5.453125 4.613281 -5.207031 5 -4.71875 C 5.382813 -4.238281 5.578125 -3.5625 5.578125 -2.6875 C 5.578125 -1.800781 5.378906 -1.113281 4.984375 -0.625 C 4.585938 -0.144531 4.039063 0.09375 3.34375 0.09375 Z M 3.234375 -4.765625 C 2.679688 -4.765625 2.285156 -4.613281 2.046875 -4.3125 C 1.804688 -4.007813 1.679688 -3.523438 1.671875 -2.859375 L 1.671875 -2.6875 C 1.671875 -1.925781 1.796875 -1.382813 2.046875 -1.0625 C 2.296875 -0.738281 2.695313 -0.578125 3.25 -0.578125 C 3.71875 -0.578125 4.082031 -0.765625 4.34375 -1.140625 C 4.601563 -1.515625 4.734375 -2.03125 4.734375 -2.6875 C 4.734375 -3.351563 4.601563 -3.863281 4.34375 -4.21875 C 4.082031 -4.582031 3.710938 -4.765625 3.234375 -4.765625 Z M 3.234375 -4.765625 "/>
</symbol>
<symbol overflow="visible" id="glyph2-9">
<path style="stroke:none;" d="M 4.3125 -1.453125 C 4.3125 -0.960938 4.125 -0.582031 3.75 -0.3125 C 3.382813 -0.0390625 2.863281 0.09375 2.1875 0.09375 C 1.476563 0.09375 0.925781 -0.015625 0.53125 -0.234375 L 0.53125 -0.984375 C 0.789063 -0.859375 1.066406 -0.757813 1.359375 -0.6875 C 1.648438 -0.613281 1.9375 -0.578125 2.21875 -0.578125 C 2.632813 -0.578125 2.957031 -0.644531 3.1875 -0.78125 C 3.414063 -0.914063 3.53125 -1.117188 3.53125 -1.390625 C 3.53125 -1.597656 3.4375 -1.773438 3.25 -1.921875 C 3.070313 -2.078125 2.722656 -2.253906 2.203125 -2.453125 C 1.703125 -2.640625 1.347656 -2.800781 1.140625 -2.9375 C 0.929688 -3.070313 0.773438 -3.226563 0.671875 -3.40625 C 0.566406 -3.582031 0.515625 -3.789063 0.515625 -4.03125 C 0.515625 -4.46875 0.691406 -4.8125 1.046875 -5.0625 C 1.398438 -5.320313 1.890625 -5.453125 2.515625 -5.453125 C 3.085938 -5.453125 3.648438 -5.332031 4.203125 -5.09375 L 3.90625 -4.4375 C 3.375 -4.65625 2.890625 -4.765625 2.453125 -4.765625 C 2.066406 -4.765625 1.773438 -4.703125 1.578125 -4.578125 C 1.390625 -4.460938 1.296875 -4.300781 1.296875 -4.09375 C 1.296875 -3.945313 1.332031 -3.820313 1.40625 -3.71875 C 1.476563 -3.625 1.59375 -3.53125 1.75 -3.4375 C 1.914063 -3.34375 2.226563 -3.210938 2.6875 -3.046875 C 3.320313 -2.816406 3.75 -2.582031 3.96875 -2.34375 C 4.195313 -2.113281 4.3125 -1.816406 4.3125 -1.453125 Z M 4.3125 -1.453125 "/>
</symbol>
<symbol overflow="visible" id="glyph2-10">
<path style="stroke:none;" d="M 1.625 -5.359375 L 1.625 -1.875 C 1.625 -1.4375 1.722656 -1.109375 1.921875 -0.890625 C 2.117188 -0.679688 2.429688 -0.578125 2.859375 -0.578125 C 3.410156 -0.578125 3.816406 -0.726563 4.078125 -1.03125 C 4.335938 -1.34375 4.46875 -1.847656 4.46875 -2.546875 L 4.46875 -5.359375 L 5.28125 -5.359375 L 5.28125 0 L 4.609375 0 L 4.5 -0.71875 L 4.453125 -0.71875 C 4.285156 -0.457031 4.050781 -0.253906 3.75 -0.109375 C 3.457031 0.0234375 3.125 0.09375 2.75 0.09375 C 2.09375 0.09375 1.601563 -0.0546875 1.28125 -0.359375 C 0.957031 -0.671875 0.796875 -1.164063 0.796875 -1.84375 L 0.796875 -5.359375 Z M 1.625 -5.359375 "/>
</symbol>
<symbol overflow="visible" id="glyph2-11">
<path style="stroke:none;" d="M 4.5 -0.71875 L 4.453125 -0.71875 C 4.078125 -0.175781 3.519531 0.09375 2.78125 0.09375 C 2.082031 0.09375 1.535156 -0.144531 1.140625 -0.625 C 0.753906 -1.101563 0.5625 -1.78125 0.5625 -2.65625 C 0.5625 -3.539063 0.753906 -4.226563 1.140625 -4.71875 C 1.535156 -5.207031 2.082031 -5.453125 2.78125 -5.453125 C 3.507813 -5.453125 4.066406 -5.1875 4.453125 -4.65625 L 4.515625 -4.65625 L 4.484375 -5.046875 L 4.453125 -5.421875 L 4.453125 -7.59375 L 5.265625 -7.59375 L 5.265625 0 L 4.609375 0 Z M 2.875 -0.578125 C 3.4375 -0.578125 3.835938 -0.726563 4.078125 -1.03125 C 4.328125 -1.332031 4.453125 -1.816406 4.453125 -2.484375 L 4.453125 -2.65625 C 4.453125 -3.414063 4.328125 -3.957031 4.078125 -4.28125 C 3.828125 -4.601563 3.425781 -4.765625 2.875 -4.765625 C 2.394531 -4.765625 2.03125 -4.578125 1.78125 -4.203125 C 1.53125 -3.835938 1.40625 -3.320313 1.40625 -2.65625 C 1.40625 -1.96875 1.53125 -1.445313 1.78125 -1.09375 C 2.03125 -0.75 2.394531 -0.578125 2.875 -0.578125 Z M 2.875 -0.578125 "/>
</symbol>
<symbol overflow="visible" id="glyph2-12">
<path style="stroke:none;" d="M 1.671875 0 L 0.859375 0 L 0.859375 -7.59375 L 1.671875 -7.59375 Z M 1.671875 0 "/>
</symbol>
<symbol overflow="visible" id="glyph2-13">
<path style="stroke:none;" d="M 2.59375 -0.578125 C 2.726563 -0.578125 2.863281 -0.585938 3 -0.609375 C 3.132813 -0.628906 3.242188 -0.648438 3.328125 -0.671875 L 3.328125 -0.046875 C 3.234375 -0.00390625 3.097656 0.0234375 2.921875 0.046875 C 2.753906 0.078125 2.601563 0.09375 2.46875 0.09375 C 1.4375 0.09375 0.921875 -0.445313 0.921875 -1.53125 L 0.921875 -4.71875 L 0.15625 -4.71875 L 0.15625 -5.109375 L 0.921875 -5.453125 L 1.265625 -6.59375 L 1.734375 -6.59375 L 1.734375 -5.359375 L 3.28125 -5.359375 L 3.28125 -4.71875 L 1.734375 -4.71875 L 1.734375 -1.578125 C 1.734375 -1.253906 1.804688 -1.003906 1.953125 -0.828125 C 2.109375 -0.660156 2.320313 -0.578125 2.59375 -0.578125 Z M 2.59375 -0.578125 "/>
</symbol>
<symbol overflow="visible" id="glyph2-14">
<path style="stroke:none;" d="M 4.15625 0 L 3.984375 -0.765625 L 3.953125 -0.765625 C 3.679688 -0.429688 3.410156 -0.203125 3.140625 -0.078125 C 2.878906 0.0351563 2.550781 0.09375 2.15625 0.09375 C 1.625 0.09375 1.207031 -0.0390625 0.90625 -0.3125 C 0.601563 -0.582031 0.453125 -0.972656 0.453125 -1.484375 C 0.453125 -2.554688 1.316406 -3.117188 3.046875 -3.171875 L 3.953125 -3.203125 L 3.953125 -3.546875 C 3.953125 -3.960938 3.863281 -4.269531 3.6875 -4.46875 C 3.507813 -4.664063 3.222656 -4.765625 2.828125 -4.765625 C 2.378906 -4.765625 1.875 -4.628906 1.3125 -4.359375 L 1.0625 -4.984375 C 1.320313 -5.128906 1.609375 -5.238281 1.921875 -5.3125 C 2.234375 -5.394531 2.550781 -5.4375 2.875 -5.4375 C 3.507813 -5.4375 3.976563 -5.296875 4.28125 -5.015625 C 4.59375 -4.734375 4.75 -4.28125 4.75 -3.65625 L 4.75 0 Z M 2.3125 -0.578125 C 2.820313 -0.578125 3.21875 -0.710938 3.5 -0.984375 C 3.789063 -1.265625 3.9375 -1.65625 3.9375 -2.15625 L 3.9375 -2.625 L 3.125 -2.59375 C 2.476563 -2.570313 2.015625 -2.472656 1.734375 -2.296875 C 1.453125 -2.117188 1.3125 -1.84375 1.3125 -1.46875 C 1.3125 -1.175781 1.398438 -0.953125 1.578125 -0.796875 C 1.753906 -0.648438 2 -0.578125 2.3125 -0.578125 Z M 2.3125 -0.578125 "/>
</symbol>
<symbol overflow="visible" id="glyph2-15">
<path style="stroke:none;" d="M 1.703125 -1.15625 L 1.78125 -1.046875 C 1.695313 -0.722656 1.570313 -0.347656 1.40625 0.078125 C 1.25 0.515625 1.085938 0.921875 0.921875 1.296875 L 0.3125 1.296875 C 0.394531 0.953125 0.488281 0.53125 0.59375 0.03125 C 0.695313 -0.46875 0.773438 -0.863281 0.828125 -1.15625 Z M 1.703125 -1.15625 "/>
</symbol>
<symbol overflow="visible" id="glyph2-16">
<path style="stroke:none;" d="M 3 0.09375 C 2.226563 0.09375 1.628906 -0.140625 1.203125 -0.609375 C 0.773438 -1.085938 0.5625 -1.765625 0.5625 -2.640625 C 0.5625 -3.535156 0.773438 -4.226563 1.203125 -4.71875 C 1.640625 -5.207031 2.253906 -5.453125 3.046875 -5.453125 C 3.304688 -5.453125 3.5625 -5.421875 3.8125 -5.359375 C 4.070313 -5.304688 4.273438 -5.242188 4.421875 -5.171875 L 4.1875 -4.484375 C 4 -4.554688 3.800781 -4.613281 3.59375 -4.65625 C 3.382813 -4.707031 3.195313 -4.734375 3.03125 -4.734375 C 1.945313 -4.734375 1.40625 -4.039063 1.40625 -2.65625 C 1.40625 -2 1.535156 -1.492188 1.796875 -1.140625 C 2.066406 -0.785156 2.460938 -0.609375 2.984375 -0.609375 C 3.421875 -0.609375 3.875 -0.707031 4.34375 -0.90625 L 4.34375 -0.1875 C 3.988281 0 3.539063 0.09375 3 0.09375 Z M 3 0.09375 "/>
</symbol>
<symbol overflow="visible" id="glyph2-17">
<path style="stroke:none;" d="M 4.515625 0 L 4.515625 -3.46875 C 4.515625 -3.894531 4.414063 -4.21875 4.21875 -4.4375 C 4.019531 -4.65625 3.710938 -4.765625 3.296875 -4.765625 C 2.734375 -4.765625 2.320313 -4.613281 2.0625 -4.3125 C 1.800781 -4.007813 1.671875 -3.507813 1.671875 -2.8125 L 1.671875 0 L 0.859375 0 L 0.859375 -5.359375 L 1.515625 -5.359375 L 1.65625 -4.625 L 1.6875 -4.625 C 1.851563 -4.882813 2.085938 -5.085938 2.390625 -5.234375 C 2.691406 -5.378906 3.023438 -5.453125 3.390625 -5.453125 C 4.035156 -5.453125 4.519531 -5.296875 4.84375 -4.984375 C 5.164063 -4.671875 5.328125 -4.171875 5.328125 -3.484375 L 5.328125 0 Z M 4.515625 0 "/>
</symbol>
<symbol overflow="visible" id="glyph2-18">
<path style="stroke:none;" d="M 5.234375 -5.359375 L 5.234375 -4.84375 L 4.25 -4.71875 C 4.34375 -4.601563 4.421875 -4.453125 4.484375 -4.265625 C 4.554688 -4.085938 4.59375 -3.882813 4.59375 -3.65625 C 4.59375 -3.125 4.414063 -2.703125 4.0625 -2.390625 C 3.707031 -2.078125 3.21875 -1.921875 2.59375 -1.921875 C 2.425781 -1.921875 2.273438 -1.9375 2.140625 -1.96875 C 1.796875 -1.78125 1.625 -1.550781 1.625 -1.28125 C 1.625 -1.132813 1.679688 -1.023438 1.796875 -0.953125 C 1.921875 -0.878906 2.128906 -0.84375 2.421875 -0.84375 L 3.375 -0.84375 C 3.945313 -0.84375 4.390625 -0.722656 4.703125 -0.484375 C 5.015625 -0.242188 5.171875 0.109375 5.171875 0.578125 C 5.171875 1.171875 4.929688 1.625 4.453125 1.9375 C 3.984375 2.25 3.289063 2.40625 2.375 2.40625 C 1.675781 2.40625 1.132813 2.273438 0.75 2.015625 C 0.375 1.753906 0.1875 1.382813 0.1875 0.90625 C 0.1875 0.582031 0.289063 0.300781 0.5 0.0625 C 0.707031 -0.175781 1 -0.335938 1.375 -0.421875 C 1.238281 -0.484375 1.125 -0.578125 1.03125 -0.703125 C 0.945313 -0.835938 0.90625 -0.988281 0.90625 -1.15625 C 0.90625 -1.351563 0.957031 -1.523438 1.0625 -1.671875 C 1.164063 -1.816406 1.328125 -1.957031 1.546875 -2.09375 C 1.273438 -2.207031 1.050781 -2.398438 0.875 -2.671875 C 0.695313 -2.953125 0.609375 -3.269531 0.609375 -3.625 C 0.609375 -4.207031 0.785156 -4.65625 1.140625 -4.96875 C 1.492188 -5.289063 1.988281 -5.453125 2.625 -5.453125 C 2.90625 -5.453125 3.160156 -5.421875 3.390625 -5.359375 Z M 0.96875 0.90625 C 0.96875 1.1875 1.085938 1.398438 1.328125 1.546875 C 1.578125 1.703125 1.929688 1.78125 2.390625 1.78125 C 3.066406 1.78125 3.566406 1.675781 3.890625 1.46875 C 4.222656 1.269531 4.390625 1 4.390625 0.65625 C 4.390625 0.363281 4.300781 0.160156 4.125 0.046875 C 3.945313 -0.0664063 3.609375 -0.125 3.109375 -0.125 L 2.140625 -0.125 C 1.773438 -0.125 1.488281 -0.0351563 1.28125 0.140625 C 1.070313 0.316406 0.96875 0.570313 0.96875 0.90625 Z M 1.40625 -3.640625 C 1.40625 -3.265625 1.507813 -2.976563 1.71875 -2.78125 C 1.9375 -2.59375 2.234375 -2.5 2.609375 -2.5 C 3.398438 -2.5 3.796875 -2.882813 3.796875 -3.65625 C 3.796875 -4.457031 3.394531 -4.859375 2.59375 -4.859375 C 2.21875 -4.859375 1.925781 -4.753906 1.71875 -4.546875 C 1.507813 -4.347656 1.40625 -4.046875 1.40625 -3.640625 Z M 1.40625 -3.640625 "/>
</symbol>
</g>
</defs>
<g id="surface1">
<rect x="0" y="0" width="800" height="450" style="fill:rgb(100%,100%,100%);fill-opacity:1;stroke:none;"/>
<path style="fill:none;stroke-width:2.5;stroke-linecap:round;stroke-linejoin:round;stroke:rgb(2.398682%,32.499695%,50.59967%);stroke-opacity:1;stroke-miterlimit:10;" d="M 0.0015125 -0.0002375 L -87.310988 151.230231 L -174.623488 -0.0002375 L -15.146925 -0.0002375 " transform="matrix(1,0,0,-1,687.8188,258.6482)"/>
<path style="fill:none;stroke-width:2.5;stroke-linecap:round;stroke-linejoin:round;stroke:rgb(2.398682%,32.499695%,50.59967%);stroke-opacity:1;stroke-miterlimit:10;" d="M 0.00099375 -0.00143125 L 10.301775 -4.880337 L 0.00099375 -9.759244 " transform="matrix(1,0,0,-1,662.3701,253.7681)"/>
<path style="fill:none;stroke-width:2.5;stroke-linecap:round;stroke-linejoin:round;stroke:rgb(1.199341%,66.299438%,95.698547%);stroke-opacity:1;stroke-miterlimit:10;" d="M -0.0009375 -0.000275 L -87.313437 -151.230744 L -174.625937 -0.000275 L -15.145469 -0.000275 " transform="matrix(1,0,0,-1,587.54,106.5466)"/>
<path style="fill:none;stroke-width:2.5;stroke-linecap:round;stroke-linejoin:round;stroke:rgb(1.199341%,66.299438%,95.698547%);stroke-opacity:1;stroke-miterlimit:10;" d="M -0.00145625 -0.00156875 L 10.303231 -4.880475 L -0.00145625 -9.759381 " transform="matrix(1,0,0,-1,562.0913,101.6664)"/>
<path style="fill:none;stroke-width:2.5;stroke-linecap:round;stroke-linejoin:round;stroke:rgb(0%,80.799866%,90.99884%);stroke-opacity:1;stroke-miterlimit:10;" d="M 0.000475 -0.00085625 L -87.312025 151.229613 L -174.624525 -0.00085625 L -15.144056 -0.00085625 " transform="matrix(1,0,0,-1,487.6714,258.6593)"/>
<path style="fill:none;stroke-width:2.5;stroke-linecap:round;stroke-linejoin:round;stroke:rgb(0%,80.799866%,90.99884%);stroke-opacity:1;stroke-miterlimit:10;" d="M -0.00004375 0.00185625 L 10.304644 -4.880956 L -0.00004375 -9.759862 " transform="matrix(1,0,0,-1,462.2227,253.7792)"/>
<path style="fill:none;stroke-width:2.5;stroke-linecap:round;stroke-linejoin:round;stroke:rgb(100%,81.599426%,0%);stroke-opacity:1;stroke-miterlimit:10;" d="M 0.0016 -0.000275 L -87.3109 -151.230744 L -174.6234 -0.000275 L -15.146838 -0.000275 " transform="matrix(1,0,0,-1,387.6234,106.5466)"/>
<path style="fill:none;stroke-width:2.5;stroke-linecap:round;stroke-linejoin:round;stroke:rgb(100%,81.599426%,0%);stroke-opacity:1;stroke-miterlimit:10;" d="M 0.00108125 -0.00156875 L 10.301862 -4.880475 L 0.00108125 -9.759381 " transform="matrix(1,0,0,-1,362.1747,101.6664)"/>
<path style="fill:none;stroke-width:2.5;stroke-linecap:round;stroke-linejoin:round;stroke:rgb(99.598694%,14.898682%,20.799255%);stroke-opacity:1;stroke-miterlimit:10;" d="M -0.0002125 0.0016625 L -174.625213 0.0016625 L -91.640838 144.083694 " transform="matrix(1,0,0,-1,286.8049,257.7751)"/>
<path style="fill:none;stroke-width:2.5;stroke-linecap:round;stroke-linejoin:round;stroke:rgb(99.598694%,14.898682%,20.799255%);stroke-opacity:1;stroke-miterlimit:10;" d="M 0.00036875 0.00080625 L 9.371463 6.492994 L 8.4574 -4.870288 " transform="matrix(1,0,0,-1,185.7926,120.1844)"/>
<g style="fill:rgb(2.398682%,32.499695%,50.59967%);fill-opacity:1;">
  <use xlink:href="#glyph0-1" x="574.0479" y="231.1377"/>
  <use xlink:href="#glyph0-2" x="600.516857" y="231.1377"/>
</g>
<g style="fill:rgb(2.398682%,32.499695%,50.59967%);fill-opacity:1;">
  <use xlink:href="#glyph1-1" x="576.7617" y="193.9736"/>
  <use xlink:href="#glyph1-2" x="588.172495" y="193.9736"/>
  <use xlink:href="#glyph1-3" x="599.91524" y="193.9736"/>
  <use xlink:href="#glyph1-4" x="611.492011" y="193.9736"/>
</g>
<g style="fill:rgb(1.199341%,66.299438%,95.698547%);fill-opacity:1;">
  <use xlink:href="#glyph0-1" x="474.8789" y="185.5059"/>
  <use xlink:href="#glyph0-3" x="501.347857" y="185.5059"/>
</g>
<g style="fill:rgb(1.199341%,66.299438%,95.698547%);fill-opacity:1;">
  <use xlink:href="#glyph1-1" x="477.5908" y="148.3438"/>
  <use xlink:href="#glyph1-2" x="489.001595" y="148.3438"/>
  <use xlink:href="#glyph1-3" x="500.74434" y="148.3438"/>
  <use xlink:href="#glyph1-4" x="512.321111" y="148.3438"/>
</g>
<g style="fill:rgb(0%,80.799866%,90.99884%);fill-opacity:1;">
  <use xlink:href="#glyph0-1" x="373.6045" y="231.1377"/>
  <use xlink:href="#glyph0-4" x="400.073457" y="231.1377"/>
</g>
<g style="fill:rgb(0%,80.799866%,90.99884%);fill-opacity:1;">
  <use xlink:href="#glyph1-1" x="376.3184" y="193.9736"/>
  <use xlink:href="#glyph1-2" x="387.729195" y="193.9736"/>
  <use xlink:href="#glyph1-3" x="399.47194" y="193.9736"/>
  <use xlink:href="#glyph1-4" x="411.048711" y="193.9736"/>
</g>
<g style="fill:rgb(100%,81.599426%,0%);fill-opacity:1;">
  <use xlink:href="#glyph0-1" x="275.0522" y="186.8047"/>
  <use xlink:href="#glyph0-5" x="301.521157" y="186.8047"/>
</g>
<g style="fill:rgb(100%,81.599426%,0%);fill-opacity:1;">
  <use xlink:href="#glyph1-1" x="277.7646" y="149.6426"/>
  <use xlink:href="#glyph1-2" x="289.175395" y="149.6426"/>
  <use xlink:href="#glyph1-3" x="300.91814" y="149.6426"/>
  <use xlink:href="#glyph1-4" x="312.494911" y="149.6426"/>
</g>
<g style="fill:rgb(99.598694%,14.898682%,20.799255%);fill-opacity:1;">
  <use xlink:href="#glyph0-1" x="177.124" y="231.1387"/>
  <use xlink:href="#glyph0-6" x="203.592957" y="231.1387"/>
</g>
<g style="fill:rgb(99.598694%,14.898682%,20.799255%);fill-opacity:1;">
  <use xlink:href="#glyph1-1" x="179.8369" y="193.9766"/>
  <use xlink:href="#glyph1-2" x="191.247695" y="193.9766"/>
  <use xlink:href="#glyph1-3" x="202.99044" y="193.9766"/>
  <use xlink:href="#glyph1-4" x="214.567211" y="193.9766"/>
</g>
<path style="fill:none;stroke-width:1.3;stroke-linecap:round;stroke-linejoin:round;stroke:rgb(25.498962%,25.099182%,25.898743%);stroke-opacity:1;stroke-miterlimit:10;" d="M 0.00075625 -0.0015 C 0.00075625 -0.0015 -9.651587 -2.712438 -9.651587 -2.716344 C -10.31565 -2.919469 -10.796119 -3.540563 -10.796119 -4.274938 C -10.796119 -5.173375 -10.073462 -5.903844 -9.178931 -5.903844 C -8.928931 -5.903844 -8.4719 -5.7515 -8.4719 -5.7515 L -0.018775 -3.3765 L 0.043725 -3.356969 C 0.1531 -3.333531 0.266381 -3.321813 0.379663 -3.321813 C 1.274194 -3.321813 2.000756 -4.052281 2.000756 -4.950719 C 2.000756 -5.653844 1.551538 -6.255406 0.926538 -6.481969 L -7.296119 -8.794469 M 11.438256 15.986781 L 15.258569 15.986781 M 12.625756 25.869594 L 9.317163 23.947719 M 5.430444 33.103969 L 3.520288 29.775844 M -24.057837 15.986781 L -20.237525 15.986781 M -21.425025 25.869594 L -18.116431 23.947719 M -12.319556 29.775844 L -14.229712 33.103969 M -4.397681 31.908656 L -4.397681 35.752406 M -7.241431 14.775844 L -5.147681 12.232875 L -1.557837 18.283656 M -4.397681 23.385219 C -8.464087 23.385219 -11.757056 20.072719 -11.757056 15.986781 C -11.757056 11.900844 -8.464087 8.588344 -4.397681 8.588344 C -0.335181 8.588344 2.957788 11.900844 2.957788 15.986781 C 2.957788 20.072719 -0.335181 23.385219 -4.397681 23.385219 Z M -11.483619 1.037562 C -11.272681 3.041469 -12.046119 4.986781 -14.671119 9.049281 C -15.979712 11.057094 -16.667212 13.385219 -16.667212 15.783656 C -16.667212 22.584437 -11.163306 28.119594 -4.397681 28.119594 C 2.367944 28.119594 7.87185 22.584437 7.87185 15.783656 C 7.87185 13.389125 7.180444 11.061 5.879663 9.049281 C 3.8406 5.90475 2.918725 4.02975 2.703881 2.408656 " transform="matrix(1,0,0,-1,319.4719,332.561)"/>
<path style="fill:none;stroke-width:1.3;stroke-linecap:round;stroke-linejoin:round;stroke:rgb(25.498962%,25.099182%,25.898743%);stroke-opacity:1;stroke-miterlimit:10;" d="M -0.00080625 0.001625 L -6.887525 -6.556969 M 2.78435 0.439125 L 9.069506 -2.568688 M 11.733569 -2.017906 L 18.84685 6.095375 M 19.97185 9.095375 C 19.026537 9.095375 18.260912 8.32975 18.260912 7.384437 C 18.260912 6.439125 19.026537 5.6735 19.97185 5.6735 C 20.917162 5.6735 21.686694 6.439125 21.686694 7.384437 C 21.686694 8.32975 20.917162 9.095375 19.97185 9.095375 Z M 10.604662 -1.588219 C 9.65935 -1.588219 8.893725 -2.35775 8.893725 -3.303063 C 8.893725 -4.248375 9.65935 -5.014 10.604662 -5.014 C 11.553881 -5.014 12.319506 -4.248375 12.319506 -3.303063 C 12.319506 -2.35775 11.553881 -1.588219 10.604662 -1.588219 Z M 1.237475 2.89225 C 0.292162 2.89225 -0.473463 2.126625 -0.473463 1.181312 C -0.473463 0.232094 0.292162 -0.533531 1.237475 -0.533531 C 2.186694 -0.533531 2.952319 0.232094 2.952319 1.181312 C 2.952319 2.126625 2.186694 2.89225 1.237475 2.89225 Z M -8.125806 -6.025719 C -9.071119 -6.025719 -9.84065 -6.791344 -9.84065 -7.736656 C -9.84065 -8.681969 -9.071119 -9.4515 -8.125806 -9.4515 C -7.180494 -9.4515 -6.414869 -8.681969 -6.414869 -7.736656 C -6.414869 -6.791344 -7.180494 -6.025719 -8.125806 -6.025719 Z M 22.956225 -1.588219 L 16.987475 -1.588219 L 16.987475 -25.662438 L 22.956225 -25.662438 Z M 13.589037 -11.084313 L 7.620287 -11.084313 L 7.620287 -25.662438 L 13.589037 -25.662438 Z M 4.22185 -7.080406 L -1.7469 -7.080406 L -1.7469 -25.662438 L 4.22185 -25.662438 Z M -5.145338 -16.346031 L -11.110181 -16.346031 L -11.110181 -25.662438 L -5.145338 -25.662438 Z M 27.741381 -25.662438 L -15.719556 -25.662438 " transform="matrix(1,0,0,-1,653.6844,310.7985)"/>
<path style="fill:none;stroke-width:1.3;stroke-linecap:round;stroke-linejoin:round;stroke:rgb(25.498962%,25.099182%,25.898743%);stroke-opacity:1;stroke-miterlimit:10;" d="M -0.0012875 -0.0000875 L -3.903631 -0.0000875 M -18.016912 -0.0000875 L -7.954412 -0.0000875 M -0.0012875 3.855381 L -10.626287 3.855381 M -14.333319 3.855381 L -18.016912 3.855381 M 4.787775 8.246006 L -2.868475 15.945225 L -2.868475 8.246006 Z M -2.868475 15.945225 L -21.794256 15.945225 L -21.794256 -0.328213 M 4.799494 -0.328213 L 4.799494 8.246006 M -26.130194 -1.089931 L -14.204412 -13.472744 M 9.135431 -1.089931 L -2.743475 -13.472744 M 9.135431 -25.496181 L -8.497381 -13.293056 L -26.130194 -25.496181 M 9.135431 -1.089931 L 9.135431 -25.496181 L -26.130194 -25.496181 L -26.130194 -1.089931 " transform="matrix(1,0,0,-1,491.3216,314.3046)"/>
<path style="fill:none;stroke-width:1.3;stroke-linecap:round;stroke-linejoin:round;stroke:rgb(25.498962%,25.099182%,25.898743%);stroke-opacity:1;stroke-miterlimit:10;" d="M 0.0003375 -0.00190625 C -1.062162 0.580125 -3.663725 1.650438 -5.909819 2.255906 M -16.202787 -10.736281 C -13.784819 -12.626906 -11.316069 -14.02925 -11.316069 -14.02925 M -25.745756 -4.751906 L -17.0856 -11.853469 L -4.905912 3.521531 L -13.386381 10.478563 M 23.578463 -8.912062 C 22.965181 -9.267531 21.308931 -10.240187 20.863619 -10.658156 C 20.6644 -10.845656 20.390963 -11.275344 20.078463 -11.775344 C 19.562838 -12.59175 18.867525 -13.693312 18.277681 -13.998 M 16.750338 2.752 C 11.941744 4.623094 9.484713 1.802781 6.625338 1.802781 C 5.406588 1.802781 4.488619 1.732469 3.906588 1.669969 C 3.8519 1.677781 3.797213 1.677781 3.738619 1.677781 C 3.461275 1.677781 3.199556 1.615281 2.949556 1.490281 L -5.144194 -2.599562 C -8.862944 -4.583937 -5.136381 -7.423781 -3.937162 -7.138625 C -2.61685 -6.822219 0.57065 -5.548781 2.703463 -4.665969 C 4.00815 -4.130812 5.488619 -4.314406 6.625338 -5.15425 C 10.180025 -7.790969 17.703463 -13.392531 18.277681 -13.998 M 25.687838 10.334031 C 21.890963 8.326219 16.430025 5.423875 15.4769 4.873094 C 16.25815 3.584031 24.590181 -10.642531 24.590181 -10.642531 L 34.234713 -5.544875 M 1.910494 -20.806594 L 2.422213 -20.236281 C 3.082369 -19.501906 3.027681 -18.357375 2.293306 -17.689406 C 1.894869 -17.326125 1.363619 -17.165969 0.832369 -17.244094 C 0.418306 -17.302687 0.0394 -17.509719 -0.237944 -17.818312 L -2.421537 -20.248 C -3.081694 -20.982375 -3.027006 -22.126906 -2.296537 -22.794875 C -1.8981 -23.15425 -1.362944 -23.318312 -0.831694 -23.240187 C -0.421537 -23.181594 -0.0426312 -22.978469 0.238619 -22.665969 Z M -3.30435 -21.244094 L 0.480806 -17.037062 C 1.137056 -16.302687 1.082369 -15.162062 0.347994 -14.494094 C -0.0504437 -14.134719 -0.581694 -13.970656 -1.112944 -14.048781 C -1.5231 -14.107375 -1.905912 -14.3105 -2.183256 -14.623 L -5.964506 -18.826125 C -6.628569 -19.564406 -6.569975 -20.708937 -5.8356 -21.376906 C -5.437162 -21.736281 -4.905912 -21.896437 -4.374662 -21.818312 C -3.956694 -21.759719 -3.5856 -21.5605 -3.30435 -21.244094 Z M -6.698881 -19.634719 L -2.593412 -15.0605 C -1.933256 -14.326125 -1.99185 -13.181594 -2.722319 -12.513625 C -3.120756 -12.15425 -3.655912 -11.990187 -4.183256 -12.068312 C -4.597319 -12.130812 -4.976225 -12.333937 -5.253569 -12.646437 L -9.359037 -17.21675 C -10.0231 -17.951125 -9.964506 -19.099562 -9.230131 -19.763625 C -8.8356 -20.126906 -8.300444 -20.287062 -7.769194 -20.208937 C -7.355131 -20.150344 -6.972319 -19.943312 -6.698881 -19.634719 Z M 0.980806 -21.837844 L 2.281588 -22.544875 C 2.562838 -22.732375 3.398775 -22.943312 4.422213 -22.833937 C 5.051119 -22.767531 5.6644 -22.658156 6.137056 -22.232375 C 6.332369 -22.0605 6.492525 -21.857375 6.617525 -21.638625 M 5.097994 -20.228469 L 6.88315 -21.900344 C 7.305025 -22.373 7.88315 -22.658156 8.515963 -22.693312 C 9.148775 -22.728469 9.75815 -22.513625 10.230806 -22.09175 C 10.75815 -21.615187 11.047213 -20.9355 11.023775 -20.224562 C 11.015963 -20.001906 10.9769 -19.783156 10.910494 -19.576125 M 7.160494 -16.314406 L 10.894869 -19.537062 C 11.316744 -20.013625 11.894869 -20.298781 12.527681 -20.333937 C 13.160494 -20.369094 13.769869 -20.15425 14.242525 -19.732375 C 14.769869 -19.255812 15.062838 -18.576125 15.035494 -17.861281 C 15.027681 -17.662062 14.949556 -17.3105 14.894869 -17.123 M 10.672213 -13.994094 C 10.672213 -13.994094 15.035494 -17.587844 16.219088 -17.755812 C 17.137056 -17.888625 17.461275 -17.580031 17.933931 -17.15425 C 18.461275 -16.681594 18.750338 -16.001906 18.7269 -15.287062 C 18.707369 -14.818312 18.555025 -14.369094 18.285494 -13.994094 M -10.175444 -17.505812 C -10.706694 -17.583937 -11.237944 -17.419875 -11.636381 -17.0605 C -11.99185 -16.736281 -12.202787 -16.294875 -12.226225 -15.814406 C -12.249662 -15.333937 -12.0856 -14.869094 -11.765287 -14.513625 L -9.42935 -11.919875 C -9.152006 -11.611281 -8.769194 -11.40425 -8.359037 -11.345656 C -7.827787 -11.267531 -7.296537 -11.431594 -6.8981 -11.794875 C -6.542631 -12.115187 -6.3356 -12.556594 -6.308256 -13.037062 C -6.284819 -13.517531 -6.448881 -13.978469 -6.769194 -14.337844 L -9.101225 -16.931594 C -9.382475 -17.240187 -9.761381 -17.447219 -10.175444 -17.505812 Z M -10.175444 -17.505812 " transform="matrix(1,0,0,-1,145.3356,312.6895)"/>
<g style="fill:rgb(25.498962%,25.099182%,25.898743%);fill-opacity:1;">
  <use xlink:href="#glyph2-1" x="97.6436" y="359.9043"/>
  <use xlink:href="#glyph2-2" x="102.901433" y="359.9043"/>
  <use xlink:href="#glyph2-3" x="109.020376" y="359.9043"/>
  <use xlink:href="#glyph2-4" x="113.153702" y="359.9043"/>
  <use xlink:href="#glyph2-5" x="118.837024" y="359.9043"/>
  <use xlink:href="#glyph2-6" x="128.258575" y="359.9043"/>
  <use xlink:href="#glyph2-7" x="130.892557" y="359.9043"/>
  <use xlink:href="#glyph2-8" x="133.455625" y="359.9043"/>
  <use xlink:href="#glyph2-9" x="139.665744" y="359.9043"/>
  <use xlink:href="#glyph2-10" x="144.498088" y="359.9043"/>
  <use xlink:href="#glyph2-5" x="150.718337" y="359.9043"/>
  <use xlink:href="#glyph2-6" x="160.139888" y="359.9043"/>
  <use xlink:href="#glyph2-11" x="162.77387" y="359.9043"/>
  <use xlink:href="#glyph2-2" x="168.983989" y="359.9043"/>
  <use xlink:href="#glyph2-12" x="175.102932" y="359.9043"/>
  <use xlink:href="#glyph2-2" x="177.665999" y="359.9043"/>
  <use xlink:href="#glyph2-3" x="183.784942" y="359.9043"/>
  <use xlink:href="#glyph2-6" x="187.918268" y="359.9043"/>
  <use xlink:href="#glyph2-9" x="190.55225" y="359.9043"/>
  <use xlink:href="#glyph2-7" x="195.384594" y="359.9043"/>
  <use xlink:href="#glyph2-13" x="197.947661" y="359.9043"/>
  <use xlink:href="#glyph2-6" x="201.523798" y="359.9043"/>
</g>
<g style="fill:rgb(25.498962%,25.099182%,25.898743%);fill-opacity:1;">
  <use xlink:href="#glyph2-14" x="107.024628" y="372.06114"/>
  <use xlink:href="#glyph2-5" x="112.657297" y="372.06114"/>
  <use xlink:href="#glyph2-4" x="122.078848" y="372.06114"/>
  <use xlink:href="#glyph2-13" x="127.762171" y="372.06114"/>
  <use xlink:href="#glyph2-15" x="131.338308" y="372.06114"/>
  <use xlink:href="#glyph2-6" x="133.82033" y="372.06114"/>
  <use xlink:href="#glyph2-16" x="136.454312" y="372.06114"/>
  <use xlink:href="#glyph2-2" x="141.276525" y="372.06114"/>
  <use xlink:href="#glyph2-17" x="147.395468" y="372.06114"/>
  <use xlink:href="#glyph2-9" x="153.615717" y="372.06114"/>
  <use xlink:href="#glyph2-4" x="158.448061" y="372.06114"/>
  <use xlink:href="#glyph2-16" x="164.131384" y="372.06114"/>
  <use xlink:href="#glyph2-13" x="168.953597" y="372.06114"/>
  <use xlink:href="#glyph2-4" x="172.529734" y="372.06114"/>
  <use xlink:href="#glyph2-13" x="178.213057" y="372.06114"/>
  <use xlink:href="#glyph2-10" x="181.789194" y="372.06114"/>
  <use xlink:href="#glyph2-3" x="188.009444" y="372.06114"/>
  <use xlink:href="#glyph2-6" x="192.14277" y="372.06114"/>
</g>
<g style="fill:rgb(25.498962%,25.099182%,25.898743%);fill-opacity:1;">
  <use xlink:href="#glyph2-14" x="99.102421" y="384.21798"/>
  <use xlink:href="#glyph2-11" x="104.73509" y="384.21798"/>
  <use xlink:href="#glyph2-7" x="110.945209" y="384.21798"/>
  <use xlink:href="#glyph2-8" x="113.508276" y="384.21798"/>
  <use xlink:href="#glyph2-7" x="119.718395" y="384.21798"/>
  <use xlink:href="#glyph2-9" x="122.281462" y="384.21798"/>
  <use xlink:href="#glyph2-16" x="127.113806" y="384.21798"/>
  <use xlink:href="#glyph2-7" x="131.936019" y="384.21798"/>
  <use xlink:href="#glyph2-17" x="134.499087" y="384.21798"/>
  <use xlink:href="#glyph2-18" x="140.719336" y="384.21798"/>
  <use xlink:href="#glyph2-6" x="146.27096" y="384.21798"/>
  <use xlink:href="#glyph2-4" x="148.904942" y="384.21798"/>
  <use xlink:href="#glyph2-12" x="154.588265" y="384.21798"/>
  <use xlink:href="#glyph2-7" x="157.151332" y="384.21798"/>
  <use xlink:href="#glyph2-13" x="159.714399" y="384.21798"/>
  <use xlink:href="#glyph2-15" x="163.290536" y="384.21798"/>
  <use xlink:href="#glyph2-6" x="165.772558" y="384.21798"/>
  <use xlink:href="#glyph2-9" x="168.40654" y="384.21798"/>
  <use xlink:href="#glyph2-4" x="173.238883" y="384.21798"/>
  <use xlink:href="#glyph2-11" x="178.922206" y="384.21798"/>
  <use xlink:href="#glyph2-6" x="185.132325" y="384.21798"/>
  <use xlink:href="#glyph2-11" x="187.766307" y="384.21798"/>
  <use xlink:href="#glyph2-2" x="193.976426" y="384.21798"/>
  <use xlink:href="#glyph2-6" x="200.095369" y="384.21798"/>
</g>
<g style="fill:rgb(25.498962%,25.099182%,25.898743%);fill-opacity:1;">
  <use xlink:href="#glyph2-4" x="110.175276" y="396.37482"/>
  <use xlink:href="#glyph2-7" x="115.858599" y="396.37482"/>
  <use xlink:href="#glyph2-10" x="118.421666" y="396.37482"/>
  <use xlink:href="#glyph2-9" x="124.641916" y="396.37482"/>
  <use xlink:href="#glyph2-5" x="129.474259" y="396.37482"/>
  <use xlink:href="#glyph2-2" x="138.89581" y="396.37482"/>
  <use xlink:href="#glyph2-11" x="145.014753" y="396.37482"/>
  <use xlink:href="#glyph2-6" x="151.224872" y="396.37482"/>
  <use xlink:href="#glyph2-13" x="153.858854" y="396.37482"/>
  <use xlink:href="#glyph2-4" x="157.434991" y="396.37482"/>
  <use xlink:href="#glyph2-5" x="163.118314" y="396.37482"/>
  <use xlink:href="#glyph2-8" x="172.539865" y="396.37482"/>
  <use xlink:href="#glyph2-2" x="178.749984" y="396.37482"/>
  <use xlink:href="#glyph2-3" x="184.868927" y="396.37482"/>
  <use xlink:href="#glyph2-6" x="189.002253" y="396.37482"/>
</g>
<g style="fill:rgb(25.498962%,25.099182%,25.898743%);fill-opacity:1;">
  <use xlink:href="#glyph2-1" x="263.138715" y="359.9043"/>
  <use xlink:href="#glyph2-2" x="268.396548" y="359.9043"/>
  <use xlink:href="#glyph2-3" x="274.515491" y="359.9043"/>
  <use xlink:href="#glyph2-4" x="278.648817" y="359.9043"/>
  <use xlink:href="#glyph2-5" x="284.33214" y="359.9043"/>
  <use xlink:href="#glyph2-6" x="293.753691" y="359.9043"/>
  <use xlink:href="#glyph2-7" x="296.387673" y="359.9043"/>
  <use xlink:href="#glyph2-8" x="298.95074" y="359.9043"/>
  <use xlink:href="#glyph2-9" x="305.160859" y="359.9043"/>
  <use xlink:href="#glyph2-10" x="309.993203" y="359.9043"/>
  <use xlink:href="#glyph2-5" x="316.213453" y="359.9043"/>
  <use xlink:href="#glyph2-6" x="325.635004" y="359.9043"/>
  <use xlink:href="#glyph2-11" x="328.268986" y="359.9043"/>
  <use xlink:href="#glyph2-2" x="334.479105" y="359.9043"/>
  <use xlink:href="#glyph2-12" x="340.598047" y="359.9043"/>
  <use xlink:href="#glyph2-2" x="343.161115" y="359.9043"/>
  <use xlink:href="#glyph2-3" x="349.280057" y="359.9043"/>
  <use xlink:href="#glyph2-6" x="353.413383" y="359.9043"/>
  <use xlink:href="#glyph2-9" x="356.047365" y="359.9043"/>
  <use xlink:href="#glyph2-7" x="360.879709" y="359.9043"/>
  <use xlink:href="#glyph2-13" x="363.442776" y="359.9043"/>
  <use xlink:href="#glyph2-6" x="367.018913" y="359.9043"/>
</g>
<g style="fill:rgb(25.498962%,25.099182%,25.898743%);fill-opacity:1;">
  <use xlink:href="#glyph2-14" x="272.519743" y="372.06114"/>
  <use xlink:href="#glyph2-5" x="278.152413" y="372.06114"/>
  <use xlink:href="#glyph2-4" x="287.573964" y="372.06114"/>
  <use xlink:href="#glyph2-13" x="293.257286" y="372.06114"/>
  <use xlink:href="#glyph2-15" x="296.833423" y="372.06114"/>
  <use xlink:href="#glyph2-6" x="299.315445" y="372.06114"/>
  <use xlink:href="#glyph2-16" x="301.949427" y="372.06114"/>
  <use xlink:href="#glyph2-2" x="306.77164" y="372.06114"/>
  <use xlink:href="#glyph2-17" x="312.890583" y="372.06114"/>
  <use xlink:href="#glyph2-9" x="319.110833" y="372.06114"/>
  <use xlink:href="#glyph2-4" x="323.943177" y="372.06114"/>
  <use xlink:href="#glyph2-16" x="329.626499" y="372.06114"/>
  <use xlink:href="#glyph2-13" x="334.448713" y="372.06114"/>
  <use xlink:href="#glyph2-4" x="338.02485" y="372.06114"/>
  <use xlink:href="#glyph2-13" x="343.708172" y="372.06114"/>
  <use xlink:href="#glyph2-10" x="347.284309" y="372.06114"/>
  <use xlink:href="#glyph2-3" x="353.504559" y="372.06114"/>
  <use xlink:href="#glyph2-6" x="357.637885" y="372.06114"/>
</g>
<g style="fill:rgb(25.498962%,25.099182%,25.898743%);fill-opacity:1;">
  <use xlink:href="#glyph2-14" x="264.597536" y="384.21798"/>
  <use xlink:href="#glyph2-11" x="270.230205" y="384.21798"/>
  <use xlink:href="#glyph2-7" x="276.440324" y="384.21798"/>
  <use xlink:href="#glyph2-8" x="279.003391" y="384.21798"/>
  <use xlink:href="#glyph2-7" x="285.21351" y="384.21798"/>
  <use xlink:href="#glyph2-9" x="287.776578" y="384.21798"/>
  <use xlink:href="#glyph2-16" x="292.608921" y="384.21798"/>
  <use xlink:href="#glyph2-7" x="297.431135" y="384.21798"/>
  <use xlink:href="#glyph2-17" x="299.994202" y="384.21798"/>
  <use xlink:href="#glyph2-18" x="306.214452" y="384.21798"/>
  <use xlink:href="#glyph2-6" x="311.766075" y="384.21798"/>
  <use xlink:href="#glyph2-4" x="314.400057" y="384.21798"/>
  <use xlink:href="#glyph2-12" x="320.08338" y="384.21798"/>
  <use xlink:href="#glyph2-7" x="322.646447" y="384.21798"/>
  <use xlink:href="#glyph2-13" x="325.209514" y="384.21798"/>
  <use xlink:href="#glyph2-15" x="328.785651" y="384.21798"/>
  <use xlink:href="#glyph2-6" x="331.267673" y="384.21798"/>
  <use xlink:href="#glyph2-9" x="333.901655" y="384.21798"/>
  <use xlink:href="#glyph2-4" x="338.733999" y="384.21798"/>
  <use xlink:href="#glyph2-11" x="344.417321" y="384.21798"/>
  <use xlink:href="#glyph2-6" x="350.62744" y="384.21798"/>
  <use xlink:href="#glyph2-11" x="353.261422" y="384.21798"/>
  <use xlink:href="#glyph2-2" x="359.471542" y="384.21798"/>
  <use xlink:href="#glyph2-6" x="365.590484" y="384.21798"/>
</g>
<g style="fill:rgb(25.498962%,25.099182%,25.898743%);fill-opacity:1;">
  <use xlink:href="#glyph2-4" x="275.670391" y="396.37482"/>
  <use xlink:href="#glyph2-7" x="281.353714" y="396.37482"/>
  <use xlink:href="#glyph2-10" x="283.916781" y="396.37482"/>
  <use xlink:href="#glyph2-9" x="290.137031" y="396.37482"/>
  <use xlink:href="#glyph2-5" x="294.969375" y="396.37482"/>
  <use xlink:href="#glyph2-2" x="304.390926" y="396.37482"/>
  <use xlink:href="#glyph2-11" x="310.509868" y="396.37482"/>
  <use xlink:href="#glyph2-6" x="316.719988" y="396.37482"/>
  <use xlink:href="#glyph2-13" x="319.35397" y="396.37482"/>
  <use xlink:href="#glyph2-4" x="322.930107" y="396.37482"/>
  <use xlink:href="#glyph2-5" x="328.613429" y="396.37482"/>
  <use xlink:href="#glyph2-8" x="338.03498" y="396.37482"/>
  <use xlink:href="#glyph2-2" x="344.245099" y="396.37482"/>
  <use xlink:href="#glyph2-3" x="350.364042" y="396.37482"/>
  <use xlink:href="#glyph2-6" x="354.497368" y="396.37482"/>
</g>
<g style="fill:rgb(25.498962%,25.099182%,25.898743%);fill-opacity:1;">
  <use xlink:href="#glyph2-1" x="430.892976" y="359.9043"/>
  <use xlink:href="#glyph2-2" x="436.15081" y="359.9043"/>
  <use xlink:href="#glyph2-3" x="442.269753" y="359.9043"/>
  <use xlink:href="#glyph2-4" x="446.403078" y="359.9043"/>
  <use xlink:href="#glyph2-5" x="452.086401" y="359.9043"/>
  <use xlink:href="#glyph2-6" x="461.507952" y="359.9043"/>
  <use xlink:href="#glyph2-7" x="464.141934" y="359.9043"/>
  <use xlink:href="#glyph2-8" x="466.705001" y="359.9043"/>
  <use xlink:href="#glyph2-9" x="472.91512" y="359.9043"/>
  <use xlink:href="#glyph2-10" x="477.747464" y="359.9043"/>
  <use xlink:href="#glyph2-5" x="483.967714" y="359.9043"/>
  <use xlink:href="#glyph2-6" x="493.389265" y="359.9043"/>
  <use xlink:href="#glyph2-11" x="496.023247" y="359.9043"/>
  <use xlink:href="#glyph2-2" x="502.233366" y="359.9043"/>
  <use xlink:href="#glyph2-12" x="508.352309" y="359.9043"/>
  <use xlink:href="#glyph2-2" x="510.915376" y="359.9043"/>
  <use xlink:href="#glyph2-3" x="517.034319" y="359.9043"/>
  <use xlink:href="#glyph2-6" x="521.167644" y="359.9043"/>
  <use xlink:href="#glyph2-9" x="523.801626" y="359.9043"/>
  <use xlink:href="#glyph2-7" x="528.63397" y="359.9043"/>
  <use xlink:href="#glyph2-13" x="531.197037" y="359.9043"/>
  <use xlink:href="#glyph2-6" x="534.773174" y="359.9043"/>
</g>
<g style="fill:rgb(25.498962%,25.099182%,25.898743%);fill-opacity:1;">
  <use xlink:href="#glyph2-14" x="440.274005" y="372.06114"/>
  <use xlink:href="#glyph2-5" x="445.906674" y="372.06114"/>
  <use xlink:href="#glyph2-4" x="455.328225" y="372.06114"/>
  <use xlink:href="#glyph2-13" x="461.011548" y="372.06114"/>
  <use xlink:href="#glyph2-15" x="464.587685" y="372.06114"/>
  <use xlink:href="#glyph2-6" x="467.069706" y="372.06114"/>
  <use xlink:href="#glyph2-16" x="469.703688" y="372.06114"/>
  <use xlink:href="#glyph2-2" x="474.525901" y="372.06114"/>
  <use xlink:href="#glyph2-17" x="480.644844" y="372.06114"/>
  <use xlink:href="#glyph2-9" x="486.865094" y="372.06114"/>
  <use xlink:href="#glyph2-4" x="491.697438" y="372.06114"/>
  <use xlink:href="#glyph2-16" x="497.380761" y="372.06114"/>
  <use xlink:href="#glyph2-13" x="502.202974" y="372.06114"/>
  <use xlink:href="#glyph2-4" x="505.779111" y="372.06114"/>
  <use xlink:href="#glyph2-13" x="511.462434" y="372.06114"/>
  <use xlink:href="#glyph2-10" x="515.038571" y="372.06114"/>
  <use xlink:href="#glyph2-3" x="521.258821" y="372.06114"/>
  <use xlink:href="#glyph2-6" x="525.392146" y="372.06114"/>
</g>
<g style="fill:rgb(25.498962%,25.099182%,25.898743%);fill-opacity:1;">
  <use xlink:href="#glyph2-14" x="432.351797" y="384.21798"/>
  <use xlink:href="#glyph2-11" x="437.984467" y="384.21798"/>
  <use xlink:href="#glyph2-7" x="444.194586" y="384.21798"/>
  <use xlink:href="#glyph2-8" x="446.757653" y="384.21798"/>
  <use xlink:href="#glyph2-7" x="452.967772" y="384.21798"/>
  <use xlink:href="#glyph2-9" x="455.530839" y="384.21798"/>
  <use xlink:href="#glyph2-16" x="460.363183" y="384.21798"/>
  <use xlink:href="#glyph2-7" x="465.185396" y="384.21798"/>
  <use xlink:href="#glyph2-17" x="467.748463" y="384.21798"/>
  <use xlink:href="#glyph2-18" x="473.968713" y="384.21798"/>
  <use xlink:href="#glyph2-6" x="479.520337" y="384.21798"/>
  <use xlink:href="#glyph2-4" x="482.154319" y="384.21798"/>
  <use xlink:href="#glyph2-12" x="487.837641" y="384.21798"/>
  <use xlink:href="#glyph2-7" x="490.400708" y="384.21798"/>
  <use xlink:href="#glyph2-13" x="492.963775" y="384.21798"/>
  <use xlink:href="#glyph2-15" x="496.539913" y="384.21798"/>
  <use xlink:href="#glyph2-6" x="499.021934" y="384.21798"/>
  <use xlink:href="#glyph2-9" x="501.655916" y="384.21798"/>
  <use xlink:href="#glyph2-4" x="506.48826" y="384.21798"/>
  <use xlink:href="#glyph2-11" x="512.171583" y="384.21798"/>
  <use xlink:href="#glyph2-6" x="518.381702" y="384.21798"/>
  <use xlink:href="#glyph2-11" x="521.015684" y="384.21798"/>
  <use xlink:href="#glyph2-2" x="527.225803" y="384.21798"/>
  <use xlink:href="#glyph2-6" x="533.344746" y="384.21798"/>
</g>
<g style="fill:rgb(25.498962%,25.099182%,25.898743%);fill-opacity:1;">
  <use xlink:href="#glyph2-4" x="443.424652" y="396.37482"/>
  <use xlink:href="#glyph2-7" x="449.107975" y="396.37482"/>
  <use xlink:href="#glyph2-10" x="451.671042" y="396.37482"/>
  <use xlink:href="#glyph2-9" x="457.891292" y="396.37482"/>
  <use xlink:href="#glyph2-5" x="462.723636" y="396.37482"/>
  <use xlink:href="#glyph2-2" x="472.145187" y="396.37482"/>
  <use xlink:href="#glyph2-11" x="478.26413" y="396.37482"/>
  <use xlink:href="#glyph2-6" x="484.474249" y="396.37482"/>
  <use xlink:href="#glyph2-13" x="487.108231" y="396.37482"/>
  <use xlink:href="#glyph2-4" x="490.684368" y="396.37482"/>
  <use xlink:href="#glyph2-5" x="496.367691" y="396.37482"/>
  <use xlink:href="#glyph2-8" x="505.789242" y="396.37482"/>
  <use xlink:href="#glyph2-2" x="511.999361" y="396.37482"/>
  <use xlink:href="#glyph2-3" x="518.118304" y="396.37482"/>
  <use xlink:href="#glyph2-6" x="522.251629" y="396.37482"/>
</g>
<g style="fill:rgb(25.498962%,25.099182%,25.898743%);fill-opacity:1;">
  <use xlink:href="#glyph2-1" x="607.774999" y="359.9043"/>
  <use xlink:href="#glyph2-2" x="613.032832" y="359.9043"/>
  <use xlink:href="#glyph2-3" x="619.151775" y="359.9043"/>
  <use xlink:href="#glyph2-4" x="623.2851" y="359.9043"/>
  <use xlink:href="#glyph2-5" x="628.968423" y="359.9043"/>
  <use xlink:href="#glyph2-6" x="638.389974" y="359.9043"/>
  <use xlink:href="#glyph2-7" x="641.023956" y="359.9043"/>
  <use xlink:href="#glyph2-8" x="643.587023" y="359.9043"/>
  <use xlink:href="#glyph2-9" x="649.797142" y="359.9043"/>
  <use xlink:href="#glyph2-10" x="654.629486" y="359.9043"/>
  <use xlink:href="#glyph2-5" x="660.849736" y="359.9043"/>
  <use xlink:href="#glyph2-6" x="670.271287" y="359.9043"/>
  <use xlink:href="#glyph2-11" x="672.905269" y="359.9043"/>
  <use xlink:href="#glyph2-2" x="679.115388" y="359.9043"/>
  <use xlink:href="#glyph2-12" x="685.234331" y="359.9043"/>
  <use xlink:href="#glyph2-2" x="687.797398" y="359.9043"/>
  <use xlink:href="#glyph2-3" x="693.916341" y="359.9043"/>
  <use xlink:href="#glyph2-6" x="698.049666" y="359.9043"/>
  <use xlink:href="#glyph2-9" x="700.683648" y="359.9043"/>
  <use xlink:href="#glyph2-7" x="705.515992" y="359.9043"/>
  <use xlink:href="#glyph2-13" x="708.079059" y="359.9043"/>
  <use xlink:href="#glyph2-6" x="711.655196" y="359.9043"/>
</g>
<g style="fill:rgb(25.498962%,25.099182%,25.898743%);fill-opacity:1;">
  <use xlink:href="#glyph2-14" x="617.156027" y="372.06114"/>
  <use xlink:href="#glyph2-5" x="622.788696" y="372.06114"/>
  <use xlink:href="#glyph2-4" x="632.210247" y="372.06114"/>
  <use xlink:href="#glyph2-13" x="637.89357" y="372.06114"/>
  <use xlink:href="#glyph2-15" x="641.469707" y="372.06114"/>
  <use xlink:href="#glyph2-6" x="643.951728" y="372.06114"/>
  <use xlink:href="#glyph2-16" x="646.58571" y="372.06114"/>
  <use xlink:href="#glyph2-2" x="651.407923" y="372.06114"/>
  <use xlink:href="#glyph2-17" x="657.526866" y="372.06114"/>
  <use xlink:href="#glyph2-9" x="663.747116" y="372.06114"/>
  <use xlink:href="#glyph2-4" x="668.57946" y="372.06114"/>
  <use xlink:href="#glyph2-16" x="674.262783" y="372.06114"/>
  <use xlink:href="#glyph2-13" x="679.084996" y="372.06114"/>
  <use xlink:href="#glyph2-4" x="682.661133" y="372.06114"/>
  <use xlink:href="#glyph2-13" x="688.344456" y="372.06114"/>
  <use xlink:href="#glyph2-10" x="691.920593" y="372.06114"/>
  <use xlink:href="#glyph2-3" x="698.140842" y="372.06114"/>
  <use xlink:href="#glyph2-6" x="702.274168" y="372.06114"/>
</g>
<g style="fill:rgb(25.498962%,25.099182%,25.898743%);fill-opacity:1;">
  <use xlink:href="#glyph2-14" x="609.233819" y="384.21798"/>
  <use xlink:href="#glyph2-11" x="614.866489" y="384.21798"/>
  <use xlink:href="#glyph2-7" x="621.076608" y="384.21798"/>
  <use xlink:href="#glyph2-8" x="623.639675" y="384.21798"/>
  <use xlink:href="#glyph2-7" x="629.849794" y="384.21798"/>
  <use xlink:href="#glyph2-9" x="632.412861" y="384.21798"/>
  <use xlink:href="#glyph2-16" x="637.245205" y="384.21798"/>
  <use xlink:href="#glyph2-7" x="642.067418" y="384.21798"/>
  <use xlink:href="#glyph2-17" x="644.630485" y="384.21798"/>
  <use xlink:href="#glyph2-18" x="650.850735" y="384.21798"/>
  <use xlink:href="#glyph2-6" x="656.402359" y="384.21798"/>
  <use xlink:href="#glyph2-4" x="659.036341" y="384.21798"/>
  <use xlink:href="#glyph2-12" x="664.719663" y="384.21798"/>
  <use xlink:href="#glyph2-7" x="667.28273" y="384.21798"/>
  <use xlink:href="#glyph2-13" x="669.845797" y="384.21798"/>
  <use xlink:href="#glyph2-15" x="673.421935" y="384.21798"/>
  <use xlink:href="#glyph2-6" x="675.903956" y="384.21798"/>
  <use xlink:href="#glyph2-9" x="678.537938" y="384.21798"/>
  <use xlink:href="#glyph2-4" x="683.370282" y="384.21798"/>
  <use xlink:href="#glyph2-11" x="689.053605" y="384.21798"/>
  <use xlink:href="#glyph2-6" x="695.263724" y="384.21798"/>
  <use xlink:href="#glyph2-11" x="697.897706" y="384.21798"/>
  <use xlink:href="#glyph2-2" x="704.107825" y="384.21798"/>
  <use xlink:href="#glyph2-6" x="710.226768" y="384.21798"/>
</g>
<g style="fill:rgb(25.498962%,25.099182%,25.898743%);fill-opacity:1;">
  <use xlink:href="#glyph2-4" x="620.306674" y="396.37482"/>
  <use xlink:href="#glyph2-7" x="625.989997" y="396.37482"/>
  <use xlink:href="#glyph2-10" x="628.553064" y="396.37482"/>
  <use xlink:href="#glyph2-9" x="634.773314" y="396.37482"/>
  <use xlink:href="#glyph2-5" x="639.605658" y="396.37482"/>
  <use xlink:href="#glyph2-2" x="649.027209" y="396.37482"/>
  <use xlink:href="#glyph2-11" x="655.146152" y="396.37482"/>
  <use xlink:href="#glyph2-6" x="661.356271" y="396.37482"/>
  <use xlink:href="#glyph2-13" x="663.990253" y="396.37482"/>
  <use xlink:href="#glyph2-4" x="667.56639" y="396.37482"/>
  <use xlink:href="#glyph2-5" x="673.249713" y="396.37482"/>
  <use xlink:href="#glyph2-8" x="682.671264" y="396.37482"/>
  <use xlink:href="#glyph2-2" x="688.881383" y="396.37482"/>
  <use xlink:href="#glyph2-3" x="695.000326" y="396.37482"/>
  <use xlink:href="#glyph2-6" x="699.133651" y="396.37482"/>
</g>
</g>
</svg>
