<?xml version="1.0" encoding="UTF-8"?>
<svg xmlns="http://www.w3.org/2000/svg" xmlns:xlink="http://www.w3.org/1999/xlink" width="1080pt" height="1080pt" viewBox="0 0 1080 1080" version="1.1">
<defs>
<g>
<symbol overflow="visible" id="glyph0-0">
<path style="stroke:none;" d="M 3.203125 -24.265625 L 17.171875 -24.265625 L 17.171875 0 L 3.203125 0 Z M 4.9375 -1.734375 L 15.4375 -1.734375 L 15.4375 -22.546875 L 4.9375 -22.546875 Z M 4.9375 -1.734375 "/>
</symbol>
<symbol overflow="visible" id="glyph0-1">
<path style="stroke:none;" d="M 17.203125 -13.984375 C 17.203125 -10.796875 16.78125 -8.125 15.9375 -5.96875 C 15.101563 -3.820313 13.882813 -2.234375 12.28125 -1.203125 C 10.6875 -0.179688 8.753906 0.328125 6.484375 0.328125 C 5.335938 0.328125 4.273438 0.1875 3.296875 -0.09375 L 3.296875 -1.53125 C 3.773438 -1.375 4.347656 -1.253906 5.015625 -1.171875 C 5.691406 -1.085938 6.207031 -1.046875 6.5625 -1.046875 C 9.289063 -1.046875 11.429688 -2.03125 12.984375 -4 C 14.535156 -5.976563 15.398438 -8.863281 15.578125 -12.65625 L 15.375 -12.65625 C 14.5625 -11.59375 13.597656 -10.773438 12.484375 -10.203125 C 11.367188 -9.628906 10.203125 -9.34375 8.984375 -9.34375 C 6.734375 -9.34375 4.976563 -9.960938 3.71875 -11.203125 C 2.46875 -12.441406 1.84375 -14.203125 1.84375 -16.484375 C 1.84375 -18.921875 2.53125 -20.890625 3.90625 -22.390625 C 5.289063 -23.898438 7.082031 -24.65625 9.28125 -24.65625 C 10.875 -24.65625 12.265625 -24.234375 13.453125 -23.390625 C 14.648438 -22.554688 15.570313 -21.332031 16.21875 -19.71875 C 16.875 -18.101563 17.203125 -16.191406 17.203125 -13.984375 Z M 9.28125 -23.1875 C 7.53125 -23.1875 6.132813 -22.597656 5.09375 -21.421875 C 4.050781 -20.242188 3.53125 -18.628906 3.53125 -16.578125 C 3.53125 -14.660156 4.007813 -13.203125 4.96875 -12.203125 C 5.9375 -11.203125 7.316406 -10.703125 9.109375 -10.703125 C 10.234375 -10.703125 11.28125 -10.953125 12.25 -11.453125 C 13.21875 -11.953125 13.984375 -12.613281 14.546875 -13.4375 C 15.117188 -14.257813 15.40625 -15.097656 15.40625 -15.953125 C 15.40625 -17.242188 15.144531 -18.453125 14.625 -19.578125 C 14.113281 -20.710938 13.394531 -21.597656 12.46875 -22.234375 C 11.550781 -22.867188 10.488281 -23.1875 9.28125 -23.1875 Z M 9.28125 -23.1875 "/>
</symbol>
<symbol overflow="visible" id="glyph0-2">
<path style="stroke:none;" d="M 3.5 -17.03125 C 3.5 -14.976563 3.75 -13.429688 4.25 -12.390625 C 4.75 -11.359375 5.53125 -10.84375 6.59375 -10.84375 C 8.726563 -10.84375 9.796875 -12.90625 9.796875 -17.03125 C 9.796875 -19.070313 9.519531 -20.601563 8.96875 -21.625 C 8.425781 -22.644531 7.632813 -23.15625 6.59375 -23.15625 C 5.53125 -23.15625 4.75 -22.644531 4.25 -21.625 C 3.75 -20.601563 3.5 -19.070313 3.5 -17.03125 Z M 11.421875 -17.03125 C 11.421875 -14.53125 11.003906 -12.628906 10.171875 -11.328125 C 9.347656 -10.023438 8.15625 -9.375 6.59375 -9.375 C 5.125 -9.375 3.96875 -10.039063 3.125 -11.375 C 2.289063 -12.707031 1.875 -14.59375 1.875 -17.03125 C 1.875 -19.5 2.269531 -21.378906 3.0625 -22.671875 C 3.863281 -23.972656 5.039063 -24.625 6.59375 -24.625 C 8.132813 -24.625 9.320313 -23.957031 10.15625 -22.625 C 11 -21.289063 11.421875 -19.425781 11.421875 -17.03125 Z M 17.640625 -7.265625 C 17.640625 -5.222656 17.890625 -3.6875 18.390625 -2.65625 C 18.890625 -1.632813 19.671875 -1.125 20.734375 -1.125 C 22.867188 -1.125 23.9375 -3.171875 23.9375 -7.265625 C 23.9375 -11.347656 22.867188 -13.390625 20.734375 -13.390625 C 19.671875 -13.390625 18.890625 -12.882813 18.390625 -11.875 C 17.890625 -10.863281 17.640625 -9.328125 17.640625 -7.265625 Z M 25.5625 -7.265625 C 25.5625 -4.765625 25.148438 -2.863281 24.328125 -1.5625 C 23.515625 -0.269531 22.328125 0.375 20.765625 0.375 C 19.265625 0.375 18.097656 -0.296875 17.265625 -1.640625 C 16.429688 -2.984375 16.015625 -4.859375 16.015625 -7.265625 C 16.015625 -9.753906 16.421875 -11.640625 17.234375 -12.921875 C 18.054688 -14.210938 19.234375 -14.859375 20.765625 -14.859375 C 22.285156 -14.859375 23.460938 -14.191406 24.296875 -12.859375 C 25.140625 -11.535156 25.5625 -9.671875 25.5625 -7.265625 Z M 21.25 -24.265625 L 7.78125 0 L 6.1875 0 L 19.65625 -24.265625 Z M 21.25 -24.265625 "/>
</symbol>
<symbol overflow="visible" id="glyph1-0">
<path style="stroke:none;" d="M 2.265625 -17.140625 L 12.125 -17.140625 L 12.125 0 L 2.265625 0 Z M 3.484375 -1.21875 L 10.90625 -1.21875 L 10.90625 -15.921875 L 3.484375 -15.921875 Z M 3.484375 -1.21875 "/>
</symbol>
<symbol overflow="visible" id="glyph1-1">
<path style="stroke:none;" d="M 7.515625 -12.984375 C 9.296875 -12.984375 10.632813 -12.421875 11.53125 -11.296875 C 12.4375 -10.179688 12.890625 -8.546875 12.890625 -6.390625 C 12.890625 -4.273438 12.414063 -2.640625 11.46875 -1.484375 C 10.519531 -0.335938 9.1875 0.234375 7.46875 0.234375 C 6.5625 0.234375 5.742188 0.046875 5.015625 -0.328125 C 4.285156 -0.703125 3.710938 -1.234375 3.296875 -1.921875 L 3.1875 -1.921875 L 2.859375 0 L 2.140625 0 L 2.140625 -18.234375 L 3.296875 -18.234375 L 3.296875 -13.65625 C 3.296875 -12.96875 3.28125 -12.332031 3.25 -11.75 L 3.21875 -10.765625 L 3.296875 -10.765625 C 3.773438 -11.523438 4.359375 -12.082031 5.046875 -12.4375 C 5.734375 -12.800781 6.554688 -12.984375 7.515625 -12.984375 Z M 7.484375 -11.9375 C 5.984375 -11.9375 4.910156 -11.503906 4.265625 -10.640625 C 3.617188 -9.785156 3.296875 -8.367188 3.296875 -6.390625 L 3.296875 -6.1875 C 3.296875 -4.269531 3.632813 -2.890625 4.3125 -2.046875 C 4.988281 -1.210938 6.039063 -0.796875 7.46875 -0.796875 C 8.851563 -0.796875 9.894531 -1.28125 10.59375 -2.25 C 11.300781 -3.226563 11.65625 -4.613281 11.65625 -6.40625 C 11.65625 -10.09375 10.265625 -11.9375 7.484375 -11.9375 Z M 7.484375 -11.9375 "/>
</symbol>
<symbol overflow="visible" id="glyph1-2">
<path style="stroke:none;" d="M 12.671875 -6.390625 C 12.671875 -4.304688 12.164063 -2.679688 11.15625 -1.515625 C 10.144531 -0.347656 8.753906 0.234375 6.984375 0.234375 C 5.867188 0.234375 4.882813 -0.0351563 4.03125 -0.578125 C 3.175781 -1.117188 2.519531 -1.890625 2.0625 -2.890625 C 1.613281 -3.898438 1.390625 -5.066406 1.390625 -6.390625 C 1.390625 -8.460938 1.894531 -10.078125 2.90625 -11.234375 C 3.914063 -12.398438 5.300781 -12.984375 7.0625 -12.984375 C 8.8125 -12.984375 10.179688 -12.394531 11.171875 -11.21875 C 12.171875 -10.039063 12.671875 -8.429688 12.671875 -6.390625 Z M 2.609375 -6.390625 C 2.609375 -4.640625 2.992188 -3.273438 3.765625 -2.296875 C 4.535156 -1.316406 5.625 -0.828125 7.03125 -0.828125 C 8.4375 -0.828125 9.523438 -1.316406 10.296875 -2.296875 C 11.066406 -3.273438 11.453125 -4.640625 11.453125 -6.390625 C 11.453125 -8.148438 11.0625 -9.515625 10.28125 -10.484375 C 9.507813 -11.453125 8.421875 -11.9375 7.015625 -11.9375 C 5.609375 -11.9375 4.519531 -11.453125 3.75 -10.484375 C 2.988281 -9.515625 2.609375 -8.148438 2.609375 -6.390625 Z M 2.609375 -6.390625 "/>
</symbol>
<symbol overflow="visible" id="glyph1-3">
<path style="stroke:none;" d="M 3.140625 -12.734375 L 3.140625 -4.484375 C 3.140625 -3.203125 3.410156 -2.269531 3.953125 -1.6875 C 4.492188 -1.113281 5.328125 -0.828125 6.453125 -0.828125 C 7.972656 -0.828125 9.085938 -1.207031 9.796875 -1.96875 C 10.515625 -2.738281 10.875 -3.984375 10.875 -5.703125 L 10.875 -12.734375 L 12.03125 -12.734375 L 12.03125 0 L 11.046875 0 L 10.828125 -1.765625 L 10.765625 -1.765625 C 9.929688 -0.429688 8.457031 0.234375 6.34375 0.234375 C 3.445313 0.234375 2 -1.316406 2 -4.421875 L 2 -12.734375 Z M 3.140625 -12.734375 "/>
</symbol>
<symbol overflow="visible" id="glyph1-4">
<path style="stroke:none;" d="M 11.015625 0 L 11.015625 -8.265625 C 11.015625 -9.546875 10.742188 -10.476563 10.203125 -11.0625 C 9.671875 -11.644531 8.835938 -11.9375 7.703125 -11.9375 C 6.179688 -11.9375 5.066406 -11.550781 4.359375 -10.78125 C 3.648438 -10.007813 3.296875 -8.757813 3.296875 -7.03125 L 3.296875 0 L 2.140625 0 L 2.140625 -12.734375 L 3.125 -12.734375 L 3.34375 -11 L 3.40625 -11 C 4.238281 -12.320313 5.710938 -12.984375 7.828125 -12.984375 C 10.722656 -12.984375 12.171875 -11.429688 12.171875 -8.328125 L 12.171875 0 Z M 11.015625 0 "/>
</symbol>
<symbol overflow="visible" id="glyph1-5">
<path style="stroke:none;" d="M 7.21875 0.234375 C 5.394531 0.234375 3.96875 -0.335938 2.9375 -1.484375 C 1.90625 -2.640625 1.390625 -4.242188 1.390625 -6.296875 C 1.390625 -8.398438 1.925781 -10.039063 3 -11.21875 C 4.070313 -12.394531 5.535156 -12.984375 7.390625 -12.984375 C 8.492188 -12.984375 9.550781 -12.789063 10.5625 -12.40625 L 10.25 -11.375 C 9.144531 -11.75 8.1875 -11.9375 7.375 -11.9375 C 5.8125 -11.9375 4.625 -11.453125 3.8125 -10.484375 C 3.007813 -9.515625 2.609375 -8.125 2.609375 -6.3125 C 2.609375 -4.59375 3.007813 -3.25 3.8125 -2.28125 C 4.625 -1.3125 5.753906 -0.828125 7.203125 -0.828125 C 8.359375 -0.828125 9.429688 -1.03125 10.421875 -1.4375 L 10.421875 -0.359375 C 9.609375 0.0351563 8.539063 0.234375 7.21875 0.234375 Z M 7.21875 0.234375 "/>
</symbol>
<symbol overflow="visible" id="glyph1-6">
<path style="stroke:none;" d="M 7.28125 0.234375 C 5.425781 0.234375 3.976563 -0.332031 2.9375 -1.46875 C 1.90625 -2.613281 1.390625 -4.210938 1.390625 -6.265625 C 1.390625 -8.296875 1.890625 -9.921875 2.890625 -11.140625 C 3.890625 -12.367188 5.238281 -12.984375 6.9375 -12.984375 C 8.4375 -12.984375 9.617188 -12.457031 10.484375 -11.40625 C 11.359375 -10.363281 11.796875 -8.945313 11.796875 -7.15625 L 11.796875 -6.21875 L 2.609375 -6.21875 C 2.628906 -4.46875 3.039063 -3.128906 3.84375 -2.203125 C 4.644531 -1.285156 5.789063 -0.828125 7.28125 -0.828125 C 8.007813 -0.828125 8.644531 -0.875 9.1875 -0.96875 C 9.738281 -1.070313 10.4375 -1.289063 11.28125 -1.625 L 11.28125 -0.578125 C 10.5625 -0.265625 9.894531 -0.0507813 9.28125 0.0625 C 8.675781 0.175781 8.007813 0.234375 7.28125 0.234375 Z M 6.9375 -11.953125 C 5.707031 -11.953125 4.722656 -11.546875 3.984375 -10.734375 C 3.242188 -9.929688 2.8125 -8.769531 2.6875 -7.25 L 10.5625 -7.25 C 10.5625 -8.71875 10.238281 -9.867188 9.59375 -10.703125 C 8.957031 -11.535156 8.070313 -11.953125 6.9375 -11.953125 Z M 6.9375 -11.953125 "/>
</symbol>
<symbol overflow="visible" id="glyph1-7">
<path style="stroke:none;" d="M 9.875 0 L 9.578125 -2.015625 L 9.484375 -2.015625 C 8.835938 -1.191406 8.175781 -0.609375 7.5 -0.265625 C 6.832031 0.0664063 6.035156 0.234375 5.109375 0.234375 C 3.859375 0.234375 2.882813 -0.0820313 2.1875 -0.71875 C 1.5 -1.363281 1.15625 -2.253906 1.15625 -3.390625 C 1.15625 -4.628906 1.671875 -5.59375 2.703125 -6.28125 C 3.734375 -6.96875 5.234375 -7.332031 7.203125 -7.375 L 9.625 -7.4375 L 9.625 -8.28125 C 9.625 -9.5 9.375 -10.414063 8.875 -11.03125 C 8.382813 -11.644531 7.59375 -11.953125 6.5 -11.953125 C 5.320313 -11.953125 4.101563 -11.625 2.84375 -10.96875 L 2.40625 -11.984375 C 3.800781 -12.640625 5.179688 -12.96875 6.546875 -12.96875 C 7.953125 -12.96875 9 -12.601563 9.6875 -11.875 C 10.375 -11.144531 10.71875 -10.007813 10.71875 -8.46875 L 10.71875 0 Z M 5.1875 -0.828125 C 6.539063 -0.828125 7.609375 -1.210938 8.390625 -1.984375 C 9.179688 -2.765625 9.578125 -3.847656 9.578125 -5.234375 L 9.578125 -6.484375 L 7.34375 -6.390625 C 5.5625 -6.304688 4.285156 -6.023438 3.515625 -5.546875 C 2.753906 -5.078125 2.375 -4.34375 2.375 -3.34375 C 2.375 -2.539063 2.617188 -1.921875 3.109375 -1.484375 C 3.597656 -1.046875 4.289063 -0.828125 5.1875 -0.828125 Z M 5.1875 -0.828125 "/>
</symbol>
<symbol overflow="visible" id="glyph1-8">
<path style="stroke:none;" d="M 3.265625 -5.59375 L 9.78125 -12.734375 L 11.1875 -12.734375 L 6.171875 -7.296875 L 11.609375 0 L 10.21875 0 L 5.375 -6.4375 L 3.296875 -4.53125 L 3.296875 0 L 2.140625 0 L 2.140625 -18.234375 L 3.296875 -18.234375 L 3.296875 -9.09375 L 3.21875 -5.59375 Z M 3.265625 -5.59375 "/>
</symbol>
<symbol overflow="visible" id="glyph1-9">
<path style="stroke:none;" d="M 7.578125 0.234375 C 5.617188 0.234375 4.191406 -0.5 3.296875 -1.96875 L 3.21875 -1.96875 L 3.25 -0.984375 C 3.28125 -0.410156 3.296875 0.222656 3.296875 0.921875 L 3.296875 5.765625 L 2.140625 5.765625 L 2.140625 -12.734375 L 3.125 -12.734375 L 3.34375 -10.921875 L 3.40625 -10.921875 C 4.28125 -12.296875 5.679688 -12.984375 7.609375 -12.984375 C 9.328125 -12.984375 10.632813 -12.414063 11.53125 -11.28125 C 12.4375 -10.15625 12.890625 -8.515625 12.890625 -6.359375 C 12.890625 -4.265625 12.414063 -2.640625 11.46875 -1.484375 C 10.519531 -0.335938 9.222656 0.234375 7.578125 0.234375 Z M 7.5625 -0.796875 C 8.863281 -0.796875 9.867188 -1.28125 10.578125 -2.25 C 11.296875 -3.21875 11.65625 -4.570313 11.65625 -6.3125 C 11.65625 -10.0625 10.304688 -11.9375 7.609375 -11.9375 C 6.117188 -11.9375 5.023438 -11.523438 4.328125 -10.703125 C 3.640625 -9.890625 3.296875 -8.5625 3.296875 -6.71875 L 3.296875 -6.34375 C 3.296875 -4.351563 3.628906 -2.929688 4.296875 -2.078125 C 4.960938 -1.222656 6.050781 -0.796875 7.5625 -0.796875 Z M 7.5625 -0.796875 "/>
</symbol>
<symbol overflow="visible" id="glyph1-10">
<path style="stroke:none;" d="M 10.03125 -3.3125 C 10.03125 -2.175781 9.597656 -1.300781 8.734375 -0.6875 C 7.867188 -0.0703125 6.640625 0.234375 5.046875 0.234375 C 3.335938 0.234375 1.984375 -0.0234375 0.984375 -0.546875 L 0.984375 -1.8125 C 2.265625 -1.164063 3.617188 -0.84375 5.046875 -0.84375 C 6.296875 -0.84375 7.25 -1.050781 7.90625 -1.46875 C 8.5625 -1.882813 8.890625 -2.441406 8.890625 -3.140625 C 8.890625 -3.785156 8.628906 -4.328125 8.109375 -4.765625 C 7.585938 -5.203125 6.734375 -5.628906 5.546875 -6.046875 C 4.273438 -6.503906 3.378906 -6.898438 2.859375 -7.234375 C 2.347656 -7.566406 1.957031 -7.941406 1.6875 -8.359375 C 1.425781 -8.773438 1.296875 -9.285156 1.296875 -9.890625 C 1.296875 -10.847656 1.695313 -11.601563 2.5 -12.15625 C 3.300781 -12.707031 4.421875 -12.984375 5.859375 -12.984375 C 7.234375 -12.984375 8.539063 -12.726563 9.78125 -12.21875 L 9.34375 -11.15625 C 8.09375 -11.675781 6.929688 -11.9375 5.859375 -11.9375 C 4.816406 -11.9375 3.988281 -11.765625 3.375 -11.421875 C 2.769531 -11.078125 2.46875 -10.597656 2.46875 -9.984375 C 2.46875 -9.316406 2.703125 -8.785156 3.171875 -8.390625 C 3.648438 -7.992188 4.578125 -7.550781 5.953125 -7.0625 C 7.097656 -6.644531 7.929688 -6.269531 8.453125 -5.9375 C 8.984375 -5.601563 9.378906 -5.222656 9.640625 -4.796875 C 9.898438 -4.378906 10.03125 -3.882813 10.03125 -3.3125 Z M 10.03125 -3.3125 "/>
</symbol>
<symbol overflow="visible" id="glyph1-11">
<path style="stroke:none;" d="M 7.15625 -12.984375 C 7.6875 -12.984375 8.265625 -12.929688 8.890625 -12.828125 L 8.65625 -11.703125 C 8.125 -11.835938 7.578125 -11.90625 7.015625 -11.90625 C 5.921875 -11.90625 5.023438 -11.441406 4.328125 -10.515625 C 3.640625 -9.597656 3.296875 -8.4375 3.296875 -7.03125 L 3.296875 0 L 2.140625 0 L 2.140625 -12.734375 L 3.125 -12.734375 L 3.234375 -10.4375 L 3.3125 -10.4375 C 3.84375 -11.375 4.40625 -12.03125 5 -12.40625 C 5.59375 -12.789063 6.3125 -12.984375 7.15625 -12.984375 Z M 7.15625 -12.984375 "/>
</symbol>
<symbol overflow="visible" id="glyph1-12">
<path style="stroke:none;" d="M 4.921875 0 L 0 -12.734375 L 1.203125 -12.734375 L 4.484375 -4.078125 C 4.921875 -2.972656 5.25 -2.003906 5.46875 -1.171875 L 5.546875 -1.171875 C 5.867188 -2.234375 6.195313 -3.210938 6.53125 -4.109375 L 9.828125 -12.734375 L 11.015625 -12.734375 L 6.09375 0 Z M 4.921875 0 "/>
</symbol>
<symbol overflow="visible" id="glyph1-13">
<path style="stroke:none;" d="M 3.296875 0 L 2.140625 0 L 2.140625 -18.234375 L 3.296875 -18.234375 Z M 3.296875 0 "/>
</symbol>
<symbol overflow="visible" id="glyph1-14">
<path style="stroke:none;" d="M 6.796875 -12.984375 C 7.722656 -12.984375 8.519531 -12.816406 9.1875 -12.484375 C 9.863281 -12.148438 10.46875 -11.578125 11 -10.765625 L 11.0625 -10.765625 C 11.019531 -11.742188 11 -12.707031 11 -13.65625 L 11 -18.234375 L 12.140625 -18.234375 L 12.140625 0 L 11.375 0 L 11.09375 -1.953125 L 11 -1.953125 C 10.03125 -0.492188 8.640625 0.234375 6.828125 0.234375 C 5.066406 0.234375 3.71875 -0.3125 2.78125 -1.40625 C 1.851563 -2.5 1.390625 -4.09375 1.390625 -6.1875 C 1.390625 -8.394531 1.847656 -10.078125 2.765625 -11.234375 C 3.691406 -12.398438 5.035156 -12.984375 6.796875 -12.984375 Z M 6.796875 -11.9375 C 5.410156 -11.9375 4.363281 -11.445313 3.65625 -10.46875 C 2.957031 -9.488281 2.609375 -8.070313 2.609375 -6.21875 C 2.609375 -2.601563 4.015625 -0.796875 6.828125 -0.796875 C 8.265625 -0.796875 9.316406 -1.210938 9.984375 -2.046875 C 10.660156 -2.890625 11 -4.269531 11 -6.1875 L 11 -6.390625 C 11 -8.359375 10.664063 -9.773438 10 -10.640625 C 9.34375 -11.503906 8.273438 -11.9375 6.796875 -11.9375 Z M 6.796875 -11.9375 "/>
</symbol>
<symbol overflow="visible" id="glyph1-15">
<path style="stroke:none;" d="M 3.296875 0 L 2.140625 0 L 2.140625 -12.734375 L 3.296875 -12.734375 Z M 1.96875 -16.28125 C 1.96875 -17.03125 2.210938 -17.40625 2.703125 -17.40625 C 2.953125 -17.40625 3.144531 -17.304688 3.28125 -17.109375 C 3.414063 -16.910156 3.484375 -16.632813 3.484375 -16.28125 C 3.484375 -15.925781 3.414063 -15.644531 3.28125 -15.4375 C 3.144531 -15.238281 2.953125 -15.140625 2.703125 -15.140625 C 2.210938 -15.140625 1.96875 -15.519531 1.96875 -16.28125 Z M 1.96875 -16.28125 "/>
</symbol>
<symbol overflow="visible" id="glyph1-16">
<path style="stroke:none;" d="M 5.5 -0.796875 C 6.226563 -0.796875 6.867188 -0.859375 7.421875 -0.984375 L 7.421875 -0.046875 C 6.859375 0.140625 6.207031 0.234375 5.46875 0.234375 C 4.34375 0.234375 3.515625 -0.0664063 2.984375 -0.671875 C 2.453125 -1.273438 2.1875 -2.21875 2.1875 -3.5 L 2.1875 -11.734375 L 0.296875 -11.734375 L 0.296875 -12.40625 L 2.1875 -12.9375 L 2.765625 -15.828125 L 3.359375 -15.828125 L 3.359375 -12.734375 L 7.109375 -12.734375 L 7.109375 -11.734375 L 3.359375 -11.734375 L 3.359375 -3.671875 C 3.359375 -2.691406 3.53125 -1.96875 3.875 -1.5 C 4.21875 -1.03125 4.757813 -0.796875 5.5 -0.796875 Z M 5.5 -0.796875 "/>
</symbol>
</g>
<filter id="alpha" filterUnits="objectBoundingBox" x="0%" y="0%" width="100%" height="100%">
  <feColorMatrix type="matrix" in="SourceGraphic" values="0 0 0 0 1 0 0 0 0 1 0 0 0 0 1 0 0 0 1 0"/>
</filter>
<mask id="mask0">
  <g filter="url(#alpha)">
<rect x="0" y="0" width="1080" height="1080" style="fill:rgb(0%,0%,0%);fill-opacity:0.100006;stroke:none;"/>
  </g>
</mask>
<clipPath id="clip2">
  <path d="M 0.800781 0.261719 L 624.089844 0.261719 L 624.089844 115.210938 L 0.800781 115.210938 Z M 0.800781 0.261719 "/>
</clipPath>
<clipPath id="clip1">
  <rect width="625" height="116"/>
</clipPath>
<g id="surface7" clip-path="url(#clip1)">
<g clip-path="url(#clip2)" clip-rule="nonzero">
<path style=" stroke:none;fill-rule:nonzero;fill:rgb(13.725281%,12.156677%,12.548828%);fill-opacity:1;" d="M 624.089844 110.789063 L 0.800781 115.210938 L 0.800781 0.261719 L 624.089844 0.261719 Z M 624.089844 110.789063 "/>
</g>
</g>
<mask id="mask1">
  <g filter="url(#alpha)">
<rect x="0" y="0" width="1080" height="1080" style="fill:rgb(0%,0%,0%);fill-opacity:0.100006;stroke:none;"/>
  </g>
</mask>
<clipPath id="clip4">
  <path d="M 0.800781 0.261719 L 703.011719 0.261719 L 703.011719 115.210938 L 0.800781 115.210938 Z M 0.800781 0.261719 "/>
</clipPath>
<clipPath id="clip3">
  <rect width="704" height="116"/>
</clipPath>
<g id="surface10" clip-path="url(#clip3)">
<g clip-path="url(#clip4)" clip-rule="nonzero">
<path style=" stroke:none;fill-rule:nonzero;fill:rgb(13.725281%,12.156677%,12.548828%);fill-opacity:1;" d="M 703.011719 110.789063 L 0.800781 115.210938 L 0.800781 0.261719 L 703.011719 0.261719 Z M 703.011719 110.789063 "/>
</g>
</g>
<mask id="mask2">
  <g filter="url(#alpha)">
<rect x="0" y="0" width="1080" height="1080" style="fill:rgb(0%,0%,0%);fill-opacity:0.100006;stroke:none;"/>
  </g>
</mask>
<clipPath id="clip6">
  <path d="M 0.800781 0.261719 L 412.839844 0.261719 L 412.839844 115.210938 L 0.800781 115.210938 Z M 0.800781 0.261719 "/>
</clipPath>
<clipPath id="clip5">
  <rect width="413" height="116"/>
</clipPath>
<g id="surface13" clip-path="url(#clip5)">
<g clip-path="url(#clip6)" clip-rule="nonzero">
<path style=" stroke:none;fill-rule:nonzero;fill:rgb(13.725281%,12.156677%,12.548828%);fill-opacity:1;" d="M 412.839844 110.789063 L 0.800781 115.210938 L 0.800781 0.261719 L 412.839844 0.261719 Z M 412.839844 110.789063 "/>
</g>
</g>
<mask id="mask3">
  <g filter="url(#alpha)">
<rect x="0" y="0" width="1080" height="1080" style="fill:rgb(0%,0%,0%);fill-opacity:0.100006;stroke:none;"/>
  </g>
</mask>
<clipPath id="clip8">
  <path d="M 0.800781 0.261719 L 591.09375 0.261719 L 591.09375 115.210938 L 0.800781 115.210938 Z M 0.800781 0.261719 "/>
</clipPath>
<clipPath id="clip7">
  <rect width="592" height="116"/>
</clipPath>
<g id="surface16" clip-path="url(#clip7)">
<g clip-path="url(#clip8)" clip-rule="nonzero">
<path style=" stroke:none;fill-rule:nonzero;fill:rgb(13.725281%,12.156677%,12.548828%);fill-opacity:1;" d="M 591.09375 110.789063 L 0.800781 115.210938 L 0.800781 0.261719 L 591.09375 0.261719 Z M 591.09375 110.789063 "/>
</g>
</g>
<mask id="mask4">
  <g filter="url(#alpha)">
<rect x="0" y="0" width="1080" height="1080" style="fill:rgb(0%,0%,0%);fill-opacity:0.100006;stroke:none;"/>
  </g>
</mask>
<clipPath id="clip10">
  <path d="M 0.800781 0.261719 L 824.871094 0.261719 L 824.871094 115.210938 L 0.800781 115.210938 Z M 0.800781 0.261719 "/>
</clipPath>
<clipPath id="clip9">
  <rect width="825" height="116"/>
</clipPath>
<g id="surface19" clip-path="url(#clip9)">
<g clip-path="url(#clip10)" clip-rule="nonzero">
<path style=" stroke:none;fill-rule:nonzero;fill:rgb(13.725281%,12.156677%,12.548828%);fill-opacity:1;" d="M 824.875 110.789063 L 0.800781 115.210938 L 0.800781 0.261719 L 824.875 0.261719 Z M 824.875 110.789063 "/>
</g>
</g>
<mask id="mask5">
  <g filter="url(#alpha)">
<rect x="0" y="0" width="1080" height="1080" style="fill:rgb(0%,0%,0%);fill-opacity:0.100006;stroke:none;"/>
  </g>
</mask>
<clipPath id="clip12">
  <path d="M 0.800781 0.261719 L 474.847656 0.261719 L 474.847656 115.210938 L 0.800781 115.210938 Z M 0.800781 0.261719 "/>
</clipPath>
<clipPath id="clip11">
  <rect width="475" height="116"/>
</clipPath>
<g id="surface22" clip-path="url(#clip11)">
<g clip-path="url(#clip12)" clip-rule="nonzero">
<path style=" stroke:none;fill-rule:nonzero;fill:rgb(13.725281%,12.156677%,12.548828%);fill-opacity:1;" d="M 474.847656 110.789063 L 0.800781 115.210938 L 0.800781 0.261719 L 474.847656 0.261719 Z M 474.847656 110.789063 "/>
</g>
</g>
<mask id="mask6">
  <g filter="url(#alpha)">
<rect x="0" y="0" width="1080" height="1080" style="fill:rgb(0%,0%,0%);fill-opacity:0.100006;stroke:none;"/>
  </g>
</mask>
<clipPath id="clip14">
  <path d="M 0.875 0.210938 L 82.871094 0.210938 L 82.871094 82.210938 L 0.875 82.210938 Z M 0.875 0.210938 "/>
</clipPath>
<clipPath id="clip13">
  <rect width="83" height="83"/>
</clipPath>
<g id="surface21" clip-path="url(#clip13)">
<g clip-path="url(#clip14)" clip-rule="nonzero">
<path style=" stroke:none;fill-rule:nonzero;fill:rgb(13.725281%,12.156677%,12.548828%);fill-opacity:1;" d="M 69.875 82.210938 L 13.875 82.210938 C 6.726563 82.210938 0.875 76.359375 0.875 69.210938 L 0.875 13.210938 C 0.875 6.0625 6.726563 0.210938 13.875 0.210938 L 69.875 0.210938 C 77.023438 0.210938 82.875 6.0625 82.875 13.210938 L 82.875 69.210938 C 82.875 76.359375 77.023438 82.210938 69.875 82.210938 "/>
</g>
</g>
</defs>
<g id="surface1">
<path style=" stroke:none;fill-rule:nonzero;fill:rgb(36.470032%,24.313354%,30.195618%);fill-opacity:1;" d="M 929.539063 935.859375 L 63.78125 935.859375 L 63.78125 302.261719 C 63.78125 247.035156 108.550781 202.261719 163.78125 202.261719 L 1029.539063 202.261719 L 1029.539063 835.859375 C 1029.539063 891.085938 984.765625 935.859375 929.539063 935.859375 "/>
<path style=" stroke:none;fill-rule:nonzero;fill:rgb(92.941284%,94.902039%,73.33374%);fill-opacity:1;" d="M 1029.539063 832.789063 L 184.800781 832.789063 L 184.800781 202.261719 L 1029.539063 202.261719 Z M 1029.539063 832.789063 "/>
<use xlink:href="#surface7" transform="matrix(1,0,0,1,184,722)" mask="url(#mask0)"/>
<path style=" stroke:none;fill-rule:nonzero;fill:rgb(83.137512%,87.843323%,34.901428%);fill-opacity:1;" d="M 808.089844 832.789063 L 184.800781 832.789063 L 184.800781 722.261719 L 808.089844 722.261719 Z M 808.089844 832.789063 "/>
<use xlink:href="#surface10" transform="matrix(1,0,0,1,184,618)" mask="url(#mask1)"/>
<path style=" stroke:none;fill-rule:nonzero;fill:rgb(83.137512%,87.843323%,34.901428%);fill-opacity:1;" d="M 887.011719 728.789063 L 184.800781 728.789063 L 184.800781 618.261719 L 887.011719 618.261719 Z M 887.011719 728.789063 "/>
<use xlink:href="#surface13" transform="matrix(1,0,0,1,184,514)" mask="url(#mask2)"/>
<path style=" stroke:none;fill-rule:nonzero;fill:rgb(83.137512%,87.843323%,34.901428%);fill-opacity:1;" d="M 596.839844 624.789063 L 184.800781 624.789063 L 184.800781 514.261719 L 596.839844 514.261719 Z M 596.839844 624.789063 "/>
<use xlink:href="#surface16" transform="matrix(1,0,0,1,184,410)" mask="url(#mask3)"/>
<path style=" stroke:none;fill-rule:nonzero;fill:rgb(83.137512%,87.843323%,34.901428%);fill-opacity:1;" d="M 775.09375 520.789063 L 184.800781 520.789063 L 184.800781 410.265625 L 775.09375 410.265625 Z M 775.09375 520.789063 "/>
<use xlink:href="#surface19" transform="matrix(1,0,0,1,184,306)" mask="url(#mask4)"/>
<path style=" stroke:none;fill-rule:nonzero;fill:rgb(83.137512%,87.843323%,34.901428%);fill-opacity:1;" d="M 1008.875 416.789063 L 184.800781 416.789063 L 184.800781 306.265625 L 1008.875 306.265625 Z M 1008.875 416.789063 "/>
<use xlink:href="#surface22" transform="matrix(1,0,0,1,184,202)" mask="url(#mask5)"/>
<path style=" stroke:none;fill-rule:nonzero;fill:rgb(83.137512%,87.843323%,34.901428%);fill-opacity:1;" d="M 658.847656 312.789063 L 184.800781 312.789063 L 184.800781 202.265625 L 658.847656 202.265625 Z M 658.847656 312.789063 "/>
<use xlink:href="#surface21" transform="matrix(1,0,0,1,962,321)" mask="url(#mask6)"/>
<path style=" stroke:none;fill-rule:nonzero;fill:rgb(36.470032%,24.313354%,30.195618%);fill-opacity:1;" d="M 1036.875 399.210938 L 980.875 399.210938 C 973.726563 399.210938 967.875 393.359375 967.875 386.210938 L 967.875 330.210938 C 967.875 323.058594 973.726563 317.210938 980.875 317.210938 L 1036.875 317.210938 C 1044.023438 317.210938 1049.875 323.058594 1049.875 330.210938 L 1049.875 386.210938 C 1049.875 393.359375 1044.023438 399.210938 1036.875 399.210938 "/>
<g style="fill:rgb(92.941284%,94.902039%,73.33374%);fill-opacity:1;">
  <use xlink:href="#glyph0-1" x="978.9844" y="368.9995"/>
  <use xlink:href="#glyph0-1" x="998.144191" y="368.9995"/>
  <use xlink:href="#glyph0-2" x="1017.303982" y="368.9995"/>
</g>
<g style="fill:rgb(83.137512%,87.843323%,34.901428%);fill-opacity:1;">
  <use xlink:href="#glyph1-1" x="77.6826" y="582.2422"/>
  <use xlink:href="#glyph1-2" x="92.096534" y="582.2422"/>
  <use xlink:href="#glyph1-3" x="106.292443" y="582.2422"/>
  <use xlink:href="#glyph1-4" x="120.585252" y="582.2422"/>
  <use xlink:href="#glyph1-5" x="134.878061" y="582.2422"/>
  <use xlink:href="#glyph1-6" x="146.384984" y="582.2422"/>
</g>
<g style="fill:rgb(83.137512%,87.843323%,34.901428%);fill-opacity:1;">
  <use xlink:href="#glyph1-1" x="80.4858" y="685.9893"/>
  <use xlink:href="#glyph1-7" x="94.899734" y="685.9893"/>
  <use xlink:href="#glyph1-5" x="107.739037" y="685.9893"/>
  <use xlink:href="#glyph1-8" x="119.24596" y="685.9893"/>
  <use xlink:href="#glyph1-3" x="130.970908" y="685.9893"/>
  <use xlink:href="#glyph1-9" x="145.263717" y="685.9893"/>
</g>
<g style="fill:rgb(83.137512%,87.843323%,34.901428%);fill-opacity:1;">
  <use xlink:href="#glyph1-10" x="91.8296" y="789.7373"/>
  <use xlink:href="#glyph1-6" x="103.118497" y="789.7373"/>
  <use xlink:href="#glyph1-11" x="116.418077" y="789.7373"/>
  <use xlink:href="#glyph1-12" x="125.84164" y="789.7373"/>
  <use xlink:href="#glyph1-6" x="136.960961" y="789.7373"/>
  <use xlink:href="#glyph1-11" x="150.260541" y="789.7373"/>
</g>
<g style="fill:rgb(83.137512%,87.843323%,34.901428%);fill-opacity:1;">
  <use xlink:href="#glyph1-5" x="99.7905" y="478.4951"/>
  <use xlink:href="#glyph1-13" x="111.297423" y="478.4951"/>
  <use xlink:href="#glyph1-2" x="116.772295" y="478.4951"/>
  <use xlink:href="#glyph1-3" x="130.968204" y="478.4951"/>
  <use xlink:href="#glyph1-14" x="145.261013" y="478.4951"/>
</g>
<g style="fill:rgb(83.137512%,87.843323%,34.901428%);fill-opacity:1;">
  <use xlink:href="#glyph1-10" x="84.271" y="374.7471"/>
  <use xlink:href="#glyph1-6" x="95.559897" y="374.7471"/>
  <use xlink:href="#glyph1-11" x="108.859477" y="374.7471"/>
  <use xlink:href="#glyph1-12" x="118.28304" y="374.7471"/>
  <use xlink:href="#glyph1-15" x="129.402361" y="374.7471"/>
  <use xlink:href="#glyph1-5" x="134.877234" y="374.7471"/>
  <use xlink:href="#glyph1-6" x="146.384156" y="374.7471"/>
</g>
<g style="fill:rgb(83.137512%,87.843323%,34.901428%);fill-opacity:1;">
  <use xlink:href="#glyph1-14" x="111.4771" y="271"/>
  <use xlink:href="#glyph1-7" x="125.891035" y="271"/>
  <use xlink:href="#glyph1-16" x="138.730337" y="271"/>
  <use xlink:href="#glyph1-7" x="146.845746" y="271"/>
</g>
</g>
</svg>
