<?xml version="1.0" encoding="UTF-8"?>
<svg xmlns="http://www.w3.org/2000/svg" xmlns:xlink="http://www.w3.org/1999/xlink" width="1080pt" height="1080pt" viewBox="0 0 1080 1080" version="1.1">
<defs>
<g>
<symbol overflow="visible" id="glyph0-0">
<path style="stroke:none;" d="M 3.296875 -24.984375 L 17.671875 -24.984375 L 17.671875 0 L 3.296875 0 Z M 5.078125 -1.78125 L 15.890625 -1.78125 L 15.890625 -23.203125 L 5.078125 -23.203125 Z M 5.078125 -1.78125 "/>
</symbol>
<symbol overflow="visible" id="glyph0-1">
<path style="stroke:none;" d="M 9.171875 -15.015625 C 11.835938 -15.015625 13.9375 -14.367188 15.46875 -13.078125 C 17.007813 -11.796875 17.78125 -10.03125 17.78125 -7.78125 C 17.78125 -5.21875 16.976563 -3.222656 15.375 -1.796875 C 13.78125 -0.367188 11.582031 0.34375 8.78125 0.34375 C 7.539063 0.34375 6.363281 0.222656 5.25 -0.015625 C 4.132813 -0.265625 3.195313 -0.617188 2.4375 -1.078125 L 2.4375 -2.84375 C 3.675781 -2.207031 4.769531 -1.765625 5.71875 -1.515625 C 6.675781 -1.273438 7.695313 -1.15625 8.78125 -1.15625 C 10.96875 -1.15625 12.722656 -1.734375 14.046875 -2.890625 C 15.367188 -4.046875 16.03125 -5.613281 16.03125 -7.59375 C 16.03125 -9.445313 15.382813 -10.898438 14.09375 -11.953125 C 12.8125 -13.015625 11.066406 -13.546875 8.859375 -13.546875 C 7.367188 -13.546875 5.816406 -13.328125 4.203125 -12.890625 L 3.171875 -13.546875 L 4.171875 -24.984375 L 16.203125 -24.984375 L 16.203125 -23.34375 L 5.78125 -23.34375 L 5 -14.53125 C 6.78125 -14.851563 8.171875 -15.015625 9.171875 -15.015625 Z M 9.171875 -15.015625 "/>
</symbol>
<symbol overflow="visible" id="glyph0-2">
<path style="stroke:none;" d="M 18.03125 -12.5625 C 18.03125 -8.175781 17.359375 -4.925781 16.015625 -2.8125 C 14.679688 -0.707031 12.660156 0.34375 9.953125 0.34375 C 7.335938 0.34375 5.351563 -0.738281 4 -2.90625 C 2.644531 -5.082031 1.96875 -8.300781 1.96875 -12.5625 C 1.96875 -16.914063 2.625 -20.140625 3.9375 -22.234375 C 5.25 -24.328125 7.253906 -25.375 9.953125 -25.375 C 12.578125 -25.375 14.578125 -24.289063 15.953125 -22.125 C 17.335938 -19.957031 18.03125 -16.769531 18.03125 -12.5625 Z M 3.8125 -12.5625 C 3.8125 -8.6875 4.316406 -5.820313 5.328125 -3.96875 C 6.347656 -2.125 7.890625 -1.203125 9.953125 -1.203125 C 12.097656 -1.203125 13.664063 -2.15625 14.65625 -4.0625 C 15.644531 -5.976563 16.140625 -8.8125 16.140625 -12.5625 C 16.140625 -16.25 15.644531 -19.050781 14.65625 -20.96875 C 13.664063 -22.882813 12.097656 -23.84375 9.953125 -23.84375 C 7.796875 -23.84375 6.234375 -22.882813 5.265625 -20.96875 C 4.296875 -19.050781 3.8125 -16.25 3.8125 -12.5625 Z M 3.8125 -12.5625 "/>
</symbol>
<symbol overflow="visible" id="glyph0-3">
<path style="stroke:none;" d="M 5.703125 0 L 16 -23.34375 L 1.859375 -23.34375 L 1.859375 -24.984375 L 18.03125 -24.984375 L 18.03125 -23.734375 L 7.703125 0 Z M 5.703125 0 "/>
</symbol>
<symbol overflow="visible" id="glyph0-4">
<path style="stroke:none;" d="M 17.703125 -14.390625 C 17.703125 -11.109375 17.269531 -8.363281 16.40625 -6.15625 C 15.550781 -3.945313 14.300781 -2.3125 12.65625 -1.25 C 11.007813 -0.1875 9.019531 0.34375 6.6875 0.34375 C 5.5 0.34375 4.40625 0.191406 3.40625 -0.109375 L 3.40625 -1.578125 C 3.894531 -1.410156 4.484375 -1.285156 5.171875 -1.203125 C 5.859375 -1.117188 6.382813 -1.078125 6.75 -1.078125 C 9.5625 -1.078125 11.765625 -2.09375 13.359375 -4.125 C 14.953125 -6.15625 15.84375 -9.117188 16.03125 -13.015625 L 15.828125 -13.015625 C 14.992188 -11.921875 14 -11.082031 12.84375 -10.5 C 11.695313 -9.914063 10.5 -9.625 9.25 -9.625 C 6.9375 -9.625 5.128906 -10.257813 3.828125 -11.53125 C 2.535156 -12.8125 1.890625 -14.625 1.890625 -16.96875 C 1.890625 -19.476563 2.597656 -21.503906 4.015625 -23.046875 C 5.441406 -24.597656 7.285156 -25.375 9.546875 -25.375 C 11.191406 -25.375 12.628906 -24.941406 13.859375 -24.078125 C 15.085938 -23.222656 16.035156 -21.960938 16.703125 -20.296875 C 17.367188 -18.640625 17.703125 -16.671875 17.703125 -14.390625 Z M 9.546875 -23.875 C 7.753906 -23.875 6.320313 -23.265625 5.25 -22.046875 C 4.175781 -20.835938 3.640625 -19.179688 3.640625 -17.078125 C 3.640625 -15.085938 4.132813 -13.578125 5.125 -12.546875 C 6.113281 -11.523438 7.53125 -11.015625 9.375 -11.015625 C 10.53125 -11.015625 11.601563 -11.269531 12.59375 -11.78125 C 13.59375 -12.300781 14.382813 -12.984375 14.96875 -13.828125 C 15.5625 -14.679688 15.859375 -15.546875 15.859375 -16.421875 C 15.859375 -17.753906 15.59375 -19 15.0625 -20.15625 C 14.53125 -21.320313 13.789063 -22.234375 12.84375 -22.890625 C 11.894531 -23.546875 10.796875 -23.875 9.546875 -23.875 Z M 9.546875 -23.875 "/>
</symbol>
<symbol overflow="visible" id="glyph0-5">
<path style="stroke:none;" d="M 11.65625 0 L 9.984375 0 L 9.984375 -18.203125 C 9.984375 -19.847656 10.050781 -21.5625 10.1875 -23.34375 C 10.007813 -23.175781 9.828125 -23.007813 9.640625 -22.84375 C 9.460938 -22.6875 7.707031 -21.304688 4.375 -18.703125 L 3.40625 -19.90625 L 10.1875 -24.984375 L 11.65625 -24.984375 Z M 11.65625 0 "/>
</symbol>
<symbol overflow="visible" id="glyph0-6">
<path style="stroke:none;" d="M 16.734375 -19.109375 C 16.734375 -17.554688 16.242188 -16.25 15.265625 -15.1875 C 14.296875 -14.132813 12.988281 -13.457031 11.34375 -13.15625 L 11.34375 -13.0625 C 13.351563 -12.8125 14.878906 -12.171875 15.921875 -11.140625 C 16.972656 -10.117188 17.5 -8.738281 17.5 -7 C 17.5 -4.664063 16.703125 -2.859375 15.109375 -1.578125 C 13.523438 -0.296875 11.238281 0.34375 8.25 0.34375 C 5.707031 0.34375 3.492188 -0.128906 1.609375 -1.078125 L 1.609375 -2.765625 C 2.566406 -2.265625 3.640625 -1.867188 4.828125 -1.578125 C 6.015625 -1.296875 7.132813 -1.15625 8.1875 -1.15625 C 10.707031 -1.15625 12.597656 -1.664063 13.859375 -2.6875 C 15.117188 -3.707031 15.75 -5.144531 15.75 -7 C 15.75 -8.65625 15.101563 -9.925781 13.8125 -10.8125 C 12.519531 -11.707031 10.625 -12.15625 8.125 -12.15625 L 5.421875 -12.15625 L 5.421875 -13.796875 L 8.15625 -13.796875 C 10.226563 -13.796875 11.867188 -14.285156 13.078125 -15.265625 C 14.296875 -16.253906 14.90625 -17.59375 14.90625 -19.28125 C 14.90625 -20.664063 14.410156 -21.773438 13.421875 -22.609375 C 12.441406 -23.453125 11.148438 -23.875 9.546875 -23.875 C 8.304688 -23.875 7.171875 -23.695313 6.140625 -23.34375 C 5.117188 -23 3.972656 -22.40625 2.703125 -21.5625 L 1.859375 -22.71875 C 2.828125 -23.519531 3.992188 -24.15625 5.359375 -24.625 C 6.734375 -25.101563 8.117188 -25.34375 9.515625 -25.34375 C 11.816406 -25.34375 13.59375 -24.796875 14.84375 -23.703125 C 16.101563 -22.617188 16.734375 -21.085938 16.734375 -19.109375 Z M 16.734375 -19.109375 "/>
</symbol>
<symbol overflow="visible" id="glyph1-0">
<path style="stroke:none;" d="M 3.203125 -24.265625 L 17.171875 -24.265625 L 17.171875 0 L 3.203125 0 Z M 4.9375 -1.734375 L 15.4375 -1.734375 L 15.4375 -22.546875 L 4.9375 -22.546875 Z M 4.9375 -1.734375 "/>
</symbol>
<symbol overflow="visible" id="glyph1-1">
<path style="stroke:none;" d="M 13.015625 -18.90625 C 13.703125 -18.90625 14.269531 -18.859375 14.71875 -18.765625 L 14.34375 -14.015625 C 13.9375 -14.117188 13.4375 -14.171875 12.84375 -14.171875 C 11.226563 -14.171875 9.96875 -13.753906 9.0625 -12.921875 C 8.164063 -12.097656 7.71875 -10.941406 7.71875 -9.453125 L 7.71875 0 L 2.65625 0 L 2.65625 -18.5625 L 6.484375 -18.5625 L 7.234375 -15.4375 L 7.484375 -15.4375 C 8.054688 -16.476563 8.832031 -17.316406 9.8125 -17.953125 C 10.800781 -18.585938 11.867188 -18.90625 13.015625 -18.90625 Z M 13.015625 -18.90625 "/>
</symbol>
<symbol overflow="visible" id="glyph1-2">
<path style="stroke:none;" d="M 10.34375 -15.3125 C 9.269531 -15.3125 8.425781 -14.96875 7.8125 -14.28125 C 7.207031 -13.601563 6.863281 -12.640625 6.78125 -11.390625 L 13.875 -11.390625 C 13.851563 -12.640625 13.523438 -13.601563 12.890625 -14.28125 C 12.265625 -14.96875 11.414063 -15.3125 10.34375 -15.3125 Z M 11.0625 0.328125 C 8.070313 0.328125 5.734375 -0.492188 4.046875 -2.140625 C 2.367188 -3.785156 1.53125 -6.117188 1.53125 -9.140625 C 1.53125 -12.253906 2.304688 -14.660156 3.859375 -16.359375 C 5.410156 -18.054688 7.5625 -18.90625 10.3125 -18.90625 C 12.9375 -18.90625 14.976563 -18.15625 16.4375 -16.65625 C 17.894531 -15.164063 18.625 -13.101563 18.625 -10.46875 L 18.625 -8.015625 L 6.65625 -8.015625 C 6.707031 -6.578125 7.128906 -5.453125 7.921875 -4.640625 C 8.722656 -3.835938 9.847656 -3.4375 11.296875 -3.4375 C 12.410156 -3.4375 13.460938 -3.550781 14.453125 -3.78125 C 15.453125 -4.019531 16.492188 -4.390625 17.578125 -4.890625 L 17.578125 -0.984375 C 16.691406 -0.535156 15.742188 -0.207031 14.734375 0 C 13.734375 0.21875 12.507813 0.328125 11.0625 0.328125 Z M 11.0625 0.328125 "/>
</symbol>
<symbol overflow="visible" id="glyph1-3">
<path style="stroke:none;" d="M 8.53125 0.328125 C 6.351563 0.328125 4.640625 -0.515625 3.390625 -2.203125 C 2.148438 -3.898438 1.53125 -6.25 1.53125 -9.25 C 1.53125 -12.289063 2.160156 -14.660156 3.421875 -16.359375 C 4.691406 -18.054688 6.441406 -18.90625 8.671875 -18.90625 C 11.003906 -18.90625 12.785156 -18 14.015625 -16.1875 L 14.171875 -16.1875 C 13.921875 -17.570313 13.796875 -18.804688 13.796875 -19.890625 L 13.796875 -25.828125 L 18.875 -25.828125 L 18.875 0 L 14.984375 0 L 14.015625 -2.40625 L 13.796875 -2.40625 C 12.640625 -0.582031 10.882813 0.328125 8.53125 0.328125 Z M 10.3125 -3.703125 C 11.601563 -3.703125 12.550781 -4.078125 13.15625 -4.828125 C 13.757813 -5.578125 14.085938 -6.859375 14.140625 -8.671875 L 14.140625 -9.21875 C 14.140625 -11.207031 13.832031 -12.632813 13.21875 -13.5 C 12.601563 -14.363281 11.609375 -14.796875 10.234375 -14.796875 C 9.097656 -14.796875 8.21875 -14.316406 7.59375 -13.359375 C 6.96875 -12.398438 6.65625 -11.007813 6.65625 -9.1875 C 6.65625 -7.351563 6.96875 -5.976563 7.59375 -5.0625 C 8.226563 -4.15625 9.132813 -3.703125 10.3125 -3.703125 Z M 10.3125 -3.703125 "/>
</symbol>
<symbol overflow="visible" id="glyph1-4">
<path style="stroke:none;" d="M 12.84375 0.328125 C 10.664063 0.328125 8.957031 -0.460938 7.71875 -2.046875 L 7.453125 -2.046875 C 7.628906 -0.492188 7.71875 0.398438 7.71875 0.640625 L 7.71875 8.171875 L 2.65625 8.171875 L 2.65625 -18.5625 L 6.78125 -18.5625 L 7.484375 -16.15625 L 7.71875 -16.15625 C 8.90625 -17.988281 10.660156 -18.90625 12.984375 -18.90625 C 15.171875 -18.90625 16.882813 -18.054688 18.125 -16.359375 C 19.363281 -14.671875 19.984375 -12.320313 19.984375 -9.3125 C 19.984375 -7.332031 19.691406 -5.609375 19.109375 -4.140625 C 18.535156 -2.679688 17.710938 -1.570313 16.640625 -0.8125 C 15.566406 -0.0507813 14.300781 0.328125 12.84375 0.328125 Z M 11.359375 -14.859375 C 10.109375 -14.859375 9.191406 -14.472656 8.609375 -13.703125 C 8.035156 -12.929688 7.738281 -11.660156 7.71875 -9.890625 L 7.71875 -9.34375 C 7.71875 -7.351563 8.015625 -5.925781 8.609375 -5.0625 C 9.203125 -4.195313 10.140625 -3.765625 11.421875 -3.765625 C 13.691406 -3.765625 14.828125 -5.632813 14.828125 -9.375 C 14.828125 -11.207031 14.546875 -12.578125 13.984375 -13.484375 C 13.429688 -14.398438 12.554688 -14.859375 11.359375 -14.859375 Z M 11.359375 -14.859375 "/>
</symbol>
<symbol overflow="visible" id="glyph1-5">
<path style="stroke:none;" d="M 15.8125 0 L 15.125 -2.375 L 14.859375 -2.375 C 14.316406 -1.507813 13.546875 -0.84375 12.546875 -0.375 C 11.554688 0.09375 10.421875 0.328125 9.140625 0.328125 C 6.960938 0.328125 5.320313 -0.253906 4.21875 -1.421875 C 3.113281 -2.585938 2.5625 -4.265625 2.5625 -6.453125 L 2.5625 -18.5625 L 7.625 -18.5625 L 7.625 -7.71875 C 7.625 -6.382813 7.859375 -5.378906 8.328125 -4.703125 C 8.804688 -4.035156 9.566406 -3.703125 10.609375 -3.703125 C 12.023438 -3.703125 13.046875 -4.175781 13.671875 -5.125 C 14.304688 -6.070313 14.625 -7.640625 14.625 -9.828125 L 14.625 -18.5625 L 19.6875 -18.5625 L 19.6875 0 Z M 15.8125 0 "/>
</symbol>
<symbol overflow="visible" id="glyph1-6">
<path style="stroke:none;" d="M 10.1875 0.328125 C 4.414063 0.328125 1.53125 -2.84375 1.53125 -9.1875 C 1.53125 -12.332031 2.316406 -14.738281 3.890625 -16.40625 C 5.460938 -18.070313 7.710938 -18.90625 10.640625 -18.90625 C 12.785156 -18.90625 14.710938 -18.484375 16.421875 -17.640625 L 14.921875 -13.734375 C 14.128906 -14.054688 13.390625 -14.316406 12.703125 -14.515625 C 12.015625 -14.722656 11.328125 -14.828125 10.640625 -14.828125 C 8.003906 -14.828125 6.6875 -12.957031 6.6875 -9.21875 C 6.6875 -5.582031 8.003906 -3.765625 10.640625 -3.765625 C 11.617188 -3.765625 12.519531 -3.894531 13.34375 -4.15625 C 14.175781 -4.414063 15.007813 -4.820313 15.84375 -5.375 L 15.84375 -1.046875 C 15.019531 -0.523438 14.191406 -0.164063 13.359375 0.03125 C 12.523438 0.226563 11.46875 0.328125 10.1875 0.328125 Z M 10.1875 0.328125 "/>
</symbol>
<symbol overflow="visible" id="glyph2-0">
<path style="stroke:none;" d="M 3.203125 -24.265625 L 17.171875 -24.265625 L 17.171875 0 L 3.203125 0 Z M 4.9375 -1.734375 L 15.4375 -1.734375 L 15.4375 -22.546875 L 4.9375 -22.546875 Z M 4.9375 -1.734375 "/>
</symbol>
<symbol overflow="visible" id="glyph2-1">
<path style="stroke:none;" d="M 1.84375 -0.328125 L 1.84375 -1.6875 L 17.578125 -1.6875 L 17.578125 -0.328125 Z M 10.375 -12.6875 L 17.578125 -12.6875 L 17.578125 -11.328125 L 10.375 -11.328125 L 10.375 -4.15625 L 9.015625 -4.15625 L 9.015625 -11.328125 L 1.84375 -11.328125 L 1.84375 -12.6875 L 9.015625 -12.6875 L 9.015625 -19.890625 L 10.375 -19.890625 Z M 10.375 -12.6875 "/>
</symbol>
<symbol overflow="visible" id="glyph2-2">
<path style="stroke:none;" d="M 17.203125 -13.984375 C 17.203125 -10.796875 16.78125 -8.125 15.9375 -5.96875 C 15.101563 -3.820313 13.882813 -2.234375 12.28125 -1.203125 C 10.6875 -0.179688 8.753906 0.328125 6.484375 0.328125 C 5.335938 0.328125 4.273438 0.1875 3.296875 -0.09375 L 3.296875 -1.53125 C 3.773438 -1.375 4.347656 -1.253906 5.015625 -1.171875 C 5.691406 -1.085938 6.207031 -1.046875 6.5625 -1.046875 C 9.289063 -1.046875 11.429688 -2.03125 12.984375 -4 C 14.535156 -5.976563 15.398438 -8.863281 15.578125 -12.65625 L 15.375 -12.65625 C 14.5625 -11.59375 13.597656 -10.773438 12.484375 -10.203125 C 11.367188 -9.628906 10.203125 -9.34375 8.984375 -9.34375 C 6.734375 -9.34375 4.976563 -9.960938 3.71875 -11.203125 C 2.46875 -12.441406 1.84375 -14.203125 1.84375 -16.484375 C 1.84375 -18.921875 2.53125 -20.890625 3.90625 -22.390625 C 5.289063 -23.898438 7.082031 -24.65625 9.28125 -24.65625 C 10.875 -24.65625 12.265625 -24.234375 13.453125 -23.390625 C 14.648438 -22.554688 15.570313 -21.332031 16.21875 -19.71875 C 16.875 -18.101563 17.203125 -16.191406 17.203125 -13.984375 Z M 9.28125 -23.1875 C 7.53125 -23.1875 6.132813 -22.597656 5.09375 -21.421875 C 4.050781 -20.242188 3.53125 -18.628906 3.53125 -16.578125 C 3.53125 -14.660156 4.007813 -13.203125 4.96875 -12.203125 C 5.9375 -11.203125 7.316406 -10.703125 9.109375 -10.703125 C 10.234375 -10.703125 11.28125 -10.953125 12.25 -11.453125 C 13.21875 -11.953125 13.984375 -12.613281 14.546875 -13.4375 C 15.117188 -14.257813 15.40625 -15.097656 15.40625 -15.953125 C 15.40625 -17.242188 15.144531 -18.453125 14.625 -19.578125 C 14.113281 -20.710938 13.394531 -21.597656 12.46875 -22.234375 C 11.550781 -22.867188 10.488281 -23.1875 9.28125 -23.1875 Z M 9.28125 -23.1875 "/>
</symbol>
<symbol overflow="visible" id="glyph2-3">
<path style="stroke:none;" d="M 9.65625 -24.6875 C 11.71875 -24.6875 13.375 -24.160156 14.625 -23.109375 C 15.882813 -22.054688 16.515625 -20.632813 16.515625 -18.84375 C 16.515625 -17.601563 16.125 -16.503906 15.34375 -15.546875 C 14.5625 -14.597656 13.300781 -13.722656 11.5625 -12.921875 C 13.6875 -12.046875 15.175781 -11.085938 16.03125 -10.046875 C 16.894531 -9.003906 17.328125 -7.742188 17.328125 -6.265625 C 17.328125 -4.253906 16.625 -2.648438 15.21875 -1.453125 C 13.820313 -0.265625 11.945313 0.328125 9.59375 0.328125 C 7.144531 0.328125 5.269531 -0.226563 3.96875 -1.34375 C 2.664063 -2.457031 2.015625 -4.082031 2.015625 -6.21875 C 2.015625 -7.675781 2.472656 -8.953125 3.390625 -10.046875 C 4.304688 -11.140625 5.726563 -12.070313 7.65625 -12.84375 C 5.875 -13.6875 4.617188 -14.578125 3.890625 -15.515625 C 3.160156 -16.453125 2.796875 -17.570313 2.796875 -18.875 C 2.796875 -20.039063 3.085938 -21.0625 3.671875 -21.9375 C 4.253906 -22.820313 5.070313 -23.5 6.125 -23.96875 C 7.1875 -24.445313 8.363281 -24.6875 9.65625 -24.6875 Z M 3.703125 -5.984375 C 3.703125 -4.453125 4.21875 -3.265625 5.25 -2.421875 C 6.289063 -1.578125 7.738281 -1.15625 9.59375 -1.15625 C 11.40625 -1.15625 12.863281 -1.597656 13.96875 -2.484375 C 15.082031 -3.378906 15.640625 -4.59375 15.640625 -6.125 C 15.640625 -7.5 15.203125 -8.613281 14.328125 -9.46875 C 13.460938 -10.332031 11.789063 -11.234375 9.3125 -12.171875 C 7.28125 -11.378906 5.835938 -10.507813 4.984375 -9.5625 C 4.128906 -8.613281 3.703125 -7.421875 3.703125 -5.984375 Z M 9.625 -23.1875 C 8.0625 -23.1875 6.804688 -22.800781 5.859375 -22.03125 C 4.921875 -21.269531 4.453125 -20.21875 4.453125 -18.875 C 4.453125 -18.101563 4.625 -17.421875 4.96875 -16.828125 C 5.320313 -16.234375 5.828125 -15.695313 6.484375 -15.21875 C 7.140625 -14.738281 8.242188 -14.175781 9.796875 -13.53125 C 11.597656 -14.226563 12.890625 -14.992188 13.671875 -15.828125 C 14.460938 -16.671875 14.859375 -17.6875 14.859375 -18.875 C 14.859375 -20.207031 14.390625 -21.257813 13.453125 -22.03125 C 12.515625 -22.800781 11.238281 -23.1875 9.625 -23.1875 Z M 9.625 -23.1875 "/>
</symbol>
<symbol overflow="visible" id="glyph2-4">
<path style="stroke:none;" d="M 5.546875 0 L 15.546875 -22.671875 L 1.8125 -22.671875 L 1.8125 -24.265625 L 17.515625 -24.265625 L 17.515625 -23.0625 L 7.484375 0 Z M 5.546875 0 "/>
</symbol>
<symbol overflow="visible" id="glyph2-5">
<path style="stroke:none;" d="M 17.0625 0 L 1.875 0 L 1.875 -1.46875 L 8.328125 -8.203125 C 10.148438 -10.085938 11.425781 -11.523438 12.15625 -12.515625 C 12.882813 -13.515625 13.421875 -14.46875 13.765625 -15.375 C 14.109375 -16.28125 14.28125 -17.234375 14.28125 -18.234375 C 14.28125 -19.679688 13.800781 -20.859375 12.84375 -21.765625 C 11.894531 -22.671875 10.660156 -23.125 9.140625 -23.125 C 7.117188 -23.125 5.1875 -22.390625 3.34375 -20.921875 L 2.4375 -22.0625 C 4.46875 -23.769531 6.71875 -24.625 9.1875 -24.625 C 11.300781 -24.625 12.960938 -24.054688 14.171875 -22.921875 C 15.378906 -21.796875 15.984375 -20.242188 15.984375 -18.265625 C 15.984375 -16.660156 15.578125 -15.109375 14.765625 -13.609375 C 13.953125 -12.109375 12.46875 -10.253906 10.3125 -8.046875 L 4.078125 -1.65625 L 4.078125 -1.59375 L 17.0625 -1.59375 Z M 17.0625 0 "/>
</symbol>
<symbol overflow="visible" id="glyph2-6">
<path style="stroke:none;" d="M 8.921875 -14.59375 C 11.503906 -14.59375 13.539063 -13.96875 15.03125 -12.71875 C 16.519531 -11.46875 17.265625 -9.742188 17.265625 -7.546875 C 17.265625 -5.054688 16.488281 -3.117188 14.9375 -1.734375 C 13.394531 -0.359375 11.257813 0.328125 8.53125 0.328125 C 7.320313 0.328125 6.175781 0.210938 5.09375 -0.015625 C 4.007813 -0.253906 3.101563 -0.597656 2.375 -1.046875 L 2.375 -2.75 C 3.570313 -2.144531 4.632813 -1.722656 5.5625 -1.484375 C 6.488281 -1.242188 7.476563 -1.125 8.53125 -1.125 C 10.65625 -1.125 12.359375 -1.6875 13.640625 -2.8125 C 14.929688 -3.9375 15.578125 -5.457031 15.578125 -7.375 C 15.578125 -9.175781 14.953125 -10.59375 13.703125 -11.625 C 12.453125 -12.65625 10.75 -13.171875 8.59375 -13.171875 C 7.15625 -13.171875 5.648438 -12.953125 4.078125 -12.515625 L 3.09375 -13.171875 L 4.046875 -24.265625 L 15.734375 -24.265625 L 15.734375 -22.671875 L 5.609375 -22.671875 L 4.859375 -14.109375 C 6.585938 -14.429688 7.941406 -14.59375 8.921875 -14.59375 Z M 8.921875 -14.59375 "/>
</symbol>
</g>
<filter id="alpha" filterUnits="objectBoundingBox" x="0%" y="0%" width="100%" height="100%">
  <feColorMatrix type="matrix" in="SourceGraphic" values="0 0 0 0 1 0 0 0 0 1 0 0 0 0 1 0 0 0 1 0"/>
</filter>
<mask id="mask0">
  <g filter="url(#alpha)">
<rect x="0" y="0" width="1080" height="1080" style="fill:rgb(0%,0%,0%);fill-opacity:0.5;stroke:none;"/>
  </g>
</mask>
<clipPath id="clip2">
  <path d="M 0 0.789063 L 975.609375 0.789063 L 975.609375 545.449219 L 0 545.449219 Z M 0 0.789063 "/>
</clipPath>
<clipPath id="clip1">
  <rect width="976" height="546"/>
</clipPath>
<g id="surface7" clip-path="url(#clip1)">
<g clip-path="url(#clip2)" clip-rule="nonzero">
<path style=" stroke:none;fill-rule:nonzero;fill:rgb(94.509888%,94.902039%,94.902039%);fill-opacity:1;" d="M 975.613281 545.449219 L 0 545.449219 L 0 0.789063 L 975.613281 0.789063 Z M 975.613281 545.449219 "/>
</g>
</g>
<mask id="mask1">
  <g filter="url(#alpha)">
<rect x="0" y="0" width="1080" height="1080" style="fill:rgb(0%,0%,0%);fill-opacity:0.199997;stroke:none;"/>
  </g>
</mask>
<clipPath id="clip4">
  <path d="M 0.09375 0.476563 L 26.507813 0.476563 L 26.507813 26.890625 L 0.09375 26.890625 Z M 0.09375 0.476563 "/>
</clipPath>
<clipPath id="clip3">
  <rect width="27" height="27"/>
</clipPath>
<g id="surface10" clip-path="url(#clip3)">
<g clip-path="url(#clip4)" clip-rule="nonzero">
<path style=" stroke:none;fill-rule:nonzero;fill:rgb(13.725281%,12.156677%,12.548828%);fill-opacity:1;" d="M 26.507813 13.683594 C 26.507813 20.976563 20.59375 26.890625 13.300781 26.890625 C 6.003906 26.890625 0.09375 20.976563 0.09375 13.683594 C 0.09375 6.390625 6.003906 0.476563 13.300781 0.476563 C 20.59375 0.476563 26.507813 6.390625 26.507813 13.683594 "/>
</g>
</g>
<mask id="mask2">
  <g filter="url(#alpha)">
<rect x="0" y="0" width="1080" height="1080" style="fill:rgb(0%,0%,0%);fill-opacity:0.199997;stroke:none;"/>
  </g>
</mask>
<clipPath id="clip6">
  <path d="M 0.996094 0.765625 L 27.410156 0.765625 L 27.410156 27.179688 L 0.996094 27.179688 Z M 0.996094 0.765625 "/>
</clipPath>
<clipPath id="clip5">
  <rect width="28" height="28"/>
</clipPath>
<g id="surface13" clip-path="url(#clip5)">
<g clip-path="url(#clip6)" clip-rule="nonzero">
<path style=" stroke:none;fill-rule:nonzero;fill:rgb(13.725281%,12.156677%,12.548828%);fill-opacity:1;" d="M 27.410156 13.972656 C 27.410156 21.265625 21.5 27.179688 14.203125 27.179688 C 6.910156 27.179688 0.996094 21.265625 0.996094 13.972656 C 0.996094 6.679688 6.910156 0.765625 14.203125 0.765625 C 21.5 0.765625 27.410156 6.679688 27.410156 13.972656 "/>
</g>
</g>
<mask id="mask3">
  <g filter="url(#alpha)">
<rect x="0" y="0" width="1080" height="1080" style="fill:rgb(0%,0%,0%);fill-opacity:0.199997;stroke:none;"/>
  </g>
</mask>
<clipPath id="clip8">
  <path d="M 0.417969 0.230469 L 26.832031 0.230469 L 26.832031 26.648438 L 0.417969 26.648438 Z M 0.417969 0.230469 "/>
</clipPath>
<clipPath id="clip7">
  <rect width="27" height="27"/>
</clipPath>
<g id="surface16" clip-path="url(#clip7)">
<g clip-path="url(#clip8)" clip-rule="nonzero">
<path style=" stroke:none;fill-rule:nonzero;fill:rgb(13.725281%,12.156677%,12.548828%);fill-opacity:1;" d="M 26.832031 13.441406 C 26.832031 20.734375 20.917969 26.648438 13.625 26.648438 C 6.328125 26.648438 0.417969 20.734375 0.417969 13.441406 C 0.417969 6.144531 6.328125 0.230469 13.625 0.230469 C 20.917969 0.230469 26.832031 6.144531 26.832031 13.441406 "/>
</g>
</g>
<mask id="mask4">
  <g filter="url(#alpha)">
<rect x="0" y="0" width="1080" height="1080" style="fill:rgb(0%,0%,0%);fill-opacity:0.199997;stroke:none;"/>
  </g>
</mask>
<clipPath id="clip10">
  <path d="M 0.132813 0.0078125 L 26.550781 0.0078125 L 26.550781 26.421875 L 0.132813 26.421875 Z M 0.132813 0.0078125 "/>
</clipPath>
<clipPath id="clip9">
  <rect width="27" height="27"/>
</clipPath>
<g id="surface19" clip-path="url(#clip9)">
<g clip-path="url(#clip10)" clip-rule="nonzero">
<path style=" stroke:none;fill-rule:nonzero;fill:rgb(13.725281%,12.156677%,12.548828%);fill-opacity:1;" d="M 26.546875 13.214844 C 26.546875 20.507813 20.636719 26.421875 13.34375 26.421875 C 6.046875 26.421875 0.132813 20.507813 0.132813 13.214844 C 0.132813 5.917969 6.046875 0.0078125 13.34375 0.0078125 C 20.636719 0.0078125 26.546875 5.917969 26.546875 13.214844 "/>
</g>
</g>
<mask id="mask5">
  <g filter="url(#alpha)">
<rect x="0" y="0" width="1080" height="1080" style="fill:rgb(0%,0%,0%);fill-opacity:0.199997;stroke:none;"/>
  </g>
</mask>
<clipPath id="clip12">
  <path d="M 0.109375 0.785156 L 26.523438 0.785156 L 26.523438 27.199219 L 0.109375 27.199219 Z M 0.109375 0.785156 "/>
</clipPath>
<clipPath id="clip11">
  <rect width="27" height="28"/>
</clipPath>
<g id="surface22" clip-path="url(#clip11)">
<g clip-path="url(#clip12)" clip-rule="nonzero">
<path style=" stroke:none;fill-rule:nonzero;fill:rgb(13.725281%,12.156677%,12.548828%);fill-opacity:1;" d="M 26.523438 13.992188 C 26.523438 21.285156 20.609375 27.199219 13.316406 27.199219 C 6.019531 27.199219 0.109375 21.285156 0.109375 13.992188 C 0.109375 6.695313 6.019531 0.785156 13.316406 0.785156 C 20.609375 0.785156 26.523438 6.695313 26.523438 13.992188 "/>
</g>
</g>
<mask id="mask6">
  <g filter="url(#alpha)">
<rect x="0" y="0" width="1080" height="1080" style="fill:rgb(0%,0%,0%);fill-opacity:0.199997;stroke:none;"/>
  </g>
</mask>
<clipPath id="clip14">
  <path d="M 0.480469 0.421875 L 26.894531 0.421875 L 26.894531 26.835938 L 0.480469 26.835938 Z M 0.480469 0.421875 "/>
</clipPath>
<clipPath id="clip13">
  <rect width="27" height="27"/>
</clipPath>
<g id="surface25" clip-path="url(#clip13)">
<g clip-path="url(#clip14)" clip-rule="nonzero">
<path style=" stroke:none;fill-rule:nonzero;fill:rgb(13.725281%,12.156677%,12.548828%);fill-opacity:1;" d="M 26.894531 13.628906 C 26.894531 20.921875 20.984375 26.835938 13.6875 26.835938 C 6.394531 26.835938 0.480469 20.921875 0.480469 13.628906 C 0.480469 6.335938 6.394531 0.421875 13.6875 0.421875 C 20.984375 0.421875 26.894531 6.335938 26.894531 13.628906 "/>
</g>
</g>
<mask id="mask7">
  <g filter="url(#alpha)">
<rect x="0" y="0" width="1080" height="1080" style="fill:rgb(0%,0%,0%);fill-opacity:0.199997;stroke:none;"/>
  </g>
</mask>
<clipPath id="clip16">
  <path d="M 0.417969 0 L 26.835938 0 L 26.835938 26.414063 L 0.417969 26.414063 Z M 0.417969 0 "/>
</clipPath>
<clipPath id="clip15">
  <rect width="27" height="27"/>
</clipPath>
<g id="surface28" clip-path="url(#clip15)">
<g clip-path="url(#clip16)" clip-rule="nonzero">
<path style=" stroke:none;fill-rule:nonzero;fill:rgb(13.725281%,12.156677%,12.548828%);fill-opacity:1;" d="M 26.835938 13.207031 C 26.835938 20.503906 20.921875 26.414063 13.628906 26.414063 C 6.332031 26.414063 0.417969 20.503906 0.417969 13.207031 C 0.417969 5.914063 6.332031 0 13.628906 0 C 20.921875 0 26.835938 5.914063 26.835938 13.207031 "/>
</g>
</g>
<mask id="mask8">
  <g filter="url(#alpha)">
<rect x="0" y="0" width="1080" height="1080" style="fill:rgb(0%,0%,0%);fill-opacity:0.199997;stroke:none;"/>
  </g>
</mask>
<clipPath id="clip18">
  <path d="M 0.785156 0.765625 L 27.199219 0.765625 L 27.199219 27.183594 L 0.785156 27.183594 Z M 0.785156 0.765625 "/>
</clipPath>
<clipPath id="clip17">
  <rect width="28" height="28"/>
</clipPath>
<g id="surface31" clip-path="url(#clip17)">
<g clip-path="url(#clip18)" clip-rule="nonzero">
<path style=" stroke:none;fill-rule:nonzero;fill:rgb(13.725281%,12.156677%,12.548828%);fill-opacity:1;" d="M 27.199219 13.972656 C 27.199219 21.269531 21.285156 27.183594 13.992188 27.183594 C 6.695313 27.183594 0.785156 21.269531 0.785156 13.972656 C 0.785156 6.679688 6.695313 0.765625 13.992188 0.765625 C 21.285156 0.765625 27.199219 6.679688 27.199219 13.972656 "/>
</g>
</g>
<mask id="mask9">
  <g filter="url(#alpha)">
<rect x="0" y="0" width="1080" height="1080" style="fill:rgb(0%,0%,0%);fill-opacity:0.199997;stroke:none;"/>
  </g>
</mask>
<clipPath id="clip20">
  <path d="M 0.582031 0.125 L 26.996094 0.125 L 26.996094 26.539063 L 0.582031 26.539063 Z M 0.582031 0.125 "/>
</clipPath>
<clipPath id="clip19">
  <rect width="27" height="27"/>
</clipPath>
<g id="surface34" clip-path="url(#clip19)">
<g clip-path="url(#clip20)" clip-rule="nonzero">
<path style=" stroke:none;fill-rule:nonzero;fill:rgb(13.725281%,12.156677%,12.548828%);fill-opacity:1;" d="M 26.996094 13.332031 C 26.996094 20.628906 21.082031 26.539063 13.789063 26.539063 C 6.492188 26.539063 0.582031 20.628906 0.582031 13.332031 C 0.582031 6.039063 6.492188 0.125 13.789063 0.125 C 21.082031 0.125 26.996094 6.039063 26.996094 13.332031 "/>
</g>
</g>
<mask id="mask10">
  <g filter="url(#alpha)">
<rect x="0" y="0" width="1080" height="1080" style="fill:rgb(0%,0%,0%);fill-opacity:0.199997;stroke:none;"/>
  </g>
</mask>
<clipPath id="clip22">
  <path d="M 0.972656 0.828125 L 27.386719 0.828125 L 27.386719 27.242188 L 0.972656 27.242188 Z M 0.972656 0.828125 "/>
</clipPath>
<clipPath id="clip21">
  <rect width="28" height="28"/>
</clipPath>
<g id="surface37" clip-path="url(#clip21)">
<g clip-path="url(#clip22)" clip-rule="nonzero">
<path style=" stroke:none;fill-rule:nonzero;fill:rgb(13.725281%,12.156677%,12.548828%);fill-opacity:1;" d="M 27.386719 14.035156 C 27.386719 21.328125 21.476563 27.242188 14.179688 27.242188 C 6.886719 27.242188 0.972656 21.328125 0.972656 14.035156 C 0.972656 6.742188 6.886719 0.828125 14.179688 0.828125 C 21.476563 0.828125 27.386719 6.742188 27.386719 14.035156 "/>
</g>
</g>
<mask id="mask11">
  <g filter="url(#alpha)">
<rect x="0" y="0" width="1080" height="1080" style="fill:rgb(0%,0%,0%);fill-opacity:0.199997;stroke:none;"/>
  </g>
</mask>
<clipPath id="clip24">
  <path d="M 0.5 0.816406 L 26.914063 0.816406 L 26.914063 27.230469 L 0.5 27.230469 Z M 0.5 0.816406 "/>
</clipPath>
<clipPath id="clip23">
  <rect width="27" height="28"/>
</clipPath>
<g id="surface40" clip-path="url(#clip23)">
<g clip-path="url(#clip24)" clip-rule="nonzero">
<path style=" stroke:none;fill-rule:nonzero;fill:rgb(13.725281%,12.156677%,12.548828%);fill-opacity:1;" d="M 26.914063 14.023438 C 26.914063 21.320313 21 27.230469 13.707031 27.230469 C 6.414063 27.230469 0.5 21.320313 0.5 14.023438 C 0.5 6.730469 6.414063 0.816406 13.707031 0.816406 C 21 0.816406 26.914063 6.730469 26.914063 14.023438 "/>
</g>
</g>
<mask id="mask12">
  <g filter="url(#alpha)">
<rect x="0" y="0" width="1080" height="1080" style="fill:rgb(0%,0%,0%);fill-opacity:0.199997;stroke:none;"/>
  </g>
</mask>
<clipPath id="clip26">
  <path d="M 0.605469 0.71875 L 27.019531 0.71875 L 27.019531 27.132813 L 0.605469 27.132813 Z M 0.605469 0.71875 "/>
</clipPath>
<clipPath id="clip25">
  <rect width="28" height="28"/>
</clipPath>
<g id="surface43" clip-path="url(#clip25)">
<g clip-path="url(#clip26)" clip-rule="nonzero">
<path style=" stroke:none;fill-rule:nonzero;fill:rgb(13.725281%,12.156677%,12.548828%);fill-opacity:1;" d="M 27.019531 13.925781 C 27.019531 21.21875 21.105469 27.132813 13.8125 27.132813 C 6.515625 27.132813 0.605469 21.21875 0.605469 13.925781 C 0.605469 6.632813 6.515625 0.71875 13.8125 0.71875 C 21.105469 0.71875 27.019531 6.632813 27.019531 13.925781 "/>
</g>
</g>
<mask id="mask13">
  <g filter="url(#alpha)">
<rect x="0" y="0" width="1080" height="1080" style="fill:rgb(0%,0%,0%);fill-opacity:0.199997;stroke:none;"/>
  </g>
</mask>
<clipPath id="clip28">
  <path d="M 0.109375 0.261719 L 26.523438 0.261719 L 26.523438 26.679688 L 0.109375 26.679688 Z M 0.109375 0.261719 "/>
</clipPath>
<clipPath id="clip27">
  <rect width="27" height="27"/>
</clipPath>
<g id="surface42" clip-path="url(#clip27)">
<g clip-path="url(#clip28)" clip-rule="nonzero">
<path style=" stroke:none;fill-rule:nonzero;fill:rgb(13.725281%,12.156677%,12.548828%);fill-opacity:1;" d="M 26.523438 13.46875 C 26.523438 20.765625 20.609375 26.675781 13.316406 26.675781 C 6.023438 26.675781 0.109375 20.765625 0.109375 13.46875 C 0.109375 6.175781 6.023438 0.261719 13.316406 0.261719 C 20.609375 0.261719 26.523438 6.175781 26.523438 13.46875 "/>
</g>
</g>
</defs>
<g id="surface1">
<use xlink:href="#surface7" transform="matrix(1,0,0,1,47,233)" mask="url(#mask0)"/>
<path style=" stroke:none;fill-rule:nonzero;fill:rgb(84.313965%,10.588074%,38.038635%);fill-opacity:1;" d="M 517.34375 481.53125 L 517.34375 778.449219 L 775.203125 778.449219 L 775.203125 388.164063 Z M 517.34375 481.53125 "/>
<path style=" stroke:none;fill-rule:nonzero;fill:rgb(84.313965%,10.588074%,38.038635%);fill-opacity:1;" d="M 779.332031 388.230469 L 779.332031 778.449219 L 938.175781 778.449219 L 938.175781 458.125 Z M 779.332031 388.230469 "/>
<path style=" stroke:none;fill-rule:nonzero;fill:rgb(84.313965%,10.588074%,38.038635%);fill-opacity:1;" d="M 366.75 401.761719 L 366.75 778.449219 L 513.214844 778.449219 L 513.214844 482.730469 Z M 366.75 401.761719 "/>
<path style=" stroke:none;fill-rule:nonzero;fill:rgb(84.313965%,10.588074%,38.038635%);fill-opacity:1;" d="M 174.675781 447.320313 L 174.675781 778.449219 L 362.625 778.449219 L 362.625 400.632813 Z M 174.675781 447.320313 "/>
<path style=" stroke:none;fill-rule:nonzero;fill:rgb(84.313965%,10.588074%,38.038635%);fill-opacity:1;" d="M 1022.613281 424.050781 L 942.300781 457.859375 L 942.300781 778.449219 L 1022.613281 778.449219 Z M 1022.613281 424.050781 "/>
<use xlink:href="#surface10" transform="matrix(1,0,0,1,929,446)" mask="url(#mask1)"/>
<path style=" stroke:none;fill-rule:nonzero;fill:rgb(93.333435%,60.784912%,72.549438%);fill-opacity:1;" d="M 955.507813 458.070313 C 955.507813 465.363281 949.59375 471.277344 942.300781 471.277344 C 935.003906 471.277344 929.09375 465.363281 929.09375 458.070313 C 929.09375 450.773438 935.003906 444.863281 942.300781 444.863281 C 949.59375 444.863281 955.507813 450.773438 955.507813 458.070313 "/>
<use xlink:href="#surface13" transform="matrix(1,0,0,1,761,375)" mask="url(#mask2)"/>
<path style=" stroke:none;fill-rule:nonzero;fill:rgb(93.333435%,60.784912%,72.549438%);fill-opacity:1;" d="M 788.410156 387.355469 C 788.410156 394.652344 782.5 400.566406 775.203125 400.566406 C 767.910156 400.566406 761.996094 394.652344 761.996094 387.355469 C 761.996094 380.0625 767.910156 374.148438 775.203125 374.148438 C 782.5 374.148438 788.410156 380.0625 788.410156 387.355469 "/>
<use xlink:href="#surface16" transform="matrix(1,0,0,1,349,388)" mask="url(#mask3)"/>
<path style=" stroke:none;fill-rule:nonzero;fill:rgb(93.333435%,60.784912%,72.549438%);fill-opacity:1;" d="M 375.832031 399.824219 C 375.832031 407.117188 369.917969 413.03125 362.625 413.03125 C 355.328125 413.03125 349.417969 407.117188 349.417969 399.824219 C 349.417969 392.53125 355.328125 386.617188 362.625 386.617188 C 369.917969 386.617188 375.832031 392.53125 375.832031 399.824219 "/>
<use xlink:href="#surface19" transform="matrix(1,0,0,1,504,469)" mask="url(#mask4)"/>
<path style=" stroke:none;fill-rule:nonzero;fill:rgb(93.333435%,60.784912%,72.549438%);fill-opacity:1;" d="M 530.546875 480.597656 C 530.546875 487.894531 524.636719 493.808594 517.34375 493.808594 C 510.046875 493.808594 504.132813 487.894531 504.132813 480.597656 C 504.132813 473.304688 510.046875 467.390625 517.34375 467.390625 C 524.636719 467.390625 530.546875 473.304688 530.546875 480.597656 "/>
<path style=" stroke:none;fill-rule:nonzero;fill:rgb(52.549744%,23.136902%,58.824158%);fill-opacity:1;" d="M 385.316406 525.195313 L 385.316406 778.449219 L 564.789063 778.449219 L 564.789063 577.421875 Z M 385.316406 525.195313 "/>
<path style=" stroke:none;fill-rule:nonzero;fill:rgb(52.549744%,23.136902%,58.824158%);fill-opacity:1;" d="M 174.675781 602.054688 L 174.675781 778.449219 L 381.191406 778.449219 L 381.191406 526.570313 Z M 174.675781 602.054688 "/>
<path style=" stroke:none;fill-rule:nonzero;fill:rgb(52.549744%,23.136902%,58.824158%);fill-opacity:1;" d="M 568.914063 577.558594 L 568.914063 778.449219 L 688.5625 778.449219 L 688.5625 507.820313 Z M 568.914063 577.558594 "/>
<path style=" stroke:none;fill-rule:nonzero;fill:rgb(52.549744%,23.136902%,58.824158%);fill-opacity:1;" d="M 1019.78125 581.101563 L 964.992188 526.3125 L 964.992188 778.449219 L 1019.78125 778.449219 Z M 1019.78125 581.101563 "/>
<path style=" stroke:none;fill-rule:nonzero;fill:rgb(52.549744%,23.136902%,58.824158%);fill-opacity:1;" d="M 905.5 601.136719 L 692.6875 506.652344 L 692.6875 778.449219 L 905.5 778.449219 Z M 905.5 601.136719 "/>
<path style=" stroke:none;fill-rule:nonzero;fill:rgb(52.549744%,23.136902%,58.824158%);fill-opacity:1;" d="M 909.628906 599.230469 L 909.628906 778.449219 L 960.863281 778.449219 L 960.863281 529.167969 Z M 909.628906 599.230469 "/>
<g style="fill:rgb(65.490723%,33.724976%,49.411011%);fill-opacity:1;">
  <use xlink:href="#glyph0-1" x="71.7827" y="727.2998"/>
  <use xlink:href="#glyph0-2" x="91.678453" y="727.2998"/>
  <use xlink:href="#glyph0-2" x="111.574205" y="727.2998"/>
</g>
<g style="fill:rgb(65.490723%,33.724976%,49.411011%);fill-opacity:1;">
  <use xlink:href="#glyph0-3" x="71.7827" y="626.2178"/>
  <use xlink:href="#glyph0-2" x="91.678453" y="626.2178"/>
  <use xlink:href="#glyph0-2" x="111.574205" y="626.2178"/>
</g>
<g style="fill:rgb(65.490723%,33.724976%,49.411011%);fill-opacity:1;">
  <use xlink:href="#glyph0-4" x="71.7827" y="525.1357"/>
  <use xlink:href="#glyph0-2" x="91.678453" y="525.1357"/>
  <use xlink:href="#glyph0-2" x="111.574205" y="525.1357"/>
</g>
<g style="fill:rgb(65.490723%,33.724976%,49.411011%);fill-opacity:1;">
  <use xlink:href="#glyph0-5" x="71.7827" y="424.0537"/>
  <use xlink:href="#glyph0-5" x="91.678453" y="424.0537"/>
  <use xlink:href="#glyph0-2" x="111.574205" y="424.0537"/>
  <use xlink:href="#glyph0-2" x="131.469958" y="424.0537"/>
</g>
<g style="fill:rgb(65.490723%,33.724976%,49.411011%);fill-opacity:1;">
  <use xlink:href="#glyph0-5" x="71.7827" y="322.9712"/>
  <use xlink:href="#glyph0-6" x="91.678453" y="322.9712"/>
  <use xlink:href="#glyph0-2" x="111.574205" y="322.9712"/>
  <use xlink:href="#glyph0-2" x="131.469958" y="322.9712"/>
</g>
<use xlink:href="#surface22" transform="matrix(1,0,0,1,372,515)" mask="url(#mask5)"/>
<path style=" stroke:none;fill-rule:nonzero;fill:rgb(76.078796%,61.569214%,79.608154%);fill-opacity:1;" d="M 398.523438 527.375 C 398.523438 534.671875 392.609375 540.585938 385.316406 540.585938 C 378.019531 540.585938 372.109375 534.671875 372.109375 527.375 C 372.109375 520.082031 378.019531 514.167969 385.316406 514.167969 C 392.609375 514.167969 398.523438 520.082031 398.523438 527.375 "/>
<use xlink:href="#surface25" transform="matrix(1,0,0,1,679,495)" mask="url(#mask6)"/>
<path style=" stroke:none;fill-rule:nonzero;fill:rgb(76.078796%,61.569214%,79.608154%);fill-opacity:1;" d="M 705.894531 507.015625 C 705.894531 514.308594 699.984375 520.222656 692.6875 520.222656 C 685.394531 520.222656 679.480469 514.308594 679.480469 507.015625 C 679.480469 499.71875 685.394531 493.804688 692.6875 493.804688 C 699.984375 493.804688 705.894531 499.71875 705.894531 507.015625 "/>
<use xlink:href="#surface28" transform="matrix(1,0,0,1,896,588)" mask="url(#mask7)"/>
<path style=" stroke:none;fill-rule:nonzero;fill:rgb(76.078796%,61.569214%,79.608154%);fill-opacity:1;" d="M 922.835938 599.59375 C 922.835938 606.886719 916.921875 612.800781 909.628906 612.800781 C 902.332031 612.800781 896.417969 606.886719 896.417969 599.59375 C 896.417969 592.296875 902.332031 586.386719 909.628906 586.386719 C 916.921875 586.386719 922.835938 592.296875 922.835938 599.59375 "/>
<use xlink:href="#surface31" transform="matrix(1,0,0,1,951,516)" mask="url(#mask8)"/>
<path style=" stroke:none;fill-rule:nonzero;fill:rgb(76.078796%,61.569214%,79.608154%);fill-opacity:1;" d="M 978.199219 528.359375 C 978.199219 535.652344 972.285156 541.566406 964.992188 541.566406 C 957.695313 541.566406 951.785156 535.652344 951.785156 528.359375 C 951.785156 521.066406 957.695313 515.152344 964.992188 515.152344 C 972.285156 515.152344 978.199219 521.066406 978.199219 528.359375 "/>
<use xlink:href="#surface34" transform="matrix(1,0,0,1,551,563)" mask="url(#mask9)"/>
<path style=" stroke:none;fill-rule:nonzero;fill:rgb(76.078796%,61.569214%,79.608154%);fill-opacity:1;" d="M 577.996094 574.71875 C 577.996094 582.011719 572.082031 587.925781 564.789063 587.925781 C 557.492188 587.925781 551.582031 582.011719 551.582031 574.71875 C 551.582031 567.421875 557.492188 561.511719 564.789063 561.511719 C 572.082031 561.511719 577.996094 567.421875 577.996094 574.71875 "/>
<path style=" stroke:none;fill-rule:nonzero;fill:rgb(98.431396%,79.608154%,74.118042%);fill-opacity:1;" d="M 596.582031 628.296875 L 459.679688 578.269531 L 459.679688 778.449219 L 596.582031 778.449219 Z M 596.582031 628.296875 "/>
<path style=" stroke:none;fill-rule:nonzero;fill:rgb(98.431396%,79.608154%,74.118042%);fill-opacity:1;" d="M 841.8125 778.449219 L 973.316406 778.449219 L 973.316406 623.753906 L 841.8125 461.117188 Z M 841.8125 778.449219 "/>
<path style=" stroke:none;fill-rule:nonzero;fill:rgb(98.431396%,79.608154%,74.118042%);fill-opacity:1;" d="M 455.550781 578.195313 L 174.675781 680.625 L 174.675781 778.449219 L 455.550781 778.449219 Z M 455.550781 578.195313 "/>
<path style=" stroke:none;fill-rule:nonzero;fill:rgb(98.431396%,79.608154%,74.118042%);fill-opacity:1;" d="M 600.707031 778.449219 L 837.6875 778.449219 L 837.6875 458.875 L 600.707031 627.585938 Z M 600.707031 778.449219 "/>
<path style=" stroke:none;fill-rule:nonzero;fill:rgb(98.431396%,79.608154%,74.118042%);fill-opacity:1;" d="M 977.441406 778.449219 L 1022.613281 778.449219 L 1022.613281 506.117188 L 977.441406 620.796875 Z M 977.441406 778.449219 "/>
<use xlink:href="#surface37" transform="matrix(1,0,0,1,444,566)" mask="url(#mask10)"/>
<path style=" stroke:none;fill-rule:nonzero;fill:rgb(99.215698%,90.196228%,87.451172%);fill-opacity:1;" d="M 471.386719 578.417969 C 471.386719 585.714844 465.476563 591.628906 458.179688 591.628906 C 450.886719 591.628906 444.972656 585.714844 444.972656 578.417969 C 444.972656 571.125 450.886719 565.214844 458.179688 565.214844 C 465.476563 565.214844 471.386719 571.125 471.386719 578.417969 "/>
<use xlink:href="#surface40" transform="matrix(1,0,0,1,587,613)" mask="url(#mask11)"/>
<path style=" stroke:none;fill-rule:nonzero;fill:rgb(99.215698%,90.196228%,87.451172%);fill-opacity:1;" d="M 613.914063 625.410156 C 613.914063 632.703125 608 638.617188 600.707031 638.617188 C 593.414063 638.617188 587.5 632.703125 587.5 625.410156 C 587.5 618.113281 593.414063 612.203125 600.707031 612.203125 C 608 612.203125 613.914063 618.113281 613.914063 625.410156 "/>
<use xlink:href="#surface43" transform="matrix(1,0,0,1,828,448)" mask="url(#mask12)"/>
<path style=" stroke:none;fill-rule:nonzero;fill:rgb(99.215698%,90.196228%,87.451172%);fill-opacity:1;" d="M 855.019531 460.3125 C 855.019531 467.605469 849.105469 473.519531 841.8125 473.519531 C 834.515625 473.519531 828.605469 467.605469 828.605469 460.3125 C 828.605469 453.015625 834.515625 447.101563 841.8125 447.101563 C 849.105469 447.101563 855.019531 453.015625 855.019531 460.3125 "/>
<use xlink:href="#surface42" transform="matrix(1,0,0,1,960,606)" mask="url(#mask13)"/>
<path style=" stroke:none;fill-rule:nonzero;fill:rgb(99.215698%,90.196228%,87.451172%);fill-opacity:1;" d="M 986.523438 617.855469 C 986.523438 625.148438 980.609375 631.0625 973.316406 631.0625 C 966.023438 631.0625 960.109375 625.148438 960.109375 617.855469 C 960.109375 610.558594 966.023438 604.648438 973.316406 604.648438 C 980.609375 604.648438 986.523438 610.558594 986.523438 617.855469 "/>
<path style=" stroke:none;fill-rule:nonzero;fill:rgb(90.196228%,42.744446%,60.392761%);fill-opacity:1;" d="M 341.691406 837.945313 L 223.574219 837.945313 L 223.574219 925.199219 L 341.691406 925.199219 C 365.785156 925.199219 385.316406 905.667969 385.316406 881.574219 C 385.316406 857.476563 365.785156 837.945313 341.691406 837.945313 "/>
<path style=" stroke:none;fill-rule:nonzero;fill:rgb(84.313965%,10.588074%,38.038635%);fill-opacity:1;" d="M 269.59375 881.574219 C 269.59375 905.667969 250.0625 925.199219 225.96875 925.199219 C 201.871094 925.199219 182.339844 905.667969 182.339844 881.574219 C 182.339844 857.476563 201.871094 837.945313 225.96875 837.945313 C 250.0625 837.945313 269.59375 857.476563 269.59375 881.574219 "/>
<g style="fill:rgb(100%,100%,100%);fill-opacity:1;">
  <use xlink:href="#glyph1-1" x="197.8193" y="892.4033"/>
  <use xlink:href="#glyph1-2" x="213.053179" y="892.4033"/>
  <use xlink:href="#glyph1-3" x="232.884066" y="892.4033"/>
</g>
<g style="fill:rgb(100%,100%,100%);fill-opacity:1;">
  <use xlink:href="#glyph2-1" x="279.3462" y="895.4033"/>
  <use xlink:href="#glyph2-2" x="298.505991" y="895.4033"/>
  <use xlink:href="#glyph2-2" x="317.665782" y="895.4033"/>
  <use xlink:href="#glyph2-3" x="336.825572" y="895.4033"/>
</g>
<path style=" stroke:none;fill-rule:nonzero;fill:rgb(69.412231%,50.98114%,73.725891%);fill-opacity:1;" d="M 650.441406 837.945313 L 532.328125 837.945313 L 532.328125 925.199219 L 650.441406 925.199219 C 674.535156 925.199219 694.070313 905.667969 694.070313 881.574219 C 694.070313 857.476563 674.535156 837.945313 650.441406 837.945313 "/>
<path style=" stroke:none;fill-rule:nonzero;fill:rgb(52.549744%,23.136902%,58.824158%);fill-opacity:1;" d="M 578.347656 881.574219 C 578.347656 905.667969 558.816406 925.199219 534.71875 925.199219 C 510.625 925.199219 491.09375 905.667969 491.09375 881.574219 C 491.09375 857.476563 510.625 837.945313 534.71875 837.945313 C 558.816406 837.945313 578.347656 857.476563 578.347656 881.574219 "/>
<g style="fill:rgb(100%,100%,100%);fill-opacity:1;">
  <use xlink:href="#glyph1-4" x="505.4575" y="892.4033"/>
  <use xlink:href="#glyph1-5" x="526.697688" y="892.4033"/>
  <use xlink:href="#glyph1-1" x="548.743192" y="892.4033"/>
</g>
<g style="fill:rgb(100%,100%,100%);fill-opacity:1;">
  <use xlink:href="#glyph2-1" x="588.0986" y="895.4033"/>
  <use xlink:href="#glyph2-4" x="607.258391" y="895.4033"/>
  <use xlink:href="#glyph2-5" x="626.418182" y="895.4033"/>
  <use xlink:href="#glyph2-6" x="645.577972" y="895.4033"/>
</g>
<path style=" stroke:none;fill-rule:nonzero;fill:rgb(99.215698%,87.059021%,83.529663%);fill-opacity:1;" d="M 954.28125 837.945313 L 836.164063 837.945313 L 836.164063 925.199219 L 954.28125 925.199219 C 978.375 925.199219 997.90625 905.667969 997.90625 881.574219 C 997.90625 857.476563 978.375 837.945313 954.28125 837.945313 "/>
<path style=" stroke:none;fill-rule:nonzero;fill:rgb(98.431396%,79.608154%,74.118042%);fill-opacity:1;" d="M 882.183594 881.574219 C 882.183594 905.667969 862.652344 925.199219 838.558594 925.199219 C 814.464844 925.199219 794.929688 905.667969 794.929688 881.574219 C 794.929688 857.476563 814.464844 837.945313 838.558594 837.945313 C 862.652344 837.945313 882.183594 857.476563 882.183594 881.574219 "/>
<g style="fill:rgb(65.882874%,54.118347%,50.98114%);fill-opacity:1;">
  <use xlink:href="#glyph1-6" x="812.4009" y="892.4033"/>
  <use xlink:href="#glyph1-1" x="829.648067" y="892.4033"/>
  <use xlink:href="#glyph1-2" x="844.881946" y="892.4033"/>
</g>
<g style="fill:rgb(65.882874%,54.118347%,50.98114%);fill-opacity:1;">
  <use xlink:href="#glyph2-1" x="891.937" y="895.4033"/>
  <use xlink:href="#glyph2-6" x="911.096791" y="895.4033"/>
  <use xlink:href="#glyph2-6" x="930.256582" y="895.4033"/>
  <use xlink:href="#glyph2-2" x="949.416372" y="895.4033"/>
</g>
</g>
</svg>
