<?xml version="1.0" encoding="UTF-8"?>
<svg xmlns="http://www.w3.org/2000/svg" xmlns:xlink="http://www.w3.org/1999/xlink" width="2000pt" height="2000pt" viewBox="0 0 2000 2000" version="1.1">
<g id="surface1">
<rect x="0" y="0" width="2000" height="2000" style="fill:rgb(86.274719%,90.588379%,94.117737%);fill-opacity:1;stroke:none;"/>
<path style=" stroke:none;fill-rule:nonzero;fill:rgb(100%,100%,100%);fill-opacity:1;" d="M 1025.5 345.804688 L 1041.371094 308.191406 C 1041.371094 308.191406 1009.628906 302.730469 1013.4375 262.6875 C 1017.246094 222.644531 1040.738281 193.523438 1050.894531 192.308594 C 1061.054688 191.097656 1087.71875 208.691406 1095.335938 231.136719 C 1095.335938 231.136719 1129.617188 216.578125 1142.949219 225.679688 C 1156.28125 234.777344 1160.09375 332.457031 1078.195313 325.179688 L 1061.054688 364.007813 C 1061.054688 364.007813 1113.746094 382.816406 1118.191406 479.28125 C 1122.636719 575.75 1035.660156 653.40625 937.253906 628.53125 C 838.851563 603.65625 813.457031 514.472656 829.328125 459.867188 C 845.199219 405.265625 907.417969 303.335938 1025.5 345.804688 "/>
<path style=" stroke:none;fill-rule:nonzero;fill:rgb(53.334045%,56.079102%,58.039856%);fill-opacity:1;" d="M 982.601563 505.496094 C 983.171875 504.136719 983.761719 502.796875 984.359375 501.460938 C 984.847656 501.0625 985.304688 500.589844 985.691406 499.996094 C 988.292969 495.976563 990.15625 491.835938 991.511719 487.390625 C 991.816406 486.867188 992.097656 486.335938 992.410156 485.8125 C 993.886719 483.355469 993.421875 481.054688 992.035156 479.433594 C 993.980469 475.738281 995.507813 471.953125 996.210938 468.136719 C 996.339844 467.445313 996.25 466.785156 996.023438 466.195313 C 997.035156 465.582031 997.949219 464.820313 998.707031 463.835938 C 999.789063 462.429688 999.058594 459.804688 997.402344 459.085938 C 993.300781 457.3125 988.925781 458.644531 984.535156 458.59375 C 980.039063 458.546875 976.09375 457.375 971.820313 459.195313 C 970.257813 459.863281 969.648438 462.289063 970.617188 463.589844 C 971.804688 465.191406 973.273438 466.257813 974.914063 466.980469 C 974.535156 467.484375 974.214844 468.035156 973.96875 468.597656 C 971.417969 474.382813 965.210938 484.160156 965.050781 491.84375 C 963.429688 495.105469 961.984375 498.449219 960.789063 501.882813 C 958.726563 507.792969 967.324219 512.40625 971.683594 507.945313 C 971.742188 507.882813 971.800781 507.820313 971.859375 507.761719 C 974.707031 510.789063 980.445313 510.640625 982.601563 505.496094 "/>
<path style=" stroke:none;fill-rule:nonzero;fill:rgb(53.334045%,56.079102%,58.039856%);fill-opacity:1;" d="M 1135.597656 287.816406 C 1131.164063 285.621094 1126.429688 285.566406 1122.828125 281.816406 C 1118.007813 276.796875 1118.492188 269.597656 1119.644531 263.367188 C 1121.414063 253.820313 1126.550781 244.484375 1124.914063 234.671875 C 1124.3125 231.058594 1118.507813 230.628906 1116.835938 233.664063 C 1110.808594 244.617188 1106.378906 260.359375 1107.832031 273.464844 C 1105.09375 273.464844 1102.335938 274.988281 1101.363281 277.980469 C 1098.554688 286.628906 1095.144531 295.300781 1092.886719 304.09375 C 1091.113281 311.011719 1094.113281 317.90625 1102.402344 318.25 C 1109.71875 318.550781 1118.007813 312.472656 1123.917969 309.027344 C 1128.40625 306.414063 1132.222656 302.496094 1132.0625 297.914063 C 1133.230469 297.667969 1134.414063 297.265625 1135.597656 296.671875 C 1139.085938 294.929688 1139.109375 289.550781 1135.597656 287.816406 "/>
<path style=" stroke:none;fill-rule:nonzero;fill:rgb(53.334045%,56.079102%,58.039856%);fill-opacity:1;" d="M 1017.183594 272.53125 C 1017.144531 272.828125 1017.128906 273.136719 1017.175781 273.464844 C 1018.234375 281.019531 1023.832031 287.277344 1029 293.03125 C 1029.144531 298.136719 1035.476563 301.476563 1040.460938 297.527344 C 1049.359375 290.480469 1056.632813 282.023438 1062.257813 272.378906 C 1064.839844 267.949219 1060.957031 262.917969 1056.628906 262.46875 C 1057.941406 261.207031 1059.148438 259.9375 1060.214844 258.699219 C 1065.855469 252.144531 1070.355469 244.886719 1073.632813 236.996094 C 1076.558594 229.957031 1080.328125 220.761719 1076.589844 213.53125 C 1075.628906 211.671875 1072.523438 211.308594 1071.097656 212.855469 C 1067.476563 216.789063 1066.882813 221.746094 1065.265625 226.628906 C 1063.195313 232.867188 1060.175781 238.785156 1056.371094 244.226563 C 1052.453125 249.828125 1047.492188 255.457031 1041.59375 259.230469 C 1034.441406 263.804688 1028.351563 263.257813 1020.296875 261.910156 C 1015.175781 261.054688 1010.742188 266.742188 1014.945313 270.703125 C 1015.671875 271.386719 1016.421875 271.984375 1017.183594 272.53125 "/>
<path style=" stroke:none;fill-rule:nonzero;fill:rgb(53.334045%,56.079102%,58.039856%);fill-opacity:1;" d="M 1103.035156 416.328125 C 1101.132813 417.214844 1099.25 418.242188 1097.378906 419.359375 C 1097.082031 417.800781 1096.207031 416.242188 1095.167969 414.957031 C 1094.234375 413.804688 1093.21875 412.527344 1091.992188 411.5625 C 1094.019531 408.332031 1095.761719 404.960938 1097.113281 401.421875 C 1098.808594 396.992188 1092.257813 393.773438 1089.050781 396.933594 C 1075.917969 409.867188 1065.21875 425.136719 1052.222656 438.304688 C 1045.757813 444.855469 1039.246094 451.804688 1031.1875 456.589844 C 1022.9375 461.484375 1014.074219 462.617188 1005.558594 466.410156 C 1001.652344 468.148438 1003.316406 473.25 1006.652344 474.414063 C 1008.410156 475.027344 1010.179688 475.394531 1011.949219 475.542969 C 1011.386719 481.445313 1012.226563 487.40625 1011.140625 493.332031 C 1010.046875 499.328125 1006.050781 505.035156 1007.417969 511.070313 C 1007.582031 511.792969 1007.941406 512.367188 1008.417969 512.816406 C 1004.621094 514.761719 1000.539063 516.210938 996.382813 517.074219 C 989.882813 518.421875 983.203125 517.625 976.71875 518.972656 C 974.382813 519.457031 973.351563 522.777344 975.246094 524.296875 C 984.867188 532.023438 1000.496094 529.902344 1011.296875 525.558594 C 1025.71875 519.765625 1034.480469 508.179688 1041.164063 495.121094 C 1048.636719 480.527344 1058.96875 468.054688 1071.339844 456.945313 C 1077.378906 451.519531 1083.648438 446.289063 1089.964844 441.15625 C 1096.507813 435.835938 1104.246094 430.871094 1109.542969 424.386719 C 1113.230469 419.867188 1108.785156 413.652344 1103.035156 416.328125 "/>
<path style=" stroke:none;fill-rule:nonzero;fill:rgb(5.882263%,9.411621%,12.940979%);fill-opacity:1;" d="M 1141.691406 269.996094 C 1139.242188 282.273438 1132.777344 296.574219 1121.6875 303.984375 C 1116.941406 307.152344 1110.882813 310.59375 1105.117188 311.601563 C 1105.085938 311.605469 1105.054688 311.613281 1105.023438 311.617188 C 1100.808594 312.339844 1097.511719 308.128906 1099.25 304.390625 C 1101.050781 300.519531 1102.832031 296.636719 1104.566406 292.742188 C 1110.742188 278.886719 1118.175781 262.820313 1114.152344 247.675781 C 1113.039063 243.472656 1115.175781 239.09375 1119.191406 237.070313 C 1125.636719 233.824219 1134.09375 231.300781 1137.988281 232.625 C 1142.4375 234.140625 1142.859375 244.800781 1143.089844 248.488281 C 1143.527344 255.558594 1143.082031 263.039063 1141.691406 269.996094 M 1091.5625 419.113281 C 1103.875 441.921875 1107.335938 468 1104.308594 493.320313 C 1098.167969 544.757813 1066.207031 600.792969 1011.578125 616.34375 C 957.320313 631.789063 889.222656 607.71875 857.285156 563.488281 C 824.210938 517.6875 833.746094 453.789063 864.367188 409.175781 C 882.058594 383.398438 905.808594 364.1875 936.753906 354.894531 C 958.183594 348.460938 980.3125 348.667969 1001.558594 353.601563 C 1004.792969 354.351563 1006.445313 357.796875 1004.96875 360.644531 C 1003.378906 363.714844 1001.792969 366.78125 1000.207031 369.851563 C 997.421875 375.253906 991.34375 378.476563 985.109375 377.613281 C 972.644531 375.886719 959.902344 376.414063 947.605469 379.789063 C 927.46875 385.316406 909.53125 398.714844 896.5625 414.230469 C 869.929688 446.089844 857.191406 494.410156 876.109375 532.515625 C 895.386719 571.34375 943.785156 593.039063 987.652344 589.355469 C 1034.503906 585.414063 1063.539063 547.398438 1074.128906 506.574219 C 1079.785156 484.773438 1080.6875 462.242188 1072.914063 440.796875 C 1069.328125 430.902344 1063.644531 422.160156 1056.59375 414.503906 C 1051.585938 409.066406 1050.363281 401.339844 1053.6875 394.828125 C 1054.644531 392.953125 1055.601563 391.082031 1056.484375 389.359375 C 1058.386719 385.644531 1063.519531 384.765625 1066.664063 387.609375 C 1076.601563 396.597656 1085.054688 407.058594 1091.5625 419.113281 M 1030.847656 225.730469 C 1034.253906 219.0625 1038.289063 212.871094 1043.066406 207.019531 C 1044.574219 205.171875 1047.460938 200.433594 1049.875 199.5625 C 1053.109375 198.386719 1056.414063 201.175781 1058.878906 202.707031 C 1065.9375 207.089844 1070.480469 212.542969 1073.035156 218.984375 C 1075.550781 225.324219 1073.75 232.367188 1069.109375 237.496094 C 1068.335938 238.351563 1067.609375 239.253906 1066.929688 240.203125 C 1061.242188 248.171875 1057.535156 257.5625 1053.199219 266.230469 C 1050.125 272.375 1047.046875 278.519531 1043.96875 284.664063 C 1041.265625 290.066406 1033.503906 290.667969 1029.855469 285.800781 C 1027 281.984375 1024.484375 277.929688 1022.261719 273.675781 C 1014.75 259.304688 1024.085938 238.964844 1030.847656 225.730469 M 963.050781 439.398438 C 957.488281 449.433594 949.691406 458.058594 940.84375 465.644531 C 933.652344 471.808594 929.847656 481.960938 928.84375 491.523438 C 926.824219 510.777344 944.113281 526.214844 962.363281 530.914063 C 979.667969 535.371094 998.460938 529.996094 1009.726563 516.53125 C 1015.515625 509.617188 1019.675781 497.90625 1018.128906 488.230469 C 1016.382813 477.320313 1018.597656 466.160156 1023.429688 456.132813 C 1025.183594 452.492188 1026.945313 448.851563 1028.707031 445.210938 C 1030.988281 440.511719 1037.902344 440.035156 1040.714844 444.464844 C 1049.121094 457.683594 1053.167969 473.347656 1051.65625 490.167969 C 1048.871094 521.152344 1029.457031 555.613281 996.796875 565.171875 C 963.3125 574.972656 921.167969 559.851563 901.511719 532.546875 C 881.796875 505.160156 887.453125 466.351563 906.316406 439.960938 C 917.09375 424.878906 931.066406 413.820313 949.621094 408.867188 C 953.363281 407.867188 957.101563 407.171875 960.835938 406.75 C 969.992188 405.71875 976.5625 415.019531 972.246094 422.808594 C 969.363281 428.015625 966.113281 433.878906 963.050781 439.398438 M 1081.8125 294.480469 C 1065.832031 328.484375 1055.320313 344.929688 1038.355469 378.476563 C 1018.796875 417.167969 998.738281 455.609375 978.992188 494.203125 C 977.402344 497.308594 973.289063 498.289063 970.332031 496.304688 L 970.207031 496.21875 C 967.878906 494.644531 967.105469 491.6875 968.347656 489.230469 C 985.214844 455.90625 999.90625 421.683594 1016.5625 388.214844 C 1035.300781 350.566406 1044.847656 328.738281 1063.761719 291.152344 C 1068.496094 281.75 1073.234375 272.347656 1077.96875 262.945313 C 1080.050781 258.816406 1084.804688 245.519531 1091.285156 246.792969 C 1091.90625 247.148438 1092.554688 247.441406 1093.226563 247.671875 C 1095.507813 249.375 1097.296875 252.964844 1097.855469 255.144531 C 1099.199219 260.371094 1094.855469 265.792969 1092.722656 270.378906 C 1089.003906 278.375 1085.566406 286.492188 1081.8125 294.480469 M 1158.394531 232.09375 C 1158.136719 223.992188 1151.78125 216.683594 1143.820313 214.257813 C 1134.488281 211.410156 1123.6875 211.574219 1113.652344 214.28125 C 1104.664063 216.707031 1095.15625 213.3125 1089.542969 206.179688 C 1083.722656 198.777344 1075.875 192.816406 1066.21875 188.1875 C 1058.492188 184.484375 1050.589844 182.402344 1042.875 187.359375 C 1035.097656 192.359375 1030.152344 202.398438 1025.804688 209.996094 C 1014.957031 228.957031 1009.65625 248.152344 1005.789063 269.285156 C 1003.910156 279.542969 1003.25 287.921875 1006.660156 298.019531 C 1009.664063 306.925781 1014.828125 313.867188 1022.195313 319.347656 C 1024.003906 320.691406 1024.582031 323.058594 1023.53125 325 C 1023.519531 325.019531 1023.511719 325.039063 1023.5 325.054688 C 1022.433594 327.019531 1020.050781 327.929688 1017.839844 327.265625 C 991.640625 319.394531 963.589844 317.859375 936.828125 325.125 C 906.078125 333.46875 878.957031 353.445313 859.210938 377.15625 C 818.628906 425.890625 799.160156 499.628906 828.386719 557.769531 C 857.378906 615.441406 929.992188 647.921875 995.359375 641.816406 C 1066.085938 635.214844 1109.292969 577.367188 1125.410156 515.738281 C 1134.089844 482.535156 1135.253906 447.4375 1122.769531 414.953125 C 1114.574219 393.617188 1100.171875 375.792969 1082.476563 361.34375 C 1077.730469 357.464844 1076.308594 351.027344 1079.066406 345.671875 C 1079.207031 345.398438 1079.347656 345.128906 1079.484375 344.859375 C 1081.777344 340.410156 1086.558594 337.761719 1091.75 337.746094 C 1108.285156 337.691406 1125.074219 327.972656 1134.691406 315.890625 C 1146.671875 300.84375 1154.449219 283.019531 1156.554688 264.175781 C 1157.707031 253.863281 1158.726563 242.40625 1158.394531 232.09375 "/>
<path style=" stroke:none;fill-rule:nonzero;fill:rgb(100%,100%,100%);fill-opacity:1;" d="M 379.050781 282.394531 C 393.339844 355.933594 469.808594 354.316406 511.828125 343.816406 C 553.84375 333.320313 574.015625 293.75 552.164063 238.027344 C 530.316406 182.308594 375.691406 182.207031 379.050781 282.394531 "/>
<path style=" stroke:none;fill-rule:nonzero;fill:rgb(100%,100%,100%);fill-opacity:1;" d="M 574.054688 601.4375 C 516.894531 623.230469 398.414063 623.230469 382.445313 619.207031 C 368.863281 615.769531 343.183594 594.847656 336.8125 546.066406 C 335.664063 537.429688 335.125 527.90625 335.386719 517.453125 C 337.070313 448 364.804688 406 413.53125 379.347656 C 459.296875 354.332031 508.855469 353.550781 532.867188 357.554688 C 602.214844 369.09375 629.503906 454.464844 630.359375 508.570313 C 630.359375 508.765625 630.359375 508.960938 630.375 509.15625 C 631.191406 562.800781 630.988281 579.699219 574.054688 601.4375 "/>
<path style=" stroke:none;fill-rule:nonzero;fill:rgb(53.334045%,56.079102%,58.039856%);fill-opacity:1;" d="M 545.652344 364.792969 C 544.902344 361.390625 539.402344 360.664063 537.769531 363.800781 C 529.304688 380.070313 521.886719 396.398438 501.449219 401.054688 C 492.5 403.097656 482.964844 401.894531 474.445313 398.746094 C 464.398438 395.03125 459.46875 387.949219 451.554688 381.753906 C 448.769531 379.578125 445.050781 380.683594 444.023438 383.433594 C 441.867188 383.636719 439.957031 385.152344 439.941406 387.710938 C 439.886719 395.703125 447.304688 403.515625 453.332031 408.339844 C 459.957031 413.636719 468.125 417.414063 476.730469 418.34375 C 490.4375 426.28125 509.667969 425.605469 523.660156 419.308594 C 537.875 412.910156 555.15625 395.488281 549.585938 379.003906 C 549.027344 377.363281 547.546875 376.269531 545.9375 375.941406 C 546.527344 372.296875 546.484375 368.558594 545.652344 364.792969 "/>
<path style=" stroke:none;fill-rule:nonzero;fill:rgb(53.334045%,56.079102%,58.039856%);fill-opacity:1;" d="M 393.445313 301.132813 C 392.226563 314.867188 405.898438 326.507813 417.480469 332.015625 C 433.253906 339.519531 451.441406 343.769531 468.945313 345.074219 C 497.1875 347.183594 538.125 336.582031 548.378906 307.511719 C 548.855469 306.160156 548.679688 304.894531 548.109375 303.820313 C 551.476563 301.539063 554.265625 298.914063 555.9375 295.839844 C 557.296875 293.347656 555.617188 290.328125 552.613281 290.273438 C 546.25 290.148438 540.816406 293.683594 535.011719 295.953125 C 528.484375 298.503906 521.851563 300.90625 515.09375 302.828125 C 501.648438 306.660156 487.558594 309.746094 473.5 309.851563 C 459.285156 309.960938 445.164063 308.167969 431.6875 303.785156 C 425.007813 301.613281 418.371094 299.28125 411.917969 296.542969 C 405.566406 293.847656 399.453125 290.15625 392.59375 288.863281 C 387.933594 287.984375 385.335938 292.75 388.171875 296.160156 C 389.664063 297.957031 391.457031 299.605469 393.445313 301.132813 "/>
<path style=" stroke:none;fill-rule:nonzero;fill:rgb(53.334045%,56.079102%,58.039856%);fill-opacity:1;" d="M 630.375 509.15625 C 589.726563 530.914063 545.449219 545.835938 499.480469 553.402344 C 446.789063 562.089844 395.136719 558.617188 342.667969 551.015625 C 342 548.308594 339.886719 546.046875 336.8125 546.066406 C 343.183594 594.847656 368.863281 615.769531 382.445313 619.207031 C 398.414063 623.230469 516.898438 623.230469 574.054688 601.4375 C 630.988281 579.699219 631.191406 562.800781 630.375 509.15625 "/>
<path style=" stroke:none;fill-rule:nonzero;fill:rgb(5.882263%,9.411621%,12.940979%);fill-opacity:1;" d="M 615.125 513.144531 C 614.15625 537.410156 613.777344 561.859375 591.476563 577.699219 C 580.378906 585.578125 566.296875 588.886719 553.03125 592.097656 C 535.78125 596.277344 518.34375 599.675781 500.753906 602.234375 C 469.503906 606.777344 437.601563 609.839844 406.046875 608.160156 C 380.761719 606.8125 363.976563 587.558594 356.980469 565.535156 C 348.125 537.65625 344.972656 505.515625 350.640625 476.726563 C 356.03125 449.371094 371.132813 425.273438 391.832031 406.5625 C 402.566406 396.859375 419.390625 397.671875 429.328125 408.128906 C 435.117188 414.21875 441.789063 419.523438 447.683594 423.65625 C 463.335938 434.621094 484.40625 439.320313 503.613281 437.457031 C 528.53125 435.039063 553.300781 420.019531 563.070313 398.835938 C 566.269531 391.894531 575.8125 390.332031 581.117188 395.953125 C 590.523438 405.914063 597.992188 417.683594 603.4375 430.074219 C 615.117188 456.644531 616.253906 484.746094 615.125 513.144531 M 391.625 264.621094 C 400.433594 229.957031 438.917969 218.128906 472.199219 219.128906 C 499.953125 219.960938 532.476563 231.257813 543.882813 258.15625 C 553.621094 281.121094 547.175781 309.5625 525.175781 323.425781 C 497.507813 340.859375 454.46875 342.65625 424.859375 328.644531 C 400.171875 316.964844 384.882813 291.148438 391.625 264.621094 M 539.421875 386.5 C 538.171875 393.644531 535.230469 399.242188 531.253906 404.378906 C 522.835938 415.253906 508.527344 418.78125 495.011719 418.132813 C 481.398438 417.484375 468.082031 410.355469 457.714844 402.164063 C 454.660156 399.75 451.976563 396.96875 449.457031 394.039063 C 442.585938 386.070313 446.394531 373.960938 456.746094 371.109375 L 456.957031 371.050781 C 478.628906 365.097656 502.046875 362.78125 524.378906 366.496094 C 534.210938 368.132813 541.082031 377.042969 539.421875 386.5 M 643.023438 476.761719 C 640.589844 460.480469 636.65625 444.660156 629.957031 429.492188 C 617.484375 401.25 596.398438 374.453125 568.109375 359.355469 C 564.710938 357.539063 561.242188 355.925781 557.703125 354.496094 C 548.441406 350.746094 546.285156 339.175781 553.179688 332.152344 C 571.128906 313.882813 577.832031 287.964844 572.503906 261.015625 C 568.839844 242.484375 559.449219 224.578125 544.664063 211.972656 C 524.652344 194.90625 498.339844 188.9375 472.199219 187.578125 C 449.621094 186.40625 425.457031 190.425781 406.300781 202.640625 C 390.203125 212.902344 377.429688 229.109375 371.046875 246.566406 C 358.367188 281.246094 370.796875 320.648438 401.863281 341.914063 C 404.660156 343.828125 407.582031 345.589844 410.609375 347.199219 C 420.308594 352.355469 420.136719 365.800781 410.53125 371.113281 C 374.707031 390.933594 345.933594 421.394531 333.265625 460.441406 C 321.128906 497.851563 322.472656 537.75 330.183594 575.84375 C 337.566406 612.335938 366.882813 638.039063 406.046875 639.332031 C 442.460938 640.53125 478.917969 637.652344 514.863281 632.1875 C 530.632813 629.789063 546.265625 626.621094 561.742188 622.84375 C 576.1875 619.316406 591.199219 615.320313 603.925781 607.894531 C 633.0625 590.882813 645.847656 562.089844 647.441406 530.4375 C 648.351563 512.289063 645.699219 494.667969 643.023438 476.761719 "/>
<path style=" stroke:none;fill-rule:nonzero;fill:rgb(100%,100%,100%);fill-opacity:1;" d="M 1348.296875 375.246094 C 1348.296875 375.246094 1401.273438 322.265625 1520.152344 302.238281 C 1639.027344 282.210938 1650.011719 299.007813 1659.699219 315.808594 C 1669.394531 332.605469 1679.082031 466.339844 1603.492188 543.222656 C 1603.492188 543.222656 1485.910156 514.796875 1389 520.609375 C 1389 520.609375 1385.121094 441.789063 1348.296875 375.246094 "/>
<path style=" stroke:none;fill-rule:nonzero;fill:rgb(53.334045%,56.079102%,58.039856%);fill-opacity:1;" d="M 1434.507813 430.472656 C 1432.550781 423.820313 1425.894531 416.269531 1418.246094 418.589844 C 1418.207031 418.601563 1418.171875 418.625 1418.136719 418.640625 C 1408.457031 410.453125 1393.75 405.867188 1383.277344 413.082031 C 1380.496094 414.996094 1380.207031 420.59375 1384.34375 421.230469 C 1395.253906 422.90625 1406.269531 422.753906 1412.863281 433.421875 C 1415.890625 438.316406 1416.78125 444.46875 1415.730469 450.089844 C 1414.789063 455.097656 1411.554688 459.144531 1410.613281 464.09375 C 1409.652344 469.164063 1414.269531 472.316406 1418.777344 470.371094 C 1424.617188 467.855469 1427.964844 462.515625 1429.46875 456.234375 C 1434.613281 449.191406 1436.953125 438.78125 1434.507813 430.472656 "/>
<path style=" stroke:none;fill-rule:nonzero;fill:rgb(53.334045%,56.079102%,58.039856%);fill-opacity:1;" d="M 1656.410156 353.554688 C 1657.527344 351.300781 1657.410156 348.417969 1655.039063 345.671875 C 1644.15625 333.074219 1627.035156 339.554688 1616.515625 349.160156 C 1602.605469 361.863281 1592.914063 379.164063 1579.789063 392.769531 C 1573.160156 399.640625 1566.152344 406.046875 1558.203125 411.386719 C 1551.71875 415.742188 1542.804688 419.214844 1540.980469 427.777344 C 1539.046875 436.835938 1546.359375 442.203125 1552.527344 447.285156 C 1560.488281 453.84375 1568.496094 461.375 1577.625 466.304688 C 1579.523438 473.300781 1583.039063 479.730469 1588.597656 484.933594 C 1594.332031 490.308594 1601.613281 483.589844 1598.828125 477.042969 C 1594.019531 465.761719 1589.851563 456.738281 1590.433594 444.066406 C 1590.984375 432.058594 1594.261719 419.433594 1600.78125 409.246094 C 1607.410156 398.898438 1617.699219 390.105469 1627.691406 383.144531 C 1637.335938 376.425781 1649.847656 370.851563 1657.421875 361.722656 C 1659.597656 359.09375 1658.867188 355.160156 1656.410156 353.554688 "/>
<path style=" stroke:none;fill-rule:nonzero;fill:rgb(53.334045%,56.079102%,58.039856%);fill-opacity:1;" d="M 1557.898438 472.597656 C 1558.03125 472.167969 1558.105469 471.714844 1558.09375 471.242188 C 1557.839844 459.75 1547.882813 449.324219 1538.28125 444.035156 C 1527.460938 438.082031 1515.148438 437.691406 1503.113281 437.296875 C 1480.8125 436.570313 1449.46875 436.261719 1440.957031 462.09375 C 1440.625 463.109375 1440.519531 464.042969 1440.59375 464.886719 C 1436.292969 466.898438 1432.371094 469.464844 1429.289063 472.824219 C 1426.664063 475.679688 1428.480469 480.570313 1432.460938 480.59375 C 1443.417969 480.660156 1454.441406 475.941406 1465.191406 473.992188 C 1476.636719 471.914063 1488.425781 471.488281 1500.011719 472.367188 C 1511.628906 473.25 1523.101563 475.761719 1534.121094 479.585938 C 1545.121094 483.40625 1555.003906 490.816406 1566.257813 493.601563 C 1570.734375 494.707031 1576.265625 489.230469 1572.925781 484.8125 C 1568.945313 479.554688 1563.667969 475.699219 1557.898438 472.597656 "/>
<path style=" stroke:none;fill-rule:nonzero;fill:rgb(5.882263%,9.411621%,12.940979%);fill-opacity:1;" d="M 1652.851563 435.609375 C 1647.257813 450.972656 1638.824219 465.128906 1630.597656 479.175781 C 1628.046875 483.527344 1625.453125 488.015625 1622.742188 492.472656 C 1618.011719 500.238281 1606.796875 500.460938 1601.691406 492.9375 C 1595.414063 483.683594 1587.859375 473.070313 1583.730469 468.300781 C 1576.503906 459.957031 1568.835938 452.039063 1560.578125 444.703125 C 1559.0625 443.355469 1557.433594 441.820313 1555.714844 440.222656 C 1548.996094 433.980469 1550.222656 423.058594 1558.140625 418.429688 C 1576.40625 407.761719 1594 396.332031 1610.054688 381.96875 C 1620.992188 372.183594 1630.875 361.6875 1639.777344 350.433594 C 1643.527344 345.691406 1651.09375 347.3125 1652.519531 353.1875 C 1658.460938 377.707031 1661.417969 412.09375 1652.851563 435.609375 M 1560.214844 519.9375 C 1551.828125 519.566406 1543.34375 518.894531 1534.949219 518.96875 C 1525.257813 519.054688 1515.683594 521.542969 1506.027344 521.71875 C 1495.792969 521.90625 1484.996094 518.828125 1474.96875 516.984375 C 1464.972656 515.148438 1454.984375 513.347656 1445.027344 511.316406 C 1441.222656 510.539063 1435.546875 509.457031 1429.953125 508.414063 C 1421.742188 506.886719 1418.242188 497.058594 1423.644531 490.695313 C 1427.390625 486.28125 1431.199219 481.878906 1433.722656 479.144531 C 1439.777344 472.589844 1445.945313 466.453125 1452.871094 460.816406 C 1454.179688 459.753906 1455.542969 458.707031 1456.929688 457.652344 C 1463.992188 452.28125 1472.921875 450.261719 1481.714844 451.457031 C 1484.933594 451.894531 1488.105469 451.820313 1491.152344 451.019531 C 1494.042969 450.261719 1498.929688 448.402344 1503.933594 446.355469 C 1513.925781 442.269531 1525.378906 444.246094 1533.394531 451.472656 C 1534.816406 452.75 1536.195313 454.039063 1537.480469 455.363281 C 1545.050781 463.183594 1552.167969 471.5 1558.511719 480.347656 C 1561.808594 484.945313 1568.101563 495.734375 1573.398438 505.160156 C 1577.265625 512.042969 1572.054688 520.476563 1564.167969 520.117188 C 1562.851563 520.054688 1561.53125 519.996094 1560.214844 519.9375 M 1397.386719 464.019531 C 1394.925781 450.78125 1391.832031 439.050781 1387.246094 426.921875 C 1384.28125 419.082031 1391.832031 411.265625 1399.742188 414.042969 C 1400.0625 414.15625 1400.382813 414.265625 1400.703125 414.382813 C 1408.730469 417.257813 1416.503906 420.636719 1424.164063 424.28125 C 1433.503906 428.726563 1435.957031 440.878906 1428.976563 448.511719 C 1424.265625 453.660156 1419.46875 458.890625 1416.566406 461.984375 C 1414.746094 463.925781 1412.949219 465.882813 1411.171875 467.855469 C 1406.746094 472.765625 1398.59375 470.519531 1397.386719 464.019531 M 1395.882813 358.011719 C 1408.585938 347.933594 1423.304688 340.796875 1438.269531 334.753906 C 1491.917969 313.089844 1550.523438 307.40625 1607.910156 306.703125 C 1607.976563 306.703125 1608.039063 306.703125 1608.105469 306.699219 C 1618.734375 306.519531 1625.183594 318.292969 1619.171875 327.058594 C 1610.519531 339.679688 1601.171875 351.835938 1591.253906 363.167969 C 1572.660156 384.410156 1551.5 406.003906 1526.457031 419.515625 C 1519.542969 423.246094 1512.210938 427.597656 1504.648438 429.8125 C 1496.921875 432.074219 1492.964844 429.113281 1485.648438 426.648438 C 1471.308594 421.820313 1460.457031 409.800781 1447.671875 402.082031 C 1433.636719 393.601563 1418.722656 386.351563 1403.332031 380.671875 C 1402.035156 380.191406 1400.722656 379.714844 1399.402344 379.246094 C 1390.375 376.03125 1388.210938 364.125 1395.707031 358.15625 C 1395.765625 358.105469 1395.824219 358.058594 1395.882813 358.011719 M 1672.335938 307.277344 C 1668.148438 291.234375 1655.671875 277.734375 1639.070313 274.429688 C 1624.949219 271.617188 1608.789063 274.128906 1594.617188 275.769531 C 1578.007813 277.691406 1561.59375 281.003906 1545.160156 283.996094 C 1512.601563 289.921875 1480.511719 298.125 1449.34375 309.304688 C 1430.523438 316.058594 1412.398438 324.589844 1394.289063 333.027344 C 1375.941406 341.574219 1357.34375 348.921875 1340.886719 360.917969 C 1331.289063 367.914063 1324.75 376.65625 1325.230469 389.035156 C 1325.675781 400.539063 1332.851563 407.265625 1340.558594 414.757813 C 1361.933594 435.539063 1368.394531 461.8125 1367.984375 494.558594 C 1367.875 503.246094 1367.101563 510.925781 1372.117188 518.5625 C 1383.160156 535.367188 1407.386719 531.125 1424.488281 530.070313 C 1445.027344 528.804688 1465.535156 527.945313 1486.121094 528.308594 C 1497.15625 528.503906 1506.457031 529.882813 1516.917969 533.417969 C 1527.289063 536.917969 1537.5 539.449219 1548.195313 541.722656 C 1557.605469 543.722656 1567.003906 545.789063 1576.386719 547.917969 C 1586.222656 550.148438 1597.488281 555.875 1607.625 553.066406 C 1626.496094 547.835938 1634.339844 528.148438 1642.070313 512.035156 C 1649.992188 495.53125 1656.144531 478.71875 1660.199219 460.859375 C 1668.09375 426.09375 1671.910156 390.09375 1673.453125 354.519531 C 1673.785156 346.851563 1675.261719 339.332031 1675.667969 331.671875 C 1676.089844 323.8125 1674.339844 314.9375 1672.335938 307.277344 "/>
<path style=" stroke:none;fill-rule:nonzero;fill:rgb(100%,100%,100%);fill-opacity:1;" d="M 510.167969 1422.140625 C 447.585938 1422.140625 406.046875 1542.449219 393.097656 1593.160156 C 393.097656 1593.160156 359.109375 1581.289063 322.425781 1610.421875 C 285.738281 1639.554688 263.078125 1684.875 266.316406 1701.058594 C 269.554688 1717.246094 334.292969 1744.21875 366.664063 1749.613281 C 366.664063 1749.613281 401.191406 1799.785156 509.089844 1799.785156 C 616.988281 1799.785156 647.199219 1751.773438 647.199219 1751.773438 C 647.199219 1751.773438 735.675781 1729.113281 745.925781 1707.535156 C 756.175781 1685.953125 712.476563 1618.515625 683.886719 1607.1875 C 655.292969 1595.859375 626.160156 1596.398438 626.160156 1596.398438 C 626.160156 1596.398438 584.617188 1448.578125 510.167969 1422.140625 "/>
<path style=" stroke:none;fill-rule:nonzero;fill:rgb(53.334045%,56.079102%,58.039856%);fill-opacity:1;" d="M 451.367188 1651.152344 C 451.339844 1651.230469 451.296875 1651.304688 451.265625 1651.382813 C 449.09375 1657.015625 456.65625 1659.691406 460.359375 1656.679688 C 466.652344 1651.5625 471.792969 1645.6875 478.933594 1641.574219 C 486.527344 1637.203125 495.105469 1634.554688 503.839844 1633.820313 C 522.484375 1632.253906 540.125 1639.085938 554.984375 1649.945313 C 560.1875 1653.746094 567.167969 1647.46875 565.535156 1641.832031 C 558.109375 1616.136719 535.195313 1596.625 508.359375 1594.328125 C 494.027344 1593.101563 479.171875 1597.238281 468.679688 1607.34375 C 458.519531 1617.136719 453.476563 1630.949219 448.839844 1643.9375 C 447.652344 1647.261719 449.070313 1649.800781 451.367188 1651.152344 "/>
<path style=" stroke:none;fill-rule:nonzero;fill:rgb(53.334045%,56.079102%,58.039856%);fill-opacity:1;" d="M 592.753906 1720.578125 C 584.796875 1719.039063 574.5625 1716.488281 579.414063 1706.054688 C 582.785156 1698.804688 586.835938 1692.535156 588.894531 1684.671875 C 592.738281 1670 592.804688 1652.90625 584.675781 1639.75 C 582.226563 1635.785156 575.148438 1637.140625 575.449219 1642.246094 C 576.359375 1657.609375 578.148438 1671.890625 573.03125 1686.847656 C 572.578125 1688.179688 572.039063 1689.523438 571.457031 1690.875 C 570.21875 1690.554688 568.824219 1690.660156 567.425781 1691.410156 C 557.996094 1696.492188 550.980469 1705.789063 541.949219 1711.730469 C 531.414063 1718.667969 520.230469 1721.261719 507.679688 1721.03125 C 495.929688 1720.8125 483.59375 1719.546875 472.523438 1715.390625 C 461.695313 1711.332031 455.421875 1704.234375 447.246094 1696.710938 C 446.390625 1695.921875 445.152344 1695.613281 443.964844 1695.730469 C 441.054688 1689.351563 437.773438 1683.222656 436 1676.363281 C 433.863281 1668.097656 433.972656 1660.019531 434.621094 1651.574219 C 435.070313 1645.734375 426.792969 1645.414063 425.011719 1650.273438 C 419.636719 1664.9375 421.765625 1680.109375 428.117188 1694.039063 C 431.902344 1702.335938 438.8125 1712.027344 437.664063 1721.546875 C 436.242188 1733.289063 426.011719 1731.898438 417.019531 1732.148438 C 391.078125 1732.882813 383.429688 1769.667969 405.828125 1782.285156 C 407.585938 1783.277344 409.324219 1783.195313 410.71875 1782.480469 C 444.984375 1789.488281 479.964844 1794 514.992188 1792.90625 C 531.515625 1792.390625 548.054688 1790.625 564.28125 1787.417969 C 579.164063 1784.476563 596.152344 1781.160156 608.386719 1771.582031 C 618.367188 1763.765625 624.179688 1750.855469 620.027344 1738.324219 C 615.964844 1726.066406 604.128906 1722.78125 592.753906 1720.578125 "/>
<path style=" stroke:none;fill-rule:nonzero;fill:rgb(53.334045%,56.079102%,58.039856%);fill-opacity:1;" d="M 361.632813 1607.476563 C 360.644531 1605.664063 357.921875 1604.710938 356.273438 1605.992188 C 348.101563 1612.351563 347.203125 1624.042969 346.488281 1634.011719 C 345.578125 1646.746094 347.230469 1659.839844 345.363281 1672.484375 C 341.203125 1700.613281 315.9375 1706.882813 292.511719 1707.175781 C 283.933594 1707.28125 284.109375 1720.273438 292.511719 1720.894531 C 293.820313 1720.992188 295.140625 1721.058594 296.46875 1721.101563 C 303.707031 1727.902344 315.015625 1730.664063 323.910156 1734.1875 C 335.296875 1738.695313 346.679688 1743.203125 358.066406 1747.695313 C 362.367188 1749.394531 366.65625 1745.078125 366.738281 1740.832031 C 367.53125 1698.089844 369.914063 1655.511719 373.355469 1612.917969 C 373.9375 1605.710938 366.007813 1603.921875 361.632813 1607.476563 "/>
<path style=" stroke:none;fill-rule:nonzero;fill:rgb(53.334045%,56.079102%,58.039856%);fill-opacity:1;" d="M 742.203125 1691.414063 C 721.050781 1697.832031 678.5625 1717.441406 672.121094 1682.5 C 667.109375 1655.328125 668.835938 1627.597656 654.722656 1602.625 C 651.324219 1596.605469 641.941406 1600.671875 643.664063 1607.285156 C 643.746094 1607.59375 643.832031 1607.902344 643.914063 1608.210938 C 641.050781 1609.15625 638.75 1611.476563 639.101563 1614.945313 C 639.296875 1616.871094 639.492188 1618.792969 639.683594 1620.71875 C 638.792969 1621.519531 638.136719 1622.613281 637.984375 1623.804688 C 636.472656 1635.726563 639.285156 1648.378906 641.117188 1660.171875 C 642.605469 1669.730469 642.464844 1682.816406 646.886719 1692.003906 L 651.042969 1733.132813 C 651.511719 1737.792969 655.390625 1741.660156 660.386719 1740.25 C 682.15625 1734.101563 705.492188 1726.988281 723.65625 1713.128906 C 732.183594 1710.917969 740.386719 1707.578125 747 1702.789063 C 752.367188 1698.90625 749.429688 1689.222656 742.203125 1691.414063 "/>
<path style=" stroke:none;fill-rule:nonzero;fill:rgb(5.882263%,9.411621%,12.940979%);fill-opacity:1;" d="M 507.050781 1698.183594 C 480.628906 1697.667969 457.535156 1675.972656 458.839844 1648.855469 C 459.453125 1636.109375 465.144531 1625.734375 475.101563 1617.964844 C 476.078125 1617.203125 477.710938 1616.316406 479.742188 1615.367188 C 497.109375 1607.25 517.277344 1607.078125 534.554688 1615.382813 C 536.359375 1616.253906 537.832031 1617.082031 538.773438 1617.816406 C 548.835938 1625.691406 554.640625 1635.914063 555.261719 1648.855469 C 556.566406 1675.972656 533.476563 1697.667969 507.050781 1698.183594 M 561.066406 1594.613281 C 553.671875 1586.519531 543.820313 1581.421875 533.683594 1577.535156 C 519.734375 1572.183594 500.039063 1570.644531 481.597656 1577.105469 C 471.421875 1580.671875 461.320313 1585.867188 453.820313 1593.746094 C 440.132813 1608.121094 431.617188 1629.136719 430.445313 1648.855469 C 427.78125 1693.769531 460.566406 1729.285156 504.792969 1731.304688 C 505.519531 1731.375 506.265625 1731.417969 507.050781 1731.402344 C 507.832031 1731.417969 508.578125 1731.375 509.304688 1731.304688 C 553.53125 1729.289063 586.320313 1693.769531 583.65625 1648.855469 C 582.5 1629.421875 574.242188 1609.023438 561.066406 1594.613281 "/>
<path style=" stroke:none;fill-rule:nonzero;fill:rgb(5.882263%,9.411621%,12.940979%);fill-opacity:1;" d="M 735.585938 1697.617188 C 733.195313 1707.152344 719.925781 1710.5 712.066406 1714.058594 C 701.417969 1718.878906 690.53125 1723.222656 679.550781 1727.332031 C 668.363281 1731.519531 656.210938 1724.121094 654.859375 1712.253906 C 653.53125 1700.613281 651.96875 1687.957031 651.179688 1682.136719 C 648.652344 1663.46875 645.5 1644.867188 641.527344 1626.476563 C 639.597656 1617.550781 647.703125 1609.78125 656.539063 1612.082031 C 666.140625 1614.585938 675.386719 1618.640625 683.773438 1623.664063 C 702.253906 1634.734375 715.324219 1652.632813 725.804688 1671.152344 C 730.011719 1678.585938 737.847656 1688.585938 735.585938 1697.617188 M 620.9375 1758 C 609.066406 1770.625 587.800781 1774.59375 571.535156 1778.023438 C 551.546875 1782.242188 483.574219 1784.757813 450.265625 1780.367188 C 433.695313 1778.183594 415.011719 1774.429688 399.851563 1767.152344 C 384.828125 1759.941406 379.839844 1743.894531 380.46875 1728.367188 C 381.199219 1710.390625 384.648438 1692.308594 388 1674.65625 C 391.164063 1657.996094 395.945313 1641.714844 399.539063 1625.148438 C 403.03125 1609.046875 406.210938 1592.722656 411.03125 1576.972656 C 419.699219 1548.65625 431.105469 1521.183594 446.21875 1495.675781 C 453.074219 1484.101563 460.566406 1472.847656 468.832031 1462.230469 C 476.449219 1452.441406 485.148438 1439.367188 497.054688 1434.726563 C 511.824219 1428.972656 523.640625 1434.378906 533.941406 1445.269531 C 543.191406 1455.046875 551.863281 1465.414063 559.679688 1476.375 C 595.746094 1526.949219 615.113281 1587.445313 625.195313 1648.222656 C 628.527344 1668.324219 630.496094 1688.457031 631.289063 1708.8125 C 631.945313 1725.675781 633.386719 1744.757813 620.9375 1758 M 303.648438 1714.78125 C 295.894531 1711.300781 281.917969 1707.777344 278.824219 1698.804688 C 275.589844 1689.425781 283.933594 1678.875 288.296875 1671.152344 C 298.460938 1653.152344 311.25 1635.3125 329.113281 1624.390625 C 335.644531 1620.402344 342.683594 1616.980469 350.011719 1614.410156 C 358.765625 1611.339844 367.59375 1618.839844 365.992188 1627.972656 C 364.554688 1636.183594 363.488281 1644.484375 362.875 1652.894531 C 361.792969 1667.707031 360.886719 1696.15625 360.476563 1715.828125 C 360.261719 1726.078125 350.027344 1733.039063 340.398438 1729.511719 C 327.984375 1724.96875 315.664063 1720.179688 303.648438 1714.78125 M 750.800781 1667.769531 C 730.992188 1630.167969 691.808594 1587.765625 650.496094 1579.160156 C 636.460938 1576.238281 625.152344 1565.984375 620.121094 1552.566406 C 610.425781 1526.703125 598.375 1501.714844 583.335938 1478.070313 C 575.140625 1465.179688 566.277344 1452.703125 556.625 1440.855469 C 546.019531 1427.84375 535.265625 1415.820313 518.390625 1411.449219 C 482.300781 1402.101563 459.367188 1432.835938 440.21875 1458.3125 C 420.234375 1484.902344 404.402344 1514.378906 391.679688 1545.054688 C 390.628906 1547.59375 389.585938 1550.140625 388.566406 1552.691406 C 383.207031 1566.0625 371.453125 1575.707031 357.332031 1578.546875 C 314.023438 1587.257813 282.894531 1630.574219 263.300781 1667.769531 C 257.429688 1678.917969 252.5 1689.824219 255.472656 1702.699219 C 258.628906 1716.359375 268.042969 1724.578125 279.824219 1731.074219 C 298.855469 1741.5625 320.742188 1752.21875 342.167969 1760.453125 C 356.714844 1766.042969 370.347656 1773.972656 381.828125 1784.507813 C 395.972656 1797.488281 418.25 1805.734375 434.171875 1808.476563 C 499.136719 1819.675781 553.441406 1815.292969 573.9375 1810.933594 C 592.496094 1806.988281 613.09375 1800.875 628.757813 1789.820313 C 631.566406 1787.835938 634.199219 1785.660156 636.640625 1783.3125 C 647.804688 1772.585938 660.898438 1764.046875 675.277344 1758.296875 C 695.402344 1750.25 715.246094 1741.550781 734.273438 1731.074219 C 745.699219 1724.78125 754.839844 1716.984375 758.320313 1703.886719 C 761.847656 1690.625 756.882813 1679.316406 750.800781 1667.769531 "/>
<path style=" stroke:none;fill-rule:nonzero;fill:rgb(100%,100%,100%);fill-opacity:1;" d="M 1136.222656 1556.097656 C 1126.734375 1572.550781 1082.4375 1582.683594 1082.4375 1582.683594 C 1043.195313 1547.871094 1060.277344 1512.429688 1090.664063 1513.707031 C 1121.027344 1514.964844 1145.707031 1539.644531 1136.222656 1556.097656 M 1100.777344 1467.5 C 1063.445313 1466.242188 983.722656 1495.347656 959.042969 1545.332031 C 934.367188 1595.335938 948.910156 1633.929688 969.789063 1640.898438 C 990.671875 1647.84375 1046.992188 1629.503906 1046.992188 1629.503906 C 1046.992188 1629.503906 1060.925781 1670.003906 1110.914063 1689.625 C 1110.914063 1689.625 1096.351563 1753.523438 1139.390625 1756.691406 C 1182.410156 1759.859375 1210.257813 1709.875 1196.34375 1680.75 C 1182.410156 1651.644531 1152.671875 1647.84375 1152.671875 1647.84375 C 1152.671875 1647.84375 1138.113281 1613.050781 1153.933594 1604.195313 C 1169.753906 1595.335938 1206.457031 1606.082031 1214.054688 1560.527344 C 1221.652344 1514.964844 1138.113281 1468.777344 1100.777344 1467.5 "/>
<path style=" stroke:none;fill-rule:nonzero;fill:rgb(53.334045%,56.079102%,58.039856%);fill-opacity:1;" d="M 1136.421875 1655.121094 C 1142.554688 1647.167969 1141.910156 1635.070313 1132.417969 1630.308594 C 1133.132813 1629.046875 1133.738281 1627.742188 1134.207031 1626.402344 C 1136.207031 1620.710938 1128.90625 1618.101563 1125.113281 1621.109375 C 1119.816406 1625.304688 1115.324219 1631.832031 1108.355469 1633.347656 C 1096.214844 1635.984375 1093.015625 1623.953125 1097.589844 1614.832031 C 1100.769531 1608.5 1105.550781 1603.035156 1110.808594 1598.355469 C 1115.550781 1594.136719 1122.066406 1591.527344 1125.210938 1585.898438 C 1126.804688 1583.042969 1124.710938 1580.28125 1121.785156 1579.929688 C 1111.164063 1578.65625 1099.40625 1591.554688 1093.503906 1599.039063 C 1089.515625 1604.097656 1085.808594 1610.128906 1083.859375 1616.519531 C 1081.417969 1615.699219 1078.550781 1616.066406 1076.492188 1618.070313 C 1059.0625 1635.085938 1076 1675.195313 1100.808594 1672.453125 C 1112.488281 1671.164063 1129.066406 1664.65625 1136.421875 1655.121094 "/>
<path style=" stroke:none;fill-rule:nonzero;fill:rgb(53.334045%,56.079102%,58.039856%);fill-opacity:1;" d="M 1180.65625 1671.527344 C 1176.84375 1671.714844 1172.976563 1672.332031 1169.121094 1673.257813 C 1169.144531 1671.925781 1168.542969 1670.558594 1167.335938 1669.992188 C 1156.457031 1664.878906 1143.144531 1671.785156 1134.425781 1678.589844 C 1124.359375 1686.453125 1115.382813 1698.289063 1114.21875 1711.304688 C 1113.867188 1715.207031 1117.164063 1717.476563 1120.507813 1717.546875 C 1122.523438 1721.007813 1128.050781 1722.785156 1130.894531 1719.234375 C 1137.625 1710.835938 1143.765625 1702.523438 1152.875 1696.492188 C 1162.125 1690.367188 1171.828125 1687.765625 1182.5625 1685.632813 C 1190.476563 1684.054688 1188.722656 1671.132813 1180.65625 1671.527344 "/>
<path style=" stroke:none;fill-rule:nonzero;fill:rgb(5.882263%,9.411621%,12.940979%);fill-opacity:1;" d="M 1188.824219 1574.144531 C 1174.273438 1587.238281 1153.480469 1585.464844 1137.691406 1595.527344 C 1122.492188 1605.207031 1123.640625 1622.253906 1131.5 1637.113281 C 1134.378906 1642.558594 1132.847656 1649.308594 1128.089844 1653.21875 C 1126.371094 1654.632813 1124.75 1655.914063 1123.605469 1656.691406 C 1116.960938 1661.222656 1109.078125 1666.53125 1100.609375 1665.421875 C 1089.78125 1664.003906 1083.199219 1655.578125 1078.394531 1645.90625 C 1074.453125 1637.976563 1075.9375 1628.449219 1081.910156 1621.910156 C 1086.832031 1616.527344 1090.707031 1610.640625 1093.105469 1604.390625 C 1096.1875 1596.367188 1103.121094 1590.304688 1111.539063 1588.558594 C 1120.113281 1586.777344 1128.25 1583.335938 1134.941406 1577.617188 C 1148.65625 1565.90625 1152.753906 1549.441406 1145.109375 1533.277344 C 1132.050781 1505.652344 1090.070313 1495.324219 1064.992188 1512.132813 C 1052.871094 1520.257813 1045.125 1534.894531 1045.367188 1549.566406 C 1045.480469 1556.375 1047.5 1563.191406 1051.175781 1568.914063 C 1054.253906 1573.707031 1063.660156 1579.722656 1063.894531 1585.75 C 1064.386719 1598.230469 1039.007813 1607.675781 1030.386719 1611.785156 C 1017.03125 1618.148438 997.582031 1625.898438 982.4375 1623.179688 C 970.636719 1621.058594 965.183594 1608.816406 962.945313 1598.214844 C 959.894531 1583.777344 962.292969 1568.542969 969.207031 1555.605469 C 973.148438 1548.230469 976.753906 1541.007813 982.464844 1534.851563 C 988.792969 1528.03125 995.820313 1521.832031 1003.40625 1516.445313 C 1018.230469 1505.914063 1034.679688 1497.316406 1051.6875 1490.90625 C 1068.6875 1484.5 1086.539063 1479.953125 1104.820313 1480.507813 C 1123.347656 1481.070313 1140.113281 1488.355469 1154.808594 1499.375 C 1174.8125 1514.371094 1217.640625 1548.214844 1188.824219 1574.144531 M 1161.101563 1734.164063 C 1144.019531 1741.796875 1126.515625 1731.640625 1124.917969 1713.125 C 1124.796875 1711.675781 1124.738281 1710.246094 1124.753906 1708.832031 C 1124.859375 1698.941406 1130.382813 1689.90625 1138.839844 1684.773438 C 1140.933594 1683.5 1143.03125 1682.140625 1145.097656 1680.695313 C 1154.257813 1674.277344 1166.296875 1673.074219 1176.046875 1678.558594 C 1177.152344 1679.183594 1178.21875 1679.871094 1179.222656 1680.628906 C 1198.507813 1695.148438 1177.945313 1726.636719 1161.101563 1734.164063 M 1094.636719 1562.785156 C 1086.785156 1563.960938 1078.671875 1561.488281 1073.222656 1555.710938 C 1072.203125 1554.628906 1071.289063 1553.460938 1070.53125 1552.160156 C 1066.796875 1545.714844 1069.417969 1537.320313 1074.234375 1532.257813 C 1081.074219 1525.078125 1092.242188 1523.667969 1101.601563 1525.203125 C 1109.28125 1526.460938 1121.761719 1530.734375 1124.09375 1539.429688 C 1126.136719 1547.0625 1118.796875 1554.191406 1112.664063 1557.570313 C 1107.320313 1560.515625 1101.003906 1561.828125 1094.636719 1562.785156 M 1227.488281 1536.527344 C 1220.28125 1517.699219 1206.3125 1503.859375 1190.789063 1491.574219 C 1175.371094 1479.371094 1159.378906 1467.472656 1140.949219 1460.222656 C 1101.648438 1444.761719 1058.347656 1457.007813 1021.957031 1474.527344 C 987.832031 1490.957031 953.773438 1517.316406 937.523438 1552.367188 C 929.21875 1570.273438 924.105469 1588.242188 927.109375 1608.09375 C 929.886719 1626.457031 940.339844 1643.964844 956.496094 1653.628906 C 975.214844 1664.828125 998.015625 1662.332031 1018.097656 1656.773438 C 1018.9375 1656.539063 1019.777344 1656.300781 1020.617188 1656.054688 C 1031.550781 1652.871094 1043.332031 1656.761719 1050.183594 1665.855469 C 1056.34375 1674.023438 1063.6875 1681.25 1072.75 1687.429688 C 1076.199219 1689.785156 1079.78125 1691.667969 1083.457031 1693.105469 C 1090.136719 1695.71875 1094.359375 1702.328125 1094.191406 1709.5 C 1093.628906 1733.34375 1104.074219 1760.382813 1127.921875 1769.074219 C 1159.433594 1780.554688 1187.222656 1757.96875 1201.40625 1731.277344 C 1213.523438 1708.464844 1213.589844 1674.035156 1192.261719 1654.949219 C 1185.082031 1648.527344 1178.410156 1644.699219 1172.648438 1640.21875 C 1164.613281 1633.964844 1166.992188 1621.179688 1176.710938 1618.144531 C 1191.414063 1613.554688 1208.386719 1605.785156 1217.835938 1595.058594 C 1232.144531 1578.820313 1235.167969 1556.59375 1227.488281 1536.527344 "/>
<path style=" stroke:none;fill-rule:nonzero;fill:rgb(100%,100%,100%);fill-opacity:1;" d="M 1479.695313 1632.226563 C 1467.25 1592.921875 1439.082031 1583.75 1443.011719 1561.480469 C 1446.941406 1539.207031 1568.128906 1487.457031 1583.195313 1490.078125 C 1598.261719 1492.699219 1609.398438 1492.042969 1637.566406 1468.460938 C 1665.734375 1444.875 1676.871094 1438.980469 1688.007813 1441.601563 C 1699.140625 1444.222656 1737.136719 1486.148438 1724.035156 1509.074219 C 1710.933594 1532 1625.773438 1555.582031 1625.773438 1555.582031 C 1625.773438 1555.582031 1648.046875 1594.234375 1632.980469 1608.644531 C 1617.914063 1623.054688 1581.886719 1630.261719 1581.886719 1630.261719 L 1585.816406 1663.667969 C 1585.816406 1663.667969 1663.769531 1636.15625 1686.695313 1647.949219 C 1709.625 1659.738281 1714.863281 1729.175781 1684.730469 1731.796875 C 1654.597656 1734.417969 1583.851563 1728.523438 1583.851563 1728.523438 C 1583.851563 1728.523438 1585.160156 1790.097656 1558.957031 1783.546875 C 1532.753906 1776.996094 1475.109375 1761.929688 1448.253906 1761.277344 C 1421.394531 1760.621094 1422.050781 1739.003906 1424.667969 1720.003906 C 1427.289063 1701.007813 1404.363281 1665.632813 1420.085938 1651.222656 C 1435.804688 1636.8125 1477.730469 1642.707031 1477.730469 1642.707031 Z M 1479.695313 1632.226563 "/>
<path style=" stroke:none;fill-rule:nonzero;fill:rgb(53.334045%,56.079102%,58.039856%);fill-opacity:1;" d="M 1531.496094 1535.925781 C 1531.832031 1537.878906 1533.648438 1539.164063 1535.355469 1539.785156 C 1537.207031 1540.460938 1539.089844 1540.878906 1540.980469 1541.101563 C 1540.957031 1541.78125 1541.105469 1542.464844 1541.46875 1543.027344 C 1543.976563 1546.914063 1549.445313 1546.332031 1553.433594 1545.546875 C 1555.496094 1545.140625 1557.527344 1544.195313 1559.382813 1543.214844 C 1562.101563 1541.785156 1563.128906 1540.242188 1563.496094 1537.183594 C 1563.566406 1536.582031 1563.464844 1536.023438 1563.257813 1535.515625 C 1566.957031 1533.332031 1570.140625 1530.414063 1571.140625 1526.207031 C 1571.800781 1523.433594 1569.871094 1521.1875 1567.148438 1520.96875 C 1559.25 1520.332031 1552.570313 1527.800781 1544.652344 1528.851563 C 1540.757813 1529.367188 1530.050781 1527.484375 1531.292969 1534.730469 C 1531.359375 1535.128906 1531.429688 1535.527344 1531.496094 1535.925781 "/>
<path style=" stroke:none;fill-rule:nonzero;fill:rgb(53.334045%,56.079102%,58.039856%);fill-opacity:1;" d="M 1627.160156 1575.535156 C 1627.023438 1575.339844 1626.886719 1575.144531 1626.75 1574.949219 C 1625.109375 1572.609375 1622.949219 1571.847656 1620.199219 1572.28125 C 1610.125 1573.871094 1599.242188 1577.667969 1591.1875 1584.382813 C 1590.429688 1583.308594 1589.105469 1582.6875 1587.472656 1583.085938 C 1581.480469 1584.546875 1576.863281 1588.765625 1571.855469 1592.199219 C 1565.777344 1596.367188 1559.546875 1600.242188 1552.464844 1602.480469 C 1536.761719 1607.441406 1525.371094 1602.09375 1513.664063 1591.925781 C 1511.140625 1589.734375 1507.542969 1590.246094 1505.308594 1592.074219 C 1503.050781 1588.851563 1499.945313 1586.195313 1496.324219 1584.929688 C 1493.128906 1583.8125 1486.167969 1583.613281 1487.011719 1588.875 C 1487.808594 1593.804688 1494.144531 1596.21875 1495.789063 1601.214844 C 1497.976563 1607.886719 1493.089844 1612.921875 1487.296875 1615.328125 C 1484.949219 1616.300781 1482.652344 1618.304688 1482.855469 1621.152344 C 1482.894531 1621.691406 1482.972656 1622.230469 1483.074219 1622.761719 C 1483.519531 1625.148438 1486.445313 1627.421875 1488.902344 1627.199219 C 1489.777344 1627.117188 1490.628906 1626.972656 1491.46875 1626.792969 C 1491.863281 1633.398438 1494.679688 1640.1875 1500.554688 1643.730469 C 1507.609375 1647.992188 1515.71875 1644.957031 1522.890625 1642.789063 C 1543.453125 1636.570313 1564.636719 1630.492188 1583.675781 1620.347656 C 1587.664063 1623.425781 1595.46875 1622.382813 1594.625 1615.890625 C 1593.503906 1607.226563 1593.097656 1600.777344 1600.070313 1594.265625 C 1606.5625 1588.214844 1615.191406 1586.378906 1623.28125 1583.46875 C 1625.023438 1582.84375 1627.054688 1581.449219 1627.332031 1579.417969 C 1627.5 1578.183594 1627.953125 1576.671875 1627.160156 1575.535156 "/>
<path style=" stroke:none;fill-rule:nonzero;fill:rgb(53.334045%,56.079102%,58.039856%);fill-opacity:1;" d="M 1495.917969 1571.066406 C 1496.105469 1571.707031 1496.4375 1572.335938 1496.976563 1572.929688 C 1510.445313 1587.808594 1539.023438 1610.128906 1554.695313 1586 C 1554.9375 1585.625 1555.035156 1585.265625 1555.074219 1584.917969 C 1559.03125 1584.070313 1562.789063 1582.773438 1565.398438 1579.515625 C 1566.074219 1578.671875 1565.765625 1576.882813 1564.375 1577.046875 C 1559.195313 1577.640625 1554.722656 1579.253906 1549.304688 1577.738281 C 1545.714844 1576.734375 1541.59375 1573.773438 1538.511719 1571.613281 C 1532.492188 1567.390625 1527.347656 1562.566406 1520.433594 1559.839844 C 1511.375 1556.269531 1495.03125 1554.15625 1493 1567.5625 C 1492.699219 1569.550781 1494.222656 1571.195313 1495.917969 1571.066406 "/>
<path style=" stroke:none;fill-rule:nonzero;fill:rgb(53.334045%,56.079102%,58.039856%);fill-opacity:1;" d="M 1464.875 1685.140625 C 1464.75 1687.535156 1465.636719 1690.019531 1467.980469 1691.800781 C 1479.34375 1700.445313 1476.597656 1719.019531 1491.574219 1724.34375 C 1492.453125 1724.652344 1493.304688 1724.523438 1494.046875 1724.15625 C 1498.992188 1729.835938 1505.535156 1734.394531 1512.410156 1733.519531 C 1515.699219 1733.101563 1519.269531 1729.417969 1516.734375 1725.984375 C 1511.546875 1718.953125 1503.714844 1715.148438 1498.6875 1707.550781 C 1493.496094 1699.699219 1492.679688 1690.039063 1487.65625 1682.152344 C 1482.339844 1673.792969 1463.988281 1666.394531 1461.109375 1680.84375 C 1460.605469 1683.382813 1462.585938 1685.378906 1464.875 1685.140625 "/>
<path style=" stroke:none;fill-rule:nonzero;fill:rgb(53.334045%,56.079102%,58.039856%);fill-opacity:1;" d="M 1514.898438 1685.636719 C 1514.929688 1690.542969 1521.566406 1694.675781 1526.277344 1691.992188 C 1537.828125 1685.410156 1548.933594 1678.199219 1559.648438 1670.328125 C 1562.492188 1668.238281 1563.304688 1665.199219 1562.765625 1662.503906 C 1563.027344 1662.320313 1563.28125 1662.128906 1563.539063 1661.945313 C 1570.484375 1657.015625 1566.113281 1648.019531 1559.042969 1648.503906 C 1558.460938 1644.625 1554.613281 1641.046875 1549.875 1641.929688 C 1548.179688 1642.242188 1546.511719 1642.613281 1544.875 1643.035156 C 1532.816406 1642.699219 1523.210938 1650.183594 1514.789063 1658.449219 C 1512.3125 1660.878906 1512.078125 1663.636719 1513.101563 1665.890625 C 1512.207031 1666.6875 1511.300781 1667.46875 1510.429688 1668.300781 C 1508.316406 1670.316406 1507.882813 1672.773438 1508.484375 1674.972656 C 1506.308594 1679.769531 1509.742188 1685.8125 1514.898438 1685.636719 "/>
<path style=" stroke:none;fill-rule:nonzero;fill:rgb(53.334045%,56.079102%,58.039856%);fill-opacity:1;" d="M 1574.691406 1744.886719 C 1574.496094 1744.753906 1574.285156 1744.636719 1574.089844 1744.507813 C 1576.511719 1743.441406 1577.511719 1740.878906 1576.277344 1738.421875 C 1574.308594 1734.5 1569.679688 1733.015625 1565.890625 1731.359375 C 1561.933594 1729.632813 1557.332031 1727.085938 1553.3125 1730.007813 C 1551.636719 1731.222656 1550.992188 1732.785156 1551.355469 1734.8125 C 1551.410156 1735.125 1551.527344 1735.390625 1551.617188 1735.671875 C 1541.738281 1733.683594 1531.378906 1733.570313 1522.238281 1735.257813 C 1519.835938 1735.703125 1517.28125 1736.390625 1514.710938 1737.296875 C 1514.21875 1736.816406 1513.566406 1736.476563 1512.757813 1736.4375 C 1504.507813 1736.03125 1496.929688 1738.460938 1488.78125 1735.441406 C 1480.125 1732.234375 1474.824219 1725.765625 1471.386719 1717.464844 C 1469.867188 1713.789063 1466.027344 1712.773438 1463.050781 1713.691406 C 1462.136719 1706.921875 1459.21875 1700.632813 1453.800781 1697.078125 C 1451.53125 1695.59375 1448.625 1697.566406 1448.574219 1700.078125 C 1448.40625 1709.078125 1453.40625 1716.898438 1449.039063 1725.910156 C 1446.890625 1730.347656 1443.792969 1733.28125 1438.980469 1734.597656 C 1435.636719 1735.515625 1433.085938 1735.347656 1430.660156 1738.15625 C 1429.332031 1739.699219 1428.972656 1741.699219 1429.96875 1743.523438 C 1431.34375 1746.042969 1433.210938 1747.472656 1435.335938 1748.105469 C 1435.421875 1749.070313 1435.777344 1750.035156 1436.441406 1750.855469 C 1448.285156 1765.394531 1474.207031 1761.332031 1490.527344 1764.867188 C 1490.761719 1764.917969 1490.980469 1764.921875 1491.207031 1764.945313 C 1492.859375 1768.363281 1498.074219 1770.175781 1500.765625 1766.796875 C 1503.972656 1762.765625 1505.964844 1758.066406 1509.628906 1754.367188 C 1515.140625 1748.800781 1522.324219 1746.371094 1530.117188 1746.246094 C 1544.449219 1746.019531 1556.429688 1753.632813 1570.097656 1755.789063 C 1576.664063 1756.824219 1580.550781 1748.84375 1574.691406 1744.886719 "/>
<path style=" stroke:none;fill-rule:nonzero;fill:rgb(5.882263%,9.411621%,12.940979%);fill-opacity:1;" d="M 1709.78125 1507.320313 C 1706.261719 1511.8125 1694.382813 1512.902344 1689.335938 1514.523438 C 1670 1520.742188 1651.058594 1528.140625 1632.53125 1536.453125 C 1614.484375 1544.550781 1597.730469 1554.5625 1580.851563 1564.828125 C 1572.886719 1569.671875 1565.070313 1574.691406 1557.558594 1580.210938 C 1550.144531 1585.660156 1542.710938 1594.042969 1533.648438 1588.144531 C 1524.394531 1582.125 1515.972656 1575.171875 1506.332031 1569.652344 C 1497.40625 1564.539063 1497.105469 1563.285156 1504.363281 1555.378906 C 1510.425781 1548.777344 1516.074219 1540.160156 1525.324219 1546.492188 C 1534.007813 1552.4375 1539.332031 1561.378906 1549.5625 1565.148438 C 1560.808594 1569.292969 1571.207031 1548.621094 1576.371094 1542.871094 C 1582.851563 1535.660156 1590.089844 1529.289063 1596.882813 1522.398438 C 1609.800781 1509.296875 1621.039063 1494.644531 1634.167969 1481.703125 C 1640.605469 1475.355469 1647.722656 1470.324219 1655.28125 1465.394531 C 1661.035156 1461.636719 1674.058594 1450.40625 1680.964844 1452.3125 C 1687.609375 1454.148438 1693.769531 1465.910156 1697.546875 1471.027344 C 1702.386719 1477.585938 1709.460938 1485.921875 1711.566406 1493.9375 C 1712.550781 1497.683594 1712.234375 1504.1875 1709.78125 1507.320313 M 1625.941406 1590.675781 C 1626.785156 1594.617188 1627.566406 1607.378906 1607.445313 1610.390625 C 1600.128906 1611.484375 1592.871094 1613.015625 1585.746094 1615.007813 C 1571.257813 1619.054688 1556.855469 1623.289063 1542.660156 1628.285156 C 1536.082031 1630.597656 1529.539063 1633.011719 1523.019531 1635.484375 C 1517.296875 1637.65625 1509.929688 1642.414063 1503.808594 1639.03125 C 1500.003906 1636.925781 1499.230469 1632.789063 1497.753906 1629.0625 C 1495.226563 1622.6875 1492.421875 1616.464844 1488.746094 1610.660156 C 1481.386719 1599.042969 1470.679688 1590.804688 1462.5 1579.992188 C 1459.761719 1576.375 1456.816406 1571.554688 1457.03125 1566.828125 C 1457.253906 1561.761719 1461.859375 1558.628906 1465.582031 1555.71875 C 1465.625 1555.6875 1465.664063 1555.652344 1465.707031 1555.621094 C 1469.488281 1552.671875 1474.925781 1555.691406 1474.582031 1560.476563 C 1474.117188 1566.902344 1475.71875 1573.28125 1480.300781 1578.984375 C 1487.328125 1587.730469 1499.769531 1592.078125 1508.929688 1598.300781 C 1519.59375 1605.542969 1528.535156 1615.070313 1542.503906 1613.367188 C 1553.417969 1612.035156 1562.210938 1602.859375 1571.429688 1597.449219 C 1583.679688 1590.257813 1595.777344 1582.695313 1608.625 1576.589844 L 1608.71875 1576.542969 C 1614.15625 1573.960938 1620.71875 1576.34375 1623.078125 1581.878906 C 1624.285156 1584.707031 1625.289063 1587.613281 1625.941406 1590.675781 M 1654.015625 1657.328125 C 1660.195313 1656.621094 1675.835938 1652.476563 1680.507813 1657.8125 C 1685.128906 1663.085938 1685.300781 1674.199219 1686.46875 1680.597656 C 1688.015625 1689.09375 1691.398438 1700.476563 1689.210938 1709.054688 C 1685.074219 1725.238281 1669.035156 1718.121094 1656.527344 1716.40625 C 1636.589844 1713.667969 1616.542969 1711.933594 1596.421875 1711.441406 C 1575.148438 1710.921875 1553.84375 1712.964844 1532.710938 1715.273438 C 1523.46875 1716.285156 1514.394531 1717.828125 1505.246094 1719.4375 C 1501.324219 1720.132813 1495.804688 1721.53125 1492.058594 1719.425781 C 1488.476563 1717.414063 1487.375 1713.132813 1485.570313 1709.613281 C 1483.027344 1704.65625 1480.296875 1699.792969 1477.382813 1695.046875 C 1474.636719 1690.585938 1469.976563 1685.933594 1468.101563 1681.152344 C 1465.246094 1673.867188 1475.378906 1672.5 1480.898438 1670.535156 C 1485.359375 1668.945313 1489.449219 1666.375 1493.878906 1668.464844 C 1498.007813 1670.414063 1499.113281 1674.28125 1500.722656 1678.359375 C 1504.140625 1687.023438 1507.105469 1695.132813 1513.386719 1702.171875 C 1518.566406 1707.976563 1538.714844 1695.800781 1545.703125 1692.902344 C 1555.140625 1688.984375 1565.023438 1686.523438 1574.585938 1682.996094 C 1591.953125 1676.582031 1608.601563 1668.515625 1626.21875 1662.710938 C 1635.261719 1659.730469 1644.574219 1658.410156 1654.015625 1657.328125 M 1570.066406 1756.457031 C 1569.246094 1759.9375 1567.136719 1771.476563 1563.667969 1772.691406 C 1560.238281 1773.894531 1550.800781 1768.875 1547.484375 1767.855469 C 1540.304688 1765.648438 1533.070313 1763.613281 1525.691406 1762.1875 C 1511.730469 1759.488281 1497.6875 1757.148438 1483.582031 1755.351563 C 1476.707031 1754.476563 1469.820313 1753.71875 1462.925781 1753.039063 C 1456.59375 1752.414063 1447.125 1753.328125 1441.640625 1749.886719 C 1438.410156 1747.859375 1437.164063 1744.507813 1437.195313 1740.835938 C 1437.261719 1733.597656 1438.65625 1726.625 1438.097656 1719.300781 C 1436.929688 1704.003906 1430.769531 1690.753906 1427.71875 1675.964844 C 1426.839844 1671.691406 1426.371094 1666.765625 1428.1875 1662.632813 C 1430.378906 1657.65625 1435.394531 1657.027344 1440.292969 1655.90625 C 1440.34375 1655.894531 1440.402344 1655.882813 1440.457031 1655.871094 C 1445.15625 1654.800781 1449.015625 1659.835938 1446.71875 1664.070313 C 1444.390625 1668.347656 1443.191406 1673.226563 1443.402344 1678.480469 C 1443.847656 1689.4375 1452.152344 1697.773438 1457.582031 1706.621094 C 1463.757813 1716.679688 1467.65625 1730.1875 1477.527344 1737.335938 C 1487.675781 1744.683594 1496.78125 1741.753906 1508.078125 1740.367188 C 1522.007813 1738.660156 1536.347656 1737.789063 1550.375 1737.3125 C 1553.730469 1737.199219 1557.101563 1737.121094 1560.480469 1737.082031 C 1566.617188 1737.003906 1571.464844 1742.175781 1571.152344 1748.304688 C 1571.011719 1751.054688 1570.695313 1753.785156 1570.066406 1756.457031 M 1547.746094 1668.746094 C 1542.019531 1672.136719 1535.90625 1675.878906 1530.882813 1679.132813 C 1526.46875 1682 1520.542969 1679.699219 1519.226563 1674.601563 C 1519.203125 1674.507813 1519.179688 1674.410156 1519.15625 1674.316406 C 1516.574219 1664.300781 1522.753906 1654.085938 1532.855469 1651.875 C 1535.726563 1651.246094 1538.71875 1650.730469 1541.699219 1650.453125 C 1552.230469 1649.460938 1556.847656 1663.351563 1547.746094 1668.746094 M 1545.957031 1511.308594 C 1549.257813 1510.378906 1553.695313 1509.164063 1558.492188 1507.992188 C 1565.535156 1506.269531 1570.996094 1514.046875 1567.058594 1520.132813 C 1567.019531 1520.191406 1566.984375 1520.246094 1566.949219 1520.300781 C 1563.710938 1525.320313 1560.476563 1530.324219 1557.480469 1535.445313 C 1554.292969 1540.890625 1546.820313 1541.847656 1542.34375 1537.398438 C 1538.789063 1533.859375 1534.925781 1530.082031 1531.605469 1526.976563 C 1527.980469 1523.59375 1529.085938 1517.636719 1533.648438 1515.699219 C 1537.679688 1513.984375 1541.78125 1512.488281 1545.957031 1511.308594 M 1720.878906 1451 C 1713.410156 1443.042969 1703.480469 1433.933594 1692.96875 1430.484375 C 1679.949219 1426.214844 1668.789063 1433.023438 1658.261719 1440.160156 C 1647.226563 1447.640625 1637.09375 1456.296875 1626.191406 1463.921875 C 1624.488281 1465.117188 1622.773438 1466.3125 1621.058594 1467.507813 C 1613.910156 1472.507813 1604.765625 1474.203125 1596.53125 1471.332031 C 1582.25 1466.347656 1563.023438 1476.601563 1551.257813 1481.894531 C 1542.785156 1485.703125 1535.109375 1491.453125 1526.878906 1495.859375 C 1518.519531 1500.335938 1510.082031 1504.640625 1501.667969 1509.019531 C 1484.566406 1517.921875 1467.050781 1525.53125 1449.675781 1533.835938 C 1433.355469 1541.636719 1425.207031 1558.507813 1429.222656 1576.175781 C 1431.488281 1586.132813 1441.871094 1600.027344 1451.101563 1611.15625 C 1456.914063 1618.164063 1451.957031 1628.757813 1442.855469 1628.820313 C 1440.277344 1628.839844 1437.699219 1628.886719 1435.125 1628.984375 C 1417.65625 1629.628906 1403.300781 1640.78125 1399.441406 1658.042969 C 1395.1875 1677.066406 1404.335938 1693.300781 1408.402344 1711.316406 C 1410.378906 1720.066406 1409.109375 1728.324219 1409.585938 1737.097656 C 1409.996094 1744.589844 1414.136719 1752.296875 1419.257813 1757.644531 C 1430.59375 1769.492188 1447.050781 1769.105469 1462.164063 1771.582031 C 1481.5 1774.753906 1500.914063 1778.300781 1519.699219 1783.933594 C 1530.105469 1787.054688 1540.460938 1790.203125 1550.78125 1793.617188 C 1559.253906 1796.417969 1568.589844 1797.722656 1576.675781 1792.992188 C 1584.058594 1788.671875 1587.433594 1780.40625 1590.09375 1772.722656 C 1591.445313 1768.832031 1593.058594 1763.230469 1594.570313 1757.664063 C 1597.703125 1746.117188 1608.710938 1738.515625 1620.628906 1739.582031 C 1625.542969 1740.019531 1630.4375 1740.511719 1635.300781 1741.050781 C 1657.894531 1743.5625 1682.789063 1752.964844 1704.164063 1740.84375 C 1727.582031 1727.566406 1723.464844 1697.480469 1717.089844 1675.78125 C 1713.9375 1665.058594 1709.34375 1653.089844 1701.878906 1644.539063 C 1693.863281 1635.359375 1683.289063 1634.257813 1671.765625 1635.515625 C 1657.933594 1637.03125 1644.441406 1640.027344 1630.835938 1642.8125 C 1622.542969 1644.511719 1614.179688 1645.703125 1605.84375 1647.113281 C 1603.410156 1647.527344 1600.953125 1646.492188 1599.570313 1644.441406 L 1599.480469 1644.304688 C 1596.917969 1640.503906 1599.164063 1635.328125 1603.6875 1634.59375 C 1610.289063 1633.519531 1616.890625 1632.496094 1623.535156 1631.632813 C 1631.75 1630.570313 1639.683594 1628.664063 1645.488281 1622.339844 C 1652.566406 1614.636719 1651.941406 1604.191406 1650.628906 1594.554688 C 1649.882813 1589.078125 1648.375 1580.902344 1647.015625 1573.917969 C 1645.46875 1565.964844 1649.761719 1558.003906 1657.28125 1554.980469 C 1665.132813 1551.824219 1673.046875 1548.839844 1681.046875 1546.085938 C 1702.039063 1538.855469 1727.925781 1535.902344 1740.507813 1515.101563 C 1754.308594 1492.277344 1736.222656 1467.347656 1720.878906 1451 "/>
<path style=" stroke:none;fill-rule:nonzero;fill:rgb(100%,100%,100%);fill-opacity:1;" d="M 308.234375 986.957031 C 279.445313 986.957031 237.480469 981.101563 237.480469 1019.648438 L 237.480469 1165.546875 L 335.558594 1162.617188 L 335.558594 1011.355469 C 335.558594 1011.355469 337.023438 986.957031 308.234375 986.957031 "/>
<path style=" stroke:none;fill-rule:nonzero;fill:rgb(100%,100%,100%);fill-opacity:1;" d="M 458.03125 933.773438 C 429.242188 933.773438 387.28125 927.917969 387.28125 966.464844 L 387.28125 1164.570313 L 485.359375 1161.640625 L 485.359375 958.167969 C 485.359375 958.167969 486.820313 933.773438 458.03125 933.773438 "/>
<path style=" stroke:none;fill-rule:nonzero;fill:rgb(100%,100%,100%);fill-opacity:1;" d="M 606.367188 889.855469 C 577.578125 889.855469 535.617188 884 535.617188 922.546875 L 535.617188 1163.59375 L 633.691406 1160.667969 L 633.691406 914.253906 C 633.691406 914.253906 635.15625 889.855469 606.367188 889.855469 "/>
<path style=" stroke:none;fill-rule:nonzero;fill:rgb(53.334045%,56.079102%,58.039856%);fill-opacity:1;" d="M 322.855469 1095.332031 C 318.507813 1098.871094 315.667969 1103.242188 310.464844 1105.816406 C 304.238281 1108.898438 297.117188 1109.417969 290.28125 1109.359375 C 283.683594 1109.300781 276.21875 1109.140625 269.835938 1107.386719 C 264.179688 1105.832031 260.246094 1102.261719 255.089844 1099.769531 C 252.554688 1098.546875 248.816406 1099.964844 249.035156 1103.242188 C 249.164063 1105.167969 249.597656 1106.886719 250.257813 1108.4375 C 249.515625 1108.964844 248.921875 1109.769531 248.621094 1110.890625 C 246.203125 1119.933594 246.621094 1130.023438 247.242188 1139.3125 C 247.671875 1145.722656 249.820313 1151.222656 256.390625 1153.371094 C 264.542969 1156.035156 275.234375 1153.84375 283.652344 1153.519531 C 294.136719 1153.113281 306.246094 1154.289063 316.292969 1151.144531 C 316.757813 1150.996094 317.175781 1150.789063 317.570313 1150.550781 C 321.5625 1152.273438 327.0625 1150.308594 327.273438 1144.523438 C 327.636719 1134.5625 327.335938 1123.878906 326.046875 1113.996094 C 325.917969 1113 325.625 1112.136719 325.222656 1111.394531 C 328.621094 1108.164063 330.996094 1104.082031 331.652344 1098.972656 C 332.285156 1094.023438 325.847656 1092.890625 322.855469 1095.332031 "/>
<path style=" stroke:none;fill-rule:nonzero;fill:rgb(53.334045%,56.079102%,58.039856%);fill-opacity:1;" d="M 470.726563 1070.371094 C 466.382813 1073.914063 463.542969 1078.285156 458.339844 1080.859375 C 452.113281 1083.941406 444.992188 1084.460938 438.152344 1084.398438 C 431.558594 1084.34375 424.09375 1084.183594 417.710938 1082.429688 C 412.054688 1080.875 408.121094 1077.304688 402.960938 1074.8125 C 400.429688 1073.589844 396.6875 1075.007813 396.90625 1078.285156 C 397.035156 1080.210938 397.46875 1081.925781 398.132813 1083.480469 C 397.390625 1084.007813 396.796875 1084.8125 396.496094 1085.933594 C 394.078125 1094.976563 394.496094 1105.066406 395.117188 1114.355469 C 395.207031 1115.734375 395.402344 1117.058594 395.679688 1118.332031 C 395.304688 1118.8125 395.007813 1119.363281 394.820313 1119.976563 C 391.695313 1130.1875 392.75 1142.875 402.605469 1149.148438 C 412.839844 1155.664063 429.585938 1154.253906 441.21875 1154.816406 C 450.617188 1155.273438 465.328125 1158.183594 471.382813 1148.542969 C 474.511719 1143.566406 473.390625 1136.984375 473.09375 1131.503906 C 472.96875 1129.234375 472.878906 1126.957031 472.769531 1124.683594 C 474.117188 1123.585938 475.0625 1121.890625 475.148438 1119.566406 C 475.507813 1109.605469 475.207031 1098.921875 473.921875 1089.039063 C 473.792969 1088.042969 473.5 1087.179688 473.097656 1086.4375 C 476.492188 1083.207031 478.871094 1079.125 479.527344 1074.015625 C 480.160156 1069.066406 473.71875 1067.933594 470.726563 1070.371094 "/>
<path style=" stroke:none;fill-rule:nonzero;fill:rgb(53.334045%,56.079102%,58.039856%);fill-opacity:1;" d="M 619.394531 1048.21875 C 615.050781 1051.761719 612.207031 1056.132813 607.003906 1058.707031 C 600.777344 1061.785156 593.65625 1062.308594 586.820313 1062.246094 C 580.222656 1062.191406 572.757813 1062.027344 566.375 1060.273438 C 560.71875 1058.71875 556.789063 1055.148438 551.628906 1052.65625 C 549.09375 1051.433594 545.355469 1052.855469 545.574219 1056.132813 C 545.703125 1058.054688 546.136719 1059.773438 546.800781 1061.328125 C 546.054688 1061.851563 545.460938 1062.660156 545.164063 1063.78125 C 542.746094 1072.824219 543.164063 1082.910156 543.78125 1092.199219 C 543.875 1093.582031 544.070313 1094.90625 544.347656 1096.179688 C 543.972656 1096.660156 543.675781 1097.210938 543.488281 1097.824219 C 541.398438 1104.652344 541.195313 1112.582031 544.226563 1118.96875 C 538.605469 1128.550781 538.574219 1141.996094 547.523438 1149.746094 C 556.253906 1157.308594 570.296875 1155.175781 580.914063 1155.226563 C 589.675781 1155.265625 601.785156 1157.289063 610.355469 1153.121094 C 612.296875 1153.40625 614.351563 1153.003906 615.992188 1151.574219 C 623.832031 1144.738281 627.820313 1130.75 623.175781 1120.898438 C 623.199219 1120.789063 623.222656 1120.683594 623.242188 1120.574219 C 623.59375 1118.898438 623.140625 1117.003906 622.160156 1115.523438 C 622.074219 1113.40625 621.867188 1111.308594 621.757813 1109.351563 C 621.636719 1107.082031 621.546875 1104.804688 621.433594 1102.53125 C 622.785156 1101.429688 623.726563 1099.734375 623.8125 1097.410156 C 624.175781 1087.453125 623.875 1076.769531 622.585938 1066.886719 C 622.457031 1065.890625 622.167969 1065.027344 621.765625 1064.285156 C 625.160156 1061.054688 627.535156 1056.972656 628.191406 1051.863281 C 628.828125 1046.910156 622.386719 1045.78125 619.394531 1048.21875 "/>
<path style=" stroke:none;fill-rule:nonzero;fill:rgb(5.882263%,9.411621%,12.940979%);fill-opacity:1;" d="M 567.613281 1150.964844 C 557.320313 1150.667969 549.257813 1141.976563 549.769531 1131.695313 C 550.972656 1107.484375 549.882813 1082.960938 549.925781 1058.945313 C 550.003906 1015.878906 550.085938 972.816406 550.105469 929.753906 C 550.105469 926.523438 549.738281 922.925781 550.203125 919.703125 C 551.863281 908.246094 561.816406 904.644531 571.871094 904.648438 C 588.011719 904.65625 617.554688 899.019531 618.210938 922.90625 C 619.230469 960.015625 618.050781 997.316406 617.984375 1034.4375 C 617.929688 1066.863281 617.839844 1099.289063 617.808594 1131.714844 C 617.800781 1141.027344 610.832031 1148.773438 601.59375 1149.972656 C 601.539063 1149.980469 601.484375 1149.988281 601.429688 1149.996094 C 590.496094 1151.421875 579.007813 1151.292969 567.613281 1150.964844 M 421.652344 1147.941406 C 410.320313 1147.730469 401.445313 1138.269531 401.765625 1126.9375 C 402.261719 1109.515625 401.476563 1091.925781 401.511719 1074.789063 C 401.582031 1041.105469 401.503906 1007.417969 401.6875 973.734375 C 401.714844 968.890625 401.917969 964.363281 404.929688 960.210938 C 410.140625 953.027344 417.5625 952.859375 425.535156 952.863281 C 441.253906 952.871094 468.382813 947.753906 469.769531 970.425781 C 471.464844 998.128906 469.628906 1026.496094 469.570313 1054.238281 C 469.519531 1078.898438 469.445313 1103.5625 469.40625 1128.222656 C 469.390625 1139.574219 460.070313 1148.707031 448.722656 1148.457031 C 444.421875 1148.363281 440.121094 1148.277344 435.820313 1148.199219 C 431.097656 1148.117188 426.375 1148.027344 421.652344 1147.941406 M 269.984375 1146.183594 C 260.691406 1146.105469 253.296875 1138.449219 253.464844 1129.15625 C 253.691406 1116.457031 253.0625 1103.652344 253.097656 1091.332031 C 253.160156 1067.753906 251.933594 1043.777344 253.265625 1020.234375 C 253.664063 1013.179688 256.976563 1006.886719 263.738281 1003.910156 C 268.554688 1001.789063 274.277344 1002.453125 279.445313 1002.457031 C 291.03125 1002.464844 310.109375 998.6875 318.023438 1009.636719 C 322.679688 1016.074219 321.296875 1025.375 321.273438 1032.914063 C 321.234375 1046.863281 321.191406 1060.8125 321.15625 1074.761719 C 321.109375 1093.097656 321.042969 1111.433594 321.003906 1129.769531 C 320.984375 1138.996094 313.484375 1146.453125 304.253906 1146.402344 C 293.253906 1146.34375 280.277344 1146.265625 269.984375 1146.183594 M 660.296875 1149.113281 L 660.207031 1149.078125 C 654.769531 1146.957031 651.03125 1141.917969 651.046875 1136.085938 C 651.238281 1065.144531 652.402344 994.035156 650.59375 923.152344 C 650.214844 908.3125 644.761719 894.507813 633.320313 884.6875 C 620.703125 873.851563 606.269531 872.488281 590.519531 872.496094 C 577.90625 872.503906 563.492188 870.894531 551.445313 875.285156 C 531.28125 882.636719 518.726563 900.929688 518.019531 922.210938 C 516.828125 957.894531 518.085938 993.824219 518.148438 1029.519531 C 518.199219 1058.746094 517.84375 1088.011719 518.355469 1117.234375 C 518.496094 1125.277344 518.660156 1133.261719 519.148438 1141.226563 C 519.4375 1146.023438 515.601563 1150.054688 510.796875 1149.953125 L 510.625 1149.949219 C 506.15625 1149.859375 502.589844 1146.21875 502.585938 1141.75 C 502.558594 1115.03125 502.46875 1088.3125 502.417969 1061.59375 C 502.359375 1030.5625 504.140625 998.898438 502.105469 967.917969 C 500.972656 950.675781 491.191406 934.589844 475.726563 926.535156 C 464.980469 920.9375 453.828125 920.703125 442.105469 920.710938 C 432.90625 920.714844 423.476563 920.109375 414.316406 921.089844 C 396.617188 922.984375 381.1875 934.015625 373.992188 950.34375 C 368.457031 962.90625 369.613281 976.578125 369.621094 989.960938 C 369.632813 1009.667969 369.691406 1029.371094 369.734375 1049.078125 C 369.785156 1073.449219 369.515625 1097.847656 369.90625 1122.214844 C 369.996094 1127.636719 370.101563 1133.042969 370.363281 1138.4375 C 370.589844 1143.082031 366.878906 1146.964844 362.230469 1146.894531 L 362.0625 1146.890625 C 357.679688 1146.820313 354.164063 1143.253906 354.15625 1138.871094 C 354.125 1119.023438 354.050781 1099.167969 354.003906 1079.316406 C 353.964844 1063.851563 353.917969 1048.382813 353.871094 1032.914063 C 353.835938 1019.90625 354.003906 1007.433594 347.363281 995.546875 C 340.792969 983.785156 328.757813 974.628906 315.597656 971.652344 C 307.832031 969.898438 299.839844 970.296875 291.945313 970.300781 C 272 970.316406 252.304688 969.179688 236.597656 984.085938 C 214.835938 1004.738281 221.246094 1042.203125 221.316406 1069.339844 C 221.367188 1088.867188 221.148438 1108.421875 221.472656 1127.949219 C 221.53125 1131.472656 221.59375 1135.007813 221.734375 1138.542969 C 221.945313 1143.894531 218.828125 1148.695313 214.023438 1151.0625 C 213.367188 1151.386719 212.722656 1151.726563 212.089844 1152.089844 C 203.707031 1156.871094 203.980469 1169.265625 212.414063 1173.960938 C 228.707031 1183.027344 252.261719 1179.28125 270.316406 1179.402344 C 288.707031 1179.527344 307.097656 1179.453125 325.484375 1179.359375 C 362.261719 1179.171875 399.046875 1178.320313 435.820313 1177.667969 C 472.585938 1177.015625 509.386719 1175.582031 546.152344 1175.445313 C 564.171875 1175.375 583.550781 1173.488281 601.429688 1175.871094 C 611.199219 1177.171875 620.828125 1177.859375 630.742188 1178.320313 C 640.496094 1178.773438 651.007813 1180.414063 660.296875 1176.75 C 673.820313 1171.414063 673.84375 1154.460938 660.296875 1149.113281 "/>
<path style=" stroke:none;fill-rule:nonzero;fill:rgb(100%,100%,100%);fill-opacity:1;" d="M 1543.699219 982.449219 C 1531 1037.058594 1553.222656 1073.886719 1518.300781 1089.125 C 1483.375 1104.367188 1476.390625 1137.382813 1440.195313 1130.398438 C 1404.003906 1123.414063 1400.828125 996.417969 1426.863281 925.9375 C 1452.894531 855.453125 1510.679688 816.722656 1541.792969 823.070313 C 1572.90625 829.421875 1600.210938 894.824219 1588.78125 913.871094 C 1577.351563 932.921875 1552.585938 946.890625 1543.699219 982.449219 "/>
<path style=" stroke:none;fill-rule:nonzero;fill:rgb(100%,100%,100%);fill-opacity:1;" d="M 1694.539063 993.664063 C 1720.078125 1021.332031 1679.109375 1126.6875 1619.515625 1125.621094 C 1559.921875 1124.558594 1555.664063 1105.402344 1527.996094 1144.246094 C 1500.328125 1183.085938 1518.949219 1220.867188 1545.554688 1228.847656 C 1572.15625 1236.828125 1656.761719 1238.425781 1722.207031 1127.21875 C 1787.652344 1016.011719 1792.976563 944.710938 1767.433594 897.890625 C 1741.894531 851.066406 1691.347656 848.9375 1662.613281 903.742188 C 1633.882813 958.546875 1635.476563 967.0625 1694.539063 993.664063 "/>
<path style=" stroke:none;fill-rule:nonzero;fill:rgb(53.334045%,56.079102%,58.039856%);fill-opacity:1;" d="M 1476.347656 1084.40625 C 1476.675781 1083.390625 1476.953125 1082.359375 1477.105469 1081.28125 C 1477.402344 1079.152344 1476.199219 1076.804688 1474.386719 1075.894531 C 1474.449219 1075.703125 1474.519531 1075.515625 1474.574219 1075.324219 C 1477.933594 1063.867188 1475.445313 1051.828125 1474.445313 1040.238281 C 1473.214844 1025.902344 1473.722656 1011.417969 1476.007813 997.210938 C 1480.472656 969.453125 1490.332031 943.292969 1505.105469 919.378906 C 1512.261719 907.785156 1520.382813 896.820313 1529.273438 886.5 C 1537.71875 876.691406 1547.628906 867.78125 1554.660156 856.871094 C 1557.023438 853.207031 1552.460938 849.304688 1548.957031 851.167969 C 1528.519531 862.046875 1512.472656 884.703125 1499.640625 903.4375 C 1485.5625 923.980469 1474.390625 946.621094 1467.214844 970.496094 C 1459.816406 995.113281 1457.609375 1020.742188 1460.367188 1046.273438 C 1461.492188 1056.6875 1464.371094 1071.175781 1455.675781 1079.199219 C 1447.078125 1087.136719 1434.480469 1083.636719 1424.171875 1085.855469 C 1417.558594 1087.28125 1418.167969 1096.882813 1424.171875 1098.640625 C 1426.667969 1099.375 1429.273438 1099.851563 1431.925781 1100.101563 C 1430.207031 1105.652344 1432.039063 1112.558594 1436.214844 1117.082031 C 1443.699219 1125.175781 1455.628906 1126.132813 1464.925781 1120.609375 C 1475.589844 1114.277344 1479.570313 1102.207031 1480.042969 1090.445313 C 1480.160156 1087.542969 1478.53125 1085.472656 1476.347656 1084.40625 "/>
<path style=" stroke:none;fill-rule:nonzero;fill:rgb(53.334045%,56.079102%,58.039856%);fill-opacity:1;" d="M 1526.890625 1041.191406 C 1527.980469 1036.523438 1528.574219 1031.699219 1528.964844 1026.964844 C 1530.207031 1011.871094 1530.378906 996.757813 1534.023438 981.957031 C 1535.632813 975.414063 1537.738281 968.75 1540.679688 962.675781 C 1543.628906 956.59375 1547.796875 951.222656 1550.445313 945.011719 C 1551.960938 941.457031 1548.894531 938.394531 1545.335938 939.902344 C 1526.328125 947.964844 1519.539063 975.894531 1516.933594 994.097656 C 1514.617188 1010.28125 1519.308594 1061.300781 1491.203125 1056.554688 C 1482.203125 1055.039063 1478.332031 1067.679688 1487.371094 1070.457031 C 1487.835938 1070.601563 1488.304688 1070.714844 1488.777344 1070.828125 C 1489.257813 1073.164063 1490.894531 1075.316406 1493.355469 1076.070313 C 1493.421875 1076.089844 1493.492188 1076.097656 1493.554688 1076.117188 C 1499.269531 1081.453125 1509.710938 1081.09375 1516.355469 1077.375 C 1527.15625 1071.328125 1531.1875 1058.753906 1530.542969 1047.015625 C 1530.386719 1044.167969 1528.867188 1042.1875 1526.890625 1041.191406 "/>
<path style=" stroke:none;fill-rule:nonzero;fill:rgb(53.334045%,56.079102%,58.039856%);fill-opacity:1;" d="M 1717.425781 933.273438 C 1702.703125 919.4375 1675.335938 905.019531 1658.539063 923.28125 C 1652.339844 930.027344 1646.269531 941.621094 1645.597656 950.855469 C 1644.707031 963.039063 1654.472656 968.703125 1664.085938 973.339844 C 1677.613281 979.863281 1693.6875 986.59375 1701.078125 1000.605469 C 1709.109375 1015.820313 1707.066406 1034.566406 1705.488281 1051.027344 C 1705.234375 1053.652344 1707.121094 1055.242188 1709.289063 1055.621094 C 1708.242188 1058.417969 1707.136719 1061.199219 1705.917969 1063.945313 C 1703.414063 1069.589844 1710.949219 1074.347656 1714.367188 1068.886719 C 1728.320313 1046.578125 1734.121094 1018.792969 1737.933594 993.023438 C 1741.296875 970.316406 1734.261719 949.09375 1717.425781 933.273438 "/>
<path style=" stroke:none;fill-rule:nonzero;fill:rgb(53.334045%,56.079102%,58.039856%);fill-opacity:1;" d="M 1664.011719 1169.398438 C 1643.308594 1186.914063 1620.136719 1194.917969 1593.601563 1185.851563 C 1574.894531 1179.460938 1542.421875 1170.414063 1534.710938 1197.433594 C 1527.050781 1224.277344 1560.171875 1228.199219 1578.542969 1227.339844 C 1601.625 1226.257813 1631.519531 1217.894531 1646.859375 1199.277344 C 1647.785156 1198.148438 1648.199219 1196.886719 1648.210938 1195.671875 C 1657.632813 1190.941406 1665.867188 1183.929688 1670.878906 1174.695313 C 1673.324219 1170.183594 1667.746094 1166.238281 1664.011719 1169.398438 "/>
<path style=" stroke:none;fill-rule:nonzero;fill:rgb(5.882263%,9.411621%,12.940979%);fill-opacity:1;" d="M 1762.460938 969.148438 C 1760.667969 1009.484375 1746.3125 1050.734375 1728.046875 1086.453125 C 1709.765625 1122.195313 1685.070313 1151.867188 1657.785156 1180.992188 C 1646.035156 1193.535156 1632.773438 1207.023438 1615.652344 1211.625 C 1602.09375 1215.265625 1587.550781 1216.476563 1573.5625 1216.335938 C 1561.996094 1216.21875 1547.390625 1213.667969 1538.074219 1206.628906 C 1536.414063 1205.375 1533.183594 1201.175781 1532.707031 1199.976563 C 1529.753906 1192.589844 1530.15625 1183.414063 1531.757813 1175.792969 C 1535.21875 1159.300781 1545.160156 1142.679688 1559.234375 1133.039063 C 1567.246094 1127.546875 1573.660156 1127.660156 1582.761719 1130.8125 C 1593.039063 1134.371094 1603.074219 1139.652344 1613.832031 1141.570313 C 1637.667969 1145.820313 1660.808594 1133.789063 1676.445313 1116.191406 C 1685.484375 1106.015625 1706.929688 1074.949219 1712.347656 1057.582031 C 1716.722656 1043.578125 1718.519531 1026.253906 1716.273438 1011.734375 C 1713.726563 995.261719 1707.085938 981.59375 1691.472656 974.238281 C 1681.515625 969.550781 1651.179688 965.898438 1652.761719 950.523438 C 1653.640625 941.960938 1660.488281 932.800781 1664.554688 925.453125 C 1667.910156 919.386719 1671.507813 913.46875 1675.75 907.972656 C 1684.523438 896.605469 1698.402344 880.398438 1714.4375 881.785156 C 1731.082031 883.222656 1745.152344 898.488281 1752.226563 912.554688 C 1760.980469 929.964844 1763.316406 949.898438 1762.460938 969.148438 M 1762.851563 869.808594 C 1747.492188 851.671875 1725.347656 840.171875 1701.375 846.308594 C 1678.671875 852.117188 1663.464844 870.496094 1650.664063 888.808594 C 1638.929688 905.597656 1625.167969 926.992188 1623.042969 947.609375 C 1619.988281 977.203125 1646.183594 988.546875 1669.726563 995.761719 C 1677.558594 998.164063 1684.515625 1000.367188 1685.753906 1008.851563 C 1686.945313 1017.003906 1686.199219 1026.582031 1684.953125 1034.695313 C 1681.476563 1057.292969 1666.910156 1086.957031 1651.0625 1098.027344 C 1642.609375 1103.925781 1633.601563 1107.550781 1623.667969 1109.953125 C 1618.878906 1111.109375 1614.152344 1112.699219 1609.128906 1112.148438 C 1603.378906 1111.519531 1597.964844 1108.5 1592.605469 1106.464844 C 1572.054688 1098.667969 1554.332031 1102.246094 1537.652344 1116.226563 C 1523.355469 1128.210938 1513.4375 1144.773438 1506.875 1162.058594 C 1500.34375 1179.269531 1497.925781 1201.550781 1507.15625 1218.300781 C 1515.273438 1233.023438 1532.324219 1239.761719 1548.199219 1241.664063 C 1580.496094 1245.527344 1620.203125 1241.300781 1648.375 1224.261719 C 1666.644531 1213.210938 1681.308594 1197.414063 1695.886719 1182.078125 C 1711.660156 1165.492188 1726 1147.542969 1738.574219 1128.40625 C 1763.261719 1090.839844 1781.269531 1048.273438 1789.859375 1004.097656 C 1798.945313 957.363281 1794.714844 907.433594 1762.851563 869.808594 "/>
<path style=" stroke:none;fill-rule:nonzero;fill:rgb(5.882263%,9.411621%,12.940979%);fill-opacity:1;" d="M 1515.855469 1070.085938 C 1508.898438 1078.746094 1494.898438 1075.230469 1492.71875 1064.335938 C 1490.265625 1052.070313 1488.332031 1039.71875 1488.128906 1026.984375 C 1487.777344 1004.664063 1490.574219 982.707031 1498.085938 961.632813 C 1504.898438 942.535156 1515.386719 924.542969 1528.570313 909.144531 C 1533.542969 903.332031 1545.429688 894.027344 1556.988281 887.421875 C 1563.585938 883.652344 1572.039063 886.117188 1575.398438 892.929688 C 1577.011719 896.203125 1578.289063 899.507813 1578.296875 901.828125 C 1578.335938 912.480469 1569.25 922.226563 1562.132813 929.140625 C 1525.402344 964.816406 1524.035156 988.03125 1522.335938 1031 C 1521.8125 1044.171875 1524.230469 1056.515625 1517.046875 1068.414063 C 1516.738281 1068.929688 1516.335938 1069.488281 1515.855469 1070.085938 M 1454.683594 1117 C 1447.480469 1117.621094 1439.78125 1112.886719 1436.746094 1106.363281 C 1430.796875 1093.582031 1428.824219 1076.554688 1426.875 1062.703125 C 1424.753906 1047.660156 1424.109375 1032.34375 1424.539063 1017.160156 C 1426.125 960.71875 1448.402344 909.839844 1486.203125 868.460938 C 1493.949219 859.980469 1502.933594 852.734375 1512.667969 846.636719 C 1521.09375 841.355469 1530.316406 834.59375 1540.457031 839.363281 C 1541.203125 839.710938 1541.90625 840.089844 1542.582031 840.488281 C 1550.664063 845.308594 1551.394531 856.609375 1544.21875 862.695313 C 1529.191406 875.441406 1520.164063 892.359375 1514.0625 899.441406 C 1499.664063 916.152344 1488.402344 934.996094 1480.558594 955.613281 C 1472.246094 977.46875 1467.839844 1001.058594 1466.933594 1024.394531 C 1466.078125 1046.515625 1466.695313 1070.320313 1471.753906 1092.441406 C 1474.277344 1103.449219 1467.371094 1114.839844 1456.246094 1116.792969 C 1455.726563 1116.886719 1455.207031 1116.953125 1454.683594 1117 M 1549.265625 1069.820313 C 1555.175781 1052.320313 1535.871094 989.398438 1590.300781 939.882813 C 1602.082031 929.164063 1610.488281 915.210938 1609.460938 899.28125 C 1608.328125 881.667969 1596.773438 868.332031 1588.667969 853.375 C 1581.132813 839.464844 1576.085938 825.199219 1561.976563 816.484375 C 1533.648438 798.980469 1505.253906 816.695313 1482.972656 834.898438 C 1459.460938 854.105469 1439.554688 876.414063 1424.199219 902.722656 C 1407.460938 931.398438 1398.515625 963.972656 1394.992188 996.828125 C 1391.09375 1033.160156 1395.308594 1070.414063 1405.34375 1105.476563 C 1409.363281 1119.511719 1415.832031 1131.9375 1428.949219 1139.433594 C 1439.8125 1145.640625 1453.90625 1146.976563 1465.808594 1143.191406 C 1482.871094 1137.773438 1496.382813 1121.746094 1510.078125 1110.863281 C 1524.625 1099.304688 1543.015625 1088.339844 1549.265625 1069.820313 "/>
<path style=" stroke:none;fill-rule:nonzero;fill:rgb(100%,100%,100%);fill-opacity:1;" d="M 1056.984375 937.285156 C 1056.984375 937.285156 1107.339844 837.386719 1148.761719 836.980469 C 1190.183594 836.574219 1225.921875 915.359375 1208.050781 925.511719 C 1190.183594 935.660156 1179.21875 942.160156 1178.40625 954.75 C 1177.59375 967.339844 1182.0625 1053.835938 1159.320313 1055.460938 C 1159.320313 1055.460938 1167.445313 1140.335938 1089.878906 1195.15625 C 1012.3125 1249.980469 878.304688 1202.875 859.625 1113.125 C 840.941406 1023.378906 876.273438 969.367188 932.71875 941.753906 C 989.167969 914.140625 1056.984375 937.285156 1056.984375 937.285156 "/>
<path style=" stroke:none;fill-rule:nonzero;fill:rgb(53.334045%,56.079102%,58.039856%);fill-opacity:1;" d="M 935.226563 997.023438 C 934.050781 997.277344 932.886719 997.929688 931.847656 999.121094 C 911.382813 1022.636719 900.503906 1053.5 904.375 1084.726563 C 907.515625 1110.03125 920.941406 1151.007813 953.546875 1146.21875 C 966.359375 1144.339844 976.761719 1135.0625 980.695313 1122.789063 C 984.984375 1109.402344 979.929688 1096.671875 974.125 1084.648438 C 970.570313 1077.285156 967.292969 1070.164063 967.164063 1061.800781 C 967.011719 1052.253906 970.558594 1043.101563 974.796875 1034.722656 C 980.546875 1023.355469 992.28125 1012.058594 993.335938 998.9375 C 995.601563 970.753906 949.664063 982.167969 935.226563 997.023438 "/>
<path style=" stroke:none;fill-rule:nonzero;fill:rgb(53.334045%,56.079102%,58.039856%);fill-opacity:1;" d="M 1171.894531 967.269531 C 1161.351563 971.640625 1149.8125 971.9375 1143.730469 960.347656 C 1138.714844 950.789063 1141.832031 938.777344 1137.484375 928.789063 C 1128.824219 908.898438 1103.984375 916.148438 1093.414063 899.628906 C 1090.578125 895.199219 1084.246094 897.183594 1083.867188 902.214844 C 1083.816406 902.875 1083.8125 903.515625 1083.839844 904.140625 C 1079.007813 904.949219 1075.289063 911.59375 1079.386719 916.714844 C 1086.132813 925.144531 1096.367188 928.1875 1105.734375 932.707031 C 1118.375 938.804688 1122.410156 948.894531 1124.960938 962.074219 C 1127.621094 975.820313 1133.753906 984.832031 1144.050781 994.261719 C 1151.457031 1001.046875 1160.234375 1005.9375 1169.828125 1000.101563 C 1172.964844 998.191406 1174.28125 993.609375 1172.746094 990.351563 C 1174.210938 988.824219 1175.390625 986.871094 1176.128906 984.351563 C 1176.492188 983.117188 1176.359375 981.988281 1175.898438 981.042969 C 1176.363281 980.726563 1176.828125 980.421875 1177.289063 980.074219 C 1182.972656 975.800781 1179.914063 963.941406 1171.894531 967.269531 "/>
<path style=" stroke:none;fill-rule:nonzero;fill:rgb(53.334045%,56.079102%,58.039856%);fill-opacity:1;" d="M 1129.910156 1010.1875 C 1130.070313 1009.917969 1130.199219 1009.609375 1130.285156 1009.257813 C 1131.671875 1003.785156 1127.773438 998.597656 1124.851563 994.214844 C 1120.453125 987.621094 1115.910156 981.171875 1111.25 974.761719 C 1108.039063 970.347656 1102.4375 970.289063 1099.238281 974.761719 C 1095.980469 979.320313 1093.839844 984.851563 1096.015625 990.359375 C 1096.714844 992.117188 1097.820313 993.671875 1099.199219 994.894531 C 1096.960938 997.339844 1096.984375 1002.101563 1101.027344 1002.660156 C 1116.828125 1004.84375 1122.253906 1017.007813 1125.972656 1031.191406 C 1128.429688 1040.554688 1129.179688 1056.230469 1136.363281 1063.144531 C 1137.871094 1064.59375 1139.898438 1064.078125 1141.046875 1062.539063 C 1150.265625 1050.203125 1138.320313 1027.910156 1132.960938 1016.105469 C 1132.09375 1014.195313 1131.074219 1012.191406 1129.910156 1010.1875 "/>
<path style=" stroke:none;fill-rule:nonzero;fill:rgb(5.882263%,9.411621%,12.940979%);fill-opacity:1;" d="M 1188.027344 918.851563 C 1178.566406 922.371094 1173.796875 928.570313 1170.214844 934.417969 C 1165.617188 941.929688 1166.03125 950.140625 1166.167969 958.710938 C 1166.320313 968.351563 1166.277344 977.992188 1166.125 987.632813 C 1166.125 987.730469 1166.125 987.828125 1166.121094 987.921875 C 1166.007813 995.347656 1156.335938 998.132813 1152.34375 991.871094 C 1149.765625 987.832031 1147.003906 983.886719 1144.070313 980.039063 C 1137.269531 971.128906 1132.328125 960.84375 1130.273438 949.824219 C 1128.828125 942.03125 1125.535156 934.847656 1118.558594 929.992188 C 1110.050781 924.074219 1099.746094 923.625 1090.691406 919.609375 C 1080.734375 915.199219 1092.859375 902.289063 1096.316406 896.691406 C 1104.792969 882.980469 1114.472656 869.660156 1125.777344 858.128906 C 1130.222656 853.597656 1135.042969 848.90625 1147.828125 848.449219 C 1169.273438 847.683594 1189.757813 877.328125 1197.039063 899.472656 C 1199.621094 907.320313 1195.773438 915.96875 1188.027344 918.851563 M 1129.710938 1072.878906 C 1126.175781 1071.023438 1122.355469 1069.078125 1118.859375 1067.457031 C 1114.089844 1065.242188 1111.132813 1060.34375 1111.527344 1055.101563 C 1111.707031 1052.753906 1111.828125 1050.398438 1111.890625 1048.039063 C 1112.097656 1040.488281 1119.882813 1035.542969 1126.898438 1038.347656 C 1128.269531 1038.894531 1129.632813 1039.429688 1130.9375 1039.929688 C 1136.601563 1042.09375 1140.558594 1047.269531 1141.101563 1053.308594 C 1141.4375 1057.042969 1141.722656 1061.144531 1141.941406 1064.984375 C 1142.3125 1071.480469 1135.472656 1075.902344 1129.710938 1072.878906 M 1107.492188 981.183594 L 1107.65625 981.339844 C 1116.089844 989.625 1122.9375 999.402344 1128.292969 1010.023438 C 1130.9375 1015.277344 1125.929688 1021.097656 1120.363281 1019.195313 C 1119.683594 1018.964844 1119.007813 1018.734375 1118.335938 1018.507813 C 1112.773438 1016.636719 1108.496094 1012.125 1106.964844 1006.460938 C 1106.015625 1002.953125 1104.929688 999.460938 1103.703125 995.992188 C 1102.578125 992.804688 1101.308594 989.585938 1099.902344 986.363281 C 1097.851563 981.664063 1103.832031 977.59375 1107.492188 981.183594 M 1135.914063 1111.46875 C 1135.328125 1113.261719 1134.707031 1115.039063 1134.046875 1116.804688 C 1131.332031 1124.101563 1122.792969 1127.363281 1115.847656 1123.84375 C 1114.292969 1123.054688 1112.746094 1122.265625 1111.21875 1121.464844 C 1109.097656 1120.351563 1106.902344 1119.121094 1104.644531 1117.894531 C 1099.421875 1115.050781 1097.234375 1108.691406 1099.589844 1103.234375 C 1100.566406 1100.976563 1101.484375 1098.695313 1102.351563 1096.398438 C 1104.753906 1090 1112.035156 1086.953125 1118.199219 1089.910156 C 1120.730469 1091.125 1123.195313 1092.292969 1125.4375 1093.46875 C 1126.941406 1094.261719 1128.5625 1095.226563 1130.273438 1096.273438 C 1135.421875 1099.429688 1137.785156 1105.726563 1135.914063 1111.46875 M 1107.730469 1158.570313 C 1107.703125 1158.59375 1107.679688 1158.617188 1107.65625 1158.644531 C 1105.09375 1161.15625 1102.410156 1163.527344 1099.617188 1165.757813 C 1094.660156 1169.722656 1087.757813 1170.171875 1082.203125 1167.101563 C 1079.90625 1165.828125 1077.347656 1164.414063 1074.773438 1162.992188 C 1068.613281 1159.589844 1067.230469 1151.335938 1071.945313 1146.117188 L 1072.042969 1146.011719 C 1073.792969 1144.074219 1075.484375 1142.09375 1077.128906 1140.085938 C 1081.179688 1135.121094 1088.382813 1134.117188 1093.746094 1137.625 C 1096.285156 1139.289063 1098.78125 1140.839844 1101.035156 1142.296875 C 1102.765625 1143.417969 1104.507813 1144.546875 1106.25 1145.671875 C 1110.714844 1148.542969 1111.511719 1154.847656 1107.730469 1158.570313 M 1054.699219 1188.574219 C 1046.3125 1191.066406 1037.707031 1192.863281 1029.074219 1194.03125 C 1024.125 1194.699219 1021.710938 1188.109375 1025.921875 1185.417969 C 1031.167969 1182.066406 1036.273438 1178.46875 1041.242188 1174.636719 C 1046.074219 1170.90625 1052.917969 1171.164063 1057.464844 1175.234375 C 1057.527344 1175.289063 1057.589844 1175.34375 1057.648438 1175.398438 C 1062.1875 1179.445313 1060.53125 1186.839844 1054.699219 1188.574219 M 978.28125 1174.949219 C 952.414063 1183.242188 923.886719 1177.40625 903.953125 1158.949219 C 903.84375 1158.847656 903.734375 1158.746094 903.625 1158.644531 C 864.175781 1121.863281 842.128906 1042.382813 903.625 981.339844 C 929.902344 955.257813 969.34375 944.546875 1005.640625 944.269531 C 1005.785156 944.269531 1005.933594 944.273438 1006.082031 944.273438 C 1034.019531 944.554688 1059.03125 961.746094 1069.9375 987.472656 C 1074.308594 997.78125 1077.644531 1007.359375 1078.9375 1013.359375 C 1084.824219 1040.699219 1080.691406 1070.527344 1069.890625 1096.160156 C 1052.902344 1136.492188 1018.136719 1162.167969 978.28125 1174.949219 M 1223.953125 901.242188 C 1216.078125 883.824219 1204.710938 867.667969 1192.472656 853.066406 C 1186.09375 845.453125 1180.847656 835.882813 1172.488281 830.230469 C 1165.296875 825.367188 1155.980469 822.816406 1147.328125 823.445313 C 1128.851563 824.789063 1117.027344 838.425781 1104.96875 850.847656 C 1091.183594 865.046875 1076.832031 879.804688 1065.453125 896.054688 C 1065.40625 896.125 1065.355469 896.195313 1065.308594 896.265625 C 1057.265625 907.9375 1043.691406 914.386719 1029.632813 912.617188 C 1021.722656 911.621094 1013.71875 911.113281 1005.640625 911.050781 C 981.453125 911.234375 957.71875 915.347656 935.390625 924.753906 C 916.394531 932.757813 898.632813 947.28125 883.574219 961.292969 C 813.863281 1026.140625 830.136719 1124.863281 883.574219 1178.691406 C 897.480469 1192.703125 915.25 1206.578125 933.441406 1214.40625 C 956.40625 1224.285156 980.671875 1228.742188 1005.640625 1228.933594 C 1029.828125 1228.746094 1053.558594 1224.636719 1075.890625 1215.230469 C 1094.882813 1207.226563 1113.21875 1193.292969 1127.707031 1178.691406 C 1151.933594 1154.269531 1170.570313 1117.988281 1174.648438 1081.875 C 1175.660156 1072.917969 1179.5 1064.328125 1185.980469 1058.0625 C 1195.785156 1048.582031 1190.613281 1024.292969 1190.566406 1016.558594 C 1190.5 1004.519531 1191.386719 992.445313 1191.652344 980.402344 C 1191.859375 970.839844 1189.96875 959.3125 1191.832031 949.996094 C 1193.382813 942.269531 1199.582031 943.257813 1205.609375 941.789063 C 1223.992188 937.308594 1231.382813 917.667969 1223.953125 901.242188 "/>
<path style=" stroke:none;fill-rule:nonzero;fill:rgb(5.882263%,9.411621%,12.940979%);fill-opacity:1;" d="M 957.992188 980.097656 C 933.984375 983.21875 913.1875 1009.554688 903.914063 1030.117188 C 897.964844 1043.308594 894.835938 1057.820313 894.824219 1072.300781 C 894.816406 1085.648438 896.847656 1102.574219 906.523438 1112.519531 C 908.320313 1114.367188 911.394531 1112.925781 911.464844 1110.472656 C 911.839844 1097.746094 907.617188 1085.195313 907.8125 1072.300781 C 908.015625 1059.183594 910.855469 1046.132813 916.414063 1034.226563 C 921.074219 1024.246094 927.527344 1015.09375 935.214844 1007.21875 C 942.929688 999.316406 952.859375 994.160156 960.632813 986.472656 C 962.722656 984.40625 961.339844 979.664063 957.992188 980.097656 "/>
<path style=" stroke:none;fill-rule:nonzero;fill:rgb(5.882263%,9.411621%,12.940979%);fill-opacity:1;" d="M 932.960938 1135.359375 C 928.644531 1131.503906 924.976563 1124.578125 919.078125 1123.207031 C 917.328125 1122.796875 915.578125 1123.738281 915.054688 1125.488281 C 912.921875 1132.589844 920.308594 1140 925.179688 1144.285156 C 930.78125 1149.21875 937.445313 1153.148438 945.132813 1151.761719 C 946.667969 1151.484375 947.515625 1149.324219 946.640625 1148.058594 C 942.996094 1142.816406 937.667969 1139.554688 932.960938 1135.359375 "/>
</g>
</svg>
