<?xml version="1.0" encoding="UTF-8"?>
<svg xmlns="http://www.w3.org/2000/svg" xmlns:xlink="http://www.w3.org/1999/xlink" width="1366pt" height="768pt" viewBox="0 0 1366 768" version="1.1">
<defs>
<g>
<symbol overflow="visible" id="glyph0-0">
<path style="stroke:none;" d="M 1.453125 -15.59375 L 9.734375 -15.59375 L 9.734375 0 L 1.453125 0 Z M 8.0625 -1.609375 L 8.0625 -14 L 3.125 -14 L 3.125 -1.609375 Z M 8.0625 -1.609375 "/>
</symbol>
<symbol overflow="visible" id="glyph0-1">
<path style="stroke:none;" d="M 2.046875 0 L 2.046875 -1.671875 L 4.75 -1.671875 L 4.75 -13.84375 L 1.828125 -12.671875 L 1.828125 -14.484375 L 4.515625 -15.59375 L 6.640625 -15.59375 L 6.640625 -1.671875 L 8.84375 -1.671875 L 8.84375 0 Z M 2.046875 0 "/>
</symbol>
<symbol overflow="visible" id="glyph0-2">
<path style="stroke:none;" d="M 9.09375 -3.78125 C 9.09375 -2.550781 8.753906 -1.613281 8.078125 -0.96875 C 7.398438 -0.320313 6.488281 0 5.34375 0 L 5.125 0 C 3.976563 0 3.066406 -0.320313 2.390625 -0.96875 C 1.710938 -1.613281 1.375 -2.550781 1.375 -3.78125 L 1.375 -11.8125 C 1.375 -13.0625 1.707031 -14.003906 2.375 -14.640625 C 3.050781 -15.273438 3.96875 -15.59375 5.125 -15.59375 L 5.34375 -15.59375 C 6.5 -15.59375 7.410156 -15.273438 8.078125 -14.640625 C 8.753906 -14.003906 9.09375 -13.0625 9.09375 -11.8125 Z M 7.203125 -12.234375 C 7.203125 -12.691406 7.023438 -13.085938 6.671875 -13.421875 C 6.328125 -13.753906 5.882813 -13.921875 5.34375 -13.921875 L 5.125 -13.921875 C 4.59375 -13.921875 4.148438 -13.753906 3.796875 -13.421875 C 3.453125 -13.085938 3.28125 -12.691406 3.28125 -12.234375 L 3.28125 -3.359375 C 3.28125 -2.898438 3.453125 -2.503906 3.796875 -2.171875 C 4.148438 -1.835938 4.59375 -1.671875 5.125 -1.671875 L 5.34375 -1.671875 C 5.882813 -1.671875 6.328125 -1.835938 6.671875 -2.171875 C 7.023438 -2.503906 7.203125 -2.898438 7.203125 -3.359375 Z M 7.203125 -12.234375 "/>
</symbol>
<symbol overflow="visible" id="glyph0-3">
<path style="stroke:none;" d="M 8.328125 -3.515625 C 8.328125 -2.285156 8.03125 -1.390625 7.4375 -0.828125 C 6.84375 -0.273438 5.878906 0 4.546875 0 L 1.84375 0 L 1.84375 -1.671875 L 4.75 -1.671875 C 5.3125 -1.671875 5.722656 -1.800781 5.984375 -2.0625 C 6.253906 -2.320313 6.390625 -2.734375 6.390625 -3.296875 L 6.390625 -6.125 C 6.390625 -6.613281 6.238281 -7.003906 5.9375 -7.296875 C 5.644531 -7.585938 5.253906 -7.734375 4.765625 -7.734375 L 2.078125 -7.734375 L 2.078125 -15.59375 L 8 -15.59375 L 8 -13.921875 L 3.96875 -13.921875 L 3.96875 -9.40625 L 4.65625 -9.40625 C 5.800781 -9.40625 6.695313 -9.117188 7.34375 -8.546875 C 8 -7.984375 8.328125 -7.109375 8.328125 -5.921875 Z M 8.328125 -3.515625 "/>
</symbol>
<symbol overflow="visible" id="glyph0-4">
<path style="stroke:none;" d="M 1.890625 0 L 1.890625 -15.59375 L 3.828125 -15.59375 L 3.828125 -1.6875 L 8.796875 -1.6875 L 8.796875 0 Z M 1.890625 0 "/>
</symbol>
<symbol overflow="visible" id="glyph0-5">
<path style="stroke:none;" d="M 9.421875 -3.5625 C 9.421875 -2.3125 9.113281 -1.40625 8.5 -0.84375 C 7.882813 -0.28125 6.929688 0 5.640625 0 L 5.34375 0 C 4.050781 0 3.097656 -0.28125 2.484375 -0.84375 C 1.867188 -1.40625 1.5625 -2.3125 1.5625 -3.5625 L 1.5625 -7.578125 C 1.5625 -8.828125 1.867188 -9.734375 2.484375 -10.296875 C 3.097656 -10.859375 4.050781 -11.140625 5.34375 -11.140625 L 5.640625 -11.140625 C 6.929688 -11.140625 7.882813 -10.859375 8.5 -10.296875 C 9.113281 -9.734375 9.421875 -8.828125 9.421875 -7.578125 Z M 7.53125 -8.015625 C 7.53125 -8.484375 7.390625 -8.84375 7.109375 -9.09375 C 6.828125 -9.34375 6.410156 -9.46875 5.859375 -9.46875 L 5.125 -9.46875 C 4.570313 -9.46875 4.15625 -9.34375 3.875 -9.09375 C 3.59375 -8.84375 3.453125 -8.484375 3.453125 -8.015625 L 3.453125 -3.125 C 3.453125 -2.65625 3.59375 -2.296875 3.875 -2.046875 C 4.15625 -1.796875 4.570313 -1.671875 5.125 -1.671875 L 5.859375 -1.671875 C 6.410156 -1.671875 6.828125 -1.796875 7.109375 -2.046875 C 7.390625 -2.296875 7.53125 -2.65625 7.53125 -3.125 Z M 7.53125 -8.015625 "/>
</symbol>
<symbol overflow="visible" id="glyph0-6">
<path style="stroke:none;" d="M 11.828125 0 L 8.90625 0 L 7.515625 -6.03125 L 5.96875 0 L 3.125 0 L 0.890625 -11.140625 L 2.859375 -11.140625 L 4.65625 -1.421875 L 6.640625 -9.140625 L 8.53125 -9.140625 L 10.390625 -1.421875 L 12.1875 -11.140625 L 14.03125 -11.140625 Z M 11.828125 0 "/>
</symbol>
<symbol overflow="visible" id="glyph0-7">
<path style="stroke:none;" d="M 10.296875 0 L 10.296875 -14 L 7.90625 -5.234375 L 6.0625 -5.234375 L 3.671875 -14 L 3.671875 0 L 1.890625 0 L 1.890625 -15.59375 L 5.03125 -15.59375 L 7.0625 -7.625 L 9.0625 -15.59375 L 12.140625 -15.59375 L 12.140625 0 Z M 10.296875 0 "/>
</symbol>
<symbol overflow="visible" id="glyph0-8">
<path style="stroke:none;" d="M 5.34375 0 C 4.039063 0 3.082031 -0.273438 2.46875 -0.828125 C 1.863281 -1.390625 1.5625 -2.300781 1.5625 -3.5625 L 1.5625 -7.578125 C 1.5625 -8.847656 1.832031 -9.757813 2.375 -10.3125 C 2.925781 -10.863281 3.84375 -11.140625 5.125 -11.140625 L 5.71875 -11.140625 C 6.78125 -11.140625 7.582031 -10.84375 8.125 -10.25 C 8.664063 -9.664063 8.9375 -8.8125 8.9375 -7.6875 L 8.9375 -4.796875 L 3.453125 -4.796875 L 3.453125 -3.125 C 3.453125 -2.65625 3.59375 -2.296875 3.875 -2.046875 C 4.15625 -1.796875 4.570313 -1.671875 5.125 -1.671875 L 8.21875 -1.671875 L 8.21875 0 Z M 7.078125 -6.46875 L 7.078125 -8.125 C 7.078125 -8.519531 6.953125 -8.84375 6.703125 -9.09375 C 6.453125 -9.34375 6.132813 -9.46875 5.75 -9.46875 L 4.90625 -9.46875 C 4.363281 -9.46875 3.984375 -9.34375 3.765625 -9.09375 C 3.554688 -8.851563 3.453125 -8.492188 3.453125 -8.015625 L 3.453125 -6.46875 Z M 7.078125 -6.46875 "/>
</symbol>
<symbol overflow="visible" id="glyph0-9">
<path style="stroke:none;" d="M 7.59375 -0.515625 C 7.101563 -0.171875 6.507813 0 5.8125 0 L 5.34375 0 C 4.039063 0 3.082031 -0.273438 2.46875 -0.828125 C 1.863281 -1.390625 1.5625 -2.300781 1.5625 -3.5625 L 1.5625 -7.578125 C 1.5625 -8.828125 1.867188 -9.734375 2.484375 -10.296875 C 3.097656 -10.859375 4.050781 -11.140625 5.34375 -11.140625 L 7.484375 -11.140625 L 7.484375 -15.59375 L 9.375 -15.59375 L 9.375 0 L 7.59375 0 Z M 6.03125 -1.671875 C 6.53125 -1.671875 6.894531 -1.800781 7.125 -2.0625 C 7.363281 -2.320313 7.484375 -2.597656 7.484375 -2.890625 L 7.484375 -9.46875 L 5.125 -9.46875 C 4.570313 -9.46875 4.15625 -9.34375 3.875 -9.09375 C 3.59375 -8.84375 3.453125 -8.484375 3.453125 -8.015625 L 3.453125 -3.125 C 3.453125 -2.65625 3.59375 -2.296875 3.875 -2.046875 C 4.15625 -1.796875 4.570313 -1.671875 5.125 -1.671875 Z M 6.03125 -1.671875 "/>
</symbol>
<symbol overflow="visible" id="glyph0-10">
<path style="stroke:none;" d="M 1.671875 -13.59375 L 1.671875 -15.59375 L 3.78125 -15.59375 L 3.78125 -13.59375 Z M 1.78125 0 L 1.78125 -11.140625 L 3.671875 -11.140625 L 3.671875 0 Z M 1.78125 0 "/>
</symbol>
<symbol overflow="visible" id="glyph0-11">
<path style="stroke:none;" d="M 7.328125 -0.515625 C 6.835938 -0.171875 6.242188 0 5.546875 0 L 5.234375 0 C 4.035156 0 3.140625 -0.28125 2.546875 -0.84375 C 1.960938 -1.40625 1.671875 -2.3125 1.671875 -3.5625 L 1.671875 -11.140625 L 3.5625 -11.140625 L 3.5625 -3.125 C 3.5625 -2.675781 3.691406 -2.320313 3.953125 -2.0625 C 4.210938 -1.800781 4.566406 -1.671875 5.015625 -1.671875 L 5.765625 -1.671875 C 6.242188 -1.671875 6.597656 -1.789063 6.828125 -2.03125 C 7.054688 -2.269531 7.1875 -2.535156 7.21875 -2.828125 L 7.21875 -11.140625 L 9.109375 -11.140625 L 9.109375 0 L 7.328125 0 Z M 7.328125 -0.515625 "/>
</symbol>
<symbol overflow="visible" id="glyph0-12">
<path style="stroke:none;" d="M 1.78125 -11.140625 L 3.5625 -11.140625 L 3.5625 -10.609375 C 4.019531 -10.960938 4.613281 -11.140625 5.34375 -11.140625 L 5.484375 -11.140625 C 6.835938 -11.140625 7.800781 -10.796875 8.375 -10.109375 C 8.925781 -10.796875 9.691406 -11.140625 10.671875 -11.140625 L 10.8125 -11.140625 C 12.007813 -11.140625 12.898438 -10.859375 13.484375 -10.296875 C 14.078125 -9.734375 14.375 -8.828125 14.375 -7.578125 L 14.375 0 L 12.484375 0 L 12.484375 -8.015625 C 12.484375 -8.460938 12.351563 -8.816406 12.09375 -9.078125 C 11.832031 -9.335938 11.476563 -9.46875 11.03125 -9.46875 L 10.453125 -9.46875 C 9.992188 -9.46875 9.644531 -9.328125 9.40625 -9.046875 C 9.175781 -8.773438 9.050781 -8.484375 9.03125 -8.171875 L 9.03125 0 L 7.125 0 L 7.125 -8.015625 C 7.125 -8.460938 7 -8.816406 6.75 -9.078125 C 6.5 -9.335938 6.148438 -9.46875 5.703125 -9.46875 L 5.125 -9.46875 C 4.644531 -9.46875 4.28125 -9.34375 4.03125 -9.09375 C 3.789063 -8.851563 3.671875 -8.59375 3.671875 -8.3125 L 3.671875 0 L 1.78125 0 Z M 1.78125 -11.140625 "/>
</symbol>
<symbol overflow="visible" id="glyph0-13">
<path style="stroke:none;" d="M 8.421875 0 L 8.421875 -7.171875 L 3.828125 -7.171875 L 3.828125 0 L 1.890625 0 L 1.890625 -15.59375 L 3.828125 -15.59375 L 3.828125 -8.828125 L 8.421875 -8.828125 L 8.421875 -15.59375 L 10.359375 -15.59375 L 10.359375 0 Z M 8.421875 0 "/>
</symbol>
<symbol overflow="visible" id="glyph0-14">
<path style="stroke:none;" d="M 9.890625 0.78125 C 9.890625 1.789063 9.585938 2.539063 8.984375 3.03125 C 8.390625 3.53125 7.453125 3.78125 6.171875 3.78125 L 1.671875 3.78125 L 1.671875 2.109375 L 6.390625 2.109375 C 6.929688 2.109375 7.332031 2.003906 7.59375 1.796875 C 7.863281 1.597656 8 1.332031 8 1 L 8 0.296875 C 8 -0.046875 7.863281 -0.316406 7.59375 -0.515625 C 7.332031 -0.722656 6.929688 -0.828125 6.390625 -0.828125 L 2.671875 -0.828125 L 2.671875 -3.90625 C 2.179688 -4.164063 1.816406 -4.546875 1.578125 -5.046875 C 1.335938 -5.554688 1.21875 -6.210938 1.21875 -7.015625 L 1.21875 -7.578125 C 1.21875 -8.828125 1.523438 -9.734375 2.140625 -10.296875 C 2.765625 -10.859375 3.722656 -11.140625 5.015625 -11.140625 L 9.5625 -11.140625 L 9.5625 -7.015625 C 9.5625 -5.898438 9.253906 -5.023438 8.640625 -4.390625 C 8.035156 -3.765625 7.226563 -3.453125 6.21875 -3.453125 L 4.5625 -3.453125 L 4.5625 -2.5 L 6.171875 -2.5 C 7.453125 -2.5 8.390625 -2.25 8.984375 -1.75 C 9.585938 -1.25 9.890625 -0.492188 9.890625 0.515625 Z M 6.21875 -5.125 C 6.675781 -5.125 7.023438 -5.269531 7.265625 -5.5625 C 7.503906 -5.863281 7.640625 -6.175781 7.671875 -6.5 L 7.671875 -9.46875 L 4.796875 -9.46875 C 4.242188 -9.46875 3.828125 -9.34375 3.546875 -9.09375 C 3.265625 -8.84375 3.125 -8.484375 3.125 -8.015625 L 3.125 -6.578125 C 3.125 -6.109375 3.265625 -5.75 3.546875 -5.5 C 3.828125 -5.25 4.242188 -5.125 4.796875 -5.125 Z M 6.21875 -5.125 "/>
</symbol>
<symbol overflow="visible" id="glyph0-15">
<path style="stroke:none;" d="M 1.78125 -15.59375 L 3.671875 -15.59375 L 3.671875 -10.6875 C 4.117188 -10.988281 4.675781 -11.140625 5.34375 -11.140625 L 5.921875 -11.140625 C 7.128906 -11.140625 8.023438 -10.859375 8.609375 -10.296875 C 9.191406 -9.734375 9.484375 -8.828125 9.484375 -7.578125 L 9.484375 0 L 7.59375 0 L 7.59375 -8.015625 C 7.59375 -8.460938 7.460938 -8.816406 7.203125 -9.078125 C 6.941406 -9.335938 6.59375 -9.46875 6.15625 -9.46875 L 5.125 -9.46875 C 4.644531 -9.46875 4.28125 -9.34375 4.03125 -9.09375 C 3.789063 -8.851563 3.671875 -8.59375 3.671875 -8.3125 L 3.671875 0 L 1.78125 0 Z M 1.78125 -15.59375 "/>
</symbol>
<symbol overflow="visible" id="glyph0-16">
<path style="stroke:none;" d="M 8.359375 0 C 8.160156 0 7.945313 -0.0546875 7.71875 -0.171875 C 7.488281 -0.296875 7.289063 -0.460938 7.125 -0.671875 C 6.789063 -0.222656 6.335938 0 5.765625 0 L 4.234375 0 C 3.109375 0 2.285156 -0.222656 1.765625 -0.671875 C 1.253906 -1.128906 1 -1.910156 1 -3.015625 L 1 -3.453125 C 1 -5.753906 2.082031 -6.90625 4.25 -6.90625 L 6.578125 -6.90625 L 6.578125 -8.015625 C 6.578125 -8.484375 6.429688 -8.84375 6.140625 -9.09375 C 5.859375 -9.34375 5.445313 -9.46875 4.90625 -9.46875 L 1.890625 -9.46875 L 1.890625 -11.140625 L 4.671875 -11.140625 C 5.972656 -11.140625 6.929688 -10.859375 7.546875 -10.296875 C 8.160156 -9.734375 8.46875 -8.828125 8.46875 -7.578125 L 8.46875 -2.234375 C 8.46875 -2.003906 8.550781 -1.832031 8.71875 -1.71875 C 8.894531 -1.613281 9.179688 -1.5625 9.578125 -1.5625 L 9.578125 0 Z M 5.546875 -1.671875 C 5.992188 -1.671875 6.273438 -1.773438 6.390625 -1.984375 C 6.515625 -2.191406 6.578125 -2.457031 6.578125 -2.78125 L 6.578125 -5.234375 L 4.234375 -5.234375 C 3.847656 -5.234375 3.523438 -5.109375 3.265625 -4.859375 C 3.015625 -4.609375 2.890625 -4.289063 2.890625 -3.90625 L 2.890625 -2.78125 C 2.890625 -2.394531 2.976563 -2.113281 3.15625 -1.9375 C 3.34375 -1.757813 3.628906 -1.671875 4.015625 -1.671875 Z M 5.546875 -1.671875 "/>
</symbol>
<symbol overflow="visible" id="glyph0-17">
<path style="stroke:none;" d="M 4.234375 0 C 3.472656 0 2.890625 -0.242188 2.484375 -0.734375 C 2.085938 -1.222656 1.890625 -1.867188 1.890625 -2.671875 L 1.890625 -9.46875 L 0.453125 -9.46875 L 0.453125 -11.140625 L 1.890625 -11.140625 L 1.890625 -13.8125 L 3.78125 -13.8125 L 3.78125 -11.140625 L 6.375 -11.140625 L 6.375 -9.46875 L 3.78125 -9.46875 L 3.78125 -2.5625 C 3.78125 -2.238281 3.863281 -2.007813 4.03125 -1.875 C 4.195313 -1.738281 4.453125 -1.671875 4.796875 -1.671875 L 6.375 -1.671875 L 6.375 0 Z M 4.234375 0 "/>
</symbol>
<symbol overflow="visible" id="glyph0-18">
<path style="stroke:none;" d="M 1.78125 -11.140625 L 3.5625 -11.140625 L 3.5625 -10.53125 C 4.050781 -10.9375 4.644531 -11.140625 5.34375 -11.140625 L 6.96875 -11.140625 L 6.96875 -9.359375 L 5.125 -9.359375 C 4.632813 -9.359375 4.269531 -9.191406 4.03125 -8.859375 C 3.789063 -8.535156 3.671875 -8.21875 3.671875 -7.90625 L 3.671875 0 L 1.78125 0 Z M 1.78125 -11.140625 "/>
</symbol>
<symbol overflow="visible" id="glyph0-19">
<path style="stroke:none;" d="M 7.328125 0 L 5.21875 -4.125 L 2.984375 0 L 0.890625 0 L 4.125 -5.75 L 1.15625 -11.140625 L 3.34375 -11.140625 L 5.265625 -7.46875 L 7.203125 -11.140625 L 9.265625 -11.140625 L 6.265625 -5.84375 L 9.5625 0 Z M 7.328125 0 "/>
</symbol>
<symbol overflow="visible" id="glyph0-20">
<path style="stroke:none;" d=""/>
</symbol>
<symbol overflow="visible" id="glyph0-21">
<path style="stroke:none;" d="M 1.40625 -1.953125 L 4.75 -7.046875 C 5.238281 -7.785156 5.5625 -8.300781 5.71875 -8.59375 C 5.882813 -8.882813 6 -9.171875 6.0625 -9.453125 C 6.125 -9.734375 6.15625 -10.140625 6.15625 -10.671875 L 6.15625 -12.234375 C 6.15625 -12.691406 5.984375 -13.082031 5.640625 -13.40625 C 5.296875 -13.738281 4.847656 -13.90625 4.296875 -13.90625 L 1.84375 -13.90625 L 1.84375 -15.59375 L 4.078125 -15.59375 C 5.367188 -15.59375 6.359375 -15.273438 7.046875 -14.640625 C 7.742188 -14.015625 8.09375 -13.070313 8.09375 -11.8125 L 8.09375 -10.875 C 8.09375 -10.132813 8.050781 -9.566406 7.96875 -9.171875 C 7.894531 -8.785156 7.765625 -8.421875 7.578125 -8.078125 C 7.398438 -7.742188 7.039063 -7.164063 6.5 -6.34375 L 3.4375 -1.6875 L 8.53125 -1.6875 L 8.53125 0 L 1.40625 0 Z M 1.40625 -1.953125 "/>
</symbol>
<symbol overflow="visible" id="glyph0-22">
<path style="stroke:none;" d="M 8.28125 -3.515625 C 8.28125 -2.285156 7.984375 -1.390625 7.390625 -0.828125 C 6.796875 -0.273438 5.832031 0 4.5 0 L 1.875 0 L 1.875 -1.671875 L 4.703125 -1.671875 C 5.265625 -1.671875 5.675781 -1.800781 5.9375 -2.0625 C 6.207031 -2.320313 6.34375 -2.734375 6.34375 -3.296875 L 6.34375 -5.59375 C 6.34375 -6.082031 6.191406 -6.472656 5.890625 -6.765625 C 5.597656 -7.054688 5.207031 -7.203125 4.71875 -7.203125 L 2.5625 -7.203125 L 2.5625 -8.875 L 4.5 -8.875 C 4.957031 -8.875 5.34375 -9.019531 5.65625 -9.3125 C 5.96875 -9.613281 6.125 -10.007813 6.125 -10.5 L 6.125 -12.328125 C 6.125 -12.890625 5.992188 -13.296875 5.734375 -13.546875 C 5.472656 -13.796875 5.0625 -13.921875 4.5 -13.921875 L 1.875 -13.921875 L 1.875 -15.59375 L 4.234375 -15.59375 C 5.492188 -15.59375 6.445313 -15.3125 7.09375 -14.75 C 7.738281 -14.195313 8.0625 -13.320313 8.0625 -12.125 L 8.0625 -10.71875 C 8.0625 -9.570313 7.65625 -8.707031 6.84375 -8.125 C 7.800781 -7.59375 8.28125 -6.679688 8.28125 -5.390625 Z M 8.28125 -3.515625 "/>
</symbol>
<symbol overflow="visible" id="glyph0-23">
<path style="stroke:none;" d="M 7.84375 -3.46875 L 7.84375 0 L 5.953125 0 L 5.953125 -3.46875 L 1.53125 -3.46875 L 1.53125 -5.390625 L 3.75 -15.59375 L 5.546875 -15.59375 L 3.453125 -5.109375 L 5.953125 -5.109375 L 5.953125 -10.1875 L 7.84375 -10.1875 L 7.84375 -5.109375 L 9.40625 -5.109375 L 9.40625 -3.46875 Z M 7.84375 -3.46875 "/>
</symbol>
<symbol overflow="visible" id="glyph1-0">
<path style="stroke:none;" d="M 2.796875 -30.140625 L 18.8125 -30.140625 L 18.8125 0 L 2.796875 0 Z M 15.578125 -3.09375 L 15.578125 -27.03125 L 6.03125 -27.03125 L 6.03125 -3.09375 Z M 15.578125 -3.09375 "/>
</symbol>
<symbol overflow="visible" id="glyph1-1">
<path style="stroke:none;" d="M 19.890625 0 L 19.890625 -27.03125 L 15.28125 -10.109375 L 11.703125 -10.109375 L 7.109375 -27.03125 L 7.109375 0 L 3.65625 0 L 3.65625 -30.140625 L 9.734375 -30.140625 L 13.640625 -14.71875 L 17.515625 -30.140625 L 23.453125 -30.140625 L 23.453125 0 Z M 19.890625 0 "/>
</symbol>
<symbol overflow="visible" id="glyph1-2">
<path style="stroke:none;" d="M 16.140625 0 C 15.765625 0 15.351563 -0.113281 14.90625 -0.34375 C 14.46875 -0.570313 14.09375 -0.890625 13.78125 -1.296875 C 13.113281 -0.429688 12.238281 0 11.15625 0 L 8.171875 0 C 5.992188 0 4.410156 -0.4375 3.421875 -1.3125 C 2.429688 -2.1875 1.9375 -3.6875 1.9375 -5.8125 L 1.9375 -6.671875 C 1.9375 -11.117188 4.03125 -13.34375 8.21875 -13.34375 L 12.703125 -13.34375 L 12.703125 -15.5 C 12.703125 -16.382813 12.425781 -17.070313 11.875 -17.5625 C 11.332031 -18.050781 10.53125 -18.296875 9.46875 -18.296875 L 3.65625 -18.296875 L 3.65625 -21.53125 L 9.046875 -21.53125 C 11.535156 -21.53125 13.375 -20.984375 14.5625 -19.890625 C 15.757813 -18.796875 16.359375 -17.046875 16.359375 -14.640625 L 16.359375 -4.3125 C 16.359375 -3.875 16.519531 -3.546875 16.84375 -3.328125 C 17.175781 -3.117188 17.734375 -3.015625 18.515625 -3.015625 L 18.515625 0 Z M 10.71875 -3.234375 C 11.582031 -3.234375 12.128906 -3.429688 12.359375 -3.828125 C 12.585938 -4.234375 12.703125 -4.75 12.703125 -5.375 L 12.703125 -10.109375 L 8.171875 -10.109375 C 7.429688 -10.109375 6.816406 -9.863281 6.328125 -9.375 C 5.835938 -8.894531 5.59375 -8.28125 5.59375 -7.53125 L 5.59375 -5.375 C 5.59375 -4.632813 5.765625 -4.09375 6.109375 -3.75 C 6.453125 -3.40625 7 -3.234375 7.75 -3.234375 Z M 10.71875 -3.234375 "/>
</symbol>
<symbol overflow="visible" id="glyph1-3">
<path style="stroke:none;" d="M 8.171875 0 C 6.710938 0 5.59375 -0.472656 4.8125 -1.421875 C 4.039063 -2.367188 3.65625 -3.617188 3.65625 -5.171875 L 3.65625 -18.296875 L 0.859375 -18.296875 L 0.859375 -21.53125 L 3.65625 -21.53125 L 3.65625 -26.6875 L 7.3125 -26.6875 L 7.3125 -21.53125 L 12.3125 -21.53125 L 12.3125 -18.296875 L 7.3125 -18.296875 L 7.3125 -4.953125 C 7.3125 -4.316406 7.46875 -3.867188 7.78125 -3.609375 C 8.101563 -3.359375 8.59375 -3.234375 9.25 -3.234375 L 12.3125 -3.234375 L 12.3125 0 Z M 8.171875 0 "/>
</symbol>
<symbol overflow="visible" id="glyph1-4">
<path style="stroke:none;" d="M 3.4375 -21.53125 L 6.890625 -21.53125 L 6.890625 -20.359375 C 7.835938 -21.140625 8.984375 -21.53125 10.328125 -21.53125 L 13.46875 -21.53125 L 13.46875 -18.078125 L 9.90625 -18.078125 C 8.957031 -18.078125 8.253906 -17.757813 7.796875 -17.125 C 7.335938 -16.5 7.109375 -15.882813 7.109375 -15.28125 L 7.109375 0 L 3.4375 0 Z M 3.4375 -21.53125 "/>
</symbol>
<symbol overflow="visible" id="glyph1-5">
<path style="stroke:none;" d="M 3.234375 -26.265625 L 3.234375 -30.140625 L 7.3125 -30.140625 L 7.3125 -26.265625 Z M 3.4375 0 L 3.4375 -21.53125 L 7.109375 -21.53125 L 7.109375 0 Z M 3.4375 0 "/>
</symbol>
<symbol overflow="visible" id="glyph1-6">
<path style="stroke:none;" d="M 14.15625 0 L 10.078125 -7.96875 L 5.765625 0 L 1.71875 0 L 7.96875 -11.109375 L 2.234375 -21.53125 L 6.453125 -21.53125 L 10.15625 -14.421875 L 13.90625 -21.53125 L 17.90625 -21.53125 L 12.09375 -11.28125 L 18.46875 0 Z M 14.15625 0 "/>
</symbol>
<symbol overflow="visible" id="glyph1-7">
<path style="stroke:none;" d=""/>
</symbol>
<symbol overflow="visible" id="glyph1-8">
<path style="stroke:none;" d="M 1.9375 0 L 1.9375 -3.140625 L 4.953125 -3.140625 L 4.953125 -26.984375 L 1.9375 -26.984375 L 1.9375 -30.140625 L 11.703125 -30.140625 L 11.703125 -26.984375 L 8.703125 -26.984375 L 8.703125 -3.140625 L 11.703125 -3.140625 L 11.703125 0 Z M 1.9375 0 "/>
</symbol>
<symbol overflow="visible" id="glyph1-9">
<path style="stroke:none;" d="M 3.4375 -21.53125 L 6.890625 -21.53125 L 6.890625 -20.484375 C 7.773438 -21.179688 8.921875 -21.53125 10.328125 -21.53125 L 11.453125 -21.53125 C 13.773438 -21.53125 15.503906 -20.984375 16.640625 -19.890625 C 17.773438 -18.796875 18.34375 -17.046875 18.34375 -14.640625 L 18.34375 0 L 14.671875 0 L 14.671875 -15.5 C 14.671875 -16.351563 14.421875 -17.03125 13.921875 -17.53125 C 13.421875 -18.039063 12.738281 -18.296875 11.875 -18.296875 L 9.90625 -18.296875 C 8.957031 -18.296875 8.253906 -18.039063 7.796875 -17.53125 C 7.335938 -17.03125 7.109375 -16.492188 7.109375 -15.921875 L 7.109375 0 L 3.4375 0 Z M 3.4375 -21.53125 "/>
</symbol>
<symbol overflow="visible" id="glyph1-10">
<path style="stroke:none;" d="M 9.25 -26.90625 C 8.789063 -26.90625 8.425781 -26.78125 8.15625 -26.53125 C 7.882813 -26.289063 7.75 -25.984375 7.75 -25.609375 L 7.75 -21.53125 L 12.953125 -21.53125 L 12.953125 -18.296875 L 7.75 -18.296875 L 7.75 0 L 4.09375 0 L 4.09375 -18.296875 L 1.296875 -18.296875 L 1.296875 -21.53125 L 4.09375 -21.53125 L 4.09375 -25.390625 C 4.09375 -26.859375 4.507813 -28.015625 5.34375 -28.859375 C 6.175781 -29.710938 7.25 -30.140625 8.5625 -30.140625 L 13.390625 -30.140625 L 13.390625 -26.90625 Z M 9.25 -26.90625 "/>
</symbol>
<symbol overflow="visible" id="glyph1-11">
<path style="stroke:none;" d="M 18.203125 -6.890625 C 18.203125 -4.472656 17.609375 -2.71875 16.421875 -1.625 C 15.234375 -0.539063 13.390625 0 10.890625 0 L 10.328125 0 C 7.835938 0 5.992188 -0.539063 4.796875 -1.625 C 3.609375 -2.71875 3.015625 -4.472656 3.015625 -6.890625 L 3.015625 -14.640625 C 3.015625 -17.046875 3.609375 -18.796875 4.796875 -19.890625 C 5.992188 -20.984375 7.835938 -21.53125 10.328125 -21.53125 L 10.890625 -21.53125 C 13.390625 -21.53125 15.234375 -20.984375 16.421875 -19.890625 C 17.609375 -18.796875 18.203125 -17.046875 18.203125 -14.640625 Z M 14.546875 -15.5 C 14.546875 -16.382813 14.273438 -17.070313 13.734375 -17.5625 C 13.191406 -18.050781 12.390625 -18.296875 11.328125 -18.296875 L 9.90625 -18.296875 C 8.84375 -18.296875 8.035156 -18.050781 7.484375 -17.5625 C 6.941406 -17.070313 6.671875 -16.382813 6.671875 -15.5 L 6.671875 -6.03125 C 6.671875 -5.132813 6.941406 -4.441406 7.484375 -3.953125 C 8.035156 -3.472656 8.84375 -3.234375 9.90625 -3.234375 L 11.328125 -3.234375 C 12.390625 -3.234375 13.191406 -3.472656 13.734375 -3.953125 C 14.273438 -4.441406 14.546875 -5.132813 14.546875 -6.03125 Z M 14.546875 -15.5 "/>
</symbol>
<symbol overflow="visible" id="glyph1-12">
<path style="stroke:none;" d="M 19.109375 1.5 C 19.109375 3.457031 18.523438 4.914063 17.359375 5.875 C 16.203125 6.832031 14.390625 7.3125 11.921875 7.3125 L 3.234375 7.3125 L 3.234375 4.09375 L 12.359375 4.09375 C 13.390625 4.09375 14.160156 3.890625 14.671875 3.484375 C 15.191406 3.085938 15.453125 2.570313 15.453125 1.9375 L 15.453125 0.5625 C 15.453125 -0.101563 15.191406 -0.628906 14.671875 -1.015625 C 14.160156 -1.398438 13.390625 -1.59375 12.359375 -1.59375 L 5.171875 -1.59375 L 5.171875 -7.53125 C 4.222656 -8.050781 3.519531 -8.796875 3.0625 -9.765625 C 2.601563 -10.742188 2.375 -12.007813 2.375 -13.5625 L 2.375 -14.640625 C 2.375 -17.046875 2.96875 -18.796875 4.15625 -19.890625 C 5.34375 -20.984375 7.1875 -21.53125 9.6875 -21.53125 L 18.46875 -21.53125 L 18.46875 -13.5625 C 18.46875 -11.40625 17.878906 -9.71875 16.703125 -8.5 C 15.523438 -7.28125 13.960938 -6.671875 12.015625 -6.671875 L 8.828125 -6.671875 L 8.828125 -4.828125 L 11.921875 -4.828125 C 14.390625 -4.828125 16.203125 -4.34375 17.359375 -3.375 C 18.523438 -2.414063 19.109375 -0.960938 19.109375 0.984375 Z M 12.015625 -9.90625 C 12.898438 -9.90625 13.570313 -10.191406 14.03125 -10.765625 C 14.488281 -11.335938 14.75 -11.9375 14.8125 -12.5625 L 14.8125 -18.296875 L 9.25 -18.296875 C 8.1875 -18.296875 7.382813 -18.050781 6.84375 -17.5625 C 6.300781 -17.070313 6.03125 -16.382813 6.03125 -15.5 L 6.03125 -12.703125 C 6.03125 -11.804688 6.300781 -11.113281 6.84375 -10.625 C 7.382813 -10.144531 8.1875 -9.90625 9.25 -9.90625 Z M 12.015625 -9.90625 "/>
</symbol>
<symbol overflow="visible" id="glyph1-13">
<path style="stroke:none;" d="M 3.4375 -21.53125 L 6.890625 -21.53125 L 6.890625 -20.484375 C 7.773438 -21.179688 8.921875 -21.53125 10.328125 -21.53125 L 11.015625 -21.53125 C 13.546875 -21.53125 15.398438 -20.988281 16.578125 -19.90625 C 17.753906 -18.832031 18.34375 -17.078125 18.34375 -14.640625 L 18.34375 -6.890625 C 18.34375 -4.472656 17.742188 -2.71875 16.546875 -1.625 C 15.359375 -0.539063 13.515625 0 11.015625 0 L 7.109375 0 L 7.109375 7.3125 L 3.4375 7.3125 Z M 9.90625 -18.296875 C 8.957031 -18.296875 8.253906 -18.039063 7.796875 -17.53125 C 7.335938 -17.03125 7.109375 -16.492188 7.109375 -15.921875 L 7.109375 -3.234375 L 11.453125 -3.234375 C 12.515625 -3.234375 13.316406 -3.472656 13.859375 -3.953125 C 14.398438 -4.441406 14.671875 -5.132813 14.671875 -6.03125 L 14.671875 -15.5 C 14.671875 -16.382813 14.398438 -17.070313 13.859375 -17.5625 C 13.316406 -18.050781 12.515625 -18.296875 11.453125 -18.296875 Z M 9.90625 -18.296875 "/>
</symbol>
<symbol overflow="visible" id="glyph1-14">
<path style="stroke:none;" d="M 3.4375 -30.140625 L 7.109375 -30.140625 L 7.109375 -20.65625 C 7.960938 -21.238281 9.035156 -21.53125 10.328125 -21.53125 L 11.453125 -21.53125 C 13.773438 -21.53125 15.503906 -20.984375 16.640625 -19.890625 C 17.773438 -18.796875 18.34375 -17.046875 18.34375 -14.640625 L 18.34375 0 L 14.671875 0 L 14.671875 -15.5 C 14.671875 -16.351563 14.421875 -17.03125 13.921875 -17.53125 C 13.421875 -18.039063 12.738281 -18.296875 11.875 -18.296875 L 9.90625 -18.296875 C 8.976563 -18.296875 8.28125 -18.054688 7.8125 -17.578125 C 7.34375 -17.109375 7.109375 -16.601563 7.109375 -16.0625 L 7.109375 0 L 3.4375 0 Z M 3.4375 -30.140625 "/>
</symbol>
<symbol overflow="visible" id="glyph1-15">
<path style="stroke:none;" d="M 10.328125 0 C 7.804688 0 5.957031 -0.535156 4.78125 -1.609375 C 3.601563 -2.691406 3.015625 -4.453125 3.015625 -6.890625 L 3.015625 -14.640625 C 3.015625 -17.046875 3.609375 -18.796875 4.796875 -19.890625 C 5.992188 -20.984375 7.835938 -21.53125 10.328125 -21.53125 L 15.015625 -21.53125 L 15.015625 -18.296875 L 9.90625 -18.296875 C 8.84375 -18.296875 8.035156 -18.050781 7.484375 -17.5625 C 6.941406 -17.070313 6.671875 -16.382813 6.671875 -15.5 L 6.671875 -6.03125 C 6.671875 -5.132813 6.941406 -4.441406 7.484375 -3.953125 C 8.035156 -3.472656 8.84375 -3.234375 9.90625 -3.234375 L 15.015625 -3.234375 L 15.015625 0 Z M 10.328125 0 "/>
</symbol>
<symbol overflow="visible" id="glyph1-16">
<path style="stroke:none;" d="M 14.8125 -5.375 C 14.8125 -3.570313 14.257813 -2.222656 13.15625 -1.328125 C 12.050781 -0.441406 10.445313 0 8.34375 0 L 2.796875 0 L 2.796875 -3.234375 L 8.78125 -3.234375 C 9.550781 -3.234375 10.140625 -3.394531 10.546875 -3.71875 C 10.953125 -4.050781 11.15625 -4.535156 11.15625 -5.171875 L 11.15625 -7.453125 C 11.15625 -8.742188 10.535156 -9.390625 9.296875 -9.390625 L 8.5625 -9.390625 C 6.550781 -9.390625 5.050781 -9.828125 4.0625 -10.703125 C 3.070313 -11.578125 2.578125 -12.957031 2.578125 -14.84375 L 2.578125 -16.09375 C 2.578125 -18.019531 3.125 -19.40625 4.21875 -20.25 C 5.3125 -21.101563 6.921875 -21.53125 9.046875 -21.53125 L 13.953125 -21.53125 L 13.953125 -18.296875 L 8.609375 -18.296875 C 7.890625 -18.296875 7.3125 -18.128906 6.875 -17.796875 C 6.445313 -17.472656 6.234375 -16.992188 6.234375 -16.359375 L 6.234375 -14.8125 C 6.234375 -14.144531 6.425781 -13.65625 6.8125 -13.34375 C 7.207031 -13.03125 7.707031 -12.875 8.3125 -12.875 L 8.90625 -12.875 C 10.832031 -12.875 12.296875 -12.40625 13.296875 -11.46875 C 14.304688 -10.539063 14.8125 -9.15625 14.8125 -7.3125 Z M 14.8125 -5.375 "/>
</symbol>
<symbol overflow="visible" id="glyph1-17">
<path style="stroke:none;" d="M 2.796875 -17.21875 L 2.796875 -21.53125 L 7.109375 -21.53125 L 7.109375 -17.21875 Z M 2.796875 0 L 2.796875 -4.3125 L 7.109375 -4.3125 L 7.109375 0 Z M 2.796875 0 "/>
</symbol>
<symbol overflow="visible" id="glyph1-18">
<path style="stroke:none;" d="M 12.53125 0 L 7.40625 0 L 1.5 -30.140625 L 5.296875 -30.140625 L 10.03125 -3.78125 L 15.15625 -30.140625 L 18.859375 -30.140625 Z M 12.53125 0 "/>
</symbol>
<symbol overflow="visible" id="glyph1-19">
<path style="stroke:none;" d="M 14.15625 -0.984375 C 13.207031 -0.328125 12.0625 0 10.71875 0 L 10.109375 0 C 7.785156 0 6.054688 -0.539063 4.921875 -1.625 C 3.796875 -2.71875 3.234375 -4.472656 3.234375 -6.890625 L 3.234375 -21.53125 L 6.890625 -21.53125 L 6.890625 -6.03125 C 6.890625 -5.164063 7.140625 -4.484375 7.640625 -3.984375 C 8.140625 -3.484375 8.820313 -3.234375 9.6875 -3.234375 L 11.15625 -3.234375 C 12.070313 -3.234375 12.75 -3.460938 13.1875 -3.921875 C 13.632813 -4.378906 13.890625 -4.894531 13.953125 -5.46875 L 13.953125 -21.53125 L 17.609375 -21.53125 L 17.609375 0 L 14.15625 0 Z M 14.15625 -0.984375 "/>
</symbol>
<symbol overflow="visible" id="glyph1-20">
<path style="stroke:none;" d="M 6.890625 0 C 5.910156 0 5.054688 -0.34375 4.328125 -1.03125 C 3.597656 -1.71875 3.234375 -2.8125 3.234375 -4.3125 L 3.234375 -30.140625 L 6.890625 -30.140625 L 6.890625 -4.515625 C 6.890625 -4.054688 7.003906 -3.726563 7.234375 -3.53125 C 7.460938 -3.332031 7.847656 -3.234375 8.390625 -3.234375 L 9.25 -3.234375 L 9.25 0 Z M 6.890625 0 "/>
</symbol>
<symbol overflow="visible" id="glyph1-21">
<path style="stroke:none;" d="M 5.890625 -3.1875 L 14.765625 -3.1875 L 14.765625 0 L 1.9375 0 L 1.9375 -3.4375 L 11.28125 -18.34375 L 2.796875 -18.34375 L 2.796875 -21.53125 L 15.203125 -21.53125 L 15.203125 -17.6875 Z M 5.890625 -3.1875 "/>
</symbol>
<symbol overflow="visible" id="glyph1-22">
<path style="stroke:none;" d="M 10.984375 0 C 8.484375 0 6.566406 -0.609375 5.234375 -1.828125 C 3.898438 -3.046875 3.234375 -4.875 3.234375 -7.3125 L 3.234375 -22.8125 C 3.234375 -25.25 3.898438 -27.078125 5.234375 -28.296875 C 6.566406 -29.523438 8.484375 -30.140625 10.984375 -30.140625 L 16.234375 -30.140625 L 16.234375 -26.859375 L 10.546875 -26.859375 C 9.484375 -26.859375 8.617188 -26.539063 7.953125 -25.90625 C 7.296875 -25.28125 6.96875 -24.519531 6.96875 -23.625 L 6.96875 -6.5 C 6.96875 -5.613281 7.296875 -4.851563 7.953125 -4.21875 C 8.617188 -3.582031 9.484375 -3.265625 10.546875 -3.265625 L 16.234375 -3.265625 L 16.234375 0 Z M 10.984375 0 "/>
</symbol>
<symbol overflow="visible" id="glyph1-23">
<path style="stroke:none;" d="M 3.4375 -21.53125 L 6.890625 -21.53125 L 6.890625 -20.484375 C 7.773438 -21.179688 8.921875 -21.53125 10.328125 -21.53125 L 10.59375 -21.53125 C 13.195313 -21.53125 15.0625 -20.867188 16.1875 -19.546875 C 17.25 -20.867188 18.726563 -21.53125 20.625 -21.53125 L 20.875 -21.53125 C 23.195313 -21.53125 24.925781 -20.984375 26.0625 -19.890625 C 27.195313 -18.796875 27.765625 -17.046875 27.765625 -14.640625 L 27.765625 0 L 24.109375 0 L 24.109375 -15.5 C 24.109375 -16.351563 23.851563 -17.03125 23.34375 -17.53125 C 22.84375 -18.039063 22.164063 -18.296875 21.3125 -18.296875 L 20.1875 -18.296875 C 19.300781 -18.296875 18.632813 -18.03125 18.1875 -17.5 C 17.738281 -16.96875 17.488281 -16.398438 17.4375 -15.796875 L 17.4375 0 L 13.78125 0 L 13.78125 -15.5 C 13.78125 -16.351563 13.535156 -17.03125 13.046875 -17.53125 C 12.554688 -18.039063 11.878906 -18.296875 11.015625 -18.296875 L 9.90625 -18.296875 C 8.976563 -18.296875 8.28125 -18.054688 7.8125 -17.578125 C 7.34375 -17.109375 7.109375 -16.601563 7.109375 -16.0625 L 7.109375 0 L 3.4375 0 Z M 3.4375 -21.53125 "/>
</symbol>
<symbol overflow="visible" id="glyph1-24">
<path style="stroke:none;" d="M 10.328125 0 C 7.804688 0 5.957031 -0.535156 4.78125 -1.609375 C 3.601563 -2.691406 3.015625 -4.453125 3.015625 -6.890625 L 3.015625 -14.640625 C 3.015625 -17.109375 3.546875 -18.875 4.609375 -19.9375 C 5.671875 -21 7.4375 -21.53125 9.90625 -21.53125 L 11.0625 -21.53125 C 13.101563 -21.53125 14.644531 -20.960938 15.6875 -19.828125 C 16.738281 -18.691406 17.265625 -17.03125 17.265625 -14.84375 L 17.265625 -9.25 L 6.671875 -9.25 L 6.671875 -6.03125 C 6.671875 -5.132813 6.941406 -4.441406 7.484375 -3.953125 C 8.035156 -3.472656 8.84375 -3.234375 9.90625 -3.234375 L 15.890625 -3.234375 L 15.890625 0 Z M 13.6875 -12.484375 L 13.6875 -15.71875 C 13.6875 -16.457031 13.441406 -17.070313 12.953125 -17.5625 C 12.460938 -18.050781 11.847656 -18.296875 11.109375 -18.296875 L 9.46875 -18.296875 C 8.4375 -18.296875 7.710938 -18.054688 7.296875 -17.578125 C 6.878906 -17.109375 6.671875 -16.414063 6.671875 -15.5 L 6.671875 -12.484375 Z M 13.6875 -12.484375 "/>
</symbol>
<symbol overflow="visible" id="glyph1-25">
<path style="stroke:none;" d="M 19.421875 -6.796875 C 19.421875 -4.328125 18.851563 -2.578125 17.71875 -1.546875 C 16.582031 -0.515625 14.707031 0 12.09375 0 L 3.65625 0 L 3.65625 -30.140625 L 11.578125 -30.140625 C 14.160156 -30.140625 16.113281 -29.613281 17.4375 -28.5625 C 18.757813 -27.507813 19.421875 -25.796875 19.421875 -23.421875 Z M 15.671875 -23.8125 C 15.671875 -24.75 15.382813 -25.5 14.8125 -26.0625 C 14.238281 -26.625 13.476563 -26.90625 12.53125 -26.90625 L 7.40625 -26.90625 L 7.40625 -3.234375 L 12.484375 -3.234375 C 13.578125 -3.234375 14.378906 -3.484375 14.890625 -3.984375 C 15.410156 -4.484375 15.671875 -5.28125 15.671875 -6.375 Z M 15.671875 -23.8125 "/>
</symbol>
<symbol overflow="visible" id="glyph1-26">
<path style="stroke:none;" d="M 22.859375 0 L 17.21875 0 L 14.5 -11.671875 L 11.53125 0 L 6.03125 0 L 1.71875 -21.53125 L 5.515625 -21.53125 L 9 -2.75 L 12.828125 -17.65625 L 16.484375 -17.65625 L 20.0625 -2.75 L 23.546875 -21.53125 L 27.125 -21.53125 Z M 22.859375 0 "/>
</symbol>
<symbol overflow="visible" id="glyph1-27">
<path style="stroke:none;" d="M 12.1875 1.890625 C 11.84375 3.179688 11.484375 4.222656 11.109375 5.015625 C 10.734375 5.804688 10.207031 6.421875 9.53125 6.859375 C 8.851563 7.304688 7.957031 7.53125 6.84375 7.53125 C 6.238281 7.53125 5.421875 7.445313 4.390625 7.28125 L 4.390625 4.125 C 5.191406 4.25 5.9375 4.3125 6.625 4.3125 C 7.425781 4.3125 8 3.664063 8.34375 2.375 L 9.046875 0 L 8.171875 0 L 1.5 -21.53125 L 5.46875 -21.53125 L 10.453125 -3.75 L 14.671875 -21.53125 L 18.421875 -21.53125 Z M 12.1875 1.890625 "/>
</symbol>
</g>
<filter id="alpha" filterUnits="objectBoundingBox" x="0%" y="0%" width="100%" height="100%">
  <feColorMatrix type="matrix" in="SourceGraphic" values="0 0 0 0 1 0 0 0 0 1 0 0 0 0 1 0 0 0 1 0"/>
</filter>
<mask id="mask0">
  <g filter="url(#alpha)">
<rect x="0" y="0" width="1366" height="768" style="fill:rgb(0%,0%,0%);fill-opacity:0.460007;stroke:none;"/>
  </g>
</mask>
<clipPath id="clip2">
  <path d="M 0.191406 0.25 L 59.542969 0.25 L 59.542969 59.5625 L 0.191406 59.5625 Z M 0.191406 0.25 "/>
</clipPath>
<clipPath id="clip1">
  <rect width="60" height="60"/>
</clipPath>
<g id="surface7" clip-path="url(#clip1)">
<g clip-path="url(#clip2)" clip-rule="nonzero">
<path style=" stroke:none;fill-rule:evenodd;fill:rgb(100%,100%,100%);fill-opacity:1;" d="M 29.851563 0.25 C 46.242188 0.25 59.542969 13.515625 59.542969 29.90625 C 59.542969 46.296875 46.242188 59.5625 29.851563 59.5625 C 13.492188 59.5625 0.191406 46.296875 0.191406 29.90625 C 0.191406 13.515625 13.492188 0.25 29.851563 0.25 "/>
</g>
</g>
<mask id="mask1">
  <g filter="url(#alpha)">
<rect x="0" y="0" width="1366" height="768" style="fill:rgb(0%,0%,0%);fill-opacity:0.460007;stroke:none;"/>
  </g>
</mask>
<clipPath id="clip4">
  <path d="M 0.785156 0.152344 L 60.128906 0.152344 L 60.128906 59.503906 L 0.785156 59.503906 Z M 0.785156 0.152344 "/>
</clipPath>
<clipPath id="clip3">
  <rect width="61" height="60"/>
</clipPath>
<g id="surface10" clip-path="url(#clip3)">
<g clip-path="url(#clip4)" clip-rule="nonzero">
<path style=" stroke:none;fill-rule:evenodd;fill:rgb(100%,100%,100%);fill-opacity:1;" d="M 30.4375 0.15625 C 46.828125 0.15625 60.128906 13.453125 60.128906 29.84375 C 60.128906 46.203125 46.828125 59.503906 30.4375 59.503906 C 14.085938 59.503906 0.785156 46.203125 0.785156 29.84375 C 0.785156 13.453125 14.085938 0.15625 30.4375 0.15625 "/>
</g>
</g>
<mask id="mask2">
  <g filter="url(#alpha)">
<rect x="0" y="0" width="1366" height="768" style="fill:rgb(0%,0%,0%);fill-opacity:0.460007;stroke:none;"/>
  </g>
</mask>
<clipPath id="clip6">
  <path d="M 0.105469 0.25 L 59.449219 0.25 L 59.449219 59.5625 L 0.105469 59.5625 Z M 0.105469 0.25 "/>
</clipPath>
<clipPath id="clip5">
  <rect width="60" height="60"/>
</clipPath>
<g id="surface13" clip-path="url(#clip5)">
<g clip-path="url(#clip6)" clip-rule="nonzero">
<path style=" stroke:none;fill-rule:evenodd;fill:rgb(100%,100%,100%);fill-opacity:1;" d="M 29.757813 0.25 C 46.148438 0.25 59.449219 13.515625 59.449219 29.90625 C 59.449219 46.296875 46.148438 59.5625 29.757813 59.5625 C 13.40625 59.5625 0.105469 46.296875 0.105469 29.90625 C 0.105469 13.515625 13.40625 0.25 29.757813 0.25 "/>
</g>
</g>
<mask id="mask3">
  <g filter="url(#alpha)">
<rect x="0" y="0" width="1366" height="768" style="fill:rgb(0%,0%,0%);fill-opacity:0.460007;stroke:none;"/>
  </g>
</mask>
<clipPath id="clip8">
  <path d="M 0.6875 0.152344 L 60.039063 0.152344 L 60.039063 59.503906 L 0.6875 59.503906 Z M 0.6875 0.152344 "/>
</clipPath>
<clipPath id="clip7">
  <rect width="61" height="60"/>
</clipPath>
<g id="surface16" clip-path="url(#clip7)">
<g clip-path="url(#clip8)" clip-rule="nonzero">
<path style=" stroke:none;fill-rule:evenodd;fill:rgb(100%,100%,100%);fill-opacity:1;" d="M 30.351563 0.15625 C 46.738281 0.15625 60.042969 13.453125 60.042969 29.84375 C 60.042969 46.203125 46.738281 59.503906 30.351563 59.503906 C 13.988281 59.503906 0.6875 46.203125 0.6875 29.84375 C 0.6875 13.453125 13.988281 0.15625 30.351563 0.15625 "/>
</g>
</g>
<mask id="mask4">
  <g filter="url(#alpha)">
<rect x="0" y="0" width="1366" height="768" style="fill:rgb(0%,0%,0%);fill-opacity:0.460007;stroke:none;"/>
  </g>
</mask>
<clipPath id="clip10">
  <path d="M 0.371094 0.25 L 59.71875 0.25 L 59.71875 59.5625 L 0.371094 59.5625 Z M 0.371094 0.25 "/>
</clipPath>
<clipPath id="clip9">
  <rect width="60" height="60"/>
</clipPath>
<g id="surface19" clip-path="url(#clip9)">
<g clip-path="url(#clip10)" clip-rule="nonzero">
<path style=" stroke:none;fill-rule:evenodd;fill:rgb(100%,100%,100%);fill-opacity:1;" d="M 30.027344 0.25 C 46.417969 0.25 59.71875 13.515625 59.71875 29.90625 C 59.71875 46.296875 46.417969 59.5625 30.027344 59.5625 C 13.675781 59.5625 0.375 46.296875 0.375 29.90625 C 0.375 13.515625 13.675781 0.25 30.027344 0.25 "/>
</g>
</g>
<mask id="mask5">
  <g filter="url(#alpha)">
<rect x="0" y="0" width="1366" height="768" style="fill:rgb(0%,0%,0%);fill-opacity:0.520004;stroke:none;"/>
  </g>
</mask>
<clipPath id="clip12">
  <path d="M 0.175781 0.910156 L 184.734375 0.910156 L 184.734375 160.746094 L 0.175781 160.746094 Z M 0.175781 0.910156 "/>
</clipPath>
<clipPath id="clip11">
  <rect width="185" height="161"/>
</clipPath>
<g id="surface22" clip-path="url(#clip11)">
<g clip-path="url(#clip12)" clip-rule="nonzero">
<path style=" stroke:none;fill-rule:nonzero;fill:rgb(100%,100%,100%);fill-opacity:1;" d="M 0.175781 80.847656 L 46.324219 0.910156 L 138.585938 0.910156 L 184.734375 80.847656 L 138.585938 160.746094 L 46.324219 160.746094 Z M 1.792969 80.847656 L 47.132813 159.332031 L 137.816406 159.332031 L 183.117188 80.847656 L 137.816406 2.289063 L 47.132813 2.289063 Z M 1.792969 80.847656 "/>
</g>
</g>
<mask id="mask6">
  <g filter="url(#alpha)">
<rect x="0" y="0" width="1366" height="768" style="fill:rgb(0%,0%,0%);fill-opacity:0.520004;stroke:none;"/>
  </g>
</mask>
<clipPath id="clip14">
  <path d="M 0.589844 0.972656 L 185.144531 0.972656 L 185.144531 160.804688 L 0.589844 160.804688 Z M 0.589844 0.972656 "/>
</clipPath>
<clipPath id="clip13">
  <rect width="186" height="161"/>
</clipPath>
<g id="surface25" clip-path="url(#clip13)">
<g clip-path="url(#clip14)" clip-rule="nonzero">
<path style=" stroke:none;fill-rule:nonzero;fill:rgb(100%,100%,100%);fill-opacity:1;" d="M 0.589844 80.90625 L 46.734375 0.96875 L 138.996094 0.96875 L 185.144531 80.90625 L 138.996094 160.804688 L 46.734375 160.804688 Z M 2.203125 80.90625 L 47.542969 159.394531 L 138.195313 159.394531 L 183.535156 80.90625 L 138.195313 2.382813 L 47.542969 2.382813 Z M 2.203125 80.90625 "/>
</g>
</g>
<mask id="mask7">
  <g filter="url(#alpha)">
<rect x="0" y="0" width="1366" height="768" style="fill:rgb(0%,0%,0%);fill-opacity:0.520004;stroke:none;"/>
  </g>
</mask>
<clipPath id="clip16">
  <path d="M 0.0898438 0.910156 L 184.640625 0.910156 L 184.640625 160.746094 L 0.0898438 160.746094 Z M 0.0898438 0.910156 "/>
</clipPath>
<clipPath id="clip15">
  <rect width="185" height="161"/>
</clipPath>
<g id="surface28" clip-path="url(#clip15)">
<g clip-path="url(#clip16)" clip-rule="nonzero">
<path style=" stroke:none;fill-rule:nonzero;fill:rgb(100%,100%,100%);fill-opacity:1;" d="M 0.0898438 80.847656 L 46.238281 0.910156 L 138.492188 0.910156 L 184.640625 80.847656 L 138.492188 160.746094 L 46.238281 160.746094 Z M 1.667969 80.847656 L 47.039063 159.332031 L 137.691406 159.332031 L 182.992188 80.847656 L 137.691406 2.289063 L 47.039063 2.289063 Z M 1.667969 80.847656 "/>
</g>
</g>
<mask id="mask8">
  <g filter="url(#alpha)">
<rect x="0" y="0" width="1366" height="768" style="fill:rgb(0%,0%,0%);fill-opacity:0.520004;stroke:none;"/>
  </g>
</mask>
<clipPath id="clip18">
  <path d="M 0.496094 0.972656 L 185.058594 0.972656 L 185.058594 160.804688 L 0.496094 160.804688 Z M 0.496094 0.972656 "/>
</clipPath>
<clipPath id="clip17">
  <rect width="186" height="161"/>
</clipPath>
<g id="surface31" clip-path="url(#clip17)">
<g clip-path="url(#clip18)" clip-rule="nonzero">
<path style=" stroke:none;fill-rule:nonzero;fill:rgb(100%,100%,100%);fill-opacity:1;" d="M 0.496094 80.90625 L 46.644531 0.96875 L 138.90625 0.96875 L 185.054688 80.90625 L 138.90625 160.804688 L 46.644531 160.804688 Z M 2.074219 80.90625 L 47.417969 159.394531 L 138.097656 159.394531 L 183.410156 80.90625 L 138.097656 2.382813 L 47.417969 2.382813 Z M 2.074219 80.90625 "/>
</g>
</g>
<mask id="mask9">
  <g filter="url(#alpha)">
<rect x="0" y="0" width="1366" height="768" style="fill:rgb(0%,0%,0%);fill-opacity:0.520004;stroke:none;"/>
  </g>
</mask>
<clipPath id="clip20">
  <path d="M 0.765625 0.972656 L 185.328125 0.972656 L 185.328125 160.804688 L 0.765625 160.804688 Z M 0.765625 0.972656 "/>
</clipPath>
<clipPath id="clip19">
  <rect width="186" height="161"/>
</clipPath>
<g id="surface34" clip-path="url(#clip19)">
<g clip-path="url(#clip20)" clip-rule="nonzero">
<path style=" stroke:none;fill-rule:nonzero;fill:rgb(100%,100%,100%);fill-opacity:1;" d="M 0.765625 80.90625 L 46.914063 0.96875 L 139.175781 0.96875 L 185.324219 80.90625 L 139.175781 160.804688 L 46.914063 160.804688 Z M 2.382813 80.90625 L 47.726563 159.394531 L 138.40625 159.394531 L 183.746094 80.90625 L 138.40625 2.382813 L 47.726563 2.382813 Z M 2.382813 80.90625 "/>
</g>
</g>
<mask id="mask10">
  <g filter="url(#alpha)">
<rect x="0" y="0" width="1366" height="768" style="fill:rgb(0%,0%,0%);fill-opacity:0.440002;stroke:none;"/>
  </g>
</mask>
<clipPath id="clip22">
  <path d="M 0.375 0.0703125 L 933.328125 0.0703125 L 933.328125 402.144531 L 0.375 402.144531 Z M 0.375 0.0703125 "/>
</clipPath>
<clipPath id="clip21">
  <rect width="934" height="403"/>
</clipPath>
<g id="surface33" clip-path="url(#clip21)">
<g clip-path="url(#clip22)" clip-rule="nonzero">
<path style=" stroke:none;fill-rule:nonzero;fill:rgb(100%,100%,100%);fill-opacity:1;" d="M 933.332031 402.144531 L 0.375 402.144531 L 0.375 0.0703125 L 2.519531 0.0703125 L 2.519531 399.996094 L 933.332031 399.996094 Z M 933.332031 402.144531 "/>
</g>
</g>
</defs>
<g id="surface1">
<rect x="0" y="0" width="1366" height="768" style="fill:rgb(0%,0%,0%);fill-opacity:1;stroke:none;"/>
<path style=" stroke:none;fill-rule:evenodd;fill:rgb(8.235168%,8.235168%,20.783997%);fill-opacity:1;" d="M 317.449219 400.90625 L 369.6875 491.355469 L 474.078125 491.355469 L 526.265625 400.90625 L 474.078125 310.492188 L 369.6875 310.492188 Z M 317.449219 400.90625 "/>
<use xlink:href="#surface7" transform="matrix(1,0,0,1,392,371)" mask="url(#mask0)"/>
<path style=" stroke:none;fill-rule:evenodd;fill:rgb(33.332825%,39.607239%,50.588989%);fill-opacity:1;" d="M 480.054688 494.847656 L 532.28125 585.257813 L 636.664063 585.257813 L 688.855469 494.847656 L 636.664063 404.398438 L 532.28125 404.398438 Z M 480.054688 494.847656 "/>
<use xlink:href="#surface10" transform="matrix(1,0,0,1,554,465)" mask="url(#mask1)"/>
<path style=" stroke:none;fill-rule:evenodd;fill:rgb(8.235168%,8.235168%,20.783997%);fill-opacity:1;" d="M 642.335938 400.90625 L 694.53125 491.355469 L 798.953125 491.355469 L 851.175781 400.90625 L 798.953125 310.492188 L 694.53125 310.492188 Z M 642.335938 400.90625 "/>
<use xlink:href="#surface13" transform="matrix(1,0,0,1,717,371)" mask="url(#mask2)"/>
<path style=" stroke:none;fill-rule:evenodd;fill:rgb(33.332825%,39.607239%,50.588989%);fill-opacity:1;" d="M 804.929688 494.847656 L 857.125 585.257813 L 961.535156 585.257813 L 1013.769531 494.847656 L 961.535156 404.398438 L 857.125 404.398438 Z M 804.929688 494.847656 "/>
<use xlink:href="#surface16" transform="matrix(1,0,0,1,879,465)" mask="url(#mask3)"/>
<path style=" stroke:none;fill-rule:evenodd;fill:rgb(8.235168%,8.235168%,20.783997%);fill-opacity:1;" d="M 966.613281 400.90625 L 1018.839844 491.355469 L 1123.253906 491.355469 L 1175.445313 400.90625 L 1123.253906 310.492188 L 1018.839844 310.492188 Z M 966.613281 400.90625 "/>
<use xlink:href="#surface19" transform="matrix(1,0,0,1,1041,371)" mask="url(#mask4)"/>
<use xlink:href="#surface22" transform="matrix(1,0,0,1,492,414)" mask="url(#mask5)"/>
<use xlink:href="#surface25" transform="matrix(1,0,0,1,329,320)" mask="url(#mask6)"/>
<use xlink:href="#surface28" transform="matrix(1,0,0,1,817,414)" mask="url(#mask7)"/>
<use xlink:href="#surface31" transform="matrix(1,0,0,1,654,320)" mask="url(#mask8)"/>
<use xlink:href="#surface34" transform="matrix(1,0,0,1,978,320)" mask="url(#mask9)"/>
<path style=" stroke:none;fill-rule:nonzero;fill:rgb(100%,100%,100%);fill-opacity:1;" d="M 430.03125 395.351563 C 429.585938 395.351563 429.230469 394.996094 429.230469 394.558594 C 429.230469 394.113281 429.585938 393.757813 430.03125 393.757813 C 430.46875 393.757813 430.820313 394.113281 430.820313 394.558594 C 430.820313 394.996094 430.46875 395.351563 430.03125 395.351563 M 427.339844 395.351563 C 426.902344 395.351563 426.546875 394.996094 426.546875 394.558594 C 426.546875 394.113281 426.902344 393.757813 427.339844 393.757813 C 427.785156 393.757813 428.140625 394.113281 428.140625 394.558594 C 428.140625 394.996094 427.785156 395.351563 427.339844 395.351563 M 424.65625 395.351563 C 424.21875 395.351563 423.863281 394.996094 423.863281 394.558594 C 423.863281 394.113281 424.21875 393.757813 424.65625 393.757813 C 425.097656 393.757813 425.457031 394.113281 425.457031 394.558594 C 425.457031 394.996094 425.097656 395.351563 424.65625 395.351563 M 428.902344 392.375 L 414.742188 392.375 C 412.457031 392.375 410.558594 394.0625 410.242188 396.257813 L 433.40625 396.257813 C 433.085938 394.0625 431.191406 392.375 428.902344 392.375 "/>
<path style=" stroke:none;fill-rule:nonzero;fill:rgb(100%,100%,100%);fill-opacity:1;" d="M 426.6875 404.414063 L 420.558594 408.011719 C 420.050781 408.308594 419.414063 407.941406 419.414063 407.359375 L 419.414063 400.164063 C 419.414063 399.574219 420.050781 399.214844 420.558594 399.511719 L 426.6875 403.105469 C 427.183594 403.398438 427.183594 404.117188 426.6875 404.414063 M 410.183594 397.699219 L 410.183594 405.691406 C 410.183594 408.210938 412.222656 410.246094 414.742188 410.246094 L 428.90625 410.246094 C 431.425781 410.246094 433.460938 408.210938 433.460938 405.691406 L 433.460938 397.699219 Z M 410.183594 397.699219 "/>
<path style=" stroke:none;fill-rule:nonzero;fill:rgb(100%,100%,100%);fill-opacity:1;" d="M 576.742188 488.046875 L 576.742188 486.730469 C 576.769531 486.722656 576.796875 486.722656 576.824219 486.722656 L 578.863281 486.722656 L 578.863281 488.046875 C 578.863281 488.625 578.382813 489.105469 577.800781 489.105469 C 577.214844 489.105469 576.742188 488.625 576.742188 488.046875 "/>
<path style=" stroke:none;fill-rule:nonzero;fill:rgb(100%,100%,100%);fill-opacity:1;" d="M 588.949219 488.046875 L 588.949219 486.722656 L 590.988281 486.722656 C 591.015625 486.722656 591.042969 486.722656 591.074219 486.730469 L 591.074219 488.046875 C 591.074219 488.625 590.589844 489.105469 590.011719 489.105469 C 589.421875 489.105469 588.949219 488.625 588.949219 488.046875 "/>
<path style=" stroke:none;fill-rule:nonzero;fill:rgb(100%,100%,100%);fill-opacity:1;" d="M 595.488281 490.601563 L 572.324219 490.601563 C 572.609375 488.667969 574.113281 487.125 576.03125 486.792969 L 576.03125 488.046875 C 576.03125 489.023438 576.824219 489.816406 577.800781 489.816406 C 578.777344 489.816406 579.570313 489.023438 579.570313 488.046875 L 579.570313 486.722656 L 588.242188 486.722656 L 588.242188 488.046875 C 588.242188 489.023438 589.035156 489.816406 590.011719 489.816406 C 590.988281 489.816406 591.78125 489.023438 591.78125 488.046875 L 591.78125 486.792969 C 593.699219 487.125 595.207031 488.667969 595.488281 490.601563 "/>
<path style=" stroke:none;fill-rule:nonzero;fill:rgb(100%,100%,100%);fill-opacity:1;" d="M 583.90625 503.058594 C 581.285156 503.058594 579.164063 500.933594 579.164063 498.316406 C 579.164063 495.703125 581.285156 493.578125 583.90625 493.578125 C 586.523438 493.578125 588.648438 495.703125 588.648438 498.316406 C 588.648438 500.933594 586.523438 503.058594 583.90625 503.058594 M 572.261719 492.046875 L 572.261719 500.035156 C 572.261719 500.269531 572.277344 500.496094 572.320313 500.714844 C 572.636719 502.90625 574.535156 504.59375 576.820313 504.59375 L 590.980469 504.59375 C 593.269531 504.59375 595.164063 502.90625 595.484375 500.714844 C 595.527344 500.496094 595.539063 500.269531 595.539063 500.035156 L 595.539063 492.046875 Z M 572.261719 492.046875 "/>
<path style=" stroke:none;fill-rule:nonzero;fill:rgb(100%,100%,100%);fill-opacity:1;" d="M 577.800781 489.105469 C 577.214844 489.105469 576.738281 488.628906 576.738281 488.042969 L 576.738281 485.09375 C 576.738281 484.511719 577.214844 484.03125 577.800781 484.03125 C 578.382813 484.03125 578.863281 484.511719 578.863281 485.09375 L 578.863281 488.042969 C 578.863281 488.628906 578.382813 489.105469 577.800781 489.105469 "/>
<path style=" stroke:none;fill-rule:nonzero;fill:rgb(100%,100%,100%);fill-opacity:1;" d="M 590.007813 489.105469 C 589.425781 489.105469 588.949219 488.628906 588.949219 488.042969 L 588.949219 485.09375 C 588.949219 484.511719 589.425781 484.03125 590.007813 484.03125 C 590.59375 484.03125 591.070313 484.511719 591.070313 485.09375 L 591.070313 488.042969 C 591.070313 488.628906 590.59375 489.105469 590.007813 489.105469 "/>
<path style=" stroke:none;fill-rule:nonzero;fill:rgb(100%,100%,100%);fill-opacity:1;" d="M 585.929688 499.566406 C 585.929688 500.433594 585.355469 501.132813 584.484375 501.371094 L 584.484375 502.074219 C 584.484375 502.25 584.34375 502.382813 584.164063 502.382813 L 583.59375 502.382813 C 583.421875 502.382813 583.28125 502.25 583.28125 502.074219 L 583.28125 501.445313 C 582.800781 501.386719 582.328125 501.222656 582.015625 501.003906 C 581.894531 500.917969 581.851563 500.777344 581.902344 500.644531 L 582.121094 500.027344 C 582.148438 499.941406 582.222656 499.871094 582.3125 499.835938 C 582.402344 499.808594 582.503906 499.824219 582.589844 499.878906 C 582.90625 500.089844 583.332031 500.21875 583.726563 500.21875 C 584.195313 500.21875 584.507813 499.980469 584.507813 499.632813 C 584.507813 499.355469 584.363281 499.113281 583.671875 498.832031 C 582.828125 498.5 581.964844 498.019531 581.964844 496.957031 C 581.964844 496.121094 582.496094 495.46875 583.347656 495.238281 L 583.347656 494.5625 C 583.347656 494.386719 583.488281 494.253906 583.65625 494.253906 L 584.222656 494.253906 C 584.398438 494.253906 584.535156 494.386719 584.535156 494.5625 L 584.535156 495.160156 C 584.925781 495.207031 585.265625 495.320313 585.574219 495.5 C 585.703125 495.574219 585.757813 495.738281 585.710938 495.878906 L 585.476563 496.480469 C 585.449219 496.566406 585.378906 496.636719 585.292969 496.664063 C 585.207031 496.695313 585.109375 496.6875 585.03125 496.644531 C 584.890625 496.566406 584.5625 496.375 584.03125 496.375 C 583.421875 496.375 583.375 496.738281 583.375 496.851563 C 583.375 497.105469 583.507813 497.269531 584.316406 497.609375 C 585.066406 497.910156 585.929688 498.40625 585.929688 499.566406 "/>
<path style=" stroke:none;fill-rule:nonzero;fill:rgb(100%,100%,100%);fill-opacity:1;" d="M 755.636719 391.496094 L 740.351563 391.496094 C 739.792969 391.496094 739.335938 391.042969 739.335938 390.484375 C 739.335938 389.921875 739.792969 389.46875 740.351563 389.46875 L 755.636719 389.46875 C 756.199219 389.46875 756.652344 389.921875 756.652344 390.484375 C 756.652344 391.042969 756.199219 391.496094 755.636719 391.496094 "/>
<path style=" stroke:none;fill-rule:nonzero;fill:rgb(100%,100%,100%);fill-opacity:1;" d="M 740.351563 413.128906 L 755.636719 413.128906 C 756.199219 413.128906 756.652344 413.582031 756.652344 414.140625 C 756.652344 414.703125 756.199219 415.15625 755.636719 415.15625 L 740.351563 415.15625 C 739.792969 415.15625 739.335938 414.703125 739.335938 414.140625 C 739.335938 413.582031 739.792969 413.128906 740.351563 413.128906 "/>
<path style=" stroke:none;fill-rule:nonzero;fill:rgb(100%,100%,100%);fill-opacity:1;" d="M 749.691406 401.121094 L 747.996094 401.644531 L 746.296875 401.121094 C 743.890625 400.375 742.273438 398.175781 742.273438 395.65625 L 742.273438 393.617188 L 753.71875 393.617188 L 753.71875 395.65625 C 753.71875 398.175781 752.101563 400.375 749.691406 401.121094 M 753.71875 408.964844 L 753.71875 411.011719 L 742.273438 411.011719 L 742.273438 408.964844 C 742.273438 406.445313 743.890625 404.25 746.296875 403.503906 L 747.996094 402.976563 L 749.691406 403.503906 C 752.101563 404.25 753.71875 406.445313 753.71875 408.964844 M 754.964844 395.65625 L 754.964844 392.367188 L 741.023438 392.367188 L 741.023438 395.65625 C 741.023438 398.789063 743.089844 401.433594 745.929688 402.3125 C 743.089844 403.191406 741.023438 405.839844 741.023438 408.964844 L 741.023438 412.257813 L 754.964844 412.257813 L 754.964844 408.964844 C 754.964844 405.839844 752.898438 403.191406 750.058594 402.3125 C 752.898438 401.433594 754.964844 398.789063 754.964844 395.65625 "/>
<path style=" stroke:none;fill-rule:nonzero;fill:rgb(100%,100%,100%);fill-opacity:1;" d="M 751.476563 398.46875 C 750.941406 399.144531 750.195313 399.65625 749.324219 399.929688 L 747.996094 400.34375 L 746.667969 399.929688 C 745.792969 399.65625 745.050781 399.144531 744.511719 398.46875 C 745.597656 398.882813 746.773438 399.101563 747.996094 399.101563 C 749.21875 399.101563 750.390625 398.882813 751.476563 398.46875 "/>
<path style=" stroke:none;fill-rule:nonzero;fill:rgb(100%,100%,100%);fill-opacity:1;" d="M 752.46875 408.964844 L 752.46875 409.761719 L 743.519531 409.761719 L 743.519531 408.964844 C 743.519531 408.558594 743.578125 408.160156 743.683594 407.78125 C 744.988281 407.148438 746.449219 406.800781 747.996094 406.800781 C 749.542969 406.800781 751.003906 407.148438 752.304688 407.78125 C 752.414063 408.160156 752.46875 408.558594 752.46875 408.964844 "/>
<path style=" stroke:none;fill-rule:nonzero;fill:rgb(100%,100%,100%);fill-opacity:1;" d="M 910.476563 498.746094 L 910.476563 502.183594 L 908.425781 502.183594 L 908.425781 498.746094 C 907.648438 498.371094 907.113281 497.574219 907.113281 496.648438 C 907.113281 495.351563 908.160156 494.300781 909.453125 494.300781 C 910.746094 494.300781 911.789063 495.351563 911.789063 496.648438 C 911.789063 497.574219 911.257813 498.371094 910.476563 498.746094 M 914.476563 490.347656 L 904.425781 490.347656 C 903.140625 490.347656 902.101563 491.386719 902.101563 492.675781 L 902.101563 501.746094 C 902.101563 503.03125 903.140625 504.070313 904.425781 504.070313 L 914.476563 504.070313 C 915.765625 504.070313 916.804688 503.03125 916.804688 501.746094 L 916.804688 492.675781 C 916.804688 491.386719 915.765625 490.347656 914.476563 490.347656 "/>
<path style=" stroke:none;fill-rule:nonzero;fill:rgb(100%,100%,100%);fill-opacity:1;" d="M 913.917969 489.390625 C 913.195313 489.390625 912.609375 488.804688 912.609375 488.082031 L 912.609375 487.503906 C 912.609375 486.230469 911.578125 485.195313 910.304688 485.195313 L 908.601563 485.195313 C 907.328125 485.195313 906.292969 486.230469 906.292969 487.503906 L 906.292969 488.082031 C 906.292969 488.804688 905.707031 489.390625 904.988281 489.390625 C 904.265625 489.390625 903.679688 488.804688 903.679688 488.082031 L 903.679688 487.503906 C 903.679688 484.785156 905.882813 482.582031 908.601563 482.582031 L 910.304688 482.582031 C 913.019531 482.582031 915.222656 484.785156 915.222656 487.503906 L 915.222656 488.082031 C 915.222656 488.804688 914.640625 489.390625 913.917969 489.390625 "/>
<use xlink:href="#surface33" transform="matrix(1,0,0,1,247,260)" mask="url(#mask10)"/>
<path style=" stroke:none;fill-rule:nonzero;fill:rgb(33.332825%,39.607239%,50.588989%);fill-opacity:1;" d="M 248.917969 317.574219 L 231.691406 317.574219 C 231.261719 317.574219 230.917969 317.226563 230.917969 316.800781 C 230.917969 316.371094 231.261719 316.027344 231.691406 316.027344 L 248.917969 316.027344 C 249.347656 316.027344 249.691406 316.371094 249.691406 316.800781 C 249.691406 317.226563 249.347656 317.574219 248.917969 317.574219 "/>
<path style=" stroke:none;fill-rule:nonzero;fill:rgb(33.332825%,39.607239%,50.588989%);fill-opacity:1;" d="M 248.917969 380.6875 L 231.691406 380.6875 C 231.261719 380.6875 230.917969 380.34375 230.917969 379.914063 C 230.917969 379.488281 231.261719 379.144531 231.691406 379.144531 L 248.917969 379.144531 C 249.347656 379.144531 249.691406 379.488281 249.691406 379.914063 C 249.691406 380.34375 249.347656 380.6875 248.917969 380.6875 "/>
<path style=" stroke:none;fill-rule:nonzero;fill:rgb(33.332825%,39.607239%,50.588989%);fill-opacity:1;" d="M 248.917969 265.929688 L 231.691406 265.929688 C 231.261719 265.929688 230.917969 265.585938 230.917969 265.160156 C 230.917969 264.730469 231.261719 264.386719 231.691406 264.386719 L 248.917969 264.386719 C 249.347656 264.386719 249.691406 264.730469 249.691406 265.160156 C 249.691406 265.585938 249.347656 265.929688 248.917969 265.929688 "/>
<path style=" stroke:none;fill-rule:nonzero;fill:rgb(33.332825%,39.607239%,50.588989%);fill-opacity:1;" d="M 248.917969 483.96875 L 231.691406 483.96875 C 231.261719 483.96875 230.917969 483.625 230.917969 483.199219 C 230.917969 482.769531 231.261719 482.425781 231.691406 482.425781 L 248.917969 482.425781 C 249.347656 482.425781 249.691406 482.769531 249.691406 483.199219 C 249.691406 483.625 249.347656 483.96875 248.917969 483.96875 "/>
<path style=" stroke:none;fill-rule:nonzero;fill:rgb(33.332825%,39.607239%,50.588989%);fill-opacity:1;" d="M 248.917969 547.085938 L 231.691406 547.085938 C 231.261719 547.085938 230.917969 546.742188 230.917969 546.3125 C 230.917969 545.886719 231.261719 545.539063 231.691406 545.539063 L 248.917969 545.539063 C 249.347656 545.539063 249.691406 545.886719 249.691406 546.3125 C 249.691406 546.742188 249.347656 547.085938 248.917969 547.085938 "/>
<path style=" stroke:none;fill-rule:nonzero;fill:rgb(33.332825%,39.607239%,50.588989%);fill-opacity:1;" d="M 248.917969 432.328125 L 231.691406 432.328125 C 231.261719 432.328125 230.917969 431.984375 230.917969 431.554688 C 230.917969 431.128906 231.261719 430.785156 231.691406 430.785156 L 248.917969 430.785156 C 249.347656 430.785156 249.691406 431.128906 249.691406 431.554688 C 249.691406 431.984375 249.347656 432.328125 248.917969 432.328125 "/>
<path style=" stroke:none;fill-rule:nonzero;fill:rgb(33.332825%,39.607239%,50.588989%);fill-opacity:1;" d="M 248.917969 661.84375 L 231.691406 661.84375 C 231.261719 661.84375 230.917969 661.496094 230.917969 661.070313 C 230.917969 660.644531 231.261719 660.296875 231.691406 660.296875 L 248.917969 660.296875 C 249.347656 660.296875 249.691406 660.644531 249.691406 661.070313 C 249.691406 661.496094 249.347656 661.84375 248.917969 661.84375 "/>
<path style=" stroke:none;fill-rule:nonzero;fill:rgb(33.332825%,39.607239%,50.588989%);fill-opacity:1;" d="M 248.917969 610.203125 L 231.691406 610.203125 C 231.261719 610.203125 230.917969 609.855469 230.917969 609.429688 C 230.917969 609.003906 231.261719 608.65625 231.691406 608.65625 L 248.917969 608.65625 C 249.347656 608.65625 249.691406 609.003906 249.691406 609.429688 C 249.691406 609.855469 249.347656 610.203125 248.917969 610.203125 "/>
<g style="fill:rgb(33.332825%,39.607239%,50.588989%);fill-opacity:1;">
  <use xlink:href="#glyph0-1" x="185.6689" y="270.2788"/>
  <use xlink:href="#glyph0-2" x="196.142051" y="270.2788"/>
  <use xlink:href="#glyph0-2" x="206.615202" y="270.2788"/>
</g>
<g style="fill:rgb(33.332825%,39.607239%,50.588989%);fill-opacity:1;">
  <use xlink:href="#glyph0-3" x="197.100233" y="435.286637"/>
  <use xlink:href="#glyph0-2" x="207.573384" y="435.286637"/>
</g>
<g style="fill:rgb(33.332825%,39.607239%,50.588989%);fill-opacity:1;">
  <use xlink:href="#glyph0-1" x="197.100233" y="617.296631"/>
  <use xlink:href="#glyph0-2" x="207.573384" y="617.296631"/>
</g>
<g style="fill:rgb(33.332825%,39.607239%,50.588989%);fill-opacity:1;">
  <use xlink:href="#glyph0-2" x="208.531566" y="666.297608"/>
</g>
<g style="fill:rgb(33.332825%,39.607239%,50.588989%);fill-opacity:1;">
  <use xlink:href="#glyph0-4" x="351.523502" y="690.296722"/>
</g>
<g style="fill:rgb(33.332825%,39.607239%,50.588989%);fill-opacity:1;">
  <use xlink:href="#glyph0-5" x="360.659655" y="690.296722"/>
  <use xlink:href="#glyph0-6" x="371.422489" y="690.296722"/>
</g>
<g style="fill:rgb(33.332825%,39.607239%,50.588989%);fill-opacity:1;">
  <use xlink:href="#glyph0-7" x="659.523274" y="690.296722"/>
  <use xlink:href="#glyph0-8" x="673.561754" y="690.296722"/>
  <use xlink:href="#glyph0-9" x="683.945771" y="690.296722"/>
  <use xlink:href="#glyph0-10" x="695.109705" y="690.296722"/>
  <use xlink:href="#glyph0-11" x="700.569113" y="690.296722"/>
  <use xlink:href="#glyph0-12" x="711.465647" y="690.296722"/>
</g>
<g style="fill:rgb(33.332825%,39.607239%,50.588989%);fill-opacity:1;">
  <use xlink:href="#glyph0-13" x="992.52491" y="690.296722"/>
  <use xlink:href="#glyph0-10" x="1004.780725" y="690.296722"/>
  <use xlink:href="#glyph0-14" x="1010.240133" y="690.296722"/>
  <use xlink:href="#glyph0-15" x="1021.248083" y="690.296722"/>
</g>
<path style=" stroke:none;fill-rule:nonzero;fill:rgb(100%,100%,100%);fill-opacity:1;" d="M 1084.449219 392.316406 L 1084.449219 393.339844 L 1072.585938 401.5625 L 1060.707031 393.339844 L 1060.707031 392.316406 Z M 1084.449219 392.316406 "/>
<path style=" stroke:none;fill-rule:nonzero;fill:rgb(100%,100%,100%);fill-opacity:1;" d="M 1072.582031 404.789063 L 1084.445313 396.578125 L 1084.445313 405.539063 C 1084.445313 407.320313 1083.003906 408.761719 1081.226563 408.761719 L 1063.929688 408.761719 C 1062.148438 408.761719 1060.707031 407.320313 1060.707031 405.539063 L 1060.707031 396.566406 Z M 1072.582031 404.789063 "/>
<g style="fill:rgb(33.332825%,39.607239%,50.588989%);fill-opacity:1;">
  <use xlink:href="#glyph0-7" x="369.6948" y="542.4634"/>
  <use xlink:href="#glyph0-16" x="383.733279" y="542.4634"/>
  <use xlink:href="#glyph0-17" x="394.20643" y="542.4634"/>
  <use xlink:href="#glyph0-18" x="401.136536" y="542.4634"/>
  <use xlink:href="#glyph0-10" x="408.556875" y="542.4634"/>
  <use xlink:href="#glyph0-19" x="414.016284" y="542.4634"/>
  <use xlink:href="#glyph0-20" x="424.355735" y="542.4634"/>
  <use xlink:href="#glyph0-2" x="430.149393" y="542.4634"/>
  <use xlink:href="#glyph0-1" x="440.622544" y="542.4634"/>
</g>
<g style="fill:rgb(33.332825%,39.607239%,50.588989%);fill-opacity:1;">
  <use xlink:href="#glyph0-7" x="541.699593" y="619.452202"/>
  <use xlink:href="#glyph0-16" x="555.738072" y="619.452202"/>
  <use xlink:href="#glyph0-17" x="566.211223" y="619.452202"/>
  <use xlink:href="#glyph0-18" x="573.141329" y="619.452202"/>
  <use xlink:href="#glyph0-10" x="580.561668" y="619.452202"/>
  <use xlink:href="#glyph0-19" x="586.021076" y="619.452202"/>
  <use xlink:href="#glyph0-20" x="596.360528" y="619.452202"/>
  <use xlink:href="#glyph0-2" x="602.154186" y="619.452202"/>
  <use xlink:href="#glyph0-21" x="612.627337" y="619.452202"/>
</g>
<g style="fill:rgb(33.332825%,39.607239%,50.588989%);fill-opacity:1;">
  <use xlink:href="#glyph0-7" x="703.699184" y="542.4634"/>
  <use xlink:href="#glyph0-16" x="717.737663" y="542.4634"/>
  <use xlink:href="#glyph0-17" x="728.210814" y="542.4634"/>
  <use xlink:href="#glyph0-18" x="735.14092" y="542.4634"/>
  <use xlink:href="#glyph0-10" x="742.561259" y="542.4634"/>
  <use xlink:href="#glyph0-19" x="748.020667" y="542.4634"/>
  <use xlink:href="#glyph0-20" x="758.360119" y="542.4634"/>
  <use xlink:href="#glyph0-2" x="764.153777" y="542.4634"/>
  <use xlink:href="#glyph0-22" x="774.626928" y="542.4634"/>
</g>
<g style="fill:rgb(33.332825%,39.607239%,50.588989%);fill-opacity:1;">
  <use xlink:href="#glyph0-7" x="1033.692573" y="542.4634"/>
  <use xlink:href="#glyph0-16" x="1047.731052" y="542.4634"/>
  <use xlink:href="#glyph0-17" x="1058.204203" y="542.4634"/>
  <use xlink:href="#glyph0-18" x="1065.13431" y="542.4634"/>
  <use xlink:href="#glyph0-10" x="1072.554649" y="542.4634"/>
  <use xlink:href="#glyph0-19" x="1078.014057" y="542.4634"/>
  <use xlink:href="#glyph0-20" x="1088.353508" y="542.4634"/>
  <use xlink:href="#glyph0-2" x="1094.147166" y="542.4634"/>
  <use xlink:href="#glyph0-3" x="1104.620317" y="542.4634"/>
</g>
<g style="fill:rgb(33.332825%,39.607239%,50.588989%);fill-opacity:1;">
  <use xlink:href="#glyph0-7" x="875.681693" y="619.452202"/>
  <use xlink:href="#glyph0-16" x="889.720172" y="619.452202"/>
  <use xlink:href="#glyph0-17" x="900.193323" y="619.452202"/>
  <use xlink:href="#glyph0-18" x="907.123429" y="619.452202"/>
  <use xlink:href="#glyph0-10" x="914.543768" y="619.452202"/>
  <use xlink:href="#glyph0-19" x="920.003177" y="619.452202"/>
  <use xlink:href="#glyph0-20" x="930.342628" y="619.452202"/>
  <use xlink:href="#glyph0-2" x="936.136286" y="619.452202"/>
  <use xlink:href="#glyph0-23" x="946.609437" y="619.452202"/>
</g>
<g style="fill:rgb(100%,100%,100%);fill-opacity:1;">
  <use xlink:href="#glyph1-1" x="416.0986" y="109.0728"/>
  <use xlink:href="#glyph1-2" x="443.217643" y="109.0728"/>
  <use xlink:href="#glyph1-3" x="463.44931" y="109.0728"/>
  <use xlink:href="#glyph1-4" x="476.836647" y="109.0728"/>
  <use xlink:href="#glyph1-5" x="491.170998" y="109.0728"/>
  <use xlink:href="#glyph1-6" x="501.717293" y="109.0728"/>
  <use xlink:href="#glyph1-7" x="521.690683" y="109.0728"/>
  <use xlink:href="#glyph1-8" x="532.882669" y="109.0728"/>
  <use xlink:href="#glyph1-9" x="546.528283" y="109.0728"/>
  <use xlink:href="#glyph1-10" x="568.094379" y="109.0728"/>
  <use xlink:href="#glyph1-11" x="581.266486" y="109.0728"/>
  <use xlink:href="#glyph1-12" x="602.488213" y="109.0728"/>
  <use xlink:href="#glyph1-4" x="623.752986" y="109.0728"/>
</g>
<g style="fill:rgb(100%,100%,100%);fill-opacity:1;">
  <use xlink:href="#glyph1-2" x="637.872107" y="109.0728"/>
  <use xlink:href="#glyph1-13" x="658.103774" y="109.0728"/>
  <use xlink:href="#glyph1-14" x="679.45464" y="109.0728"/>
  <use xlink:href="#glyph1-5" x="701.020736" y="109.0728"/>
  <use xlink:href="#glyph1-15" x="711.56703" y="109.0728"/>
  <use xlink:href="#glyph1-16" x="728.742424" y="109.0728"/>
  <use xlink:href="#glyph1-17" x="745.917818" y="109.0728"/>
  <use xlink:href="#glyph1-7" x="755.818421" y="109.0728"/>
  <use xlink:href="#glyph1-18" x="767.010407" y="109.0728"/>
  <use xlink:href="#glyph1-5" x="787.371213" y="109.0728"/>
  <use xlink:href="#glyph1-16" x="797.917507" y="109.0728"/>
  <use xlink:href="#glyph1-19" x="815.092901" y="109.0728"/>
  <use xlink:href="#glyph1-2" x="836.142444" y="109.0728"/>
  <use xlink:href="#glyph1-20" x="856.374111" y="109.0728"/>
  <use xlink:href="#glyph1-5" x="867.135636" y="109.0728"/>
  <use xlink:href="#glyph1-21" x="877.68193" y="109.0728"/>
  <use xlink:href="#glyph1-5" x="895.029509" y="109.0728"/>
  <use xlink:href="#glyph1-9" x="905.575803" y="109.0728"/>
  <use xlink:href="#glyph1-12" x="927.141899" y="109.0728"/>
</g>
<g style="fill:rgb(100%,100%,100%);fill-opacity:1;">
  <use xlink:href="#glyph1-22" x="465.859892" y="160.72812"/>
</g>
<g style="fill:rgb(100%,100%,100%);fill-opacity:1;">
  <use xlink:href="#glyph1-11" x="483.379654" y="160.72812"/>
  <use xlink:href="#glyph1-23" x="504.601382" y="160.72812"/>
  <use xlink:href="#glyph1-13" x="535.594574" y="160.72812"/>
  <use xlink:href="#glyph1-20" x="556.945439" y="160.72812"/>
  <use xlink:href="#glyph1-24" x="567.706964" y="160.72812"/>
</g>
<g style="fill:rgb(100%,100%,100%);fill-opacity:1;">
  <use xlink:href="#glyph1-6" x="587.120755" y="160.72812"/>
  <use xlink:href="#glyph1-7" x="607.094146" y="160.72812"/>
  <use xlink:href="#glyph1-25" x="618.286132" y="160.72812"/>
  <use xlink:href="#glyph1-2" x="640.92838" y="160.72812"/>
  <use xlink:href="#glyph1-3" x="661.160047" y="160.72812"/>
  <use xlink:href="#glyph1-2" x="674.547384" y="160.72812"/>
  <use xlink:href="#glyph1-7" x="694.779051" y="160.72812"/>
  <use xlink:href="#glyph1-26" x="705.971037" y="160.72812"/>
  <use xlink:href="#glyph1-5" x="734.811924" y="160.72812"/>
  <use xlink:href="#glyph1-3" x="745.358219" y="160.72812"/>
  <use xlink:href="#glyph1-14" x="758.745556" y="160.72812"/>
  <use xlink:href="#glyph1-7" x="780.311652" y="160.72812"/>
  <use xlink:href="#glyph1-22" x="791.503638" y="160.72812"/>
  <use xlink:href="#glyph1-20" x="809.453862" y="160.72812"/>
  <use xlink:href="#glyph1-2" x="820.215387" y="160.72812"/>
  <use xlink:href="#glyph1-4" x="840.447054" y="160.72812"/>
  <use xlink:href="#glyph1-5" x="854.781405" y="160.72812"/>
  <use xlink:href="#glyph1-3" x="865.3277" y="160.72812"/>
  <use xlink:href="#glyph1-27" x="878.715037" y="160.72812"/>
</g>
</g>
</svg>
