<?xml version="1.0" encoding="UTF-8"?>
<svg xmlns="http://www.w3.org/2000/svg" xmlns:xlink="http://www.w3.org/1999/xlink" width="1695pt" height="764.53pt" viewBox="0 0 1695 764.53" version="1.1">
<defs>
<filter id="alpha" filterUnits="objectBoundingBox" x="0%" y="0%" width="100%" height="100%">
  <feColorMatrix type="matrix" in="SourceGraphic" values="0 0 0 0 1 0 0 0 0 1 0 0 0 0 1 0 0 0 1 0"/>
</filter>
<mask id="mask0">
  <g filter="url(#alpha)">
<rect x="0" y="0" width="1695" height="764.53" style="fill:rgb(0%,0%,0%);fill-opacity:0.199997;stroke:none;"/>
  </g>
</mask>
<clipPath id="clip2">
  <path d="M 0.917969 0.347656 L 46.070313 0.347656 L 46.070313 29.058594 L 0.917969 29.058594 Z M 0.917969 0.347656 "/>
</clipPath>
<clipPath id="clip1">
  <rect width="47" height="30"/>
</clipPath>
<g id="surface7" clip-path="url(#clip1)">
<g clip-path="url(#clip2)" clip-rule="nonzero">
<path style=" stroke:none;fill-rule:nonzero;fill:rgb(100%,100%,100%);fill-opacity:1;" d="M 46.070313 28.871094 C 43.75 28.019531 43.378906 24.558594 40.421875 24.558594 C 37.039063 24.558594 37.039063 29.058594 33.660156 29.058594 C 30.28125 29.058594 30.28125 24.558594 26.898438 24.558594 C 23.53125 24.558594 23.53125 29.058594 20.148438 29.058594 C 16.769531 29.058594 16.78125 24.558594 13.398438 24.558594 C 10.019531 24.558594 10.019531 29.058594 6.648438 29.058594 C 3.660156 29.058594 3.320313 25.53125 0.921875 24.71875 L 11.347656 6.667969 C 16.210938 -1.761719 28.378906 -1.761719 33.25 6.667969 Z M 46.070313 28.871094 "/>
</g>
</g>
<mask id="mask1">
  <g filter="url(#alpha)">
<rect x="0" y="0" width="1695" height="764.53" style="fill:rgb(0%,0%,0%);fill-opacity:0.199997;stroke:none;"/>
  </g>
</mask>
<clipPath id="clip4">
  <path d="M 0.25 0.101563 L 52.761719 0.101563 L 52.761719 83.53125 L 0.25 83.53125 Z M 0.25 0.101563 "/>
</clipPath>
<clipPath id="clip3">
  <rect width="53" height="84"/>
</clipPath>
<g id="surface10" clip-path="url(#clip3)">
<g clip-path="url(#clip4)" clip-rule="nonzero">
<path style=" stroke:none;fill-rule:nonzero;fill:rgb(0%,0%,0%);fill-opacity:1;" d="M 52.761719 7.609375 L 8.917969 83.53125 L 0.25 83.53125 L 48.417969 0.101563 Z M 52.761719 7.609375 "/>
</g>
</g>
<mask id="mask2">
  <g filter="url(#alpha)">
<rect x="0" y="0" width="1695" height="764.53" style="fill:rgb(0%,0%,0%);fill-opacity:0.199997;stroke:none;"/>
  </g>
</mask>
<clipPath id="clip6">
  <path d="M 0.230469 0.367188 L 65.839844 0.367188 L 65.839844 47.828125 L 0.230469 47.828125 Z M 0.230469 0.367188 "/>
</clipPath>
<clipPath id="clip5">
  <rect width="66" height="48"/>
</clipPath>
<g id="surface13" clip-path="url(#clip5)">
<g clip-path="url(#clip6)" clip-rule="nonzero">
<path style=" stroke:none;fill-rule:nonzero;fill:rgb(100%,100%,100%);fill-opacity:1;" d="M 65.839844 47.550781 C 62.46875 46.308594 61.929688 41.28125 57.628906 41.28125 C 52.710938 41.28125 52.710938 47.832031 47.800781 47.832031 C 42.890625 47.832031 42.890625 41.28125 37.988281 41.28125 C 33.089844 41.28125 33.078125 47.832031 28.167969 47.832031 C 23.261719 47.832031 23.269531 41.28125 18.359375 41.28125 C 13.449219 41.28125 13.449219 47.832031 8.550781 47.832031 C 4.210938 47.832031 3.710938 42.691406 0.230469 41.519531 L 20.339844 6.691406 C 25.210938 -1.738281 37.371094 -1.738281 42.238281 6.691406 L 47.210938 15.289063 Z M 65.839844 47.550781 "/>
</g>
</g>
<mask id="mask3">
  <g filter="url(#alpha)">
<rect x="0" y="0" width="1695" height="764.53" style="fill:rgb(0%,0%,0%);fill-opacity:0.199997;stroke:none;"/>
  </g>
</mask>
<clipPath id="clip8">
  <path d="M 0.410156 0.320313 L 53.078125 0.320313 L 53.078125 33.820313 L 0.410156 33.820313 Z M 0.410156 0.320313 "/>
</clipPath>
<clipPath id="clip7">
  <rect width="54" height="34"/>
</clipPath>
<g id="surface16" clip-path="url(#clip7)">
<g clip-path="url(#clip8)" clip-rule="nonzero">
<path style=" stroke:none;fill-rule:nonzero;fill:rgb(100%,100%,100%);fill-opacity:1;" d="M 53.082031 33.601563 C 50.371094 32.601563 49.949219 28.570313 46.488281 28.570313 C 42.539063 28.570313 42.539063 33.820313 38.601563 33.820313 C 34.660156 33.820313 34.660156 28.570313 30.71875 28.570313 C 26.78125 28.570313 26.78125 33.820313 22.839844 33.820313 C 18.898438 33.820313 18.910156 28.570313 14.960938 28.570313 C 11.019531 28.570313 11.019531 33.820313 7.089844 33.820313 C 3.601563 33.820313 3.199219 29.699219 0.410156 28.75 L 12.570313 7.699219 C 18.25 -2.140625 32.441406 -2.140625 38.121094 7.699219 Z M 53.082031 33.601563 "/>
</g>
</g>
<mask id="mask4">
  <g filter="url(#alpha)">
<rect x="0" y="0" width="1695" height="764.53" style="fill:rgb(0%,0%,0%);fill-opacity:0.199997;stroke:none;"/>
  </g>
</mask>
<clipPath id="clip10">
  <path d="M 0.289063 0.199219 L 61.550781 0.199219 L 61.550781 97.53125 L 0.289063 97.53125 Z M 0.289063 0.199219 "/>
</clipPath>
<clipPath id="clip9">
  <rect width="62" height="98"/>
</clipPath>
<g id="surface19" clip-path="url(#clip9)">
<g clip-path="url(#clip10)" clip-rule="nonzero">
<path style=" stroke:none;fill-rule:nonzero;fill:rgb(0%,0%,0%);fill-opacity:1;" d="M 61.550781 8.949219 L 10.410156 97.53125 L 0.289063 97.53125 L 56.488281 0.199219 Z M 61.550781 8.949219 "/>
</g>
</g>
<mask id="mask5">
  <g filter="url(#alpha)">
<rect x="0" y="0" width="1695" height="764.53" style="fill:rgb(0%,0%,0%);fill-opacity:0.199997;stroke:none;"/>
  </g>
</mask>
<clipPath id="clip12">
  <path d="M 0.601563 0.671875 L 77.140625 0.671875 L 77.140625 56.050781 L 0.601563 56.050781 Z M 0.601563 0.671875 "/>
</clipPath>
<clipPath id="clip11">
  <rect width="78" height="57"/>
</clipPath>
<g id="surface22" clip-path="url(#clip11)">
<g clip-path="url(#clip12)" clip-rule="nonzero">
<path style=" stroke:none;fill-rule:nonzero;fill:rgb(100%,100%,100%);fill-opacity:1;" d="M 77.140625 55.71875 C 73.210938 54.269531 72.589844 48.410156 67.558594 48.410156 C 61.828125 48.410156 61.828125 56.050781 56.097656 56.050781 C 50.378906 56.050781 50.378906 48.410156 44.652344 48.410156 C 38.929688 48.410156 38.917969 56.050781 33.199219 56.050781 C 27.46875 56.050781 27.480469 48.410156 21.75 48.410156 C 16.019531 48.410156 16.019531 56.050781 10.308594 56.050781 C 5.242188 56.050781 4.660156 50.058594 0.597656 48.691406 L 24.058594 8.050781 C 29.742188 -1.789063 43.941406 -1.789063 49.621094 8.050781 L 55.410156 18.078125 Z M 77.140625 55.71875 "/>
</g>
</g>
<mask id="mask6">
  <g filter="url(#alpha)">
<rect x="0" y="0" width="1695" height="764.53" style="fill:rgb(0%,0%,0%);fill-opacity:0.199997;stroke:none;"/>
  </g>
</mask>
<clipPath id="clip14">
  <path d="M 0.910156 0.28125 L 61.101563 0.28125 L 61.101563 38.578125 L 0.910156 38.578125 Z M 0.910156 0.28125 "/>
</clipPath>
<clipPath id="clip13">
  <rect width="62" height="39"/>
</clipPath>
<g id="surface25" clip-path="url(#clip13)">
<g clip-path="url(#clip14)" clip-rule="nonzero">
<path style=" stroke:none;fill-rule:nonzero;fill:rgb(100%,100%,100%);fill-opacity:1;" d="M 61.097656 38.320313 C 58 37.179688 57.519531 32.570313 53.558594 32.570313 C 49.058594 32.570313 49.058594 38.582031 44.550781 38.582031 C 40.050781 38.582031 40.050781 32.570313 35.550781 32.570313 C 31.039063 32.570313 31.039063 38.582031 26.539063 38.582031 C 22.03125 38.582031 22.039063 32.570313 17.539063 32.570313 C 13.03125 32.570313 13.03125 38.582031 8.539063 38.582031 C 4.550781 38.582031 4.097656 33.859375 0.910156 32.789063 L 14.808594 8.71875 C 21.289063 -2.53125 37.507813 -2.53125 44 8.71875 Z M 61.097656 38.320313 "/>
</g>
</g>
<mask id="mask7">
  <g filter="url(#alpha)">
<rect x="0" y="0" width="1695" height="764.53" style="fill:rgb(0%,0%,0%);fill-opacity:0.199997;stroke:none;"/>
  </g>
</mask>
<clipPath id="clip16">
  <path d="M 0.339844 0.289063 L 70.351563 0.289063 L 70.351563 111.53125 L 0.339844 111.53125 Z M 0.339844 0.289063 "/>
</clipPath>
<clipPath id="clip15">
  <rect width="71" height="112"/>
</clipPath>
<g id="surface28" clip-path="url(#clip15)">
<g clip-path="url(#clip16)" clip-rule="nonzero">
<path style=" stroke:none;fill-rule:nonzero;fill:rgb(0%,0%,0%);fill-opacity:1;" d="M 70.347656 10.300781 L 11.902344 111.53125 L 0.339844 111.53125 L 64.570313 0.289063 Z M 70.347656 10.300781 "/>
</g>
</g>
<mask id="mask8">
  <g filter="url(#alpha)">
<rect x="0" y="0" width="1695" height="764.53" style="fill:rgb(0%,0%,0%);fill-opacity:0.199997;stroke:none;"/>
  </g>
</mask>
<clipPath id="clip18">
  <path d="M 0.980469 0.980469 L 88.449219 0.980469 L 88.449219 64.261719 L 0.980469 64.261719 Z M 0.980469 0.980469 "/>
</clipPath>
<clipPath id="clip17">
  <rect width="89" height="65"/>
</clipPath>
<g id="surface31" clip-path="url(#clip17)">
<g clip-path="url(#clip18)" clip-rule="nonzero">
<path style=" stroke:none;fill-rule:nonzero;fill:rgb(100%,100%,100%);fill-opacity:1;" d="M 88.449219 63.890625 C 83.960938 62.238281 83.25 55.53125 77.5 55.53125 C 70.960938 55.53125 70.960938 64.261719 64.410156 64.261719 C 57.859375 64.261719 57.859375 55.53125 51.320313 55.53125 C 44.78125 55.53125 44.78125 64.261719 38.230469 64.261719 C 31.679688 64.261719 31.699219 55.53125 25.148438 55.53125 C 18.597656 55.53125 18.597656 64.261719 12.070313 64.261719 C 6.28125 64.261719 5.621094 57.417969 0.980469 55.851563 L 27.789063 9.410156 C 34.28125 -1.832031 50.5 -1.832031 57 9.410156 L 63.609375 20.871094 Z M 88.449219 63.890625 "/>
</g>
</g>
<mask id="mask9">
  <g filter="url(#alpha)">
<rect x="0" y="0" width="1695" height="764.53" style="fill:rgb(0%,0%,0%);fill-opacity:0.199997;stroke:none;"/>
  </g>
</mask>
<clipPath id="clip20">
  <path d="M 0.390625 0.253906 L 68.101563 0.253906 L 68.101563 43.328125 L 0.390625 43.328125 Z M 0.390625 0.253906 "/>
</clipPath>
<clipPath id="clip19">
  <rect width="69" height="44"/>
</clipPath>
<g id="surface34" clip-path="url(#clip19)">
<g clip-path="url(#clip20)" clip-rule="nonzero">
<path style=" stroke:none;fill-rule:nonzero;fill:rgb(100%,100%,100%);fill-opacity:1;" d="M 68.097656 43.039063 C 64.621094 41.761719 64.070313 36.578125 59.621094 36.578125 C 54.558594 36.578125 54.558594 43.328125 49.492188 43.328125 C 44.417969 43.328125 44.417969 36.578125 39.359375 36.578125 C 34.289063 36.578125 34.289063 43.328125 29.21875 43.328125 C 24.160156 43.328125 24.160156 36.578125 19.097656 36.578125 C 14.03125 36.578125 14.03125 43.328125 8.96875 43.328125 C 4.492188 43.328125 3.96875 38.03125 0.390625 36.820313 L 16.019531 9.738281 C 23.320313 -2.910156 41.570313 -2.910156 48.871094 9.738281 Z M 68.097656 43.039063 "/>
</g>
</g>
<mask id="mask10">
  <g filter="url(#alpha)">
<rect x="0" y="0" width="1695" height="764.53" style="fill:rgb(0%,0%,0%);fill-opacity:0.199997;stroke:none;"/>
  </g>
</mask>
<clipPath id="clip22">
  <path d="M 0.378906 0.390625 L 79.128906 0.390625 L 79.128906 125.53125 L 0.378906 125.53125 Z M 0.378906 0.390625 "/>
</clipPath>
<clipPath id="clip21">
  <rect width="80" height="126"/>
</clipPath>
<g id="surface37" clip-path="url(#clip21)">
<g clip-path="url(#clip22)" clip-rule="nonzero">
<path style=" stroke:none;fill-rule:nonzero;fill:rgb(0%,0%,0%);fill-opacity:1;" d="M 79.128906 11.640625 L 13.390625 125.53125 L 0.378906 125.53125 L 72.628906 0.390625 Z M 79.128906 11.640625 "/>
</g>
</g>
<mask id="mask11">
  <g filter="url(#alpha)">
<rect x="0" y="0" width="1695" height="764.53" style="fill:rgb(0%,0%,0%);fill-opacity:0.199997;stroke:none;"/>
  </g>
</mask>
<clipPath id="clip24">
  <path d="M 0.351563 0.28125 L 98.761719 0.28125 L 98.761719 71.480469 L 0.351563 71.480469 Z M 0.351563 0.28125 "/>
</clipPath>
<clipPath id="clip23">
  <rect width="99" height="72"/>
</clipPath>
<g id="surface40" clip-path="url(#clip23)">
<g clip-path="url(#clip24)" clip-rule="nonzero">
<path style=" stroke:none;fill-rule:nonzero;fill:rgb(100%,100%,100%);fill-opacity:1;" d="M 98.761719 71.070313 C 93.699219 69.199219 92.902344 61.660156 86.441406 61.660156 C 79.070313 61.660156 79.070313 71.480469 71.710938 71.480469 C 64.339844 71.480469 64.339844 61.660156 56.980469 61.660156 C 49.628906 61.660156 49.621094 71.480469 42.25 71.480469 C 34.890625 71.480469 34.902344 61.660156 27.539063 61.660156 C 20.167969 61.660156 20.167969 71.480469 12.820313 71.480469 C 6.308594 71.480469 5.558594 63.78125 0.351563 62.019531 L 30.511719 9.769531 C 37.808594 -2.878906 56.058594 -2.878906 63.359375 9.769531 L 70.808594 22.671875 Z M 98.761719 71.070313 "/>
</g>
</g>
<mask id="mask12">
  <g filter="url(#alpha)">
<rect x="0" y="0" width="1695" height="764.53" style="fill:rgb(0%,0%,0%);fill-opacity:0.199997;stroke:none;"/>
  </g>
</mask>
<clipPath id="clip26">
  <path d="M 0.878906 0.226563 L 76.121094 0.226563 L 76.121094 48.089844 L 0.878906 48.089844 Z M 0.878906 0.226563 "/>
</clipPath>
<clipPath id="clip25">
  <rect width="77" height="49"/>
</clipPath>
<g id="surface43" clip-path="url(#clip25)">
<g clip-path="url(#clip26)" clip-rule="nonzero">
<path style=" stroke:none;fill-rule:nonzero;fill:rgb(100%,100%,100%);fill-opacity:1;" d="M 76.121094 47.769531 C 72.25 46.351563 71.640625 40.578125 66.699219 40.578125 C 61.070313 40.578125 61.070313 48.089844 55.441406 48.089844 C 49.800781 48.089844 49.800781 40.578125 44.171875 40.578125 C 38.539063 40.578125 38.539063 48.089844 32.910156 48.089844 C 27.28125 48.089844 27.289063 40.578125 21.660156 40.578125 C 16.03125 40.578125 16.03125 48.089844 10.410156 48.089844 C 5.429688 48.089844 4.859375 42.199219 0.878906 40.851563 L 18.25 10.769531 C 26.359375 -3.289063 46.628906 -3.289063 54.75 10.769531 Z M 76.121094 47.769531 "/>
</g>
</g>
<mask id="mask13">
  <g filter="url(#alpha)">
<rect x="0" y="0" width="1695" height="764.53" style="fill:rgb(0%,0%,0%);fill-opacity:0.199997;stroke:none;"/>
  </g>
</mask>
<clipPath id="clip28">
  <path d="M 0.421875 0.480469 L 87.929688 0.480469 L 87.929688 139.53125 L 0.421875 139.53125 Z M 0.421875 0.480469 "/>
</clipPath>
<clipPath id="clip27">
  <rect width="88" height="140"/>
</clipPath>
<g id="surface46" clip-path="url(#clip27)">
<g clip-path="url(#clip28)" clip-rule="nonzero">
<path style=" stroke:none;fill-rule:nonzero;fill:rgb(0%,0%,0%);fill-opacity:1;" d="M 87.929688 12.988281 L 14.871094 139.53125 L 0.417969 139.53125 L 80.699219 0.480469 Z M 87.929688 12.988281 "/>
</g>
</g>
<mask id="mask14">
  <g filter="url(#alpha)">
<rect x="0" y="0" width="1695" height="764.53" style="fill:rgb(0%,0%,0%);fill-opacity:0.199997;stroke:none;"/>
  </g>
</mask>
<clipPath id="clip30">
  <path d="M 0.71875 0.59375 L 110.101563 0.59375 L 110.101563 79.699219 L 0.71875 79.699219 Z M 0.71875 0.59375 "/>
</clipPath>
<clipPath id="clip29">
  <rect width="111" height="80"/>
</clipPath>
<g id="surface45" clip-path="url(#clip29)">
<g clip-path="url(#clip30)" clip-rule="nonzero">
<path style=" stroke:none;fill-rule:nonzero;fill:rgb(100%,100%,100%);fill-opacity:1;" d="M 110.097656 79.238281 C 104.402344 77.171875 103.597656 68.789063 96.402344 68.789063 C 88.191406 68.789063 88.191406 79.699219 80.007813 79.699219 C 71.820313 79.699219 71.820313 68.789063 63.652344 68.789063 C 55.46875 68.789063 55.460938 79.699219 47.28125 79.699219 C 39.097656 79.699219 39.121094 68.789063 30.929688 68.789063 C 22.75 68.789063 22.75 79.699219 14.578125 79.699219 C 7.347656 79.699219 6.519531 71.140625 0.71875 69.191406 L 34.230469 11.128906 C 42.347656 -2.921875 62.621094 -2.921875 70.742188 11.128906 L 79.007813 25.460938 Z M 110.097656 79.238281 "/>
</g>
</g>
<clipPath id="clip31">
  <path d="M 954 138 L 968 138 L 968 764.53125 L 954 764.53125 Z M 954 138 "/>
</clipPath>
<clipPath id="clip32">
  <path d="M 268 276 L 282 276 L 282 764.53125 L 268 764.53125 Z M 268 276 "/>
</clipPath>
</defs>
<g id="surface1">
<path style=" stroke:none;fill-rule:nonzero;fill:rgb(34.899902%,75.698853%,79.998779%);fill-opacity:1;" d="M 55.347656 664.667969 L 0 760.53125 L 132.589844 760.53125 L 77.242188 664.667969 C 72.371094 656.238281 60.210938 656.238281 55.339844 664.667969 Z M 55.347656 664.667969 "/>
<use xlink:href="#surface7" transform="matrix(1,0,0,1,44,658)" mask="url(#mask0)"/>
<path style=" stroke:none;fill-rule:nonzero;fill:rgb(34.899902%,75.698853%,79.998779%);fill-opacity:1;" d="M 130.320313 612.628906 L 44.921875 760.53125 L 237.609375 760.53125 L 152.210938 612.628906 C 147.347656 604.199219 135.179688 604.199219 130.320313 612.628906 "/>
<use xlink:href="#surface10" transform="matrix(1,0,0,1,36,677)" mask="url(#mask1)"/>
<use xlink:href="#surface13" transform="matrix(1,0,0,1,110,606)" mask="url(#mask2)"/>
<path style=" stroke:none;fill-rule:nonzero;fill:rgb(29.399109%,57.598877%,81.199646%);fill-opacity:1;" d="M 388.570313 648.691406 L 324 760.53125 L 478.691406 760.53125 L 414.121094 648.691406 C 408.429688 638.859375 394.242188 638.859375 388.570313 648.691406 "/>
<use xlink:href="#surface16" transform="matrix(1,0,0,1,376,641)" mask="url(#mask3)"/>
<path style=" stroke:none;fill-rule:nonzero;fill:rgb(29.399109%,57.598877%,81.199646%);fill-opacity:1;" d="M 476.03125 587.980469 L 376.410156 760.53125 L 601.210938 760.53125 L 501.582031 587.980469 C 495.898438 578.140625 481.710938 578.140625 476.03125 587.980469 "/>
<use xlink:href="#surface19" transform="matrix(1,0,0,1,366,663)" mask="url(#mask4)"/>
<use xlink:href="#surface22" transform="matrix(1,0,0,1,452,580)" mask="url(#mask5)"/>
<path style=" stroke:none;fill-rule:nonzero;fill:rgb(57.299805%,37.298584%,65.499878%);fill-opacity:1;" d="M 723.800781 632.710938 L 650 760.53125 L 826.789063 760.53125 L 752.988281 632.710938 C 746.5 621.480469 730.269531 621.480469 723.789063 632.710938 Z M 723.800781 632.710938 "/>
<use xlink:href="#surface25" transform="matrix(1,0,0,1,709,624)" mask="url(#mask6)"/>
<path style=" stroke:none;fill-rule:nonzero;fill:rgb(57.299805%,37.298584%,65.499878%);fill-opacity:1;" d="M 823.761719 563.320313 L 709.910156 760.53125 L 966.808594 760.53125 L 852.960938 563.320313 C 846.46875 552.089844 830.25 552.089844 823.761719 563.320313 "/>
<use xlink:href="#surface28" transform="matrix(1,0,0,1,698,649)" mask="url(#mask7)"/>
<use xlink:href="#surface31" transform="matrix(1,0,0,1,796,554)" mask="url(#mask8)"/>
<path style=" stroke:none;fill-rule:nonzero;fill:rgb(93.299866%,50.999451%,58.799744%);fill-opacity:1;" d="M 1045.019531 616.738281 L 962 760.53125 L 1160.890625 760.53125 L 1077.859375 616.738281 C 1070.558594 604.101563 1052.308594 604.101563 1045.007813 616.738281 Z M 1045.019531 616.738281 "/>
<use xlink:href="#surface34" transform="matrix(1,0,0,1,1029,607)" mask="url(#mask9)"/>
<path style=" stroke:none;fill-rule:nonzero;fill:rgb(93.299866%,50.999451%,58.799744%);fill-opacity:1;" d="M 1157.46875 538.679688 L 1029.390625 760.53125 L 1318.410156 760.53125 L 1190.320313 538.679688 C 1183.019531 526.039063 1164.769531 526.039063 1157.46875 538.679688 "/>
<use xlink:href="#surface37" transform="matrix(1,0,0,1,1016,635)" mask="url(#mask10)"/>
<use xlink:href="#surface40" transform="matrix(1,0,0,1,1127,529)" mask="url(#mask11)"/>
<path style=" stroke:none;fill-rule:nonzero;fill:rgb(100%,76.499939%,16.099548%);fill-opacity:1;" d="M 1391.25 600.761719 L 1299 760.53125 L 1519.980469 760.53125 L 1427.738281 600.761719 C 1419.621094 586.710938 1399.339844 586.710938 1391.238281 600.761719 Z M 1391.25 600.761719 "/>
<use xlink:href="#surface43" transform="matrix(1,0,0,1,1373,590)" mask="url(#mask12)"/>
<path style=" stroke:none;fill-rule:nonzero;fill:rgb(100%,76.499939%,16.099548%);fill-opacity:1;" d="M 1516.191406 514.03125 L 1373.878906 760.53125 L 1695 760.53125 L 1552.691406 514.03125 C 1544.582031 499.980469 1524.300781 499.980469 1516.191406 514.03125 "/>
<use xlink:href="#surface46" transform="matrix(1,0,0,1,1359,621)" mask="url(#mask13)"/>
<use xlink:href="#surface45" transform="matrix(1,0,0,1,1482,503)" mask="url(#mask14)"/>
<path style=" stroke:none;fill-rule:nonzero;fill:rgb(17.298889%,16.099548%,20.399475%);fill-opacity:1;" d="M 1648.101563 6.53125 L 1645.902344 6.53125 L 1645.902344 11.019531 L 1648.101563 11.019531 Z M 1648.101563 19.988281 L 1645.902344 19.988281 L 1645.902344 28.96875 L 1648.101563 28.96875 Z M 1648.101563 37.949219 L 1645.902344 37.949219 L 1645.902344 46.921875 L 1648.101563 46.921875 Z M 1648.101563 55.898438 L 1645.902344 55.898438 L 1645.902344 64.871094 L 1648.101563 64.871094 Z M 1648.101563 73.851563 L 1645.902344 73.851563 L 1645.902344 82.828125 L 1648.101563 82.828125 Z M 1648.101563 91.800781 L 1645.902344 91.800781 L 1645.902344 100.78125 L 1648.101563 100.78125 Z M 1648.101563 109.761719 L 1645.902344 109.761719 L 1645.902344 118.730469 L 1648.101563 118.730469 Z M 1648.101563 127.710938 L 1645.902344 127.710938 L 1645.902344 136.679688 L 1648.101563 136.679688 Z M 1648.101563 145.660156 L 1645.902344 145.660156 L 1645.902344 154.640625 L 1648.101563 154.640625 Z M 1648.101563 163.609375 L 1645.902344 163.609375 L 1645.902344 172.589844 L 1648.101563 172.589844 Z M 1648.101563 181.570313 L 1645.902344 181.570313 L 1645.902344 190.539063 L 1648.101563 190.539063 Z M 1648.101563 199.519531 L 1645.902344 199.519531 L 1645.902344 208.488281 L 1648.101563 208.488281 Z M 1648.101563 217.46875 L 1645.902344 217.46875 L 1645.902344 226.449219 L 1648.101563 226.449219 Z M 1648.101563 235.421875 L 1645.902344 235.421875 L 1645.902344 244.398438 L 1648.101563 244.398438 Z M 1648.101563 253.378906 L 1645.902344 253.378906 L 1645.902344 262.351563 L 1648.101563 262.351563 Z M 1648.101563 271.328125 L 1645.902344 271.328125 L 1645.902344 280.300781 L 1648.101563 280.300781 Z M 1648.101563 289.28125 L 1645.902344 289.28125 L 1645.902344 298.261719 L 1648.101563 298.261719 Z M 1648.101563 307.230469 L 1645.902344 307.230469 L 1645.902344 316.210938 L 1648.101563 316.210938 Z M 1648.101563 325.179688 L 1645.902344 325.179688 L 1645.902344 334.160156 L 1648.101563 334.160156 Z M 1648.101563 343.140625 L 1645.902344 343.140625 L 1645.902344 352.109375 L 1648.101563 352.109375 Z M 1648.101563 361.089844 L 1645.902344 361.089844 L 1645.902344 370.070313 L 1648.101563 370.070313 Z M 1648.101563 379.039063 L 1645.902344 379.039063 L 1645.902344 388.019531 L 1648.101563 388.019531 Z M 1648.101563 396.988281 L 1645.902344 396.988281 L 1645.902344 405.96875 L 1648.101563 405.96875 Z M 1648.101563 414.949219 L 1645.902344 414.949219 L 1645.902344 423.921875 L 1648.101563 423.921875 Z M 1648.101563 432.898438 L 1645.902344 432.898438 L 1645.902344 441.878906 L 1648.101563 441.878906 Z M 1648.101563 450.851563 L 1645.902344 450.851563 L 1645.902344 459.828125 L 1648.101563 459.828125 Z M 1648.101563 468.800781 L 1645.902344 468.800781 L 1645.902344 477.78125 L 1648.101563 477.78125 Z M 1648.101563 486.761719 L 1645.902344 486.761719 L 1645.902344 495.730469 L 1648.101563 495.730469 Z M 1648.101563 504.710938 L 1645.902344 504.710938 L 1645.902344 513.679688 L 1648.101563 513.679688 Z M 1648.101563 522.660156 L 1645.902344 522.660156 L 1645.902344 531.640625 L 1648.101563 531.640625 Z M 1648.101563 540.609375 L 1645.902344 540.609375 L 1645.902344 549.589844 L 1648.101563 549.589844 Z M 1648.101563 558.570313 L 1645.902344 558.570313 L 1645.902344 567.539063 L 1648.101563 567.539063 Z M 1648.101563 576.519531 L 1645.902344 576.519531 L 1645.902344 585.488281 L 1648.101563 585.488281 Z M 1648.101563 594.46875 L 1645.902344 594.46875 L 1645.902344 603.449219 L 1648.101563 603.449219 Z M 1648.101563 612.421875 L 1645.902344 612.421875 L 1645.902344 621.398438 L 1648.101563 621.398438 Z M 1648.101563 630.378906 L 1645.902344 630.378906 L 1645.902344 639.351563 L 1648.101563 639.351563 Z M 1648.101563 648.328125 L 1645.902344 648.328125 L 1645.902344 657.300781 L 1648.101563 657.300781 Z M 1648.101563 666.28125 L 1645.902344 666.28125 L 1645.902344 675.261719 L 1648.101563 675.261719 Z M 1648.101563 684.230469 L 1645.902344 684.230469 L 1645.902344 693.210938 L 1648.101563 693.210938 Z M 1648.101563 702.179688 L 1645.902344 702.179688 L 1645.902344 711.160156 L 1648.101563 711.160156 Z M 1648.101563 720.140625 L 1645.902344 720.140625 L 1645.902344 729.109375 L 1648.101563 729.109375 Z M 1648.101563 738.089844 L 1645.902344 738.089844 L 1645.902344 747.070313 L 1648.101563 747.070313 Z M 1648.101563 756.039063 L 1645.902344 756.039063 L 1645.902344 760.53125 L 1648.101563 760.53125 Z M 1647 0 L 1640.5 6.53125 L 1647 13.058594 L 1653.5 6.53125 Z M 1647 0 "/>
<path style=" stroke:none;fill-rule:nonzero;fill:rgb(17.298889%,16.099548%,20.399475%);fill-opacity:1;" d="M 1305.128906 75.53125 L 1302.871094 75.53125 L 1302.871094 80.050781 L 1305.128906 80.050781 Z M 1305.128906 89.089844 L 1302.871094 89.089844 L 1302.871094 98.128906 L 1305.128906 98.128906 Z M 1305.128906 107.171875 L 1302.871094 107.171875 L 1302.871094 116.210938 L 1305.128906 116.210938 Z M 1305.128906 125.25 L 1302.871094 125.25 L 1302.871094 134.289063 L 1305.128906 134.289063 Z M 1305.128906 143.328125 L 1302.871094 143.328125 L 1302.871094 152.371094 L 1305.128906 152.371094 Z M 1305.128906 161.410156 L 1302.871094 161.410156 L 1302.871094 170.441406 L 1305.128906 170.441406 Z M 1305.128906 179.480469 L 1302.871094 179.480469 L 1302.871094 188.519531 L 1305.128906 188.519531 Z M 1305.128906 197.558594 L 1302.871094 197.558594 L 1302.871094 206.601563 L 1305.128906 206.601563 Z M 1305.128906 215.640625 L 1302.871094 215.640625 L 1302.871094 224.679688 L 1305.128906 224.679688 Z M 1305.128906 233.71875 L 1302.871094 233.71875 L 1302.871094 242.761719 L 1305.128906 242.761719 Z M 1305.128906 251.800781 L 1302.871094 251.800781 L 1302.871094 260.839844 L 1305.128906 260.839844 Z M 1305.128906 269.878906 L 1302.871094 269.878906 L 1302.871094 278.921875 L 1305.128906 278.921875 Z M 1305.128906 287.960938 L 1302.871094 287.960938 L 1302.871094 297 L 1305.128906 297 Z M 1305.128906 306.039063 L 1302.871094 306.039063 L 1302.871094 315.078125 L 1305.128906 315.078125 Z M 1305.128906 324.121094 L 1302.871094 324.121094 L 1302.871094 333.160156 L 1305.128906 333.160156 Z M 1305.128906 342.191406 L 1302.871094 342.191406 L 1302.871094 351.230469 L 1305.128906 351.230469 Z M 1305.128906 360.269531 L 1302.871094 360.269531 L 1302.871094 369.308594 L 1305.128906 369.308594 Z M 1305.128906 378.351563 L 1302.871094 378.351563 L 1302.871094 387.390625 L 1305.128906 387.390625 Z M 1305.128906 396.429688 L 1302.871094 396.429688 L 1302.871094 405.46875 L 1305.128906 405.46875 Z M 1305.128906 414.511719 L 1302.871094 414.511719 L 1302.871094 423.550781 L 1305.128906 423.550781 Z M 1305.128906 432.589844 L 1302.871094 432.589844 L 1302.871094 441.628906 L 1305.128906 441.628906 Z M 1305.128906 450.671875 L 1302.871094 450.671875 L 1302.871094 459.710938 L 1305.128906 459.710938 Z M 1305.128906 468.75 L 1302.871094 468.75 L 1302.871094 477.789063 L 1305.128906 477.789063 Z M 1305.128906 486.828125 L 1302.871094 486.828125 L 1302.871094 495.871094 L 1305.128906 495.871094 Z M 1305.128906 513.941406 L 1305.128906 504.898438 L 1302.871094 504.910156 L 1302.871094 513.941406 Z M 1305.128906 522.980469 L 1302.871094 522.980469 L 1302.871094 532.019531 L 1305.128906 532.019531 Z M 1305.128906 541.058594 L 1302.871094 541.058594 L 1302.871094 550.101563 L 1305.128906 550.101563 Z M 1305.128906 559.140625 L 1302.871094 559.140625 L 1302.871094 568.179688 L 1305.128906 568.179688 Z M 1305.128906 577.21875 L 1302.871094 577.21875 L 1302.871094 586.261719 L 1305.128906 586.261719 Z M 1305.128906 595.300781 L 1302.871094 595.300781 L 1302.871094 604.339844 L 1305.128906 604.339844 Z M 1305.128906 613.378906 L 1302.871094 613.378906 L 1302.871094 622.421875 L 1305.128906 622.421875 Z M 1305.128906 631.460938 L 1302.871094 631.460938 L 1302.871094 640.5 L 1305.128906 640.5 Z M 1305.128906 649.539063 L 1302.871094 649.539063 L 1302.871094 658.578125 L 1305.128906 658.578125 Z M 1305.128906 676.648438 L 1305.128906 667.621094 L 1302.871094 667.621094 L 1302.871094 676.660156 Z M 1305.128906 685.691406 L 1302.871094 685.691406 L 1302.871094 694.730469 L 1305.128906 694.730469 Z M 1305.128906 703.769531 L 1302.871094 703.769531 L 1302.871094 712.808594 L 1305.128906 712.808594 Z M 1305.128906 721.851563 L 1302.871094 721.851563 L 1302.871094 730.890625 L 1305.128906 730.890625 Z M 1305.128906 739.929688 L 1302.871094 739.929688 L 1302.871094 748.96875 L 1305.128906 748.96875 Z M 1305.128906 758.011719 L 1302.871094 758.011719 L 1302.871094 762.53125 L 1305.128906 762.53125 Z M 1304 69 L 1297.46875 75.53125 L 1304 82.058594 L 1310.53125 75.53125 Z M 1304 69 "/>
<g clip-path="url(#clip31)" clip-rule="nonzero">
<path style=" stroke:none;fill-rule:nonzero;fill:rgb(17.298889%,16.099548%,20.399475%);fill-opacity:1;" d="M 962.128906 144.53125 L 959.871094 144.53125 L 959.871094 149.089844 L 962.128906 149.089844 Z M 962.128906 158.210938 L 959.871094 158.210938 L 959.871094 167.320313 L 962.128906 167.320313 Z M 962.128906 176.441406 L 959.871094 176.441406 L 959.871094 185.558594 L 962.128906 185.558594 Z M 962.128906 194.679688 L 959.871094 194.679688 L 959.871094 203.789063 L 962.128906 203.789063 Z M 962.128906 212.910156 L 959.871094 212.910156 L 959.871094 222.03125 L 962.128906 222.03125 Z M 962.128906 231.148438 L 959.871094 231.148438 L 959.871094 240.269531 L 962.128906 240.269531 Z M 962.128906 249.378906 L 959.871094 249.378906 L 959.871094 258.5 L 962.128906 258.5 Z M 962.128906 267.621094 L 959.871094 267.621094 L 959.871094 276.738281 L 962.128906 276.738281 Z M 962.128906 285.851563 L 959.871094 285.851563 L 959.871094 294.96875 L 962.128906 294.96875 Z M 962.128906 304.089844 L 959.871094 304.089844 L 959.871094 313.210938 L 962.128906 313.210938 Z M 962.128906 322.320313 L 959.871094 322.320313 L 959.871094 331.441406 L 962.128906 331.441406 Z M 962.128906 340.558594 L 959.871094 340.558594 L 959.871094 349.679688 L 962.128906 349.679688 Z M 962.128906 358.789063 L 959.871094 358.789063 L 959.871094 367.910156 L 962.128906 367.910156 Z M 962.128906 377.03125 L 959.871094 377.03125 L 959.871094 386.148438 L 962.128906 386.148438 Z M 962.128906 395.269531 L 959.871094 395.269531 L 959.871094 404.378906 L 962.128906 404.378906 Z M 962.128906 413.5 L 959.871094 413.5 L 959.871094 422.621094 L 962.128906 422.621094 Z M 962.128906 431.738281 L 959.871094 431.738281 L 959.871094 440.851563 L 962.128906 440.851563 Z M 962.128906 449.96875 L 959.871094 449.96875 L 959.871094 459.089844 L 962.128906 459.089844 Z M 962.128906 468.210938 L 959.871094 468.210938 L 959.871094 477.320313 L 962.128906 477.320313 Z M 962.128906 486.441406 L 959.871094 486.441406 L 959.871094 495.558594 L 962.128906 495.558594 Z M 962.128906 504.679688 L 959.871094 504.679688 L 959.871094 513.789063 L 962.128906 513.789063 Z M 962.128906 522.910156 L 959.871094 522.910156 L 959.871094 532.03125 L 962.128906 532.03125 Z M 962.128906 541.148438 L 959.871094 541.148438 L 959.871094 550.269531 L 962.128906 550.269531 Z M 962.128906 559.378906 L 959.871094 559.378906 L 959.871094 568.5 L 962.128906 568.5 Z M 962.128906 577.621094 L 959.871094 577.621094 L 959.871094 586.738281 L 962.128906 586.738281 Z M 962.128906 595.851563 L 959.871094 595.851563 L 959.871094 604.96875 L 962.128906 604.96875 Z M 962.128906 614.089844 L 959.871094 614.089844 L 959.871094 623.210938 L 962.128906 623.210938 Z M 962.128906 632.320313 L 959.871094 632.320313 L 959.871094 641.441406 L 962.128906 641.441406 Z M 962.128906 650.558594 L 959.871094 650.558594 L 959.871094 659.679688 L 962.128906 659.679688 Z M 962.128906 668.789063 L 959.871094 668.789063 L 959.871094 677.910156 L 962.128906 677.910156 Z M 962.128906 687.03125 L 959.871094 687.03125 L 959.871094 696.148438 L 962.128906 696.148438 Z M 962.128906 705.269531 L 959.871094 705.269531 L 959.871094 714.378906 L 962.128906 714.378906 Z M 962.128906 723.5 L 959.871094 723.5 L 959.871094 732.621094 L 962.128906 732.621094 Z M 962.128906 741.738281 L 959.871094 741.738281 L 959.871094 750.851563 L 962.128906 750.851563 Z M 962.128906 759.96875 L 959.871094 759.96875 L 959.871094 764.53125 L 962.128906 764.53125 Z M 961 138 L 954.46875 144.53125 L 961 151.058594 L 967.53125 144.53125 Z M 961 138 "/>
</g>
<path style=" stroke:none;fill-rule:nonzero;fill:rgb(17.298889%,16.099548%,20.399475%);fill-opacity:1;" d="M 619.128906 213.53125 L 616.871094 213.53125 L 616.871094 218.089844 L 619.128906 218.089844 Z M 619.128906 227.199219 L 616.871094 227.199219 L 616.871094 236.320313 L 619.128906 236.320313 Z M 619.128906 245.441406 L 616.871094 245.441406 L 616.871094 254.550781 L 619.128906 254.550781 Z M 619.128906 263.671875 L 616.871094 263.671875 L 616.871094 272.789063 L 619.128906 272.789063 Z M 619.128906 281.898438 L 616.871094 281.898438 L 616.871094 291.019531 L 619.128906 291.019531 Z M 619.128906 300.140625 L 616.871094 300.140625 L 616.871094 309.25 L 619.128906 309.25 Z M 619.128906 318.371094 L 616.871094 318.371094 L 616.871094 327.488281 L 619.128906 327.488281 Z M 619.128906 336.601563 L 616.871094 336.601563 L 616.871094 345.71875 L 619.128906 345.71875 Z M 619.128906 354.839844 L 616.871094 354.839844 L 616.871094 363.949219 L 619.128906 363.949219 Z M 619.128906 373.070313 L 616.871094 373.070313 L 616.871094 382.191406 L 619.128906 382.191406 Z M 619.128906 391.300781 L 616.871094 391.300781 L 616.871094 400.421875 L 619.128906 400.421875 Z M 619.128906 409.539063 L 616.871094 409.539063 L 616.871094 418.648438 L 619.128906 418.648438 Z M 619.128906 427.769531 L 616.871094 427.769531 L 616.871094 436.890625 L 619.128906 436.890625 Z M 619.128906 446 L 616.871094 446 L 616.871094 455.121094 L 619.128906 455.121094 Z M 619.128906 464.238281 L 616.871094 464.238281 L 616.871094 473.351563 L 619.128906 473.351563 Z M 619.128906 482.46875 L 616.871094 482.46875 L 616.871094 491.589844 L 619.128906 491.589844 Z M 619.128906 500.699219 L 616.871094 500.699219 L 616.871094 509.820313 L 619.128906 509.820313 Z M 619.128906 518.941406 L 616.871094 518.941406 L 616.871094 528.050781 L 619.128906 528.050781 Z M 619.128906 537.171875 L 616.871094 537.171875 L 616.871094 546.289063 L 619.128906 546.289063 Z M 619.128906 555.398438 L 616.871094 555.398438 L 616.871094 564.519531 L 619.128906 564.519531 Z M 619.128906 573.640625 L 616.871094 573.640625 L 616.871094 582.75 L 619.128906 582.75 Z M 619.128906 591.871094 L 616.871094 591.871094 L 616.871094 600.988281 L 619.128906 600.988281 Z M 619.128906 610.101563 L 616.871094 610.101563 L 616.871094 619.21875 L 619.128906 619.21875 Z M 619.128906 628.339844 L 616.871094 628.339844 L 616.871094 637.449219 L 619.128906 637.449219 Z M 619.128906 646.570313 L 616.871094 646.570313 L 616.871094 655.691406 L 619.128906 655.691406 Z M 619.128906 664.800781 L 616.871094 664.800781 L 616.871094 673.921875 L 619.128906 673.921875 Z M 619.128906 683.039063 L 616.871094 683.039063 L 616.871094 692.148438 L 619.128906 692.148438 Z M 619.128906 701.269531 L 616.871094 701.269531 L 616.871094 710.390625 L 619.128906 710.390625 Z M 619.128906 719.5 L 616.871094 719.5 L 616.871094 728.621094 L 619.128906 728.621094 Z M 619.128906 737.738281 L 616.871094 737.738281 L 616.871094 746.851563 L 619.128906 746.851563 Z M 619.128906 755.96875 L 616.871094 755.96875 L 616.871094 760.53125 L 619.128906 760.53125 Z M 618 207 L 611.46875 213.53125 L 618 220.058594 L 624.53125 213.53125 Z M 618 207 "/>
<g clip-path="url(#clip32)" clip-rule="nonzero">
<path style=" stroke:none;fill-rule:nonzero;fill:rgb(17.298889%,16.099548%,20.399475%);fill-opacity:1;" d="M 276.128906 282.53125 L 273.871094 282.53125 L 273.871094 286.988281 L 276.128906 286.988281 Z M 276.128906 295.921875 L 273.871094 295.921875 L 273.871094 304.839844 L 276.128906 304.839844 Z M 276.128906 313.769531 L 273.871094 313.769531 L 273.871094 322.699219 L 276.128906 322.699219 Z M 276.128906 331.621094 L 273.871094 331.621094 L 273.871094 340.550781 L 276.128906 340.550781 Z M 276.128906 349.46875 L 273.871094 349.46875 L 273.871094 358.398438 L 276.128906 358.398438 Z M 276.128906 367.328125 L 273.871094 367.328125 L 273.871094 376.25 L 276.128906 376.25 Z M 276.128906 385.179688 L 273.871094 385.179688 L 273.871094 394.101563 L 276.128906 394.101563 Z M 276.128906 403.03125 L 273.871094 403.03125 L 273.871094 411.960938 L 276.128906 411.960938 Z M 276.128906 420.878906 L 273.871094 420.878906 L 273.871094 429.808594 L 276.128906 429.808594 Z M 276.128906 438.730469 L 273.871094 438.730469 L 273.871094 447.660156 L 276.128906 447.660156 Z M 276.128906 456.589844 L 273.871094 456.589844 L 273.871094 465.511719 L 276.128906 465.511719 Z M 276.128906 474.441406 L 273.871094 474.441406 L 273.871094 483.359375 L 276.128906 483.359375 Z M 276.128906 492.289063 L 273.871094 492.289063 L 273.871094 501.21875 L 276.128906 501.21875 Z M 276.128906 510.140625 L 273.871094 510.140625 L 273.871094 519.070313 L 276.128906 519.070313 Z M 276.128906 527.988281 L 273.871094 527.988281 L 273.871094 536.921875 L 276.128906 536.921875 Z M 276.128906 545.839844 L 273.871094 545.839844 L 273.871094 554.769531 L 276.128906 554.769531 Z M 276.128906 563.699219 L 273.871094 563.699219 L 273.871094 572.621094 L 276.128906 572.621094 Z M 276.128906 581.550781 L 273.871094 581.550781 L 273.871094 590.46875 L 276.128906 590.46875 Z M 276.128906 599.398438 L 273.871094 599.398438 L 273.871094 608.328125 L 276.128906 608.328125 Z M 276.128906 617.25 L 273.871094 617.25 L 273.871094 626.179688 L 276.128906 626.179688 Z M 276.128906 635.101563 L 273.871094 635.101563 L 273.871094 644.03125 L 276.128906 644.03125 Z M 276.128906 652.960938 L 273.871094 652.960938 L 273.871094 661.878906 L 276.128906 661.878906 Z M 276.128906 670.808594 L 273.871094 670.808594 L 273.871094 679.730469 L 276.128906 679.730469 Z M 276.128906 688.660156 L 273.871094 688.660156 L 273.871094 697.589844 L 276.128906 697.589844 Z M 276.128906 706.511719 L 273.871094 706.511719 L 273.871094 715.441406 L 276.128906 715.441406 Z M 276.128906 724.359375 L 273.871094 724.359375 L 273.871094 733.289063 L 276.128906 733.289063 Z M 276.128906 742.21875 L 273.871094 742.21875 L 273.871094 751.140625 L 276.128906 751.140625 Z M 276.128906 760.070313 L 273.871094 760.070313 L 273.871094 764.53125 L 276.128906 764.53125 Z M 275 276 L 268.46875 282.53125 L 275 289.058594 L 281.53125 282.53125 Z M 275 276 "/>
</g>
</g>
</svg>
